<svg id="Layer_2" data-name="Layer 2" xmlns="http://www.w3.org/2000/svg" viewBox="0 0 781.22 361.16"><defs><style>.cls-1,.cls-3{fill:#b8b8b8;}.cls-1,.cls-2{opacity:0.49;}</style></defs><path class="cls-1" d="M699,336.26c-3.72-3.13-5.48-7.68-4.28-13.28a1.31,1.31,0,0,0-.17-1.06,10.5,10.5,0,0,1-1.45-3.53c-.48-2.59.78-4.11,3.42-4.11a11.66,11.66,0,0,1,3.32.55,1,1,0,0,0,.92-.12,13.28,13.28,0,0,1,19.73,14.8,1.16,1.16,0,0,0,.17,1,10.51,10.51,0,0,1,1.56,3.48,2.89,2.89,0,0,1-2.69,3.84,9.39,9.39,0,0,1-3.8-.36,1.83,1.83,0,0,0-1.54.2C709.61,340.3,703.91,339.93,699,336.26Zm5.37-6c.65.44,1.53,1.06,2.44,1.65a36.74,36.74,0,0,0,7.39,3.7.82.82,0,0,0,.89-.16,12,12,0,1,0-18.53-13.83,1,1,0,0,0,.11,1.08A37.36,37.36,0,0,0,704.4,330.26Zm-8.42-6.2c-1.22,3.76,1,9.12,4.94,11.89,3.53,2.49,9.37,2.84,12.14.71A42.8,42.8,0,0,1,696,324.06Zm-.51-3.31A14.83,14.83,0,0,1,699,316a8.27,8.27,0,0,0-3.09-.31,1.49,1.49,0,0,0-1.5,1.72A7.55,7.55,0,0,0,695.47,320.75Zm20.87,15.45a7.59,7.59,0,0,0,3.43.2c.84-.2,1.25-.64,1.23-1.4a7.29,7.29,0,0,0-1.21-3.37,15,15,0,0,1-1.5,2.47A14.09,14.09,0,0,1,716.34,336.2Z" transform="translate(-8.04 -236.99)"/><path class="cls-1" d="M94.12,258.17c.11-1.91.19-3.83.32-5.74a1.06,1.06,0,0,0-.47-1.07c-1.6-1.2-3.16-2.44-4.74-3.66-.37-.28-.74-.55-.62-1.1s.54-.61,1-.72q2.89-.76,5.79-1.49a1.15,1.15,0,0,0,.93-.84c.64-1.86,1.32-3.71,2-5.55.16-.45.27-1,.88-1s.78.37,1,.75c1,1.62,2.1,3.21,3.09,4.85a1.38,1.38,0,0,0,1.34.73c1.92,0,3.84.11,5.75.18.47,0,1,0,1.21.56s-.16.85-.44,1.19c-1.21,1.49-2.41,3-3.65,4.44a1.35,1.35,0,0,0-.31,1.43c.6,1.9,1.12,3.83,1.68,5.74.12.41.2.79-.15,1.11a1,1,0,0,1-1.12.07c-1.91-.75-3.82-1.47-5.72-2.24a1.09,1.09,0,0,0-1.16.13c-1.57,1.1-3.16,2.17-4.75,3.23-.42.29-.82.77-1.43.43S94.11,258.69,94.12,258.17Zm5.31-18.54c-.65,1.8-1.27,3.44-1.83,5.1a1.46,1.46,0,0,1-1.16,1.06c-.93.21-1.86.46-2.78.71s-1.55.42-2.44.67c1.51,1.17,2.89,2.26,4.29,3.32a1.33,1.33,0,0,1,.63,1.35c0,.32-.06.64-.08,1-.08,1.44-.16,2.88-.24,4.49,1.45-1,2.78-1.82,4-2.76a2.13,2.13,0,0,1,2.47-.3c1.43.66,2.94,1.16,4.57,1.79-.51-1.75-.94-3.33-1.44-4.89a1.79,1.79,0,0,1,.4-2c.7-.73,1.3-1.56,1.93-2.34l1.23-1.51-.09-.27c-1.42,0-2.86-.07-4.28,0a2.72,2.72,0,0,1-2.85-1.64C101.14,242.1,100.27,240.94,99.43,239.63Z" transform="translate(-8.04 -236.99)"/><path class="cls-1" d="M607,556.5c-.64-.12-1.3-.24-2-.38a.57.57,0,0,0-.61.18c-.43.46-.88.89-1.33,1.33-.12.11-.23.25-.42.18s-.2-.23-.22-.39c-.08-.65-.17-1.3-.25-1.95a.47.47,0,0,0-.28-.42c-.59-.28-1.17-.59-1.75-.89-.15-.08-.31-.15-.3-.35s.16-.25.3-.32l1.83-.85a.38.38,0,0,0,.25-.34c.1-.66.22-1.31.32-2,0-.16,0-.33.24-.39s.3.07.41.19c.47.49.93,1,1.39,1.48a.37.37,0,0,0,.37.13c.67-.12,1.34-.22,2-.32.16,0,.33,0,.45.12s0,.29-.06.43c-.32.58-.64,1.16-1,1.74a.42.42,0,0,0,0,.47c.32.61.62,1.22.92,1.83C607.51,556.32,607.38,556.52,607,556.5Zm-6.11-2.68.07.07a7.54,7.54,0,0,0,1,.52,1.15,1.15,0,0,1,.85,1.23,8.36,8.36,0,0,0,.16,1.21l.09,0c.31-.33.64-.64.92-1a1,1,0,0,1,1.19-.36,13,13,0,0,0,1.38.27c-.28-.55-.52-1.06-.78-1.55a.57.57,0,0,1,0-.66c.28-.48.54-1,.81-1.47a.45.45,0,0,0-.28,0c-.48.07-1,.13-1.45.23a.54.54,0,0,1-.56-.2c-.39-.43-.79-.84-1.22-1.29-.1.62-.2,1.19-.28,1.76a.56.56,0,0,1-.34.46C602,553.31,601.46,553.56,600.92,553.82Z" transform="translate(-8.04 -236.99)"/><path class="cls-1" d="M595.12,553.44c-.55-.34-1.13-.68-1.7-1a.56.56,0,0,0-.63,0c-.57.27-1.14.52-1.71.77-.15.07-.31.16-.46,0s-.12-.28-.08-.45c.16-.64.3-1.28.46-1.91a.5.5,0,0,0-.13-.49c-.45-.47-.89-1-1.33-1.44-.11-.13-.23-.25-.15-.43s.23-.18.39-.2c.67,0,1.34-.12,2-.16a.4.4,0,0,0,.36-.23c.32-.58.65-1.15,1-1.73.08-.14.16-.3.36-.29s.26.17.32.32c.26.62.53,1.24.78,1.87a.37.37,0,0,0,.31.25l2,.4c.16,0,.33.07.38.27s-.09.28-.2.38c-.51.43-1,.87-1.52,1.29a.46.46,0,0,0-.17.45c.09.68.16,1.36.23,2C595.64,553.43,595.44,553.58,595.12,553.44Zm-4.79-4.65c0,.06,0,.08,0,.1a7.76,7.76,0,0,0,.78.84,1.17,1.17,0,0,1,.37,1.45,7.92,7.92,0,0,0-.28,1.19l.07.07c.4-.2.83-.38,1.21-.61a1,1,0,0,1,1.23.08c.36.27.78.47,1.21.73-.07-.61-.12-1.17-.2-1.72a.6.6,0,0,1,.25-.62c.43-.35.84-.73,1.27-1.09a.45.45,0,0,0-.26-.11c-.48-.1-1-.22-1.44-.3a.56.56,0,0,1-.46-.37c-.21-.54-.44-1.06-.69-1.64-.31.55-.6,1-.88,1.55a.52.52,0,0,1-.47.31Z" transform="translate(-8.04 -236.99)"/><path class="cls-1" d="M598.58,566.16c-.38-.24-.78-.47-1.17-.72a.38.38,0,0,0-.43,0c-.39.19-.78.36-1.18.54-.1,0-.2.11-.31,0s-.08-.2,0-.31c.11-.44.2-.88.31-1.32a.32.32,0,0,0-.09-.33c-.31-.32-.61-.66-.91-1-.08-.09-.16-.17-.11-.3s.16-.12.27-.13l1.39-.11a.28.28,0,0,0,.24-.16c.22-.4.45-.79.68-1.19,0-.1.1-.2.24-.2s.18.12.22.22c.18.43.37.85.54,1.28a.25.25,0,0,0,.21.18c.46.08.91.18,1.36.27.11,0,.23,0,.26.18s-.06.2-.14.27l-1,.89a.29.29,0,0,0-.11.3c.06.47.11.93.15,1.4C598.94,566.15,598.8,566.25,598.58,566.16ZM595.29,563s0,0,0,.06a4.86,4.86,0,0,0,.53.58.8.8,0,0,1,.26,1,5.31,5.31,0,0,0-.19.81l.05.05c.27-.14.56-.26.83-.42a.65.65,0,0,1,.84.06c.25.18.54.32.83.49-.05-.41-.08-.8-.13-1.18a.4.4,0,0,1,.17-.42l.87-.75a.27.27,0,0,0-.18-.07l-1-.21a.35.35,0,0,1-.31-.26c-.15-.36-.31-.72-.48-1.12-.21.38-.41.72-.6,1.07a.38.38,0,0,1-.33.21Z" transform="translate(-8.04 -236.99)"/><g class="cls-2"><path class="cls-3" d="M679.64,306.09c-.65,0-1.32-.1-2-.17a.57.57,0,0,0-.59.24c-.38.5-.79,1-1.18,1.46-.11.13-.2.28-.4.23s-.23-.2-.27-.37c-.14-.64-.3-1.27-.45-1.91a.45.45,0,0,0-.33-.38c-.61-.22-1.22-.47-1.83-.7-.15-.06-.32-.12-.33-.32s.13-.26.26-.35l1.73-1a.38.38,0,0,0,.22-.36c0-.67.07-1.33.11-2,0-.17,0-.34.19-.42s.31,0,.43.14c.51.44,1,.88,1.53,1.33a.38.38,0,0,0,.39.08l2-.52c.16,0,.32-.09.45.07s.05.29,0,.43c-.26.61-.51,1.23-.78,1.84a.43.43,0,0,0,0,.47c.38.57.75,1.14,1.11,1.72C680.09,305.86,680,306.07,679.64,306.09Zm-6.37-2,.08.07a8.27,8.27,0,0,0,1.08.41,1.15,1.15,0,0,1,1,1.13,8.09,8.09,0,0,0,.28,1.18l.1,0c.27-.37.57-.71.81-1.09a1,1,0,0,1,1.14-.48c.44.08.9.08,1.4.12-.33-.52-.62-1-.94-1.45a.61.61,0,0,1-.06-.67c.23-.51.44-1,.65-1.54a.4.4,0,0,0-.27,0c-.48.12-1,.23-1.43.38a.53.53,0,0,1-.57-.14c-.43-.38-.87-.75-1.35-1.16,0,.63-.08,1.21-.1,1.78a.55.55,0,0,1-.29.5Z" transform="translate(-8.04 -236.99)"/><path class="cls-3" d="M667.47,304.31c-.59-.28-1.2-.55-1.8-.86a.59.59,0,0,0-.64,0c-.53.33-1.08.64-1.62.95-.14.09-.28.19-.45.08s-.14-.27-.12-.44c.08-.65.16-1.3.25-1.95a.48.48,0,0,0-.18-.47c-.5-.42-1-.86-1.47-1.3-.13-.11-.26-.22-.21-.41s.22-.2.37-.23l2-.38a.41.41,0,0,0,.33-.26c.26-.62.53-1.22.79-1.83.07-.15.13-.31.33-.33s.27.15.35.29c.33.59.66,1.18,1,1.77a.36.36,0,0,0,.33.22l2,.19c.16,0,.33,0,.4.22s-.06.29-.16.41l-1.37,1.45a.41.41,0,0,0-.12.45c.15.67.3,1.34.44,2C668,304.25,667.8,304.41,667.47,304.31Zm-5.26-4.11c0,.05,0,.07,0,.08a8.93,8.93,0,0,0,.86.77,1.13,1.13,0,0,1,.52,1.4,9.37,9.37,0,0,0-.15,1.2l.08.07c.38-.25.78-.47,1.14-.74a1,1,0,0,1,1.24-.05,13.7,13.7,0,0,0,1.27.6c-.13-.6-.24-1.15-.38-1.69a.63.63,0,0,1,.18-.65c.4-.39.77-.8,1.15-1.21a.41.41,0,0,0-.27-.08c-.49,0-1-.11-1.46-.14a.55.55,0,0,1-.5-.33c-.26-.51-.55-1-.85-1.56-.26.58-.5,1.11-.72,1.64a.52.52,0,0,1-.44.36Z" transform="translate(-8.04 -236.99)"/><path class="cls-3" d="M672.26,316.59c-.41-.19-.83-.38-1.24-.59a.39.39,0,0,0-.44,0c-.36.23-.74.44-1.11.65-.1.06-.19.13-.31.06s-.1-.19-.08-.31c.06-.44.11-.89.17-1.34a.32.32,0,0,0-.12-.32c-.35-.29-.68-.59-1-.89-.08-.08-.17-.15-.13-.28s.14-.14.25-.16l1.36-.26a.27.27,0,0,0,.23-.18c.18-.42.36-.84.55-1.26,0-.1.08-.21.22-.22s.19.1.24.2c.23.4.45.81.67,1.21a.24.24,0,0,0,.23.15l1.38.13c.12,0,.23,0,.28.16s0,.2-.11.27c-.31.34-.62.67-.94,1a.3.3,0,0,0-.08.31l.3,1.38C672.61,316.55,672.48,316.66,672.26,316.59Zm-3.62-2.83s0,.06,0,.06a7.23,7.23,0,0,0,.59.53.79.79,0,0,1,.36,1,5.54,5.54,0,0,0-.1.83l.05,0c.26-.17.54-.32.78-.5a.68.68,0,0,1,.85,0,9,9,0,0,0,.88.41c-.09-.41-.17-.79-.26-1.16a.41.41,0,0,1,.12-.44c.27-.27.53-.56.79-.84a.28.28,0,0,0-.18-.05c-.34,0-.67-.08-1-.1a.38.38,0,0,1-.34-.22c-.18-.35-.38-.7-.59-1.07-.17.4-.34.76-.49,1.12a.37.37,0,0,1-.3.25Z" transform="translate(-8.04 -236.99)"/></g><g class="cls-2"><path class="cls-3" d="M411.29,292.76c-.13-.39-.27-.8-.39-1.21a.36.36,0,0,0-.29-.28c-.39-.1-.77-.22-1.15-.33-.1,0-.21-.05-.24-.17s.07-.19.15-.25l1-.74a.29.29,0,0,0,.14-.29c0-.41,0-.83,0-1.25,0-.1,0-.21.11-.27s.18,0,.26.07c.35.25.7.49,1.05.75a.23.23,0,0,0,.26,0l1.19-.43c.1,0,.2-.08.3,0s.05.19,0,.29l-.39,1.22a.23.23,0,0,0,.05.25l.79,1c.06.08.13.16.07.28s-.15.1-.25.1h-1.27a.27.27,0,0,0-.26.15l-.73,1.08C411.54,293,411.39,293,411.29,292.76Zm-.41-4.23s0,.05,0,.06a6,6,0,0,0,0,.74.73.73,0,0,1-.41.85,4.61,4.61,0,0,0-.63.46v.06a7.9,7.9,0,0,0,.84.2.63.63,0,0,1,.56.55,8.41,8.41,0,0,0,.28.85c.22-.32.43-.61.62-.91a.36.36,0,0,1,.37-.2c.36,0,.71,0,1.07,0a.31.31,0,0,0-.08-.15c-.2-.25-.38-.5-.58-.74a.36.36,0,0,1-.07-.37c.12-.35.23-.7.35-1.08l-1.07.39a.34.34,0,0,1-.36-.05Z" transform="translate(-8.04 -236.99)"/><path class="cls-3" d="M409.3,285.2c0-.42,0-.84.05-1.27a.37.37,0,0,0-.18-.37c-.33-.22-.64-.47-1-.71-.09-.06-.18-.11-.16-.24s.12-.15.23-.18l1.2-.34a.32.32,0,0,0,.23-.22c.12-.4.26-.8.39-1.19,0-.1.07-.21.19-.22s.17.07.23.16l.72,1.06a.24.24,0,0,0,.23.13h1.27c.11,0,.21,0,.27.11s0,.19-.08.28l-.79,1a.23.23,0,0,0,0,.25l.39,1.22c0,.1.07.21,0,.29s-.18,0-.28,0c-.39-.14-.79-.28-1.19-.44a.26.26,0,0,0-.29.05l-1.06.76C409.46,285.48,409.32,285.41,409.3,285.2Zm1.09-4.11,0,.05a4.41,4.41,0,0,0-.23.7.72.72,0,0,1-.69.65,4.83,4.83,0,0,0-.74.22l0,.06c.24.16.46.34.71.48a.62.62,0,0,1,.34.71,8.72,8.72,0,0,0,0,.9c.32-.23.61-.43.89-.65a.39.39,0,0,1,.43,0c.32.13.66.24,1,.36a.2.2,0,0,0,0-.17c-.09-.3-.17-.6-.28-.89a.33.33,0,0,1,.07-.37l.69-.89c-.4,0-.77,0-1.13,0A.34.34,0,0,1,411,282C410.81,281.71,410.6,281.41,410.39,281.09Z" transform="translate(-8.04 -236.99)"/><path class="cls-3" d="M403.31,291.07l0-.88a.24.24,0,0,0-.12-.25c-.22-.15-.44-.32-.66-.48-.05,0-.12-.08-.11-.17s.09-.11.16-.13l.83-.23a.18.18,0,0,0,.15-.15l.27-.82c0-.07.05-.14.13-.15s.12.05.16.11c.17.24.33.49.49.73a.18.18,0,0,0,.17.09h.87c.07,0,.14,0,.18.07s0,.14-.05.19c-.18.23-.36.47-.55.7a.17.17,0,0,0,0,.17c.1.28.18.56.27.84,0,.07.05.14,0,.2s-.12,0-.19,0l-.81-.3a.2.2,0,0,0-.21,0l-.73.52C403.42,291.26,403.32,291.22,403.31,291.07Zm.75-2.82,0,0a4.42,4.42,0,0,0-.15.48.51.51,0,0,1-.48.45,3.28,3.28,0,0,0-.51.15v0c.16.11.32.23.49.33a.43.43,0,0,1,.23.49c0,.19,0,.39,0,.61.22-.15.42-.29.61-.44a.28.28,0,0,1,.29,0l.69.25c0-.05,0-.08,0-.12-.07-.2-.13-.41-.2-.61a.23.23,0,0,1,.05-.25l.48-.62h-.78a.22.22,0,0,1-.22-.12Z" transform="translate(-8.04 -236.99)"/></g><path class="cls-1" d="M733.52,349.84c-.41-.19-.83-.38-1.24-.59a.39.39,0,0,0-.44,0c-.36.23-.74.44-1.11.66-.1.05-.2.13-.31.05s-.1-.19-.08-.3c0-.45.1-.9.17-1.34a.33.33,0,0,0-.13-.32l-1-.89c-.08-.08-.18-.16-.14-.29s.15-.14.26-.16l1.36-.26a.27.27,0,0,0,.23-.18c.17-.42.36-.83.54-1.25,0-.11.09-.22.23-.23s.19.1.24.2l.67,1.22a.25.25,0,0,0,.23.15l1.38.13c.11,0,.23,0,.28.15s0,.2-.11.28c-.32.33-.62.67-.94,1a.3.3,0,0,0-.09.32c.11.45.21.91.31,1.37C733.87,349.8,733.74,349.91,733.52,349.84ZM729.9,347a.19.19,0,0,0,0,.06,5.92,5.92,0,0,0,.59.52.79.79,0,0,1,.36,1,5.7,5.7,0,0,0-.1.83l.05,0a7.94,7.94,0,0,0,.78-.5.66.66,0,0,1,.85,0c.27.15.56.26.87.4-.09-.41-.16-.78-.25-1.15a.42.42,0,0,1,.12-.45c.27-.27.52-.55.79-.83a.3.3,0,0,0-.19-.06l-1-.09a.37.37,0,0,1-.34-.23l-.59-1.07c-.18.4-.34.76-.49,1.13a.36.36,0,0,1-.3.24Z" transform="translate(-8.04 -236.99)"/><path class="cls-1" d="M567.1,300.43A5.58,5.58,0,0,0,564,299.1c-.14-1.13-.29-2.25-.47-3.35-.07-.49-.12-1-.16-1.48s-.12-1.25-.24-1.89c-.39-2.06-.66-4.19-.91-6.24-.08-.57-.15-1.15-.23-1.72a6.36,6.36,0,0,0,2.42-1.84,5,5,0,0,0-5.56-7.81,4.88,4.88,0,0,0-3.49,5,5.78,5.78,0,0,0,.14,1.06L544,285.84l-3.38,1.5-.91.41a5.36,5.36,0,0,0-4.72-2.11,5.76,5.76,0,0,0-4.6,3.71c-.86-.15-1.72-.22-2.55-.29s-1.58-.13-2.33-.26a.59.59,0,0,1,0-.17c-.46-3.32-2.1-5.27-5-6a6.95,6.95,0,0,0-7.79,3.67l-4.89-1.52v-.09a12.55,12.55,0,0,1-.07-1.34,6.65,6.65,0,0,0-13.16-1,6.18,6.18,0,0,0,1.87,6.13l.1.08a2.68,2.68,0,0,0,.26.37c-.72,1.33-1.56,2.64-2.38,3.9-.2,0-.4-.07-.61-.09a7.31,7.31,0,0,0-3.32.28c-.58-1-1.24-1.95-1.89-2.86s-1.13-1.62-1.62-2.45a6,6,0,0,0,1.38-3.54,1.48,1.48,0,0,0,0-.21v-.12a5,5,0,0,0-5.57-4.71,5.23,5.23,0,0,0-4.54,5.31,5,5,0,0,0,5.14,4.7l.42,0a5.06,5.06,0,0,0,1.61-.35c.53.86,1.09,1.69,1.66,2.48a30.4,30.4,0,0,1,1.87,2.86,5.55,5.55,0,0,0-1.26,3.28,4.61,4.61,0,0,0,2.76,4.76,5.56,5.56,0,0,0,2.62.58,4.76,4.76,0,0,0,2.75-1.25,4.87,4.87,0,0,0,1.67-5.34,5.43,5.43,0,0,0-1.27-2.05l-.2-.25c.82-1.26,1.64-2.55,2.38-3.9l.47.15a7.92,7.92,0,0,0,2.69.3,6.69,6.69,0,0,0,5.56-3.67l.08-.17,4.93,1.53a6.81,6.81,0,0,0,.75,3.93,6.11,6.11,0,0,0,6,3.7h.23a6.29,6.29,0,0,0,6.08-4.7,1.72,1.72,0,0,1,.18-.36c.77.12,1.55.2,2.3.26a22.81,22.81,0,0,1,2.55.3,5.44,5.44,0,0,0,1.39,2.67,5,5,0,0,0,3.64,1.74h.26l.32-.05,2.7,9.43-.27.19a5.45,5.45,0,0,0-1.65,1.52,5,5,0,0,0,.11,5.81,4.67,4.67,0,0,0,4.34,2.08,7.73,7.73,0,0,0,1.11-.15c2.13-.45,3.47-2.64,3.69-4.57a4.26,4.26,0,0,0,0-.5L559,306.21a5,5,0,0,0,.69,1,5.12,5.12,0,0,0,4.27,2c.23,0,.45-.05.68-.09a5,5,0,0,0,4-3.9A4.79,4.79,0,0,0,567.1,300.43Zm-83.74-13.14a3.11,3.11,0,0,1-3.26-3,3.38,3.38,0,0,1,2.83-3.28H483a3.13,3.13,0,0,1,3.41,3.06C486.16,287,484.55,287.29,483.36,287.29Zm11.2,12.8c-1,.83-1.75,1.11-3.36.38a2.74,2.74,0,0,1-1.67-2.86,3.48,3.48,0,0,1,1-2.45,2.88,2.88,0,0,1,1.67-.55,8.38,8.38,0,0,1,1.39,0l.66.1h0l.5.6a4,4,0,0,1,.88,1.34A3,3,0,0,1,494.56,300.09Zm10.92-14.33-.05.11a4.91,4.91,0,0,1-6.08,2.44c-.74-.21-1-.35-1.23-.71a1.36,1.36,0,0,0-.45-.49,4.33,4.33,0,0,1-1.27-4.35,4.5,4.5,0,0,1,4.34-3.8,6,6,0,0,1,.85,0,4.58,4.58,0,0,1,4.23,4.4c0,.52,0,1,.08,1.51,0,.07,0,.15,0,.22A2.62,2.62,0,0,0,505.48,285.76Zm17.93,4.71a4.48,4.48,0,0,1-4.58,3.4,4.25,4.25,0,0,1-4.29-2.65,4.2,4.2,0,0,1,.31-4.84,4.74,4.74,0,0,1,3.52-2,5.31,5.31,0,0,1,1.65.16c2.16.51,3.23,1.83,3.58,4.39a3.62,3.62,0,0,0,.21.76A3.68,3.68,0,0,0,523.41,290.47Zm36.06-13.94a2,2,0,0,1,.51-.1,3.71,3.71,0,0,1,2.93,1.31,3.5,3.5,0,0,1,0,3.71,4.83,4.83,0,0,1-2,1.39h0a2.76,2.76,0,0,0-.68-.15c-2-.19-2.9-1.13-3-3.06A3.08,3.08,0,0,1,559.47,276.53Zm-24.26,17.24a3.21,3.21,0,0,1-2.2-1.14,3.1,3.1,0,0,1-.94-2.21,3.77,3.77,0,0,1,3.1-2.91h.12a3.62,3.62,0,0,1,3.19,1.72l.06.87a3.59,3.59,0,0,1-.73,2.71A3.55,3.55,0,0,1,535.21,293.77Zm8.8,15.91a3.4,3.4,0,0,1-2.2,2.94,3,3,0,0,1-3.55-1.19,3.21,3.21,0,0,1,0-3.68,3.71,3.71,0,0,1,1.11-1l.58-.4a2,2,0,0,0,.75.08,2.79,2.79,0,0,1,2.43.93A2.62,2.62,0,0,1,544,309.68Zm-3.51-5.1-.12,0-2.7-9.41a4.42,4.42,0,0,0,1.52-1.08,5.44,5.44,0,0,0,1.22-4.09l0-.46,1-.45,3.37-1.5,11.42-5a4.92,4.92,0,0,0,3.84,2h.06c.07.6.15,1.2.23,1.8.26,2.09.53,4.24.93,6.36.1.55.15,1.12.21,1.72s.1,1.07.18,1.6c.18,1.07.32,2.17.46,3.28l-.38.15a5.05,5.05,0,0,0-2.91,3.3,5.39,5.39,0,0,0-.24,1.59l-13,3.19a5.32,5.32,0,0,0-1.06-1.48A4.7,4.7,0,0,0,540.5,304.58Zm26.28.16a3.18,3.18,0,0,1-5.7,1.27,2.6,2.6,0,0,1-.48-2.69,3.2,3.2,0,0,1,1.86-2.11l.68-.28.11,0,.35.06a4,4,0,0,1,2.19.84A2.91,2.91,0,0,1,566.78,304.74Z" transform="translate(-8.04 -236.99)"/><path class="cls-1" d="M110.94,411.66a3.36,3.36,0,0,1,1.21-2.49,3.18,3.18,0,0,1,4.4.36c.28.31.44.33.78.08A27.31,27.31,0,0,1,119.8,408a4,4,0,0,1,4.18-.21,4,4,0,0,1,1.55,5,3.48,3.48,0,0,1-1.19,1.19c-2.32,1.62-4.63,3.24-7,4.84-.34.23-.39.38-.2.76a15.47,15.47,0,0,1,2,6.86c.09,4.44-2.63,7.43-7,7.73a17.19,17.19,0,0,1-8.75-2c-.82-.4-.82-.4-1.43.28-.45.5-.89,1-1.36,1.49-.24.26-.29.45,0,.68a6.28,6.28,0,0,1,.54.49,2.44,2.44,0,0,1-3.22,3.66,3.73,3.73,0,0,1-.36-.32c-.31-.29-.58-.66-1-.11-.19.23-.48.1-.7-.1l-2.72-2.45a.51.51,0,0,1-.07-.8c.29-.29.17-.46-.08-.68-1.16-1-2.31-2.06-3.44-3.11a2.44,2.44,0,0,1,2.76-4,3.1,3.1,0,0,1,.68.51c1.09,1,2.18,2,3.25,2.95.29.27.48.3.73,0A13.26,13.26,0,0,1,98,429.43c.34-.33.33-.54-.05-.85a27.88,27.88,0,0,1-4.85-5c-.43-.57-.82-1.16-1.22-1.76-.15-.24-.25-.37-.6-.21a2,2,0,0,1-2.5-.65,2,2,0,0,1,.22-2.58c.75-.85,1.51-1.71,2.29-2.53a.67.67,0,0,0,.13-.94c-.66-1.15-.64-1.16-1.53-.17a3.36,3.36,0,0,1-.82.73,2,2,0,0,1-2.42-.37,1.93,1.93,0,0,1-.22-2.47,21.55,21.55,0,0,1,1.84-2.11.8.8,0,0,0,.14-1.15c-.6-1-.57-1-1.36-.16a3.61,3.61,0,0,1-.75.71,2,2,0,0,1-2.6-.41,2,2,0,0,1,0-2.57c.58-.68,1.18-1.34,1.8-2a.56.56,0,0,0,.09-.8c-.2-.34-.41-.13-.62-.06a2.29,2.29,0,0,1-2.43-3.68,2.31,2.31,0,0,1,2.73-.53,2.27,2.27,0,0,1,1.19,2.57c0,.23-.18.45.16.6a.54.54,0,0,0,.74-.16c.55-.65,1.13-1.28,1.71-1.9a2,2,0,1,1,3,2.66c-.07.1-.17.18-.24.28-.23.32-.84.7-.69.89.3.42.93.52,1.45.69.24.09.33-.18.47-.31a28.11,28.11,0,0,1,2-2.18A2,2,0,0,1,98,405.71c-.26.34-.56.65-.84,1-.47.52-.47.52.19.8,1.08.45,1.08.45,1.88-.43.63-.7,1.25-1.4,1.88-2.09a2,2,0,0,1,2.6-.43,2,2,0,0,1,.85,2.39c-.07.24-.13.38.17.52a24,24,0,0,1,3.21,1.87A28.41,28.41,0,0,1,110.94,411.66Zm-12.87,2.66c-1.79,2-3.57,4-5.37,5.92a.62.62,0,0,0-.08.89,27.76,27.76,0,0,0,13,10.91,13.57,13.57,0,0,0,7,1.07,6.09,6.09,0,0,0,5.57-6.31,12.57,12.57,0,0,0-1-5A24.52,24.52,0,0,0,112,414a29.32,29.32,0,0,0-7.63-5.7.7.7,0,0,0-1,.2C101.57,410.47,99.82,412.39,98.07,414.32Zm25.86-5.4a2.58,2.58,0,0,0-2.36-.63,4.7,4.7,0,0,0-1.67.73l-6.45,4.47c-.27.19-.32.32-.07.6a23.33,23.33,0,0,1,2.83,3.73c.24.39.39.33.7.11q3.59-2.52,7.19-5a1.84,1.84,0,0,0,.81-1.55A3.2,3.2,0,0,0,123.93,408.92Zm-26.65,4.81,6-6.66a1.06,1.06,0,0,0,.07-1.57,1.08,1.08,0,0,0-1.61.19L89.81,418.91a1.05,1.05,0,0,0,0,1.61c.48.44,1,.36,1.59-.23Q94.32,417,97.28,413.73Zm-4.3-3.9,3.8-4.2c.7-.78.78-1.39.25-1.85s-1.12-.31-1.82.46l-6.33,7c-.53.59-1.08,1.17-1.57,1.78a1,1,0,0,0,.14,1.43,1,1,0,0,0,1.39-.07c.15-.14.28-.29.42-.44Zm5.9,24.43h0c.8-.89,1.6-1.79,2.42-2.66.26-.29.31-.46-.08-.69a16.72,16.72,0,0,1-1.68-1.1c-.27-.2-.43-.19-.65.06-1.53,1.72-3.06,3.43-4.61,5.13-.18.2-.17.32,0,.49.57.5,1.12,1,1.68,1.51.17.16.28.15.44,0C97.24,436.06,98.06,435.16,98.88,434.26ZM88.7,405.9c.85-.93,1.69-1.86,2.53-2.8a1.08,1.08,0,0,0,.06-1.62,1.06,1.06,0,0,0-1.6.22l-5.06,5.61c-.54.6-.57,1.15-.1,1.6s1.09.39,1.64-.21C87,407.77,87.86,406.83,88.7,405.9Zm5.21,24-1.68-1.52a1.46,1.46,0,1,0-2,2.13c1.13,1.05,2.29,2.07,3.43,3.12.26.25.42.2.64-.05.44-.51.88-1,1.35-1.49.28-.29.21-.46-.06-.69C95,430.87,94.47,430.35,93.91,429.85ZM95,411.68l1.84-2c.86-.94.85-.93-.34-1.45a.69.69,0,0,0-.94.2c-1,1.21-2.14,2.38-3.21,3.57-.93,1-.91,1-.22,2.23.19.33.3.35.55.07C93.46,413.39,94.25,412.54,95,411.68Zm17.5-1.52a2.26,2.26,0,0,0-.35,2.49c.16.33.29.37.59.16,1-.7,1.94-1.39,2.93-2.05.38-.25.31-.43,0-.69A2.23,2.23,0,0,0,112.52,410.16ZM98.61,436.05l-.74.81c-.12.14-.26.28-.06.46a4.33,4.33,0,0,0,1.15.89,1.43,1.43,0,0,0,1.82-.66c.43-.77.14-1.6-1-2.33-.64-.42-.67.48-1.06.65C98.7,435.9,98.66,436,98.61,436.05Zm-7.92-28.26,1-1.13c.22-.23.24-.36-.09-.52-1.27-.6-1.26-.62-2.19.41s-.93,1-.23,2.21l0,.05c.13.27.27.32.49.07S90.37,408.15,90.69,407.79Zm-5.5-5.06a1.27,1.27,0,0,0-.07-1.8,1.31,1.31,0,0,0-1.86.09,1.33,1.33,0,0,0,.08,1.82A1.3,1.3,0,0,0,85.19,402.73Z" transform="translate(-8.04 -236.99)"/><path class="cls-1" d="M105.3,420.87c1.12-1.24,2.23-2.48,3.36-3.71a1.91,1.91,0,1,1,2.82,2.56l-6.75,7.47a1.91,1.91,0,1,1-2.82-2.56C103,423.37,104.17,422.12,105.3,420.87Zm.75.63-3.43,3.8a.94.94,0,0,0-.06,1.41c.43.41,1,.36,1.44-.17l6.75-7.47a1.15,1.15,0,0,0,.36-.62.94.94,0,0,0-1.66-.71Z" transform="translate(-8.04 -236.99)"/><path class="cls-1" d="M111,426c.75-.83,1.49-1.66,2.25-2.49a1.89,1.89,0,0,1,2.76-.23,1.92,1.92,0,0,1,0,2.82q-2.22,2.47-4.46,4.93a1.91,1.91,0,1,1-2.84-2.54C109.46,427.69,110.22,426.86,111,426Zm.74.64c-.75.83-1.51,1.66-2.25,2.5-.46.51-.47,1,0,1.39a.92.92,0,0,0,1.43-.16c1.5-1.64,3-3.29,4.46-4.94a.94.94,0,1,0-1.38-1.23C113.17,425,112.44,425.86,111.71,426.67Z" transform="translate(-8.04 -236.99)"/><path class="cls-1" d="M99.58,415.76l2.21-2.44a1.93,1.93,0,1,1,2.84,2.58q-2.17,2.43-4.37,4.85a1.94,1.94,0,1,1-2.85-2.59Zm.76.62-2.21,2.44c-.49.56-.51,1.1-.06,1.5s1,.33,1.44-.2q2.2-2.43,4.4-4.88c.48-.53.49-1.06.08-1.45s-1-.34-1.49.2C101.77,414.78,101.06,415.59,100.34,416.38Z" transform="translate(-8.04 -236.99)"/><path class="cls-1" d="M103.39,450.84c-.59-.27-1.2-.55-1.8-.85a.57.57,0,0,0-.64,0c-.53.34-1.08.64-1.62,1-.14.08-.28.19-.45.08s-.14-.28-.12-.45c.09-.65.16-1.3.25-2a.44.44,0,0,0-.18-.46c-.5-.43-1-.87-1.47-1.3-.13-.12-.26-.23-.2-.42s.21-.2.37-.23c.66-.12,1.32-.26,2-.37a.38.38,0,0,0,.33-.27c.26-.61.53-1.22.8-1.82.07-.15.12-.32.33-.33s.27.14.35.29c.33.59.66,1.18,1,1.77a.36.36,0,0,0,.34.22l2,.19c.16,0,.33,0,.4.22s-.05.29-.16.41c-.45.48-.9,1-1.37,1.44a.46.46,0,0,0-.12.46c.16.67.3,1.34.44,2C103.9,450.79,103.72,451,103.39,450.84Zm-5.26-4.11.05.09a7.76,7.76,0,0,0,.87.76,1.16,1.16,0,0,1,.52,1.4,6.9,6.9,0,0,0-.15,1.21l.07.06c.39-.24.78-.46,1.14-.73a1,1,0,0,1,1.24,0,12.46,12.46,0,0,0,1.27.59c-.13-.6-.24-1.14-.37-1.68a.59.59,0,0,1,.18-.65c.39-.39.76-.81,1.14-1.21a.35.35,0,0,0-.26-.08c-.49-.05-1-.12-1.47-.15a.54.54,0,0,1-.49-.32c-.27-.51-.55-1-.86-1.56-.25.58-.49,1.1-.71,1.64a.54.54,0,0,1-.44.36C99.29,446.5,98.73,446.62,98.13,446.73Z" transform="translate(-8.04 -236.99)"/><path class="cls-1" d="M91.89,454.64c-.65,0-1.32,0-2,0a.56.56,0,0,0-.56.29c-.34.53-.71,1-1.06,1.55-.1.14-.18.29-.38.26s-.25-.18-.3-.35c-.19-.62-.4-1.24-.6-1.87a.46.46,0,0,0-.36-.35c-.63-.17-1.25-.36-1.88-.55-.16-.05-.33-.09-.36-.29s.11-.27.24-.36c.54-.4,1.08-.8,1.64-1.18a.4.4,0,0,0,.18-.38c0-.67,0-1.33,0-2,0-.16,0-.33.16-.43s.31,0,.44.11l1.64,1.19a.35.35,0,0,0,.39.06l1.9-.68c.16,0,.32-.11.46,0s.08.29,0,.43c-.21.64-.41,1.27-.63,1.9a.44.44,0,0,0,.09.46c.42.54.83,1.08,1.24,1.63C92.33,454.37,92.23,454.6,91.89,454.64Zm-6.51-1.5.08.06a8.76,8.76,0,0,0,1.11.32,1.17,1.17,0,0,1,1.07,1.05,8.22,8.22,0,0,0,.37,1.16l.1,0c.24-.38.51-.74.72-1.14a1,1,0,0,1,1.1-.57,13.07,13.07,0,0,0,1.4,0c-.37-.49-.7-.94-1-1.37a.6.6,0,0,1-.11-.66c.19-.52.35-1.06.52-1.59a.46.46,0,0,0-.27,0c-.47.16-.94.31-1.39.49a.53.53,0,0,1-.59-.08c-.45-.35-.92-.68-1.43-1.05,0,.63,0,1.21,0,1.79a.54.54,0,0,1-.24.51Z" transform="translate(-8.04 -236.99)"/><path class="cls-1" d="M115.85,458.35c-.38-.23-.78-.46-1.17-.71a.39.39,0,0,0-.44,0c-.38.19-.78.36-1.17.53-.11.05-.21.11-.32,0s-.08-.19,0-.31c.11-.43.2-.87.31-1.31a.3.3,0,0,0-.08-.33c-.32-.33-.61-.66-.92-1-.07-.08-.16-.17-.1-.29s.16-.13.26-.13l1.39-.12a.24.24,0,0,0,.24-.15c.22-.4.45-.8.68-1.19.06-.1.11-.21.24-.2s.18.12.23.22c.18.43.36.85.53,1.28a.26.26,0,0,0,.21.18c.46.08.91.18,1.37.27.11,0,.22,0,.25.18s0,.2-.14.26c-.34.3-.68.6-1,.89a.3.3,0,0,0-.12.31c.06.47.11.93.16,1.4C116.2,458.35,116.06,458.45,115.85,458.35Zm-3.3-3.19s0,.06,0,.07a7.41,7.41,0,0,0,.54.58.8.8,0,0,1,.25,1,5.74,5.74,0,0,0-.19.82l0,.05c.28-.14.56-.26.83-.42a.68.68,0,0,1,.85.05,7.14,7.14,0,0,0,.82.5c0-.42-.08-.8-.13-1.18a.39.39,0,0,1,.17-.42c.3-.24.58-.5.87-.75a.36.36,0,0,0-.18-.08l-1-.2a.38.38,0,0,1-.31-.26c-.15-.37-.3-.73-.47-1.12-.22.37-.42.72-.61,1.06a.36.36,0,0,1-.33.22Z" transform="translate(-8.04 -236.99)"/><path class="cls-1" d="M617.07,428.56a21.4,21.4,0,0,1-.36,4.45.62.62,0,0,0,.28.75,4.63,4.63,0,0,1-3.68,8.34c-.35-.08-.5.06-.69.3a22.14,22.14,0,0,1-39.68-11,21.67,21.67,0,0,1,2.44-12.54.65.65,0,0,0-.08-.87,6.82,6.82,0,0,1,10-9.28.64.64,0,0,0,.86.17,22.12,22.12,0,0,1,30.51,15.91A20.18,20.18,0,0,1,617.07,428.56Zm-42.33.38a19.35,19.35,0,0,0,3.1,10.85c4.82,7.23,11.62,10.4,20.25,9.25A19.33,19.33,0,0,0,611,441.43c.24-.29.2-.46,0-.74a4.64,4.64,0,0,1,3.47-7.78c.33,0,.43-.1.47-.38.07-.62.19-1.23.23-1.85.39-6.83-1.89-12.62-7.16-17-6.2-5.13-13.19-6.11-20.72-3.24-.33.13-.46.23-.3.63a6.83,6.83,0,0,1-9.31,8.67c-.36-.18-.5-.11-.67.23A20.54,20.54,0,0,0,574.74,428.94Zm10.73-15.33a4.92,4.92,0,1,0-4.94,4.92A4.91,4.91,0,0,0,585.47,413.61Zm28.91,21.23a2.74,2.74,0,1,0,0,5.48,2.74,2.74,0,1,0,0-5.48Z" transform="translate(-8.04 -236.99)"/><path class="cls-1" d="M582.46,429.09a12.49,12.49,0,1,1,12.45,12.53A12.52,12.52,0,0,1,582.46,429.09Zm1.93,0A10.57,10.57,0,1,0,595,418.54,10.58,10.58,0,0,0,584.39,429.1Z" transform="translate(-8.04 -236.99)"/><path class="cls-1" d="M139.36,504.12a19.27,19.27,0,0,1,4.73.63.85.85,0,0,0,.85-.21,14.19,14.19,0,0,1,3.33-2.13,1,1,0,0,0,.61-.83,17,17,0,0,1,1.68-4.94,5.55,5.55,0,0,1,1.35-1.7,2.77,2.77,0,0,1,3.46-.16,7.78,7.78,0,0,1,2,2.2,20,20,0,0,1,1.88,3.79.82.82,0,0,0,.62.56,16.39,16.39,0,0,1,6.83,3.75.75.75,0,0,0,.74.2,17.36,17.36,0,0,1,5.33-.37,6.94,6.94,0,0,1,1.62.38,2.84,2.84,0,0,1,1.88,3.7,10.59,10.59,0,0,1-2.54,4.16c-.53.6-1.34,1.06-1.6,1.75a6.91,6.91,0,0,0,0,2.35,14,14,0,0,1-.23,2.89.87.87,0,0,0,.28.88,18.33,18.33,0,0,1,2.84,3.72A6.64,6.64,0,0,1,176,527a2.83,2.83,0,0,1-2.12,3.38,9.85,9.85,0,0,1-4.32.18,19.08,19.08,0,0,1-2.57-.49.8.8,0,0,0-.81.18,14,14,0,0,1-3.37,2.16.94.94,0,0,0-.58.79,17.08,17.08,0,0,1-1.69,5,6.34,6.34,0,0,1-.95,1.31,2.88,2.88,0,0,1-4.15.34,8.52,8.52,0,0,1-2-2.33,21,21,0,0,1-1.72-3.5.75.75,0,0,0-.56-.53,16.21,16.21,0,0,1-6.71-3.65,1.05,1.05,0,0,0-1-.28,16.13,16.13,0,0,1-5.71.28,6.15,6.15,0,0,1-.87-.22,2.92,2.92,0,0,1-2.05-3.9,10.22,10.22,0,0,1,2.11-3.58,17.89,17.89,0,0,1,1.84-1.95.76.76,0,0,0,.26-.73,15.12,15.12,0,0,1,.11-4.84.78.78,0,0,0-.25-.78,18.39,18.39,0,0,1-3-3.84,5.83,5.83,0,0,1-.85-2.68,2.72,2.72,0,0,1,1.61-2.66A6,6,0,0,1,139.36,504.12Zm16.38,6.41c0,.14-.07.23-.09.32a4.72,4.72,0,0,1-6,3.57c-.43-.11-.4.09-.4.38a48.2,48.2,0,0,0,.47,6.35c.05.36.12.53.52.61a2.88,2.88,0,0,1,.93,5.3c-.26.17-.36.31-.28.62.38,1.56.81,3.09,1.32,4.61a.63.63,0,0,0,.6.47,16.41,16.41,0,0,0,5.28,0,15.72,15.72,0,0,0,12.46-11.35.65.65,0,0,0-.21-.73q-1.8-1.71-3.76-3.24A72.31,72.31,0,0,0,155.74,510.53Zm-7.67,3.93a.38.38,0,0,0-.1,0,53.29,53.29,0,0,0-7.51,5.6.58.58,0,0,0-.15.65,15.51,15.51,0,0,0,8.87,10.89,7.3,7.3,0,0,0,1.88.66,39.23,39.23,0,0,1-1.15-4.08c-.1-.48-.24-.72-.77-.8a2.87,2.87,0,0,1-.94-5.27.78.78,0,0,0,.45-.92,42.53,42.53,0,0,1-.49-6.28C148.16,514.78,148.21,514.6,148.07,514.46Zm22.83,5.18a5.08,5.08,0,0,0,.1-.54,15.62,15.62,0,0,0-3.59-11.75c-.48-.58-.93-.88-1.68-.56a6.69,6.69,0,0,1-1.19.3c-.23.05-.32.15-.33.41a2.83,2.83,0,0,1-2,2.82,2.87,2.87,0,0,1-3.24-1c-.1-.12-.18-.27-.39-.24a8.73,8.73,0,0,0-2,.67A68.2,68.2,0,0,1,170.9,519.64Zm-5.3-14a.89.89,0,0,0-.36-.4,15.47,15.47,0,0,0-14.6-2.63c-.66.19-1,.47-1,1.2a4.69,4.69,0,0,1-.14,1.11c-.07.36.08.35.35.3a4.7,4.7,0,0,1,5.69,3.2c.11.32.22.34.51.24a19.49,19.49,0,0,1,2-.61c.33-.08.43-.2.44-.55a2.72,2.72,0,0,1,1.71-2.59,2.46,2.46,0,0,1,3,.42,1.68,1.68,0,0,0,2.13.41Zm-18.32,1.17c-.65-.2-1.27-.36-1.85-.58a.83.83,0,0,0-1,.27,15.54,15.54,0,0,0-4.34,9,10.42,10.42,0,0,0,0,3.39l.19-.11a53.23,53.23,0,0,1,7.14-5.27c.28-.17.24-.27,0-.49a4.69,4.69,0,0,1-1.16-4A5.42,5.42,0,0,1,147.28,506.83Zm3.72-.62a3.65,3.65,0,1,0,3.64,3.67A3.67,3.67,0,0,0,151,506.21Zm16.47,22.85a19.21,19.21,0,0,0,3.43.54,6.59,6.59,0,0,0,2.75-.31,1.7,1.7,0,0,0,1.2-2.15c-.46-2.09-1.85-3.59-3.25-5.2A17.26,17.26,0,0,1,167.47,529.06Zm4.32-15.45a15.27,15.27,0,0,0,3.17-4.1,4.27,4.27,0,0,0,.33-1,1.72,1.72,0,0,0-1.09-2.11,5.59,5.59,0,0,0-1.85-.41,16.88,16.88,0,0,0-4.38.34A17.25,17.25,0,0,1,171.79,513.61Zm-28.19-7.85c-.72-.14-1.29-.27-1.88-.35a9.53,9.53,0,0,0-4.15.08,1.78,1.78,0,0,0-1.35,2.36c.5,2,1.86,3.49,3.23,5A17.19,17.19,0,0,1,143.6,505.76Zm-4.34,15.46a13.18,13.18,0,0,0-3.37,4.63,1.89,1.89,0,0,0,1.43,2.78,9.89,9.89,0,0,0,3.87.16,6.81,6.81,0,0,0,1.84-.33A17.08,17.08,0,0,1,139.26,521.22Zm21.8,11.94a17.12,17.12,0,0,1-8.22.74,14,14,0,0,0,2.88,4.77,3.59,3.59,0,0,0,.61.48,1.68,1.68,0,0,0,2.2-.18,4.77,4.77,0,0,0,1.09-1.47A16.53,16.53,0,0,0,161.06,533.16ZM150,501.64l.43-.11a16.35,16.35,0,0,1,4.44-.77,16.83,16.83,0,0,1,2.84.12c.17,0,.48.13.31-.26a13.47,13.47,0,0,0-2.72-4.44c-1.2-1.17-2.33-1.07-3.33.3A13.58,13.58,0,0,0,150,501.64Zm13.1,5.91a1.78,1.78,0,0,0-3.56,0,1.78,1.78,0,1,0,3.56,0Zm-11.62,17.07a1.78,1.78,0,1,0-3.55,0,1.78,1.78,0,1,0,3.55,0ZM145.9,505.2l2,.69c.18.06.33.07.35-.18.08-.7.15-1.4.23-2.18A14.92,14.92,0,0,0,145.9,505.2Z" transform="translate(-8.04 -236.99)"/><path class="cls-1" d="M180.24,539.93a2.54,2.54,0,0,1-2.53,2.52,2.54,2.54,0,1,1,0-5.07A2.54,2.54,0,0,1,180.24,539.93Zm-1.13,0a1.41,1.41,0,0,0-1.43-1.39,1.41,1.41,0,0,0,0,2.82A1.4,1.4,0,0,0,179.11,539.89Z" transform="translate(-8.04 -236.99)"/><path class="cls-1" d="M134.19,497.23a2.53,2.53,0,0,1-2.5-2.54,2.54,2.54,0,0,1,5.07,0A2.52,2.52,0,0,1,134.19,497.23Zm0-1.12a1.4,1.4,0,0,0,1.43-1.4,1.42,1.42,0,0,0-2.83,0A1.41,1.41,0,0,0,134.21,496.11Z" transform="translate(-8.04 -236.99)"/><path class="cls-1" d="M179.65,493.71a1,1,0,0,1,0-1.94,1,1,0,1,1,0,1.94Z" transform="translate(-8.04 -236.99)"/><path class="cls-1" d="M130.39,539.94a1,1,0,0,1,1,.95,1,1,0,0,1-.92,1,1,1,0,0,1-1-1A1,1,0,0,1,130.39,539.94Z" transform="translate(-8.04 -236.99)"/><path class="cls-1" d="M184,517.45l-1.06-.21a.3.3,0,0,0-.32.1c-.23.25-.48.48-.72.71-.06.06-.12.14-.22.1s-.11-.12-.12-.21c0-.35-.1-.7-.13-1.05a.28.28,0,0,0-.16-.22c-.32-.15-.62-.32-.94-.48-.08,0-.16-.08-.16-.18s.09-.14.16-.17c.33-.16.66-.32,1-.46a.21.21,0,0,0,.13-.19c.06-.35.12-.7.17-1.05,0-.09,0-.18.13-.21s.16,0,.22.1c.25.26.5.52.74.79a.19.19,0,0,0,.21.07l1.07-.17c.09,0,.18,0,.24.06a.21.21,0,0,1,0,.23c-.17.32-.34.63-.52.94a.23.23,0,0,0,0,.25c.17.33.33.66.49,1C184.23,517.35,184.16,517.46,184,517.45ZM180.69,516l0,0a5.68,5.68,0,0,0,.55.28.62.62,0,0,1,.46.66,5,5,0,0,0,.08.65l.05,0c.17-.18.34-.35.49-.54a.53.53,0,0,1,.64-.19,7.43,7.43,0,0,0,.74.15c-.15-.3-.27-.57-.42-.83a.32.32,0,0,1,0-.36c.15-.26.29-.52.43-.79a.17.17,0,0,0-.14,0c-.27,0-.53.07-.79.12a.27.27,0,0,1-.29-.11l-.66-.69c0,.33-.11.64-.15,1a.28.28,0,0,1-.18.24Z" transform="translate(-8.04 -236.99)"/><path class="cls-1" d="M130.28,516.32l-1.31-.25a.36.36,0,0,0-.4.12c-.29.3-.59.59-.89.88-.08.08-.15.17-.28.12s-.14-.15-.15-.26c0-.43-.11-.87-.16-1.3a.32.32,0,0,0-.19-.27l-1.17-.6c-.1,0-.2-.1-.19-.23s.1-.17.2-.21c.4-.19.8-.39,1.21-.57a.25.25,0,0,0,.17-.23c.07-.43.14-.87.22-1.3,0-.11,0-.23.15-.27s.2.05.28.13l.92,1a.24.24,0,0,0,.25.09c.44-.08.88-.14,1.33-.21.11,0,.22,0,.29.08s0,.19,0,.28c-.22.39-.43.78-.65,1.16a.31.31,0,0,0,0,.32c.21.4.41.81.61,1.22C130.59,516.2,130.5,516.33,130.28,516.32Zm-4.07-1.79s0,.05,0,.05a5,5,0,0,0,.69.35.76.76,0,0,1,.56.82,7.28,7.28,0,0,0,.1.8l.06,0c.21-.22.43-.43.62-.66a.64.64,0,0,1,.79-.24,7.5,7.5,0,0,0,.92.18l-.52-1a.38.38,0,0,1,0-.44c.18-.32.35-.65.53-1a.28.28,0,0,0-.18,0c-.32,0-.65.08-1,.15a.35.35,0,0,1-.37-.14l-.81-.86c-.07.42-.14.8-.19,1.18a.35.35,0,0,1-.23.3Z" transform="translate(-8.04 -236.99)"/><path class="cls-1" d="M196.5,537.35c-.56-.34-1.14-.68-1.71-1a.56.56,0,0,0-.63,0c-.56.27-1.14.52-1.71.78-.15.06-.3.15-.46,0s-.11-.29-.07-.46c.15-.63.29-1.27.45-1.91a.44.44,0,0,0-.13-.48c-.45-.48-.88-1-1.32-1.45-.12-.12-.24-.25-.16-.43s.23-.18.39-.19l2-.17a.39.39,0,0,0,.36-.23c.32-.58.66-1.15,1-1.73.08-.14.15-.3.35-.29s.26.17.33.32l.78,1.87a.37.37,0,0,0,.31.25l2,.4c.16,0,.33.07.37.27s-.08.28-.2.38l-1.51,1.3a.44.44,0,0,0-.17.44c.09.68.16,1.36.23,2C197,537.35,196.81,537.49,196.5,537.35Zm-4.8-4.64s0,.08,0,.09a10.47,10.47,0,0,0,.78.85,1.13,1.13,0,0,1,.37,1.44,9.36,9.36,0,0,0-.28,1.19l.07.07c.41-.2.83-.38,1.21-.61a1,1,0,0,1,1.24.08c.36.27.77.47,1.2.73-.07-.61-.11-1.17-.19-1.72a.6.6,0,0,1,.24-.62c.44-.35.85-.73,1.27-1.09a.4.4,0,0,0-.25-.11c-.48-.1-1-.21-1.45-.29a.54.54,0,0,1-.45-.38c-.21-.54-.45-1.06-.69-1.64-.31.55-.61,1-.88,1.55a.53.53,0,0,1-.48.31Z" transform="translate(-8.04 -236.99)"/><path class="cls-1" d="M165.75,490.83c-.38-.23-.79-.46-1.17-.71a.39.39,0,0,0-.44,0l-1.17.54c-.11,0-.21.1-.32,0s-.08-.2-.05-.32c.11-.43.2-.87.31-1.31a.3.3,0,0,0-.09-.33l-.91-1c-.07-.09-.16-.18-.1-.3s.16-.12.26-.13l1.39-.12a.25.25,0,0,0,.24-.15c.22-.4.45-.8.68-1.19.05-.1.1-.21.24-.2s.18.12.23.22c.18.43.36.85.53,1.28a.26.26,0,0,0,.21.18c.46.08.91.18,1.36.27.11,0,.23,0,.26.18s-.06.2-.14.26l-1,.9a.28.28,0,0,0-.12.3c.06.47.11.93.15,1.4C166.1,490.83,166,490.93,165.75,490.83Zm-3.3-3.19c0,.05,0,.06,0,.07a7.41,7.41,0,0,0,.54.58.8.8,0,0,1,.25,1,5.74,5.74,0,0,0-.19.82l0,0c.28-.14.56-.26.83-.42a.68.68,0,0,1,.85,0,7.14,7.14,0,0,0,.82.5c0-.42-.08-.8-.13-1.18a.39.39,0,0,1,.17-.42l.87-.75a.36.36,0,0,0-.18-.08l-1-.2a.38.38,0,0,1-.31-.26l-.47-1.12c-.22.37-.42.72-.61,1.06a.36.36,0,0,1-.33.22Z" transform="translate(-8.04 -236.99)"/><path class="cls-1" d="M681.33,530.28c-.56-.34-1.14-.68-1.71-1a.56.56,0,0,0-.63,0c-.56.28-1.14.52-1.71.78-.15.07-.3.16-.46,0s-.11-.28-.07-.45c.15-.64.29-1.28.45-1.91a.45.45,0,0,0-.13-.49c-.45-.47-.88-1-1.32-1.44-.12-.13-.24-.25-.16-.44s.23-.18.39-.19c.67-.05,1.34-.12,2-.16a.39.39,0,0,0,.36-.23c.32-.58.66-1.16,1-1.73.08-.15.15-.3.35-.29s.26.17.33.32l.78,1.87a.36.36,0,0,0,.31.25l2,.4c.16,0,.33.06.37.26s-.08.29-.2.39c-.5.43-1,.87-1.51,1.29a.44.44,0,0,0-.17.45c.08.67.16,1.35.23,2C681.84,530.27,681.64,530.42,681.33,530.28Zm-4.8-4.65a.25.25,0,0,0,0,.09,7.94,7.94,0,0,0,.78.85,1.14,1.14,0,0,1,.37,1.45,9.63,9.63,0,0,0-.28,1.18l.07.08c.41-.21.83-.38,1.21-.62a1,1,0,0,1,1.24.09,12.28,12.28,0,0,0,1.2.72c-.07-.61-.11-1.16-.19-1.71a.61.61,0,0,1,.24-.63c.44-.35.85-.72,1.27-1.09-.08-.09-.17-.08-.26-.1-.48-.1-1-.22-1.44-.3a.54.54,0,0,1-.45-.38c-.22-.53-.45-1.06-.69-1.63-.32.55-.61,1-.88,1.55a.53.53,0,0,1-.48.31Z" transform="translate(-8.04 -236.99)"/><path class="cls-1" d="M457.07,554.34c-.56-.34-1.14-.67-1.71-1a.56.56,0,0,0-.63,0c-.56.27-1.14.52-1.71.78-.15.06-.3.15-.46,0s-.11-.29-.07-.46c.15-.63.29-1.27.45-1.91a.44.44,0,0,0-.13-.48c-.45-.48-.88-1-1.32-1.45-.12-.12-.24-.25-.16-.43s.23-.18.39-.19l2-.17a.39.39,0,0,0,.36-.23c.32-.58.66-1.15,1-1.73.08-.14.15-.3.35-.29s.26.17.33.32l.78,1.87a.37.37,0,0,0,.31.25l2,.4c.16,0,.33.07.37.27s-.08.28-.2.38l-1.51,1.3a.44.44,0,0,0-.17.44c.09.68.16,1.36.23,2C457.58,554.34,457.38,554.48,457.07,554.34Zm-4.8-4.64c0,.06,0,.08,0,.09a10.47,10.47,0,0,0,.78.85,1.13,1.13,0,0,1,.37,1.44,9.36,9.36,0,0,0-.28,1.19l.08.07c.4-.2.82-.38,1.21-.61a1,1,0,0,1,1.23.08c.36.27.77.47,1.2.73-.06-.61-.11-1.17-.19-1.72a.6.6,0,0,1,.24-.62c.44-.35.85-.73,1.27-1.09A.4.4,0,0,0,458,550c-.48-.1-1-.21-1.45-.29a.54.54,0,0,1-.45-.38c-.21-.54-.45-1.06-.69-1.64-.31.55-.61,1-.88,1.55a.55.55,0,0,1-.48.32C453.45,549.59,452.87,549.65,452.27,549.7Z" transform="translate(-8.04 -236.99)"/><path class="cls-1" d="M686.8,519.17c-.39-.23-.79-.46-1.17-.72a.41.41,0,0,0-.44,0c-.39.19-.78.35-1.17.53-.11,0-.21.11-.32,0a.27.27,0,0,1-.05-.31c.11-.44.2-.88.31-1.31a.33.33,0,0,0-.09-.34c-.31-.32-.6-.66-.91-1-.08-.08-.16-.17-.1-.3s.15-.12.26-.13l1.39-.11a.28.28,0,0,0,.24-.16c.22-.4.45-.79.68-1.19.05-.1.1-.2.24-.2s.18.12.22.23c.18.42.37.85.54,1.28a.25.25,0,0,0,.21.17l1.36.28c.11,0,.23,0,.26.18s-.06.19-.14.26c-.34.3-.68.6-1,.89a.3.3,0,0,0-.11.31c.06.46.11.93.15,1.39C687.15,519.17,687,519.26,686.8,519.17ZM683.5,516l0,.06a5,5,0,0,0,.54.59.79.79,0,0,1,.25,1,5.6,5.6,0,0,0-.19.81l0,.05c.27-.14.56-.26.83-.42a.68.68,0,0,1,.85.06,8.89,8.89,0,0,0,.82.5c0-.42-.08-.8-.13-1.18a.41.41,0,0,1,.17-.43l.87-.75a.27.27,0,0,0-.18-.07c-.33-.07-.66-.15-1-.2a.37.37,0,0,1-.31-.26c-.15-.37-.31-.73-.47-1.13-.22.38-.42.72-.61,1.07a.35.35,0,0,1-.33.21Z" transform="translate(-8.04 -236.99)"/><path class="cls-1" d="M522.44,351.84c-.38-.23-.78-.47-1.17-.72a.41.41,0,0,0-.44,0c-.38.19-.78.36-1.17.54-.1,0-.21.11-.32,0s-.07-.2-.05-.31c.11-.44.21-.88.31-1.31a.31.31,0,0,0-.08-.34c-.31-.32-.61-.66-.91-1-.08-.09-.16-.17-.11-.3s.16-.12.27-.13l1.38-.11a.27.27,0,0,0,.24-.16c.23-.4.46-.79.68-1.19.06-.1.11-.2.25-.2s.17.12.22.22c.18.43.36.86.53,1.29a.28.28,0,0,0,.22.17l1.36.27c.11,0,.22.05.26.19s-.06.19-.14.26l-1,.89a.3.3,0,0,0-.12.3c.06.47.11.94.16,1.4C522.79,351.83,522.66,351.93,522.44,351.84Zm-3.3-3.19,0,.06a5,5,0,0,0,.54.58.79.79,0,0,1,.25,1,5.6,5.6,0,0,0-.19.81l.05,0c.28-.14.57-.26.83-.42a.67.67,0,0,1,.85.06c.25.18.53.32.83.5-.05-.42-.08-.8-.14-1.18a.41.41,0,0,1,.17-.43c.3-.24.58-.5.87-.75a.27.27,0,0,0-.17-.07c-.33-.07-.66-.15-1-.21a.35.35,0,0,1-.31-.25c-.14-.37-.3-.73-.47-1.13-.22.38-.42.72-.61,1.07a.37.37,0,0,1-.32.21Z" transform="translate(-8.04 -236.99)"/><path class="cls-1" d="M770.34,429.53c-.55-.34-1.13-.67-1.7-1a.57.57,0,0,0-.64,0c-.56.27-1.13.52-1.71.78-.14.06-.3.15-.45,0s-.12-.29-.08-.46c.16-.63.3-1.27.46-1.91a.48.48,0,0,0-.13-.48c-.45-.48-.89-1-1.33-1.45-.11-.12-.23-.25-.15-.43s.23-.18.39-.19l2-.17a.4.4,0,0,0,.36-.23c.32-.58.65-1.15,1-1.73.08-.14.16-.3.36-.29s.26.17.32.32c.26.63.53,1.25.78,1.87a.37.37,0,0,0,.31.25l2,.4c.16,0,.33.07.38.27s-.09.28-.2.38c-.51.43-1,.87-1.52,1.3a.44.44,0,0,0-.17.44c.09.68.16,1.36.23,2C770.86,429.53,770.66,429.67,770.34,429.53Zm-4.8-4.64c0,.06,0,.08,0,.09a10.59,10.59,0,0,0,.79.85,1.15,1.15,0,0,1,.37,1.44,7.92,7.92,0,0,0-.28,1.19l.07.07c.4-.2.83-.38,1.21-.61A1,1,0,0,1,769,428c.36.27.78.47,1.21.73-.07-.61-.12-1.17-.2-1.72a.6.6,0,0,1,.25-.62c.43-.35.84-.73,1.27-1.09a.45.45,0,0,0-.26-.11c-.48-.1-1-.21-1.44-.29a.55.55,0,0,1-.46-.38c-.21-.54-.44-1.06-.69-1.64l-.88,1.55a.52.52,0,0,1-.47.31Z" transform="translate(-8.04 -236.99)"/><path class="cls-1" d="M780.59,412.6l-1.17-.72a.39.39,0,0,0-.44,0c-.38.19-.78.36-1.17.54-.11,0-.21.11-.32,0s-.07-.2,0-.31c.11-.44.2-.88.31-1.32a.3.3,0,0,0-.08-.33c-.31-.32-.61-.66-.92-1-.07-.09-.16-.17-.1-.3s.16-.12.27-.13l1.38-.11a.27.27,0,0,0,.24-.16c.22-.4.45-.79.68-1.19.06-.1.11-.2.25-.2s.17.12.22.22c.18.43.36.85.53,1.28a.27.27,0,0,0,.22.18l1.36.27c.11,0,.22.05.25.18s0,.2-.13.27l-1,.89a.28.28,0,0,0-.12.3c.06.47.11.93.16,1.4C780.94,412.59,780.8,412.69,780.59,412.6Zm-3.3-3.19s0,0,0,.06a6,6,0,0,0,.54.58.79.79,0,0,1,.25,1,5.31,5.31,0,0,0-.19.81l.05.05c.28-.14.57-.26.83-.42a.67.67,0,0,1,.85.06c.24.18.53.32.82.5,0-.42-.08-.81-.13-1.18a.41.41,0,0,1,.17-.43c.3-.24.58-.5.87-.75a.27.27,0,0,0-.18-.07c-.33-.07-.65-.15-1-.21a.36.36,0,0,1-.31-.26c-.14-.36-.3-.72-.47-1.12-.22.38-.42.72-.61,1.07a.37.37,0,0,1-.33.21Z" transform="translate(-8.04 -236.99)"/><path class="cls-1" d="M182.09,435.8c-.56-.34-1.14-.68-1.71-1a.56.56,0,0,0-.63,0l-1.71.78c-.15.06-.31.15-.46,0s-.11-.28-.07-.45c.15-.63.29-1.27.45-1.91a.44.44,0,0,0-.13-.48c-.45-.48-.88-1-1.33-1.45-.11-.12-.23-.25-.15-.43s.23-.18.39-.2l2-.16a.4.4,0,0,0,.36-.23c.32-.58.65-1.15,1-1.73.08-.14.16-.3.36-.29s.26.17.32.32c.26.62.53,1.24.78,1.87a.38.38,0,0,0,.31.25l2,.4c.16,0,.33.07.38.27s-.08.28-.2.38l-1.51,1.3a.4.4,0,0,0-.17.44c.08.68.15,1.36.22,2C182.6,435.79,182.4,435.94,182.09,435.8Zm-4.8-4.65c0,.06,0,.08,0,.1a8.93,8.93,0,0,0,.78.85,1.15,1.15,0,0,1,.37,1.44,7.92,7.92,0,0,0-.28,1.19l.07.07c.41-.2.83-.38,1.21-.61a1,1,0,0,1,1.24.08c.36.27.77.47,1.2.73-.07-.61-.12-1.17-.2-1.72a.6.6,0,0,1,.25-.62c.43-.35.85-.73,1.27-1.09a.45.45,0,0,0-.26-.11c-.48-.1-1-.21-1.44-.29a.54.54,0,0,1-.45-.38c-.22-.54-.45-1.06-.69-1.64-.32.55-.61,1.05-.89,1.55a.52.52,0,0,1-.47.31Z" transform="translate(-8.04 -236.99)"/><path class="cls-1" d="M192.33,418.87l-1.17-.72a.39.39,0,0,0-.44,0c-.38.19-.78.36-1.17.54-.1,0-.21.1-.32,0s-.07-.2,0-.31c.11-.44.21-.88.31-1.32a.3.3,0,0,0-.08-.33c-.31-.32-.61-.66-.91-1-.08-.09-.16-.17-.11-.3s.16-.12.27-.13l1.38-.11a.27.27,0,0,0,.24-.16l.68-1.19c.06-.1.11-.2.25-.2s.17.12.22.22c.18.43.36.85.53,1.28a.27.27,0,0,0,.22.18l1.36.27c.11,0,.22.05.26.18s-.06.2-.14.27l-1,.89a.28.28,0,0,0-.12.3c.06.47.11.93.16,1.4C192.68,418.86,192.55,419,192.33,418.87Zm-3.3-3.19,0,.06a6,6,0,0,0,.54.58.79.79,0,0,1,.25,1,5.31,5.31,0,0,0-.19.81l.05.05c.28-.14.57-.26.83-.42a.68.68,0,0,1,.85.05,8.12,8.12,0,0,0,.82.5c0-.41-.07-.8-.13-1.18a.4.4,0,0,1,.17-.42c.3-.24.58-.5.87-.75a.27.27,0,0,0-.17-.07c-.33-.07-.66-.15-1-.21a.36.36,0,0,1-.31-.26c-.14-.36-.3-.72-.47-1.12-.22.38-.42.72-.61,1.07a.37.37,0,0,1-.32.21Z" transform="translate(-8.04 -236.99)"/><path class="cls-1" d="M284,543.12c-.56-.34-1.14-.68-1.71-1a.56.56,0,0,0-.63,0c-.56.27-1.14.52-1.71.77-.15.07-.3.16-.46,0s-.11-.28-.07-.45c.15-.64.29-1.27.45-1.91a.46.46,0,0,0-.13-.49c-.45-.47-.88-1-1.32-1.44-.12-.13-.24-.25-.16-.43s.23-.18.39-.2c.67,0,1.34-.12,2-.16a.39.39,0,0,0,.36-.23c.32-.58.66-1.15,1-1.73.08-.14.15-.3.35-.29s.26.17.33.32l.78,1.87a.37.37,0,0,0,.31.25l2,.4c.16,0,.33.07.37.27s-.08.28-.2.38l-1.51,1.3a.42.42,0,0,0-.17.44c.08.68.16,1.36.23,2C284.51,543.11,284.31,543.26,284,543.12Zm-4.8-4.65,0,.1a8.91,8.91,0,0,0,.78.84,1.14,1.14,0,0,1,.37,1.45,9.36,9.36,0,0,0-.28,1.19l.07.07c.41-.2.83-.38,1.21-.61a1,1,0,0,1,1.24.08c.36.27.77.47,1.2.73-.07-.61-.11-1.17-.19-1.72a.6.6,0,0,1,.24-.62c.44-.35.85-.73,1.27-1.09a.4.4,0,0,0-.25-.11c-.49-.1-1-.22-1.45-.3a.54.54,0,0,1-.45-.37c-.22-.54-.45-1.06-.69-1.64-.32.55-.61,1-.88,1.55a.53.53,0,0,1-.48.31Z" transform="translate(-8.04 -236.99)"/><path class="cls-1" d="M311,454.93c-.14-.37-.29-.75-.43-1.14a.33.33,0,0,0-.29-.26c-.38-.08-.75-.18-1.12-.27-.1,0-.21,0-.24-.16s.06-.18.14-.25c.31-.25.62-.51.94-.75a.29.29,0,0,0,.12-.29c0-.4-.06-.8-.1-1.2,0-.1,0-.21.09-.27s.18,0,.26.06l1,.68a.24.24,0,0,0,.26,0l1.13-.47c.09,0,.19-.08.28,0s.06.18,0,.28l-.33,1.2a.22.22,0,0,0,.06.24c.27.31.54.62.8.94.07.08.14.15.09.27s-.15.1-.25.11l-1.22.05a.27.27,0,0,0-.25.16c-.21.36-.43.71-.66,1.07C311.26,455.12,311.11,455.12,311,454.93Zm-.57-4.06s0,.05,0,.06a5.52,5.52,0,0,0,.05.71.69.69,0,0,1-.36.84,5.18,5.18,0,0,0-.58.47V453c.27.05.54.13.82.16a.62.62,0,0,1,.57.5,7.31,7.31,0,0,0,.3.81c.2-.32.39-.61.56-.9a.36.36,0,0,1,.35-.21l1-.05a.27.27,0,0,0-.08-.15c-.2-.23-.39-.47-.59-.69a.33.33,0,0,1-.08-.35c.1-.34.19-.68.28-1.06l-1,.42a.32.32,0,0,1-.35,0Z" transform="translate(-8.04 -236.99)"/><path class="cls-1" d="M265.73,485.6c-.1-.27-.21-.54-.3-.81a.26.26,0,0,0-.21-.19c-.27-.05-.53-.12-.79-.19-.07,0-.15,0-.17-.11s0-.13.1-.17l.66-.54a.2.2,0,0,0,.09-.2c0-.28-.05-.57-.07-.85,0-.07,0-.15.06-.19s.13,0,.19,0l.73.48a.17.17,0,0,0,.18,0l.8-.33c.07,0,.14-.06.2,0s.05.13,0,.2c-.08.28-.15.57-.23.85a.16.16,0,0,0,0,.17l.57.66c0,.06.09.11.06.19s-.11.08-.18.08l-.86,0a.2.2,0,0,0-.18.11c-.15.25-.3.51-.46.76S265.8,485.73,265.73,485.6Zm-.4-2.88a.13.13,0,0,0,0,0,4.38,4.38,0,0,0,0,.5.5.5,0,0,1-.26.59,3.29,3.29,0,0,0-.41.33v.05c.2,0,.39.09.58.11a.43.43,0,0,1,.4.36,5.1,5.1,0,0,0,.22.57c.14-.23.27-.43.39-.64a.25.25,0,0,1,.25-.15l.73,0a.23.23,0,0,0-.06-.11c-.14-.16-.27-.33-.42-.49a.23.23,0,0,1,0-.25c.07-.24.13-.48.2-.74l-.72.29a.21.21,0,0,1-.24,0Z" transform="translate(-8.04 -236.99)"/><path class="cls-1" d="M294.24,526.18c-.38-.23-.78-.46-1.17-.71a.38.38,0,0,0-.43,0c-.39.19-.79.36-1.18.54-.1,0-.21.1-.31,0s-.08-.2,0-.32c.1-.43.2-.87.31-1.31a.32.32,0,0,0-.09-.33c-.31-.33-.61-.66-.91-1-.08-.08-.16-.17-.11-.29s.16-.12.27-.13l1.38-.12a.26.26,0,0,0,.25-.15l.67-1.19c.06-.1.11-.21.25-.2s.18.12.22.22l.54,1.28a.26.26,0,0,0,.21.18l1.36.27c.11,0,.23,0,.26.18s-.06.2-.14.26l-1,.9a.31.31,0,0,0-.12.3c.06.47.11.93.16,1.4C294.59,526.18,294.46,526.28,294.24,526.18ZM291,523s0,.06,0,.07a7.41,7.41,0,0,0,.54.58.78.78,0,0,1,.25,1c-.09.26-.12.55-.19.82l.05,0c.28-.14.57-.26.83-.42a.68.68,0,0,1,.85,0,7.29,7.29,0,0,0,.83.5c-.05-.42-.08-.8-.14-1.18a.42.42,0,0,1,.17-.42c.3-.24.58-.5.87-.75,0-.06-.12-.06-.17-.08l-1-.2a.37.37,0,0,1-.31-.26c-.15-.36-.31-.73-.48-1.12l-.6,1.06a.38.38,0,0,1-.33.22Z" transform="translate(-8.04 -236.99)"/><path class="cls-1" d="M235.14,404.53c-.38-.23-.79-.46-1.17-.71a.39.39,0,0,0-.44,0c-.39.19-.78.35-1.17.53-.11.05-.21.11-.32,0s-.08-.19,0-.31c.11-.44.2-.87.31-1.31a.3.3,0,0,0-.09-.33c-.31-.33-.6-.67-.91-1-.07-.08-.16-.17-.1-.29s.16-.13.26-.14l1.39-.11a.26.26,0,0,0,.24-.16l.68-1.19c0-.09.1-.2.24-.19s.18.11.23.22c.18.42.36.85.53,1.28a.25.25,0,0,0,.21.17l1.36.28c.11,0,.23,0,.26.18s-.06.19-.14.26c-.34.3-.68.6-1,.89a.3.3,0,0,0-.12.31c.06.46.11.93.15,1.4C235.49,404.53,235.35,404.63,235.14,404.53Zm-3.3-3.19s0,.06,0,.06a6.1,6.1,0,0,0,.54.59.8.8,0,0,1,.25,1,5.6,5.6,0,0,0-.19.81l.05,0a9.23,9.23,0,0,0,.83-.42.68.68,0,0,1,.85.06,8.89,8.89,0,0,0,.82.5c0-.42-.08-.8-.13-1.18a.41.41,0,0,1,.17-.43l.87-.74a.24.24,0,0,0-.18-.08c-.33-.07-.66-.15-1-.2a.38.38,0,0,1-.31-.26c-.15-.37-.31-.73-.47-1.13-.22.38-.42.72-.61,1.07a.35.35,0,0,1-.33.21Z" transform="translate(-8.04 -236.99)"/><path class="cls-1" d="M164.4,350.6c-.39-.23-.79-.47-1.17-.72a.41.41,0,0,0-.44,0l-1.17.54c-.11.05-.21.11-.32,0a.27.27,0,0,1-.05-.31c.11-.44.2-.88.31-1.31a.33.33,0,0,0-.09-.34c-.31-.32-.6-.66-.91-1-.08-.09-.16-.17-.1-.3s.16-.12.26-.13l1.39-.11a.28.28,0,0,0,.24-.16c.22-.4.45-.79.68-1.19.05-.1.1-.2.24-.2s.18.12.22.22c.18.43.37.86.54,1.29a.25.25,0,0,0,.21.17l1.36.28c.11,0,.23,0,.26.18s-.06.19-.14.26c-.34.3-.68.6-1,.89a.29.29,0,0,0-.11.3c.06.47.11.94.15,1.4C164.75,350.59,164.61,350.69,164.4,350.6Zm-3.3-3.19,0,.06a4.26,4.26,0,0,0,.54.58.81.81,0,0,1,.25,1,5.6,5.6,0,0,0-.19.81l.05.05c.28-.14.56-.26.83-.42a.67.67,0,0,1,.85.06c.24.18.53.32.82.5,0-.42-.08-.8-.13-1.18a.41.41,0,0,1,.17-.43l.87-.75a.27.27,0,0,0-.18-.07c-.33-.07-.66-.15-1-.2a.38.38,0,0,1-.31-.26c-.15-.37-.31-.73-.47-1.13-.22.38-.42.72-.61,1.07a.37.37,0,0,1-.33.21Z" transform="translate(-8.04 -236.99)"/><path class="cls-1" d="M50.46,353l-1.17-.72a.39.39,0,0,0-.44,0l-1.17.53c-.11.05-.21.11-.32,0s-.07-.2,0-.31c.11-.44.2-.88.31-1.31a.31.31,0,0,0-.08-.34c-.31-.32-.61-.66-.92-1-.07-.09-.16-.17-.1-.3s.16-.12.27-.13l1.38-.11a.27.27,0,0,0,.24-.16c.22-.4.45-.79.68-1.19.06-.1.11-.2.24-.2s.18.12.23.22c.18.43.36.86.53,1.29a.28.28,0,0,0,.22.17l1.36.28c.11,0,.22,0,.25.18s-.05.19-.13.26l-1,.89a.28.28,0,0,0-.12.3c.06.47.11.94.16,1.4C50.81,353,50.67,353.07,50.46,353Zm-3.3-3.19,0,.06a6.1,6.1,0,0,0,.54.59.78.78,0,0,1,.25,1,5.6,5.6,0,0,0-.19.81l.05.05c.28-.14.57-.26.83-.42a.67.67,0,0,1,.85.06c.24.18.53.32.82.5,0-.42-.08-.8-.13-1.18a.41.41,0,0,1,.17-.43c.3-.24.58-.5.87-.75a.27.27,0,0,0-.18-.07c-.33-.07-.65-.15-1-.2a.38.38,0,0,1-.31-.26l-.47-1.13c-.22.38-.42.72-.61,1.07a.37.37,0,0,1-.33.21Z" transform="translate(-8.04 -236.99)"/><path class="cls-1" d="M12,479.72,10.82,479a.4.4,0,0,0-.43,0c-.39.19-.78.36-1.18.54-.1,0-.2.11-.31,0s-.08-.2-.05-.31c.1-.44.2-.88.31-1.31a.33.33,0,0,0-.09-.34c-.31-.32-.61-.66-.91-1-.08-.09-.16-.17-.11-.3s.16-.12.27-.13L9.7,476a.28.28,0,0,0,.25-.16c.22-.4.45-.79.68-1.19,0-.1.1-.2.24-.2s.18.12.22.22c.18.43.37.86.54,1.29a.25.25,0,0,0,.21.17l1.36.27c.11,0,.23.05.26.19s-.06.19-.14.26l-1,.89a.29.29,0,0,0-.11.3c.05.47.11.94.15,1.4C12.35,479.71,12.21,479.81,12,479.72ZM8.7,476.53l0,.06a4.2,4.2,0,0,0,.53.58.8.8,0,0,1,.26,1,5.6,5.6,0,0,0-.19.81l.05,0c.27-.14.56-.26.83-.42a.65.65,0,0,1,.84.06c.25.18.53.32.83.5-.05-.42-.08-.8-.13-1.18a.42.42,0,0,1,.16-.43c.3-.24.59-.5.88-.75a.27.27,0,0,0-.18-.07l-1-.21a.34.34,0,0,1-.31-.25c-.15-.37-.31-.73-.48-1.13-.21.38-.41.72-.6,1.07a.38.38,0,0,1-.33.21Z" transform="translate(-8.04 -236.99)"/><path class="cls-1" d="M27.46,581.78c-.38-.23-.78-.46-1.17-.71a.39.39,0,0,0-.44,0c-.38.19-.78.36-1.17.54-.11,0-.21.1-.32,0a.27.27,0,0,1-.05-.31c.11-.44.2-.88.31-1.32a.3.3,0,0,0-.08-.33c-.32-.33-.61-.66-.92-1-.07-.09-.16-.18-.1-.3s.16-.12.26-.13l1.39-.12a.24.24,0,0,0,.24-.15c.22-.4.45-.8.68-1.19.05-.1.1-.21.24-.2s.18.12.23.22c.18.43.36.85.53,1.28a.25.25,0,0,0,.21.18c.46.08.91.18,1.37.27.11,0,.22,0,.25.18s-.05.2-.14.27l-1,.89a.28.28,0,0,0-.12.3c.06.47.11.93.16,1.4C27.81,581.78,27.67,581.88,27.46,581.78Zm-3.3-3.19s0,.06,0,.07a7.41,7.41,0,0,0,.54.58.81.81,0,0,1,.25,1,5.31,5.31,0,0,0-.19.81l.05.05c.28-.14.56-.26.83-.42a.68.68,0,0,1,.85.05,7.14,7.14,0,0,0,.82.5c0-.42-.08-.8-.13-1.18a.39.39,0,0,1,.17-.42c.3-.24.58-.5.87-.75a.27.27,0,0,0-.18-.07l-1-.21a.38.38,0,0,1-.31-.26l-.47-1.12-.61,1.06a.36.36,0,0,1-.33.22Z" transform="translate(-8.04 -236.99)"/><path class="cls-1" d="M15.67,598.1c-.58-.35-1.19-.71-1.78-1.09a.62.62,0,0,0-.67,0c-.58.29-1.19.54-1.79.81-.15.07-.31.17-.48,0s-.11-.3-.07-.47c.16-.66.31-1.33.47-2a.49.49,0,0,0-.13-.51c-.47-.49-.93-1-1.39-1.51-.12-.13-.24-.26-.16-.45s.24-.19.41-.2c.7-.06,1.4-.13,2.1-.17a.44.44,0,0,0,.38-.24c.33-.61.68-1.21,1-1.82.08-.14.16-.31.37-.3s.27.18.34.34c.27.65.55,1.3.81,1.95a.42.42,0,0,0,.33.27l2.07.42c.17,0,.35.06.39.27s-.08.3-.21.4c-.52.46-1,.91-1.58,1.36a.46.46,0,0,0-.18.46q.13,1.07.24,2.13C16.21,598.1,16,598.25,15.67,598.1Zm-5-4.86c0,.06,0,.09,0,.1a9.94,9.94,0,0,0,.82.89,1.2,1.2,0,0,1,.39,1.51,8.6,8.6,0,0,0-.29,1.24l.07.08c.42-.22.86-.4,1.27-.64a1,1,0,0,1,1.29.08,12.35,12.35,0,0,0,1.26.76c-.07-.64-.12-1.22-.21-1.8a.64.64,0,0,1,.26-.65c.45-.36.88-.75,1.33-1.14a.45.45,0,0,0-.27-.11c-.5-.1-1-.22-1.51-.31a.57.57,0,0,1-.48-.39c-.22-.56-.46-1.11-.72-1.71-.33.57-.63,1.09-.92,1.62a.56.56,0,0,1-.5.33C11.88,593.13,11.28,593.19,10.65,593.24Z" transform="translate(-8.04 -236.99)"/><path class="cls-1" d="M657.25,362.13c-.31.32-.61.67-.94,1a.39.39,0,0,0-.11.42c.11.42.19.84.29,1.26,0,.11.06.22,0,.31s-.21,0-.31,0l-1.23-.57a.3.3,0,0,0-.34,0c-.38.24-.77.46-1.16.69-.1.06-.2.13-.31.05s-.09-.18-.07-.29c.05-.46.1-.92.16-1.38a.26.26,0,0,0-.1-.27l-1-.9c-.09-.07-.18-.15-.15-.28s.15-.15.26-.17c.46-.09.91-.19,1.37-.27a.25.25,0,0,0,.21-.17l.54-1.28c.05-.11.09-.22.23-.22s.18.1.23.19c.23.4.45.79.67,1.2a.28.28,0,0,0,.27.17l1.4.13C657.31,361.78,657.38,361.93,657.25,362.13Zm-3.79,2.59.07,0a4.72,4.72,0,0,0,.68-.41.79.79,0,0,1,1-.05,5.77,5.77,0,0,0,.76.35l.06,0a9.21,9.21,0,0,0-.25-.9.67.67,0,0,1,.23-.82c.23-.21.42-.46.66-.71L655.5,362a.4.4,0,0,1-.38-.25c-.18-.34-.37-.67-.56-1-.07,0-.08.1-.11.16-.13.31-.27.61-.4.93a.37.37,0,0,1-.31.25l-1.2.24c.33.28.62.55.92.81a.36.36,0,0,1,.15.36C653.55,363.91,653.51,364.3,653.46,364.72Z" transform="translate(-8.04 -236.99)"/><path class="cls-1" d="M670.87,377c-.46.5-.93,1-1.42,1.53a.58.58,0,0,0-.18.64c.16.63.29,1.27.44,1.91,0,.17.1.35-.07.48s-.32.05-.48,0l-1.86-.87a.51.51,0,0,0-.53,0c-.58.37-1.17.71-1.76,1.06-.15.09-.3.19-.47.07s-.14-.28-.12-.44c.09-.7.16-1.4.26-2.1a.42.42,0,0,0-.16-.41L663,377.45c-.13-.11-.27-.22-.22-.42s.23-.23.4-.27l2.07-.41a.39.39,0,0,0,.33-.26l.82-1.95c.07-.15.14-.32.35-.33s.27.15.35.29c.34.61.69,1.21,1,1.82a.44.44,0,0,0,.42.27c.72.06,1.43.12,2.14.2C671,376.42,671.08,376.65,670.87,377Zm-5.77,3.94.11,0a11.71,11.71,0,0,0,1-.62,1.2,1.2,0,0,1,1.56-.08,8,8,0,0,0,1.15.53l.09-.05c-.12-.46-.21-.93-.37-1.37A1,1,0,0,1,669,378a11.71,11.71,0,0,0,1-1.08c-.64-.06-1.22-.13-1.8-.16a.65.65,0,0,1-.59-.38c-.26-.52-.56-1-.85-1.53-.11.06-.12.16-.16.24-.2.47-.42.94-.61,1.41a.56.56,0,0,1-.48.39l-1.82.36c.5.44.94.85,1.41,1.23a.55.55,0,0,1,.21.56C665.24,379.66,665.18,380.26,665.1,380.89Z" transform="translate(-8.04 -236.99)"/><path class="cls-1" d="M786.44,270.15c-.43.09-.89.2-1.34.28a.39.39,0,0,0-.34.27c-.15.41-.33.8-.49,1.2,0,.1-.08.22-.22.23s-.19-.09-.25-.2c-.22-.39-.45-.77-.67-1.17a.3.3,0,0,0-.29-.18l-1.34-.11c-.12,0-.24,0-.28-.14s0-.2.1-.28c.31-.34.62-.69.94-1a.26.26,0,0,0,.07-.28c-.11-.44-.21-.88-.32-1.33,0-.11-.06-.22,0-.31s.21,0,.31,0l1.27.57a.24.24,0,0,0,.27,0l1.18-.72c.1-.06.2-.13.31-.05s.09.18.08.29c-.05.45-.09.91-.15,1.36a.29.29,0,0,0,.12.3l1.07.92C786.7,269.91,786.67,270.07,786.44,270.15Zm-4.58-.08.06,0a7,7,0,0,0,.79.06.77.77,0,0,1,.86.55,6.44,6.44,0,0,0,.42.72h.07a9.25,9.25,0,0,0,.32-.88A.67.67,0,0,1,785,270c.31,0,.61-.13.94-.2-.32-.28-.6-.53-.9-.77a.43.43,0,0,1-.17-.43c.06-.38.09-.76.13-1.14a.24.24,0,0,0-.18.06l-.86.53a.38.38,0,0,1-.41,0l-1.11-.49c.1.42.18.81.28,1.19a.36.36,0,0,1-.09.38Z" transform="translate(-8.04 -236.99)"/><path class="cls-1" d="M789,290.12c-.66.14-1.35.3-2,.42a.62.62,0,0,0-.52.42c-.23.62-.5,1.22-.75,1.82-.07.16-.12.34-.33.35s-.29-.14-.38-.29c-.34-.6-.69-1.19-1-1.79a.48.48,0,0,0-.44-.28c-.69,0-1.37-.1-2.05-.16-.17,0-.36,0-.43-.22s0-.3.16-.42c.48-.52.94-1.05,1.43-1.56a.43.43,0,0,0,.11-.43c-.17-.68-.33-1.36-.49-2,0-.17-.09-.34.07-.48s.32-.05.48,0c.64.29,1.29.57,1.93.87a.38.38,0,0,0,.41,0c.6-.38,1.2-.74,1.81-1.11.14-.09.29-.18.47-.06s.14.27.12.43c-.08.69-.14,1.38-.23,2.07a.43.43,0,0,0,.19.46c.54.46,1.09.93,1.62,1.4C789.35,289.75,789.3,290,789,290.12Zm-7-.12.09,0a9.85,9.85,0,0,0,1.21.09,1.19,1.19,0,0,1,1.31.84,8.84,8.84,0,0,0,.64,1.11h.1c.17-.44.36-.88.49-1.33a1,1,0,0,1,1-.82,14.26,14.26,0,0,0,1.44-.3c-.49-.42-.92-.81-1.37-1.18a.62.62,0,0,1-.26-.65c.08-.57.13-1.15.19-1.74-.13,0-.19.06-.27.11-.44.26-.89.51-1.31.8a.56.56,0,0,1-.62,0l-1.7-.76c.16.65.29,1.24.44,1.82a.55.55,0,0,1-.15.58C782.8,289.08,782.4,289.53,782,290Z" transform="translate(-8.04 -236.99)"/><path class="cls-1" d="M291.31,361.51l-1,.91a.39.39,0,0,0-.16.41c.07.42.11.85.17,1.28,0,.11,0,.23-.08.31s-.21,0-.31-.05l-1.16-.68a.32.32,0,0,0-.34,0c-.41.21-.82.39-1.22.58-.11.05-.21.11-.32,0s-.07-.19,0-.3c.1-.45.19-.9.3-1.35a.28.28,0,0,0-.08-.28c-.32-.33-.63-.67-.94-1-.08-.08-.16-.16-.12-.29s.17-.14.28-.15l1.38-.13a.26.26,0,0,0,.23-.16l.66-1.21c.06-.1.11-.21.25-.2s.17.12.21.21c.19.42.37.84.55,1.26a.3.3,0,0,0,.26.2l1.38.26C291.41,361.18,291.46,361.34,291.31,361.51Zm-4,2.21h.07a5.85,5.85,0,0,0,.71-.35.8.8,0,0,1,1,.06,5.65,5.65,0,0,0,.72.42l.06,0c-.05-.3-.08-.61-.16-.91a.68.68,0,0,1,.31-.8c.25-.18.46-.41.72-.64-.42-.08-.79-.16-1.17-.22a.41.41,0,0,1-.36-.29c-.14-.35-.3-.7-.46-1.05a.33.33,0,0,0-.12.15c-.16.29-.33.58-.49.88a.36.36,0,0,1-.34.23l-1.21.12c.3.32.56.61.84.89a.36.36,0,0,1,.11.38C287.46,362.93,287.38,363.32,287.29,363.72Z" transform="translate(-8.04 -236.99)"/><path class="cls-1" d="M534,386.92c-.33.3-.67.61-1,.91a.39.39,0,0,0-.15.41c.06.42.11.85.16,1.28,0,.11,0,.23-.07.3s-.21,0-.31,0l-1.17-.68a.32.32,0,0,0-.34,0l-1.22.58c-.1,0-.21.1-.31,0s-.08-.19,0-.3c.1-.45.19-.9.3-1.35a.26.26,0,0,0-.08-.28c-.32-.33-.63-.67-.94-1-.07-.08-.16-.16-.12-.29s.17-.14.28-.15l1.39-.14a.24.24,0,0,0,.22-.15l.67-1.22c0-.1.11-.2.25-.19s.16.11.21.21c.18.42.37.83.54,1.25a.31.31,0,0,0,.26.21l1.38.26C534.08,386.59,534.13,386.74,534,386.92Zm-4,2.21H530a5.79,5.79,0,0,0,.71-.34.81.81,0,0,1,1,.05,5.2,5.2,0,0,0,.72.42l.06,0c0-.3-.08-.62-.16-.92a.69.69,0,0,1,.31-.79c.25-.18.46-.41.72-.64-.42-.08-.79-.16-1.17-.22a.42.42,0,0,1-.36-.29c-.14-.35-.3-.7-.45-1.05a.3.3,0,0,0-.13.15c-.16.29-.33.58-.48.88a.37.37,0,0,1-.34.22l-1.22.13.84.89a.35.35,0,0,1,.11.37C530.13,388.34,530.05,388.73,530,389.13Z" transform="translate(-8.04 -236.99)"/><path class="cls-1" d="M303.43,377.58c-.51.46-1,.93-1.57,1.39a.57.57,0,0,0-.23.62c.1.65.16,1.3.25,2,0,.17.06.35-.12.47s-.32,0-.47-.07l-1.77-1a.51.51,0,0,0-.53,0c-.61.31-1.23.59-1.85.89-.16.07-.32.15-.48,0s-.11-.29-.07-.45c.15-.69.29-1.38.45-2.06a.39.39,0,0,0-.12-.43c-.48-.5-.95-1-1.42-1.52-.12-.12-.25-.25-.18-.45s.25-.2.42-.22l2.11-.2a.38.38,0,0,0,.34-.24c.33-.62.68-1.24,1-1.85.08-.15.16-.31.37-.3s.26.17.33.32c.27.64.56,1.27.83,1.91a.44.44,0,0,0,.39.31c.7.12,1.4.26,2.1.4C303.58,377.07,303.66,377.31,303.43,377.58ZM297.31,381h.1a9.93,9.93,0,0,0,1.09-.52,1.2,1.2,0,0,1,1.56.08,9.88,9.88,0,0,0,1.1.64l.09-.05a13.2,13.2,0,0,0-.24-1.4,1,1,0,0,1,.47-1.21,12,12,0,0,0,1.09-1c-.63-.12-1.2-.24-1.77-.33a.64.64,0,0,1-.55-.44c-.21-.54-.46-1.07-.7-1.6a.38.38,0,0,0-.18.22c-.25.45-.51.89-.74,1.35a.58.58,0,0,1-.52.34l-1.85.18,1.28,1.37a.53.53,0,0,1,.16.57C297.57,379.74,297.44,380.33,297.31,381Z" transform="translate(-8.04 -236.99)"/><path class="cls-1" d="M464.63,474.26c-.35-.29-.71-.58-1.05-.88a.41.41,0,0,0-.43-.1c-.41.13-.83.24-1.24.36-.11,0-.22.07-.32,0s0-.2,0-.31l.5-1.26a.3.3,0,0,0,0-.34c-.26-.37-.51-.74-.76-1.12-.06-.09-.13-.19-.06-.3s.18-.1.29-.1l1.38.1a.29.29,0,0,0,.27-.12c.27-.36.56-.72.84-1.08.07-.08.14-.18.27-.16s.16.15.19.26c.11.45.23.89.34,1.34a.28.28,0,0,0,.18.21l1.31.47c.1,0,.22.08.23.22s-.09.18-.18.24c-.39.24-.77.49-1.16.72a.3.3,0,0,0-.16.29c0,.47,0,.94-.05,1.41C465,474.31,464.83,474.39,464.63,474.26Zm-2.79-3.65c0,.05,0,.06,0,.07a7.57,7.57,0,0,0,.44.66.79.79,0,0,1,.11,1,5.16,5.16,0,0,0-.31.77l0,.06c.29-.1.6-.17.88-.29a.67.67,0,0,1,.83.18c.22.22.48.4.75.62,0-.42,0-.81,0-1.19a.42.42,0,0,1,.23-.4c.33-.19.65-.4,1-.61a.28.28,0,0,0-.16-.1c-.32-.11-.63-.24-.95-.34a.39.39,0,0,1-.27-.31c-.09-.38-.19-.76-.3-1.18l-.76,1a.36.36,0,0,1-.35.17C462.65,470.66,462.26,470.64,461.84,470.61Z" transform="translate(-8.04 -236.99)"/><path class="cls-1" d="M450.54,488.64c-.52-.44-1.07-.88-1.6-1.34a.61.61,0,0,0-.65-.15c-.62.2-1.26.37-1.89.54-.17.05-.34.12-.48,0s-.07-.31,0-.48c.25-.63.5-1.27.76-1.9a.51.51,0,0,0-.05-.53c-.4-.56-.77-1.13-1.15-1.7-.1-.15-.2-.29-.1-.47s.27-.15.44-.14l2.11.15a.41.41,0,0,0,.4-.19l1.29-1.63c.11-.14.21-.29.41-.25s.25.22.29.39c.17.68.35,1.36.52,2.05a.37.37,0,0,0,.28.31l2,.72c.16.06.33.12.35.33s-.13.28-.27.37l-1.76,1.1a.47.47,0,0,0-.25.44c0,.71-.05,1.42-.08,2.14C451.07,488.71,450.84,488.83,450.54,488.64Zm-4.24-5.55c0,.06,0,.08,0,.1a9.68,9.68,0,0,0,.67,1,1.19,1.19,0,0,1,.16,1.55,8.53,8.53,0,0,0-.47,1.18l.06.09c.45-.15.91-.26,1.35-.44a1,1,0,0,1,1.26.27,13.73,13.73,0,0,0,1.13.94c0-.64.07-1.22.07-1.81a.62.62,0,0,1,.35-.6c.5-.29,1-.62,1.48-.93a.37.37,0,0,0-.25-.15c-.48-.18-.95-.37-1.44-.53a.54.54,0,0,1-.41-.46c-.14-.59-.3-1.17-.46-1.8-.41.52-.79,1-1.16,1.46a.55.55,0,0,1-.54.25C447.53,483.16,446.93,483.13,446.3,483.09Z" transform="translate(-8.04 -236.99)"/><path class="cls-1" d="M539.81,475.32l-1.17-.72a.39.39,0,0,0-.43,0l-1.18.53c-.1.05-.21.11-.31,0s-.08-.2-.05-.31c.1-.44.2-.88.31-1.31a.33.33,0,0,0-.09-.34c-.31-.32-.61-.66-.91-1-.08-.09-.16-.17-.11-.3s.16-.12.27-.13l1.38-.11a.29.29,0,0,0,.25-.16l.67-1.19c.06-.1.11-.2.25-.2s.18.12.22.22l.54,1.29a.25.25,0,0,0,.21.17l1.36.28c.11,0,.23,0,.26.18s-.06.19-.14.26l-1,.89a.32.32,0,0,0-.12.3c.06.47.11.94.16,1.4C540.16,475.32,540,475.41,539.81,475.32Zm-3.29-3.19s0,.05,0,.06a6.1,6.1,0,0,0,.54.59.78.78,0,0,1,.25,1,7.3,7.3,0,0,0-.18.81l0,.05c.28-.14.57-.26.83-.42a.68.68,0,0,1,.85.06c.25.18.53.32.83.5-.05-.42-.08-.8-.14-1.18a.44.44,0,0,1,.17-.43c.3-.24.58-.5.87-.75a.25.25,0,0,0-.17-.07c-.33-.07-.66-.15-1-.2a.37.37,0,0,1-.31-.26c-.15-.37-.31-.73-.48-1.13-.21.38-.41.72-.6,1.07a.37.37,0,0,1-.33.21Z" transform="translate(-8.04 -236.99)"/><path class="cls-1" d="M610.55,456.7l-.93-.57a.3.3,0,0,0-.35,0c-.31.15-.62.28-.94.42-.08,0-.16.09-.25,0s-.06-.16,0-.25c.09-.35.16-.7.25-1.05a.24.24,0,0,0-.07-.26c-.25-.26-.48-.53-.73-.8-.06-.06-.12-.13-.08-.23s.12-.1.21-.11l1.1-.09a.21.21,0,0,0,.2-.12l.54-.95c0-.08.08-.16.19-.16s.15.09.18.18c.15.34.29.68.43,1a.21.21,0,0,0,.17.14l1.08.22c.09,0,.18,0,.21.14s-.05.16-.11.21l-.83.71a.23.23,0,0,0-.09.24c0,.38.09.75.12,1.12C610.83,456.7,610.72,456.77,610.55,456.7Zm-2.63-2.55,0,.05c.15.16.27.33.43.47a.61.61,0,0,1,.2.79c-.07.21-.1.43-.15.65l0,0c.22-.11.45-.21.66-.33a.54.54,0,0,1,.68,0,6.78,6.78,0,0,0,.66.4c0-.34-.06-.64-.11-.94a.32.32,0,0,1,.14-.34c.23-.19.46-.4.69-.6a.2.2,0,0,0-.14-.06c-.26-.05-.52-.12-.79-.16A.3.3,0,0,1,610,454c-.11-.29-.24-.58-.37-.89-.18.3-.34.57-.49.85a.29.29,0,0,1-.26.17Z" transform="translate(-8.04 -236.99)"/><path class="cls-1" d="M586,400.62l-1.34.29a.38.38,0,0,0-.34.27c-.15.41-.32.8-.49,1.2,0,.1-.07.22-.21.23s-.19-.09-.25-.19c-.23-.39-.46-.78-.68-1.17a.31.31,0,0,0-.29-.18L581,401c-.11,0-.23,0-.28-.14s0-.2.11-.28c.31-.35.61-.69.93-1a.28.28,0,0,0,.07-.29c-.12-.44-.22-.88-.33-1.32,0-.11-.06-.23,0-.32s.21,0,.32,0l1.27.56a.24.24,0,0,0,.27,0c.39-.25.78-.5,1.18-.74.09-.06.19-.12.31,0s.09.18.08.28c-.05.46-.09.91-.14,1.36a.29.29,0,0,0,.12.3l1.07.91C586.2,400.38,586.17,400.54,586,400.62Zm-4.59-.06.06,0a7.18,7.18,0,0,0,.8.06.77.77,0,0,1,.86.55,7.49,7.49,0,0,0,.42.72h.07a9.25,9.25,0,0,0,.32-.88.67.67,0,0,1,.65-.54,9.53,9.53,0,0,0,1-.2c-.33-.27-.61-.53-.91-.77a.39.39,0,0,1-.17-.42c.05-.38.08-.76.12-1.15a.3.3,0,0,0-.18.07l-.86.53a.36.36,0,0,1-.41,0c-.35-.17-.72-.32-1.11-.49.1.42.19.81.29,1.19a.36.36,0,0,1-.09.38Z" transform="translate(-8.04 -236.99)"/><path class="cls-1" d="M567,433.31l-.78.16a.21.21,0,0,0-.19.16l-.28.69c0,.06,0,.13-.13.14s-.11-.06-.14-.12c-.13-.22-.27-.44-.39-.67a.2.2,0,0,0-.17-.11l-.78-.05c-.07,0-.14,0-.16-.08s0-.12.06-.17.35-.4.53-.59a.15.15,0,0,0,0-.17l-.18-.76c0-.07,0-.13,0-.19s.12,0,.18,0l.74.33a.16.16,0,0,0,.16,0l.68-.42s.11-.07.18,0,.05.11,0,.17c0,.26-.05.52-.08.79a.17.17,0,0,0,.07.17l.62.53C567.15,433.17,567.14,433.26,567,433.31Zm-2.65,0,0,0a3.55,3.55,0,0,0,.46,0,.47.47,0,0,1,.5.32,3.5,3.5,0,0,0,.24.42h0a5.27,5.27,0,0,0,.19-.51.38.38,0,0,1,.38-.31c.17,0,.35-.08.54-.12-.18-.16-.35-.31-.52-.44a.23.23,0,0,1-.1-.25c0-.22,0-.44.07-.66a.18.18,0,0,0-.11,0l-.49.31a.23.23,0,0,1-.24,0c-.2-.1-.42-.18-.64-.28.06.24.11.46.17.69a.21.21,0,0,1-.06.21Z" transform="translate(-8.04 -236.99)"/><path class="cls-1" d="M623.78,422.19l-.59-.36a.2.2,0,0,0-.22,0l-.59.27s-.1.05-.16,0a.14.14,0,0,1,0-.16l.15-.66a.15.15,0,0,0,0-.17c-.16-.16-.31-.33-.46-.5s-.08-.08-.05-.15.08-.06.13-.06l.7-.06a.13.13,0,0,0,.12-.08l.34-.6c0-.05,0-.1.12-.1s.09.06.12.11l.27.65a.15.15,0,0,0,.1.09l.69.13c.05,0,.11,0,.13.09s0,.1-.07.14l-.53.45a.14.14,0,0,0,0,.15c0,.23,0,.47.07.7S623.89,422.24,623.78,422.19Zm-1.66-1.6,0,0a1.48,1.48,0,0,0,.27.29.4.4,0,0,1,.12.5,2.71,2.71,0,0,0-.09.41l0,0c.14-.07.29-.14.42-.22a.35.35,0,0,1,.43,0,2.36,2.36,0,0,0,.41.25c0-.21,0-.4-.07-.59a.24.24,0,0,1,.09-.22l.44-.37a.18.18,0,0,0-.09,0l-.5-.1a.2.2,0,0,1-.16-.13c-.07-.19-.15-.37-.23-.57l-.31.54a.2.2,0,0,1-.16.11Z" transform="translate(-8.04 -236.99)"/><path class="cls-1" d="M765.27,580c-.61-.38-1.26-.75-1.9-1.16a.62.62,0,0,0-.7-.05c-.63.31-1.27.58-1.91.87-.17.07-.33.17-.51,0s-.12-.32-.08-.5c.17-.71.33-1.42.5-2.13a.5.5,0,0,0-.14-.54c-.5-.53-1-1.08-1.48-1.62-.12-.13-.26-.27-.17-.48s.26-.2.43-.21l2.25-.18a.45.45,0,0,0,.4-.26c.36-.65.73-1.29,1.09-1.93.09-.16.18-.33.4-.32s.29.19.36.36c.29.69.59,1.38.87,2.08a.41.41,0,0,0,.35.28l2.21.45c.17,0,.36.07.41.29s-.09.31-.22.43c-.56.48-1.12,1-1.69,1.44a.5.5,0,0,0-.19.5c.1.75.18,1.51.26,2.27C765.84,580,765.63,580.14,765.27,580Zm-5.34-5.18a.25.25,0,0,0,0,.1,9.91,9.91,0,0,0,.87,1,1.27,1.27,0,0,1,.41,1.61,8.42,8.42,0,0,0-.3,1.32l.07.08c.46-.22.92-.42,1.35-.68a1.1,1.1,0,0,1,1.38.09,12.19,12.19,0,0,0,1.34.81c-.08-.68-.13-1.3-.22-1.91a.67.67,0,0,1,.28-.69c.48-.39.94-.81,1.41-1.22a.44.44,0,0,0-.29-.12c-.53-.11-1.06-.24-1.6-.33a.59.59,0,0,1-.51-.42c-.24-.59-.5-1.18-.77-1.82-.35.61-.68,1.16-1,1.73a.58.58,0,0,1-.53.34Z" transform="translate(-8.04 -236.99)"/><path class="cls-1" d="M771.17,587.23c-.29-.18-.59-.35-.88-.54a.29.29,0,0,0-.32,0l-.88.4c-.08,0-.16.08-.24,0s-.06-.15,0-.24c.08-.32.15-.65.23-1a.24.24,0,0,0-.06-.25c-.23-.24-.46-.5-.68-.74-.06-.07-.12-.13-.08-.23s.12-.09.2-.1l1-.08a.22.22,0,0,0,.19-.12c.16-.3.33-.59.5-.89.05-.07.08-.15.19-.15s.13.09.16.17c.14.32.28.64.41,1a.18.18,0,0,0,.16.13l1,.2c.08,0,.16,0,.19.14s0,.15-.11.2l-.77.67a.22.22,0,0,0-.09.22l.12,1C771.43,587.23,771.33,587.3,771.17,587.23Zm-2.47-2.39s0,0,0,0a3.38,3.38,0,0,0,.4.44.59.59,0,0,1,.19.75,5.45,5.45,0,0,0-.14.61l0,0c.2-.1.42-.19.62-.31a.5.5,0,0,1,.63,0c.19.14.4.24.62.38,0-.32-.06-.61-.1-.89a.31.31,0,0,1,.13-.32l.65-.56a.15.15,0,0,0-.13,0c-.25-.06-.49-.12-.74-.16a.28.28,0,0,1-.24-.19c-.1-.28-.22-.55-.35-.84-.16.28-.31.53-.45.79a.26.26,0,0,1-.25.16Z" transform="translate(-8.04 -236.99)"/><path class="cls-1" d="M777.84,571.61c-.72.08-1.47.19-2.21.26a.64.64,0,0,0-.59.4c-.3.63-.64,1.24-1,1.86-.08.16-.16.35-.38.34s-.3-.17-.38-.34c-.3-.67-.62-1.32-.92-2a.53.53,0,0,0-.44-.34c-.72-.1-1.44-.23-2.16-.35-.19,0-.38-.06-.44-.27s.08-.32.21-.44c.55-.51,1.1-1,1.65-1.53a.43.43,0,0,0,.16-.44c-.12-.73-.22-1.47-.33-2.2,0-.18-.07-.37.11-.5s.35,0,.51.06l2,1.1a.41.41,0,0,0,.44,0c.67-.35,1.34-.68,2-1,.17-.08.33-.17.51,0s.12.31.09.48c-.14.72-.28,1.45-.43,2.18a.46.46,0,0,0,.16.5c.54.54,1.07,1.08,1.6,1.63C778.28,571.25,778.21,571.51,777.84,571.61Zm-7.41-.76.1,0a9.56,9.56,0,0,0,1.27.2,1.28,1.28,0,0,1,1.32,1,8.48,8.48,0,0,0,.58,1.22l.11,0c.21-.46.46-.9.64-1.37a1.08,1.08,0,0,1,1.13-.78c.5,0,1-.12,1.56-.19-.48-.49-.91-.94-1.36-1.37a.67.67,0,0,1-.21-.72c.14-.6.24-1.21.36-1.82a.46.46,0,0,0-.3.08c-.49.24-1,.47-1.47.74a.59.59,0,0,1-.65,0c-.56-.32-1.12-.62-1.74-1,.11.7.19,1.33.3,2a.59.59,0,0,1-.2.6C771.39,570,770.93,570.39,770.43,570.85Z" transform="translate(-8.04 -236.99)"/><path class="cls-1" d="M693.76,431.67c-.62-.37-1.27-.75-1.9-1.16a.65.65,0,0,0-.71,0c-.63.3-1.27.58-1.9.86-.17.08-.34.18-.52,0s-.12-.32-.08-.51c.18-.71.33-1.42.51-2.13a.52.52,0,0,0-.14-.54c-.51-.53-1-1.07-1.48-1.61-.13-.14-.26-.28-.18-.48s.26-.2.44-.22c.75-.06,1.49-.13,2.24-.18a.43.43,0,0,0,.4-.25c.36-.65.73-1.29,1.1-1.93.09-.16.17-.34.4-.33s.28.19.35.36l.88,2.08a.39.39,0,0,0,.34.28l2.21.45c.18,0,.37.07.42.3s-.1.31-.23.42c-.56.49-1.11,1-1.68,1.45a.47.47,0,0,0-.19.49c.09.76.17,1.51.25,2.27C694.33,431.67,694.11,431.83,693.76,431.67Zm-5.35-5.17c0,.06,0,.09,0,.1a9.9,9.9,0,0,0,.88.95,1.28,1.28,0,0,1,.41,1.61,9.74,9.74,0,0,0-.31,1.32l.08.08c.45-.23.92-.42,1.35-.68a1.08,1.08,0,0,1,1.37.09c.4.3.86.52,1.34.81-.07-.68-.13-1.3-.21-1.92a.65.65,0,0,1,.27-.69c.48-.39.94-.81,1.41-1.21a.43.43,0,0,0-.28-.12c-.54-.12-1.07-.24-1.61-.33a.62.62,0,0,1-.51-.42c-.23-.6-.49-1.18-.77-1.83-.35.61-.67,1.17-1,1.73a.61.61,0,0,1-.53.35C689.72,426.38,689.08,426.44,688.41,426.5Z" transform="translate(-8.04 -236.99)"/><path class="cls-1" d="M699.65,438.91c-.28-.17-.58-.34-.87-.53a.31.31,0,0,0-.33,0l-.88.4c-.08,0-.16.08-.24,0s-.06-.15,0-.23c.07-.33.15-.66.23-1a.24.24,0,0,0-.07-.25c-.23-.24-.45-.49-.68-.74-.06-.06-.12-.13-.08-.22s.12-.09.2-.1l1-.09a.19.19,0,0,0,.18-.11l.51-.89c0-.08.08-.16.18-.15s.13.08.17.16l.4,1a.18.18,0,0,0,.16.13l1,.21c.08,0,.17,0,.19.14s0,.14-.1.19l-.78.67a.23.23,0,0,0-.09.23c.05.35.08.7.12,1.05C699.92,438.91,699.82,439,699.65,438.91Zm-2.47-2.39s0,0,0,.05a5.76,5.76,0,0,0,.41.44.59.59,0,0,1,.19.74,4.18,4.18,0,0,0-.15.61l0,0c.21-.11.42-.2.62-.32a.5.5,0,0,1,.64.05,6,6,0,0,0,.62.37c0-.31-.06-.6-.1-.88a.3.3,0,0,1,.12-.32c.23-.18.44-.38.66-.56a.22.22,0,0,0-.14-.06c-.24-.05-.49-.11-.74-.15a.27.27,0,0,1-.23-.2c-.11-.27-.23-.54-.36-.84-.16.28-.31.54-.45.8a.29.29,0,0,1-.25.16Z" transform="translate(-8.04 -236.99)"/><path class="cls-1" d="M706.32,423.29c-.72.09-1.46.19-2.21.27a.6.6,0,0,0-.58.4c-.31.62-.64,1.24-1,1.86-.08.16-.15.34-.38.34s-.29-.18-.37-.35c-.31-.66-.62-1.32-.92-2a.52.52,0,0,0-.45-.34c-.72-.1-1.44-.24-2.16-.35-.18,0-.37-.06-.43-.27s.08-.32.21-.44c.55-.51,1.09-1,1.65-1.53a.45.45,0,0,0,.15-.45c-.12-.73-.22-1.46-.33-2.19,0-.18-.07-.37.11-.5s.35,0,.51.06c.66.36,1.32.72,2,1.09a.39.39,0,0,0,.44,0c.67-.34,1.34-.68,2-1,.16-.08.33-.17.51,0s.12.3.08.47c-.14.73-.27,1.46-.43,2.18a.51.51,0,0,0,.16.51c.54.53,1.07,1.07,1.6,1.62C706.76,422.94,706.69,423.2,706.32,423.29Zm-7.4-.76.1.06a9.07,9.07,0,0,0,1.27.2,1.28,1.28,0,0,1,1.32,1,8.53,8.53,0,0,0,.57,1.23h.11c.22-.45.46-.89.64-1.36a1.09,1.09,0,0,1,1.14-.78,12.92,12.92,0,0,0,1.55-.2c-.48-.48-.9-.94-1.35-1.37a.66.66,0,0,1-.22-.71c.14-.6.24-1.22.36-1.83a.39.39,0,0,0-.29.09c-.5.24-1,.47-1.47.73a.61.61,0,0,1-.66,0l-1.73-1c.1.7.19,1.34.29,2a.57.57,0,0,1-.2.6Z" transform="translate(-8.04 -236.99)"/><g class="cls-2"><path class="cls-3" d="M271.18,256.22c.26-.26.53-.54.77-.83a4.68,4.68,0,0,0-7.11-6.08q-3.31,3.3-6.62,6.62l-3.16,3.16q-3.06,3.07-6.14,6.13a2.35,2.35,0,0,1-2.18.77,2.29,2.29,0,0,1-1.93-1.6,2.41,2.41,0,0,1,.63-2.59c.71-.72,1.42-1.43,2.14-2.14l2.41-2.42a4,4,0,1,0-5.65-5.66C233.12,262.79,224,272,215.49,280.45a14.63,14.63,0,0,0-4.3,10.28h0a12.76,12.76,0,0,0,.34,3,14.1,14.1,0,0,0,9.54,10.81,15.84,15.84,0,0,0,5.2.93,13.18,13.18,0,0,0,9-3.6c3.76-3.38,7.39-7,10.9-10.54l3.2-3.2a3.88,3.88,0,0,0,.15-5.56,3.47,3.47,0,0,1,.29-5.09c5.3-5.23,10.64-10.58,15.81-15.76l5.47-5.49ZM216.54,281l17.68-17.67,8.43-8.44,2.39-2.39a3.3,3.3,0,0,1,2.28-1,2.74,2.74,0,0,1,2,.83,2.92,2.92,0,0,1-.15,4.24q-1.23,1.26-2.49,2.49l-1.88,1.89a3.53,3.53,0,0,0-.22,5.18,3.46,3.46,0,0,0,2.46,1.08h0a3.93,3.93,0,0,0,2.76-1.23q7.86-7.83,15.68-15.68a3.62,3.62,0,0,1,3.86-1.16,3.55,3.55,0,0,1,1.61,5.76c-.2.22-.41.44-.63.65L249,276.79c-2.16,2.16-2.27,4.17-.33,6.52a3,3,0,0,1-.34,4.35q-3.6,3.55-7.21,7.1l-2,2q-1.62,1.59-3.25,3.17l-.44.43a13.87,13.87,0,0,1-10.29,3.94h0c-5.28.19-11.65-4.43-12.65-11.62A13.29,13.29,0,0,1,216.54,281Z" transform="translate(-8.04 -236.99)"/><path class="cls-3" d="M211.84,251.53a2,2,0,0,1,.94,1.22,5.79,5.79,0,0,0,.37.75,1.64,1.64,0,0,0,1.34.84,1.54,1.54,0,0,0,1.28-.85c.14-.23.26-.49.38-.74a7.74,7.74,0,0,1,.37-.7c.14-.24.28-.37.38-.37h0c.11,0,.25.14.39.38a5.13,5.13,0,0,1,.34.66,7.56,7.56,0,0,0,.42.79,1.6,1.6,0,0,0,1.29.86h0a1.6,1.6,0,0,0,1.3-.88,8,8,0,0,0,.4-.77c.07-.16.15-.31.23-.47l.05-.1c.15-.3.24-.43.43-.44s.3.12.47.44l.06.13c.09.16.16.32.24.49s.19.4.3.6a1.45,1.45,0,0,0,2.75,0,7,7,0,0,0,.34-.67c.07-.17.15-.33.23-.49l0-.1c.15-.3.24-.43.44-.43s.29.11.45.42l0,.08c.12.21.22.43.33.65s.21.44.32.65a1.36,1.36,0,0,0,1.2.81,1.61,1.61,0,0,0,1.53-1,6.28,6.28,0,0,0,.27-.59,2.12,2.12,0,0,1,.71-1.05l.1-.06a.62.62,0,0,0,.36-.38.46.46,0,0,0-.08-.4c-.27-.42-.76-.21-1-.14a1.63,1.63,0,0,0-.76.8l-.27.54c-.12.26-.24.51-.38.75-.24.41-.39.44-.43.44s-.19,0-.43-.46a5.76,5.76,0,0,1-.3-.61c-.12-.23-.23-.47-.36-.69a1.6,1.6,0,0,0-1.32-.93,1.55,1.55,0,0,0-1.33.87,7.17,7.17,0,0,0-.35.67c-.06.14-.13.28-.2.42a1.74,1.74,0,0,1-.1.19c-.15.34-.25.49-.46.5s-.33-.13-.49-.47a1.46,1.46,0,0,0-.13-.25c-.08-.15-.15-.31-.22-.47s-.09-.2-.14-.29a1.72,1.72,0,0,0-1.5-1.16,1.64,1.64,0,0,0-1.42,1.12c-.07.14-.14.27-.2.41s-.21.44-.33.66c-.26.45-.42.49-.46.49h0s-.19,0-.44-.48a5.23,5.23,0,0,1-.29-.58,6.36,6.36,0,0,0-.32-.64,1.68,1.68,0,0,0-1.39-1,1.63,1.63,0,0,0-1.36,1c-.12.21-.23.43-.33.65s-.21.44-.33.65c-.22.38-.37.41-.41.41h0s-.18,0-.4-.4-.3-.55-.44-.83-.23-.46-.35-.68a1.25,1.25,0,0,0-1.13-.7.68.68,0,0,0-.47.23.44.44,0,0,0,.16.7Z" transform="translate(-8.04 -236.99)"/><path class="cls-3" d="M260,295.49h0a4.94,4.94,0,0,0-3.51,1.38,4.87,4.87,0,0,0-1.4,3.48,4.77,4.77,0,0,0,4.79,4.83h0a4.92,4.92,0,0,0,3.47-1.37,4.88,4.88,0,0,0-3.33-8.32Zm-.12,8.6h0a3.71,3.71,0,0,1-2.64-1.11,3.8,3.8,0,0,1-1.08-2.7,3.76,3.76,0,0,1,3.75-3.71h0a3.73,3.73,0,0,1,2.64,1.12,3.73,3.73,0,0,1-2.67,6.4Z" transform="translate(-8.04 -236.99)"/><path class="cls-3" d="M253,251.91a3.11,3.11,0,0,0,2.15-.88c.65-.63,1.28-1.27,1.91-1.91l.76-.76a2.72,2.72,0,0,0,.88-2.06,2.87,2.87,0,0,0-1.73-2.8,2.79,2.79,0,0,0-3.22.56c-1,.9-1.95,1.87-2.86,2.86a2.9,2.9,0,0,0,.12,4.19A2.84,2.84,0,0,0,253,251.91Zm-1.31-4.17c.79-.87,1.65-1.71,2.49-2.51l.4-.39a1.34,1.34,0,0,1,.92-.39h.2a1.63,1.63,0,0,1,1.64.9,1.58,1.58,0,0,1-.12,1.94,35.47,35.47,0,0,1-3.06,3.07,1.69,1.69,0,0,1-2.43-.18A1.77,1.77,0,0,1,251.7,247.74Z" transform="translate(-8.04 -236.99)"/><path class="cls-3" d="M258.19,279.8c.83-.76,1.6-1.56,2.33-2.31a2.94,2.94,0,0,0,.05-4.21,3,3,0,0,0-4.22,0c-.72.67-1.41,1.39-2.09,2.08l-.11.12a2.68,2.68,0,0,0-.87,2,2.82,2.82,0,0,0,1.67,2.81,3,3,0,0,0,1.3.31A2.87,2.87,0,0,0,258.19,279.8Zm1.73-3.35a27.34,27.34,0,0,1-2.59,2.58,1.74,1.74,0,0,1-2.38-.13,1.68,1.68,0,0,1-.23-2.31,17.29,17.29,0,0,1,2.74-2.75,1.46,1.46,0,0,1,.93-.32h.11a1.77,1.77,0,0,1,1.59,1A1.62,1.62,0,0,1,259.92,276.45Z" transform="translate(-8.04 -236.99)"/><path class="cls-3" d="M271.25,284.84a2,2,0,0,0-1.42.53,2,2,0,0,0,1.32,3.44h.06a1.89,1.89,0,0,0,1.29-.53,2.14,2.14,0,0,0,.64-1.48A1.89,1.89,0,0,0,271.25,284.84Zm.79,2a.84.84,0,0,1-1.67,0,.83.83,0,0,1,.21-.61.86.86,0,0,1,.62-.29h0A.89.89,0,0,1,272,286.86Z" transform="translate(-8.04 -236.99)"/><path class="cls-3" d="M219.06,258.68a1.94,1.94,0,0,0,0,3.87h0a1.83,1.83,0,0,0,1.94-1.91,1.91,1.91,0,0,0-.54-1.43A2,2,0,0,0,219.06,258.68Zm.9,1.93c-.09.56-.35.82-.85.84a.81.81,0,0,1-.61-.24.81.81,0,0,1-.22-.63.76.76,0,0,1,.83-.8h0C219.44,259.79,219.86,259.88,220,260.61Z" transform="translate(-8.04 -236.99)"/><path class="cls-3" d="M225.85,301.65h.1a10.58,10.58,0,0,0,7.76-3.26,10.77,10.77,0,0,0,3-7.66,10.47,10.47,0,0,0-3.08-7.54,10.61,10.61,0,0,0-7.78-3.24A11,11,0,0,0,218,283.3a10.52,10.52,0,0,0-3,7.51A10.71,10.71,0,0,0,225.85,301.65Zm-9.71-10.81a9.41,9.41,0,0,1,2.82-6.93,9.93,9.93,0,0,1,6.82-2.86H226a9.74,9.74,0,0,1,6.68,16.74,9.31,9.31,0,0,1-6.81,2.7h0a9.49,9.49,0,0,1-6.72-2.66A9.62,9.62,0,0,1,216.14,290.84Z" transform="translate(-8.04 -236.99)"/><path class="cls-3" d="M219.42,296.7a.81.81,0,0,0,.57.38h0a.57.57,0,0,0,.41-.2c.37-.39,0-.75-.14-.89l-.09-.09a7.41,7.41,0,0,1-1.92-5.15v-1c0-.18,0-.64-.47-.68a.5.5,0,0,0-.4.11.71.71,0,0,0-.2.53v.08a8.55,8.55,0,0,0,2.17,6.84Z" transform="translate(-8.04 -236.99)"/></g><g class="cls-2"><path class="cls-3" d="M308.45,492.09c0,1.19,0,2.38,0,3.57a1.52,1.52,0,0,1-.47,1.24c-1.63,1.6-3.22,3.23-4.85,4.82-.38.37-.44.59,0,1,.68.61,1.31,1.26,1.93,1.92.29.32.48.33.79,0,1-1,1.93-2,2.9-2.92a1.92,1.92,0,0,1,3.1,0L324.15,514a1.92,1.92,0,0,1,0,3.1c-2.48,2.5-5,5-7.47,7.48a1.91,1.91,0,0,1-3.1,0l-12.31-12.31a1.92,1.92,0,0,1,0-3.1c1-1,1.89-1.93,2.87-2.85.35-.34.34-.54,0-.86-.66-.62-1.31-1.25-1.92-1.93-.36-.41-.57-.32-.9,0-1.32,1.35-2.67,2.68-4,4-1,1-1.8,1.09-2.93.23-.28-.21-.42-.18-.63,0-.49.51-1,1-1.49,1.49a1.85,1.85,0,0,1-2.76,0,20.8,20.8,0,0,1-1.48-1.49c-.33-.38-.55-.33-.84,0s-.51.51-.76.77-.92.67-.21,1.26c.25.2.16.58-.12.82a.53.53,0,0,1-.77,0c-.64-.61-1.26-1.23-1.87-1.87a.63.63,0,0,1,.92-.86c.44.53.71.24,1-.12s1.22-.84,1.18-1.34-.76-.91-1.19-1.35c-1.09-1.1-1.1-1.1-2.21,0-.74.73-1.46,1.47-2.21,2.19a.82.82,0,0,0-.28.93,2.09,2.09,0,0,1-1,2.45,2.16,2.16,0,0,1-3-2.94,2.1,2.1,0,0,1,2.45-1,.8.8,0,0,0,.93-.27c.94-1,1.88-1.93,2.86-2.85.42-.39.38-.63,0-1s-.82-.79-1.22-1.2a1.9,1.9,0,0,1,0-3c.44-.44.87-.89,1.32-1.32.27-.24.35-.4.07-.75a1.81,1.81,0,0,1,.14-2.75c1.37-1.38,2.73-2.77,4.13-4.11.41-.39.38-.61,0-1a22.08,22.08,0,0,1-1.81-1.81c-.41-.48-.65-.37-1,0-.91,1-1.85,1.88-2.79,2.81a1.92,1.92,0,0,1-3.05,0L266.3,477.3a1.88,1.88,0,0,1,0-3q3.72-3.75,7.47-7.48a2,2,0,0,1,3.16,0l12.2,12.2c1.15,1.15,1.13,2.1,0,3.27-.93.94-1.86,1.88-2.81,2.79-.31.3-.35.48,0,.8.69.63,1.35,1.29,2,2,.33.36.52.35.86,0,1.58-1.61,3.19-3.18,4.76-4.79a1.79,1.79,0,0,1,1.51-.59c2.33.12,4.66.17,7,.28a1.54,1.54,0,0,0,1.41-.58c.39-.46,1.06-.82,1.16-1.31s-.44-1-.7-1.49a14.1,14.1,0,0,1,2.8-16.78c.53-.53.9-.38,1.36.08,3,3,6,6,8.94,9,.43.43.64.42,1.08,0a1.34,1.34,0,0,0,.44-1.7,2.76,2.76,0,0,1,1.35-3.25,2.92,2.92,0,0,1,3.92,4.11,3,3,0,0,1-3.32,1.25c-.28-.09-.55-.44-.85-.2a6.81,6.81,0,0,0-1.05,1c-.25.32.15.44.3.59,2.65,2.67,5.31,5.32,8,8,.39.38.77.78,1.16,1.15s.43.8,0,1.25a14.07,14.07,0,0,1-17.52,2.39c-.63-.37-.9-.24-1.41.19a3.11,3.11,0,0,0-1.23,3.1c.12.84.09,1.7.13,2.56Zm9.63-5a13.41,13.41,0,0,0,8.58-3.33c.5-.42.43-.63,0-1.05q-6.81-6.76-13.59-13.56c-1.66-1.67-3.34-3.33-5-5-.31-.31-.48-.33-.78,0a13.1,13.1,0,0,0-3.44,8.69C303.86,480.19,310.68,487,318.08,487.05Zm-11.16,9.12c-.09-.11-.17-.21-.26-.3q-5.79-5.79-11.58-11.6c-.28-.27-.42-.23-.67,0q-5.13,5.15-10.27,10.28a.75.75,0,0,0,0,1.25q5.48,5.44,10.92,10.93a.78.78,0,0,0,1.31,0q5.1-5.13,10.21-10.22C306.7,496.42,306.8,496.3,306.92,496.17Zm0-2c0-1.91,0-4,0-6.05a.87.87,0,0,0-.33-.66c-1.05-1.05-2.1-2.09-3.13-3.14a1.07,1.07,0,0,0-.82-.35L297,483.8c-.15,0-.36-.11-.42,0Zm-13.82,12.39c-.13-.15-.29-.32-.45-.48-2.25-2.25-4.5-4.51-6.76-6.75-.53-.52-1-1.45-1.62-1.44s-1.07,1-1.64,1.45-.5.87,0,1.37c2.54,2.51,5.06,5,7.59,7.57a1,1,0,0,0,.57.38A6.73,6.73,0,0,0,293.11,506.57Zm-17.77-29.86-.3.26c-1.12,1.12-2.22,2.24-3.35,3.34-.29.28-.2.44,0,.68q1.63,1.61,3.23,3.23c.26.26.42.36.73,0,1.08-1.12,2.18-2.21,3.29-3.29.24-.25.31-.39,0-.67-1.11-1.08-2.2-2.19-3.29-3.28C275.6,476.92,275.48,476.83,275.34,476.71Zm38.82,38.8c-.07-.08-.15-.18-.24-.27-1.11-1.11-2.23-2.22-3.34-3.35-.24-.25-.39-.2-.61,0-1.1,1.12-2.22,2.24-3.34,3.35-.22.21-.28.36,0,.61,1.13,1.1,2.24,2.22,3.34,3.34.27.27.43.25.69,0,1.08-1.1,2.18-2.19,3.27-3.29C314,515.81,314.17,515.73,314.16,515.51Zm-30.05-39.72c-.08-.1-.14-.19-.21-.26-1.15-1.15-2.31-2.3-3.45-3.46-.29-.3-.44-.07-.62.11-1.08,1.08-2.15,2.17-3.24,3.23-.29.28-.3.46,0,.74q1.64,1.61,3.23,3.24c.29.3.47.28.75,0,1.07-1.09,2.15-2.16,3.23-3.24C283.91,476,284,475.92,284.11,475.79Zm34.94,34.95c-.08-.1-.13-.19-.2-.26-1.15-1.15-2.31-2.3-3.45-3.46-.28-.29-.43-.1-.62.09-1.07,1.08-2.14,2.17-3.24,3.23-.33.32-.27.51,0,.8,1.08,1,2.14,2.11,3.19,3.18.27.28.44.32.74,0,1.08-1.11,2.19-2.2,3.28-3.3ZM274.43,475.8c-.08-.1-.14-.19-.21-.26-1.15-1.15-2.32-2.3-3.46-3.46-.29-.31-.42-.09-.6.09-1,1-2,2-3,3a.78.78,0,0,0,0,1.31c1,1,2,1.93,2.91,2.92.29.29.46.37.79,0,1.06-1.1,2.15-2.17,3.23-3.25C274.22,476,274.32,475.92,274.43,475.8Zm40.75,48.29a.64.64,0,0,0,.5-.26c1.05-1.05,2.08-2.1,3.14-3.13.27-.26.17-.4,0-.61-1.12-1.11-2.25-2.22-3.35-3.35-.24-.25-.38-.22-.61,0q-1.63,1.66-3.3,3.3c-.29.27-.3.44,0,.73,1,1,2,2,3,3A.77.77,0,0,0,315.18,524.09Zm-26.44-43.44a.63.63,0,0,0-.21-.48c-1.07-1.09-2.15-2.16-3.22-3.25-.24-.24-.39-.13-.58.05-1.11,1.12-2.22,2.24-3.34,3.34-.23.22-.28.37,0,.62,1.12,1.11,2.24,2.22,3.34,3.35.27.27.43.24.68,0,1-1,2-2,3-3A.92.92,0,0,0,288.74,480.65Zm25.46,25.22-.26-.31-3.07-3.07a.72.72,0,0,0-1.19,0c-1,1-2,2-3,3-.26.26-.29.42,0,.69,1.11,1.08,2.21,2.17,3.29,3.29.3.31.47.25.73,0,1.07-1.09,2.15-2.15,3.23-3.23ZM279.27,471c-.1-.12-.19-.25-.29-.36l-3-3c-.45-.45-.83-.4-1.26,0q-1.44,1.47-2.91,2.91c-.3.29-.37.48,0,.8,1.08,1,2.14,2.11,3.19,3.19.3.31.49.32.8,0,1.06-1.1,2.16-2.17,3.24-3.25Zm4.84,14.54a2.17,2.17,0,0,0-.2-.26c-1.15-1.16-2.31-2.3-3.45-3.46-.29-.3-.44-.09-.63.1-1.08,1.08-2.15,2.17-3.25,3.23-.29.29-.27.47,0,.75,1,1,2,2,3,3a.77.77,0,0,0,1.26,0l3-3Zm25.19,25.17a1.42,1.42,0,0,0-.17-.21c-1.15-1.16-2.31-2.31-3.45-3.47-.26-.26-.4-.07-.57.09q-1.5,1.51-3,3a.76.76,0,0,0,0,1.26c1,1,2,2,3,3,.28.29.46.29.74,0,1.07-1.1,2.16-2.17,3.23-3.25C309.15,511,309.3,510.89,309.3,510.67Zm14.36,4.89a.9.9,0,0,0-.32-.6c-1-1-2-2-3-3-.26-.26-.41-.28-.68,0-1.07,1.09-2.14,2.17-3.24,3.24-.32.31-.31.5,0,.8,1.08,1,2.15,2.1,3.19,3.19.32.33.51.27.8,0,1-1,1.94-2,2.91-2.92A.93.93,0,0,0,323.66,515.56Zm-16.12-29c.48-.5,1-1,1.39-1.48.11-.13-.17-.27-.3-.38a18.09,18.09,0,0,1-1.8-1.7c-1.11-1.21-1.11-1.2-2.23.06-.22.24-.26.37,0,.61.89.86,1.76,1.74,2.63,2.62Zm14.14-15.69a1.68,1.68,0,0,0,1.69-1.67,1.72,1.72,0,0,0-1.69-1.7,1.69,1.69,0,0,0-1.67,1.69A1.67,1.67,0,0,0,321.68,470.91Zm-43,38.91a.86.86,0,0,0,.85-1,.84.84,0,0,0-1-.84.81.81,0,0,0-.83.91C277.72,509.51,278.08,509.78,278.67,509.82Z" transform="translate(-8.04 -236.99)"/><path class="cls-3" d="M322.92,458.45a10,10,0,0,1,9.55,9.51c0,.44.07,1-.57,1s-.65-.45-.68-.92a8.61,8.61,0,0,0-7.31-8.23,7.61,7.61,0,0,0-1.08-.09c-.45,0-.86-.11-.85-.67s.44-.61.88-.58Z" transform="translate(-8.04 -236.99)"/><path class="cls-3" d="M322.68,461a7.66,7.66,0,0,1,7.26,7.25c0,.44,0,.89-.56.93s-.66-.4-.69-.88a6.36,6.36,0,0,0-6.05-6c-.47,0-.94-.08-.89-.69S322.23,460.94,322.68,461Z" transform="translate(-8.04 -236.99)"/><path class="cls-3" d="M322.53,463.56a5.23,5.23,0,0,1,4.83,5c0,.42,0,.81-.55.84s-.68-.31-.68-.74a4,4,0,0,0-3.83-3.84c-.42,0-.78-.15-.76-.67S321.82,463.52,322.53,463.56Z" transform="translate(-8.04 -236.99)"/><path class="cls-3" d="M295.22,500.14a4.47,4.47,0,1,1,4.48-4.48A4.46,4.46,0,0,1,295.22,500.14Zm3.24-4.48a3.22,3.22,0,1,0-3.18,3.24A3.19,3.19,0,0,0,298.46,495.66Z" transform="translate(-8.04 -236.99)"/></g><path class="cls-3" d="M510,534.75c.06.06.14,0,.21.07a1.85,1.85,0,0,1,1.36,1.58,1.8,1.8,0,0,1-.84,1.83,1.82,1.82,0,0,1-2.06,0,.52.52,0,0,0-.4-.08q-2.82.51-5.65,1a.58.58,0,0,0-.47.32,1.75,1.75,0,0,1-.7.7.39.39,0,0,0-.22.34c-.08.5-.17,1-.26,1.51-.06.33-.29.48-.54.37a.37.37,0,0,1-.23-.46c.07-.42.14-.84.22-1.26,0-.15,0-.19-.15-.19a1.42,1.42,0,0,1-.58-.1c-.17-.07-.22,0-.25.15-.18,1.09-.38,2.18-.57,3.27-.07.43-.14.85-.22,1.26,0,.13,0,.18.13.18a1.89,1.89,0,0,1,.67.11c.18.06.16-.08.18-.17.07-.42.14-.84.22-1.26a.83.83,0,0,1,.07-.27.34.34,0,0,1,.42-.21.35.35,0,0,1,.29.42c-.07.48-.16,1-.24,1.44,0,0,0,.05,0,.07a.67.67,0,0,0,.19.72,2.43,2.43,0,0,1-3.5,3.35.42.42,0,0,0-.42-.13l-5.32.94a.57.57,0,0,0-.46.73l1.56,6.15a.62.62,0,0,0,.29.42,1.89,1.89,0,1,1-2.76.69.57.57,0,0,0,.05-.46l-.69-2.7a.51.51,0,0,1,0-.4.38.38,0,0,1,.39-.2c.2,0,.29.16.34.34.14.56.28,1.12.43,1.68.06.27.13.53.2.8,0,.09.05.15.15.09a2.3,2.3,0,0,1,.82-.2c-.36-1.45-.73-2.89-1.1-4.33-.11-.45-.23-.9-.34-1.36,0-.15-.08-.25-.26-.15a1.19,1.19,0,0,1-.55.15c-.2,0-.18.1-.14.23.1.41.21.81.31,1.22s0,.49-.27.54-.4-.07-.47-.35c-.14-.52-.28-1-.4-1.57a.37.37,0,0,0-.23-.27,2.06,2.06,0,0,1-1.2-2,2,2,0,0,1,1.2-1.91,2.07,2.07,0,0,1,2.29.26.38.38,0,0,0,.34.09l5.42-.95a.32.32,0,0,0,.29-.21,2.28,2.28,0,0,1,1.11-1.12.39.39,0,0,0,.21-.29q.45-2.6.91-5.17a.41.41,0,0,0-.09-.35,2.15,2.15,0,0,1,3-3.05.37.37,0,0,0,.3.08l6-1.06a.27.27,0,0,0,.2-.09,2.09,2.09,0,0,1,1.25-.82Zm-12.94,12.89a1.65,1.65,0,0,0,1.63,1.69,1.66,1.66,0,1,0-1.63-1.69Zm-7.92,3.11a1.39,1.39,0,1,0-1.39-1.38A1.38,1.38,0,0,0,489.14,550.75ZM500.32,537a1.38,1.38,0,0,0-1.37,1.39,1.38,1.38,0,1,0,2.76,0A1.37,1.37,0,0,0,500.32,537Zm2.28,1.43h.07l5-.88c.23,0,.34-.08.22-.33a1,1,0,0,1-.07-.45c0-.22-.07-.24-.25-.21-.55.11-1.11.2-1.66.3l-3.4.61c-.07,0-.22,0-.15.14a2.13,2.13,0,0,1,.14.7C502.48,538.34,502.5,538.41,502.6,538.38Zm-11.21,11.08h0l4.89-.87c.13,0,.12-.08.09-.17a1.92,1.92,0,0,1-.11-.58c0-.2-.06-.24-.25-.2-.84.16-1.68.3-2.52.44l-2.24.4c-.14,0-.18,0-.12.19a1.77,1.77,0,0,1,.11.68C491.28,549.44,491.32,549.48,491.39,549.46Zm17.17-12.83a1.13,1.13,0,1,0,1.14-1.11A1.13,1.13,0,0,0,508.56,536.63Zm-18.05,22.46a1.13,1.13,0,1,0,1.13-1.11A1.11,1.11,0,0,0,490.51,559.09Z" transform="translate(-8.04 -236.99)"/><path class="cls-3" d="M491.62,542.76a.52.52,0,0,1-.54-.37,1.8,1.8,0,0,0-1.35-1.35.52.52,0,0,1-.37-.56.61.61,0,0,1,.38-.56l.1,0a1.52,1.52,0,0,0,1.19-1.17.59.59,0,0,1,.6-.49.64.64,0,0,1,.62.49c0,.11.09.22.13.34a1.08,1.08,0,0,0,.69.69,4.68,4.68,0,0,1,.45.19.57.57,0,0,1,.38.55.52.52,0,0,1-.37.56,1.8,1.8,0,0,0-1.35,1.36A.54.54,0,0,1,491.62,542.76Zm0-1a1.23,1.23,0,1,0,0-2.46,1.89,1.89,0,0,1-1.18,1.22C491.31,541,491.31,541,491.64,541.71Z" transform="translate(-8.04 -236.99)"/><path class="cls-3" d="M506.84,547.06a.57.57,0,0,1-.53-.29,1,1,0,0,1-.1-.21,1.49,1.49,0,0,0-1.14-1.15.61.61,0,0,1-.51-.6c0-.3.15-.49.51-.63l.4-.16a1,1,0,0,0,.58-.58l.21-.52a.61.61,0,0,1,1.14,0c.06.14.12.28.17.43a1.11,1.11,0,0,0,.73.73,3,3,0,0,1,.45.18.58.58,0,0,1,.35.55.51.51,0,0,1-.35.54,1.81,1.81,0,0,0-1.37,1.37A.51.51,0,0,1,506.84,547.06Zm1.24-2.26a1.24,1.24,0,1,0-2.48,0,1.9,1.9,0,0,1,1.23,1.24A1.93,1.93,0,0,1,508.08,544.8Z" transform="translate(-8.04 -236.99)"/><path class="cls-3" d="M499.59,556.76a.57.57,0,0,1,.39-.56,1.75,1.75,0,0,0,1.33-1.34.54.54,0,0,1,.55-.37.53.53,0,0,1,.56.38,1.76,1.76,0,0,0,1.33,1.33.52.52,0,0,1,.38.55.52.52,0,0,1-.37.56,1.82,1.82,0,0,0-1.35,1.36.53.53,0,0,1-.56.36.52.52,0,0,1-.54-.37,1.79,1.79,0,0,0-1.35-1.35A.54.54,0,0,1,499.59,556.76Zm3.52,0a2,2,0,0,1-1.25-1.24,1.93,1.93,0,0,1-1.24,1.25,1.9,1.9,0,0,1,1.25,1.23A1.88,1.88,0,0,1,503.11,556.76Z" transform="translate(-8.04 -236.99)"/><g class="cls-2"><path class="cls-3" d="M523.09,365.88l3.26-2,5.7-3.43a1.2,1.2,0,0,1,1.67,1.67l-5.22,8.69-.15.25a4,4,0,0,1,.52.18,1.27,1.27,0,0,1,.35,1.87c-.64.85-1.29,1.68-1.94,2.51s-1.26,1.6-1.85,2.42a6,6,0,0,1-3.28,2.2,6.64,6.64,0,0,1-8.39-5.16,6.41,6.41,0,0,1,1.86-5.91,19.84,19.84,0,0,1,2-1.54L521,365a1.3,1.3,0,0,1,1.85.22A1.39,1.39,0,0,1,523.09,365.88Zm-1.78,1-.17.11-2.93,2.24a15.06,15.06,0,0,0-1.53,1.21,4.66,4.66,0,0,0-1.31,4.1,4.91,4.91,0,0,0,4.83,4.26,4.46,4.46,0,0,0,3.87-1.8l1.25-1.59,1.86-2.38c.11-.14.13-.19-.07-.24a1,1,0,0,1-.57-.43,1.3,1.3,0,0,1,0-1.47q2.4-3.94,4.78-7.89a.49.49,0,0,0,.13-.27l-.91.55c-2.4,1.45-4.8,2.9-7.19,4.37a1.3,1.3,0,0,1-1.81-.37C521.44,367.2,521.38,367.06,521.31,366.92Z" transform="translate(-8.04 -236.99)"/><path class="cls-3" d="M516.77,373.3a4.4,4.4,0,0,1,4.27-4.23,4.11,4.11,0,0,1,4,4.13,4.16,4.16,0,1,1-8.31.1Zm4.15-2.5a2.5,2.5,0,0,0-2.49,2.56,2.49,2.49,0,0,0,5,0A2.48,2.48,0,0,0,520.92,370.8Z" transform="translate(-8.04 -236.99)"/></g></svg>