<?xml version="1.0" encoding="UTF-8"?>
<svg id="Layer_1" data-name="Layer 1" xmlns="http://www.w3.org/2000/svg" viewBox="0 0 349.15 185.34">
  <defs>
    <style>
      .cls-1 {
        fill: #cde5e8;
      }

      .cls-1, .cls-2, .cls-3, .cls-4, .cls-5, .cls-6, .cls-7, .cls-8, .cls-9, .cls-10, .cls-11, .cls-12, .cls-13, .cls-14, .cls-15 {
        stroke-width: 0px;
      }

      .cls-2 {
        fill: #1a3b69;
      }

      .cls-3 {
        fill: #0c2f4f;
      }

      .cls-16 {
        stroke-width: .75px;
      }

      .cls-16, .cls-17 {
        fill: none;
        stroke: #dedd67;
        stroke-miterlimit: 10;
      }

      .cls-4 {
        fill: #038dc4;
      }

      .cls-5 {
        fill: #3285c7;
      }

      .cls-6 {
        fill: #046192;
      }

      .cls-7 {
        fill: #f8fcff;
      }

      .cls-8 {
        fill: #06afe2;
      }

      .cls-9 {
        fill: #2d9bd7;
      }

      .cls-17 {
        stroke-width: .87px;
      }

      .cls-10 {
        fill: #42c7f0;
      }

      .cls-11 {
        fill: #1ca3dd;
      }

      .cls-12 {
        fill: #0777ae;
      }

      .cls-13 {
        fill: #e2f3f6;
      }

      .cls-14 {
        fill: #f5ed9d;
      }

      .cls-15 {
        fill: #1b86c8;
      }
    </style>
  </defs>
  <g>
    <path class="cls-3" d="m269.85,177.62c-2.5,3.25-5.44,5.66-4.8,6.75,0,0,1.33.97,5.01.97,6.3,0,12.5-.48,11.48-1.12-1.41-.88-5.49-1.21-9.39-2.55-.96-.33,2.11-2.2,1.27-2.51-1.74-.63-3.09-1.18-3.57-1.54Z"/>
    <path class="cls-3" d="m334.8,184.18s.83,1.16,4.01,1.16c5.45,0,11.13-.74,10.25-1.29-1.22-.76-10.77-2.76-10.77-2.76l-2.14-2.66-3.63,2.01,2.29,3.54Z"/>
    <path class="cls-11" d="m317.53,103.85c-3.91,0-6.87-.78-7.11-.85-2.04-.56-3.24-2.66-2.68-4.7.55-2.04,2.65-3.24,4.69-2.69.13.04,8.74,2.24,13.76-2.07,3.36-2.89,4.64-8.32,3.8-16.16l-.27-2.5,7.74-4.39c1.84-1.04,4.18-.4,5.22,1.44,1.04,1.84.4,4.17-1.44,5.22l-3.42,1.94c.54,9.23-1.7,16.05-6.68,20.29-4.2,3.58-9.43,4.46-13.59,4.46Z"/>
    <path class="cls-13" d="m330.78,82.62c-.15,5.57-1.62,9.59-4.43,12-5.51,4.73-14.95,2.32-15.11,2.28-2.24-.6-4.54.72-5.15,2.95-.61,2.24.71,4.55,2.95,5.16.27.07,3.52,1.69,7.81,1.54,16.28-.58,26.11-14.62,26.29-22.81l-12.36-1.11Z"/>
    <g>
      <path class="cls-4" d="m308.39,63.14c-1.46-.65-2.89-1.36-4.3-2.11-13.49,7.68-30.73,17.53-31.07,17.87,0,0,8.57,13.64,9.12,14.19.35.35,21.6-14.89,36.88-25.93-3.53-1.37-7.16-2.47-10.62-4.02Z"/>
      <path class="cls-8" d="m308.61,62.74c3.53,1.56,7.25,2.69,10.84,4.1,8.42-6.08,14.92-10.81,14.92-10.81l-14.38-4.04s-6.92,3.93-15.45,8.78c1.34.7,2.69,1.36,4.07,1.97Z"/>
      <polygon class="cls-6" points="283.81 44.84 292.28 67.76 308.83 73.83 287.87 35.53 283.81 44.84"/>
      <polygon class="cls-6" points="309.74 79.47 297.47 79.47 308.39 98.54 325.03 105.55 309.74 79.47"/>
      <path class="cls-12" d="m325.03,105.55l-9.76-16.66-41.77,24.49-8.21-14.01,5.16-83.3,18.77-11,33.79,57.63,11.37-6.66,9.45,16.13-11.37,6.66,9.76,16.65-17.18,10.07Zm-37.89-64.64l-1.06.62-2.87,44.49,22.6-13.25-18.68-31.86Z"/>
      <polygon class="cls-4" points="251.4 95.56 265.28 99.37 273.5 113.38 258.82 109.67 251.4 95.56"/>
      <polygon class="cls-8" points="251.4 95.56 265.28 99.37 270.44 16.07 257.7 13.02 251.4 95.56"/>
      <polygon class="cls-10" points="257.7 13.02 270.44 16.07 289.21 5.06 276.31 1.31 257.7 13.02"/>
    </g>
    <path class="cls-3" d="m285.63,128.75s2.04,22.01,2.04,29.72c0,0-16.03,12.49-19.95,19.03,1.69,1.28,5.02,2.99,7.2,2.92,10.7-10.21,22.43-17.5,22.43-17.5,0,0,5.06-14.69,6.64-27.13l-18.36-7.04Z"/>
    <path class="cls-13" d="m297.06,129.79c3.61.03,7.3-.6,10.4-2.28-1.04-4.4,1.18-17.37,3.96-24.3,0,0,2.2-4.83.66-6.31-5.7-5.48-10.55-5.04-12.06-5.1-5.23,4.42-14.97,17.46-14.58,34.69,2.69,2.83,8.15,3.27,11.62,3.29Z"/>
    <path class="cls-2" d="m332.42,181.24c2.09-.58,4.09-1.54,5.37-3.25-6.19-10.04-28.89-46.91-30.12-49.8-.03-.07-.06-.16-.09-.24-3.33,1.8-7.31,2.43-11.17,2.28-3.36-.13-8.22-.6-10.96-3.09,0,.18,0,.35.02.53.47,9.62,32.4,41.72,44.97,53.99.69-.1,1.36-.25,1.98-.42Z"/>
    <path class="cls-11" d="m266.51,119.81c-.89,0-1.74-.13-2.55-.4-1.69-.56-3.92-1.99-4.98-5.54-.6-2.03.55-4.16,2.58-4.76,2.03-.6,4.16.56,4.76,2.58.07.24.14.39.18.47.41.02,1.92-.12,5.61-2.28,3.3-1.94,7.2-4.82,10.97-7.61,6.37-4.71,12.39-9.17,17.36-10.74,2.01-.64,4.16.48,4.8,2.49.64,2.02-.48,4.17-2.49,4.8-3.75,1.19-9.53,5.46-15.12,9.59-8.18,6.05-15.39,11.39-21.12,11.39Z"/>
    <g>
      <path class="cls-11" d="m273.67,116.95c-.47-2.25-.96-4.74-2.39-6.59-3.09,1.71-4.4,1.82-4.78,1.81-.05-.09-.11-.24-.18-.47-.6-2.03-2.73-3.18-4.76-2.58-2.03.6-3.18,2.73-2.58,4.76,1.05,3.56,3.29,4.98,4.98,5.54.81.27,1.66.4,2.55.4,2.22,0,4.67-.8,7.31-2.14-.05-.24-.1-.48-.15-.72Z"/>
      <path class="cls-13" d="m305.24,94.03c-.64-2.01-2.79-3.13-4.8-2.49-4.97,1.57-10.99,6.02-17.36,10.74-3.77,2.79-7.67,5.67-10.97,7.61-.15.09-.29.17-.44.25,1.43,1.89,3.91,11.21,3.95,11.43,4.06-2.12,23.52-16.94,27.74-21.41,1.45-1.54,2.51-4.1,1.87-6.12Z"/>
    </g>
    <path class="cls-11" d="m261.1,116.72c-.23,0-.45-.07-.65-.21-3-2.15-4.57-6.28-4.63-6.45-.22-.58.08-1.23.66-1.45.58-.21,1.23.08,1.45.66h0s1.4,3.67,3.83,5.41c.51.36.62,1.06.26,1.57-.22.31-.57.47-.92.47Z"/>
    <path class="cls-11" d="m261.1,113.98c-.35,0-.7-.17-.92-.48-1.44-2.04-2.59-6.87-2.71-7.41-.14-.61.24-1.21.84-1.35.61-.14,1.21.24,1.35.84.32,1.36,1.36,5.21,2.36,6.62.36.51.24,1.21-.27,1.57-.2.14-.42.21-.65.21Z"/>
    <path class="cls-11" d="m262.65,113.34c-.44,0-.87-.26-1.04-.7-1.03-2.53-1.43-7.83-1.45-8.05-.05-.62.42-1.16,1.04-1.21.62-.05,1.16.42,1.21,1.04.11,1.43.54,5.55,1.29,7.37.24.58-.04,1.23-.62,1.47-.14.06-.28.08-.42.08Z"/>
    <path class="cls-11" d="m264.34,112.8c-.5,0-.96-.34-1.09-.84-.71-2.75-.06-5.55-.03-5.67.14-.61.75-.98,1.35-.84.6.14.98.75.84,1.35-.01.05-.54,2.41.02,4.59.16.6-.21,1.22-.81,1.37-.09.03-.19.04-.28.04Z"/>
    <path class="cls-11" d="m309.59,100.15c-.52,0-1.04-.11-1.54-.35-1.8-.85-2.57-3-1.72-4.79.89-1.88,2.49-3.81,2.67-4.02,1.28-1.52,3.55-1.71,5.08-.43,1.52,1.28,1.71,3.55.43,5.07h0c-.45.54-1.3,1.68-1.67,2.46-.62,1.3-1.91,2.06-3.26,2.06Z"/>
    <path class="cls-15" d="m310.11,98.29c.43.47.87.91,1.34,1.34.59-.35,1.09-.88,1.4-1.54.37-.78,1.22-1.92,1.67-2.46,1.28-1.52,1.09-3.79-.43-5.07-1.52-1.28-3.79-1.09-5.08.43-.07.09-.36.44-.75.95.03,2.27.27,4.63,1.85,6.36Z"/>
    <path class="cls-11" d="m321.94,94.32c-1.43,3.48-5.41,5.13-8.89,3.7h0c-3.48-1.43-5.13-5.41-3.7-8.89l1.8-4.37c1.43-3.48,5.42-5.13,8.89-3.7h0c3.48,1.43,5.13,5.41,3.7,8.89l-1.8,4.37Z"/>
    <path class="cls-2" d="m310.11,88.62c-.55,2.34-3.92,1.59-5.18.37-1.74-1.68-2.78-6.44,1.08-6.19-2.78-4.19,6.64-8.73,7.63-3.89.74-1.25,1.49-2.37,3.12-2.48,1.18-.08,3.24.84,3.07,2.28,1.75-1.38,4.3-1.28,6.03.12.55.45,1.55,1.44,1.05,2.17-.27.4-1.69.52-2.17.67.82-.37,4.17.38,3.51,1.77-.31.65-1.95.07-2.43-.07,0,0,0,.15,0,.15,1.79.98,2.53,1.98,2.32,4.21-.1,1.03-.58,2.96-1.8,3.11-.62.07-1.35-.32-1.34-.97,1.5,1.49-.62,5.49-2.51,3.52-.74-.77-.38-2.07.32-2.74-1.12-.64-3.54-4.04-1.82-4.95-.81.02-4.54-1.25-3.35-2.32.31,1.25-1.23,2.86-2.46,2.22.76,1.66-1.48,2.9-2.86,2.96.84,1.06-1.76,2.32-2.55.78l.34-.71Z"/>
  </g>
  <g>
    <path class="cls-5" d="m182.17,75.03s-2.19-8.37,8.66-10.35l-.83,10.05-7.83.3Z"/>
    <path class="cls-1" d="m138.72,96.16c-2.37,0-4.58-.48-6.62-1.44-9.85-4.65-10.94-18.64-10.99-19.23-.15-2.11,1.44-3.94,3.55-4.09,2.1-.15,3.93,1.44,4.08,3.54.21,2.81,1.82,10.6,6.64,12.86,3.98,1.87,10.14-.03,17.84-5.5,1.72-1.22,4.11-.82,5.34.9,1.22,1.72.82,4.11-.91,5.34-7.14,5.07-13.48,7.61-18.94,7.61Z"/>
    <g>
      <g>
        <path class="cls-8" d="m159.08,103.34c1.06-2.79,2.05-5.63,3.2-8.39-.77-.06-1.56-.16-2.35-.31-3.71-.71-6.86-2.22-9.43-4.53-2.58-2.31-4.56-5.24-5.97-8.78-1.4-3.54-2.22-7.57-2.45-12.09-.23-4.51.13-9.28,1.09-14.3.98-5.12,2.4-9.71,4.27-13.77,1.87-4.06,4.11-7.48,6.72-10.26,2.61-2.78,5.54-4.77,8.78-5.97,3.24-1.2,6.72-1.45,10.44-.74,2.94.56,5.53,1.67,7.78,3.31,1.08-2.16,2.25-4.29,3.36-6.41,1.31-2.51,2.53-5.06,3.7-7.64.5-1.1.93-2.24,1.38-3.36-3.76-2.15-7.98-3.67-12.65-4.56-6.62-1.26-12.86-1.03-18.7.72-5.85,1.74-11.11,4.66-15.79,8.76-4.68,4.1-8.66,9.24-11.92,15.43-3.26,6.19-5.62,13.1-7.08,20.72-1.46,7.63-1.81,14.92-1.06,21.87.75,6.95,2.55,13.2,5.39,18.73,2.84,5.54,6.66,10.19,11.45,13.96,4.46,3.52,9.72,5.94,15.77,7.28,1.43-3.2,2.82-6.41,4.06-9.68Z"/>
        <path class="cls-6" d="m210.91,45.8c-.75-6.95-2.55-13.2-5.39-18.73-2.84-5.54-6.66-10.19-11.45-13.96-1.29-1.02-2.65-1.94-4.07-2.77-.45,1.12-.88,2.26-1.38,3.35-1.19,2.57-2.38,5.13-3.7,7.64-1.12,2.13-2.3,4.27-3.39,6.45.39.3.77.6,1.13.93,2.57,2.31,4.59,5.24,6.04,8.8,1.45,3.55,2.3,7.56,2.54,12.03.24,4.47-.13,9.26-1.11,14.37-.96,5.02-2.38,9.58-4.25,13.7-1.88,4.11-4.15,7.55-6.81,10.32-2.66,2.77-5.61,4.75-8.86,5.95-2.39.88-4.88,1.25-7.47,1.11-1.27,3.02-2.35,6.13-3.51,9.19-1.15,3.03-2.44,5.99-3.77,8.94.3.06.6.12.9.18,6.62,1.27,12.85,1.03,18.7-.72,5.84-1.74,11.11-4.66,15.79-8.76,4.68-4.1,8.65-9.24,11.92-15.43,3.26-6.19,5.62-13.09,7.08-20.72,1.46-7.62,1.81-14.92,1.06-21.87Z"/>
      </g>
      <path class="cls-12" d="m168.06,117.27c-6.62-1.27-12.33-3.79-17.12-7.56-4.79-3.77-8.61-8.43-11.45-13.96-2.84-5.54-4.64-11.78-5.39-18.73-.75-6.95-.4-14.24,1.06-21.87,1.46-7.62,3.81-14.53,7.08-20.72,3.26-6.19,7.23-11.33,11.92-15.43,4.68-4.1,9.94-7.02,15.79-8.76,5.84-1.74,12.08-1.98,18.7-.72,6.62,1.26,12.33,3.79,17.12,7.56,4.79,3.78,8.61,8.43,11.45,13.96,2.84,5.54,4.64,11.78,5.39,18.74.75,6.96.4,14.25-1.06,21.87-1.46,7.63-3.82,14.53-7.08,20.72-3.26,6.19-7.23,11.33-11.92,15.43-4.68,4.1-9.95,7.02-15.79,8.76-5.85,1.74-12.08,1.98-18.7.72Zm3.57-18.66c3.61.69,7.04.44,10.29-.77,3.24-1.2,6.2-3.18,8.86-5.95,2.66-2.77,4.93-6.21,6.81-10.32,1.88-4.11,3.3-8.68,4.25-13.7.98-5.12,1.35-9.91,1.11-14.37-.24-4.46-1.09-8.48-2.54-12.03-1.45-3.55-3.47-6.49-6.04-8.8-2.58-2.31-5.67-3.81-9.28-4.5-3.71-.71-7.19-.46-10.44.74-3.25,1.2-6.17,3.19-8.78,5.97-2.61,2.78-4.85,6.2-6.72,10.26-1.87,4.06-3.29,8.65-4.27,13.77-.96,5.02-1.32,9.78-1.09,14.3.23,4.52,1.04,8.54,2.45,12.09,1.4,3.54,3.39,6.47,5.97,8.78,2.57,2.31,5.72,3.82,9.43,4.53Z"/>
    </g>
    <g>
      <path class="cls-2" d="m235.58,61.07l.29,14.07s-4.02,3.6-7.62,0l1.33-15.84,6,1.78Z"/>
      <path class="cls-3" d="m219.01,173.31c-.23-.18-1.8-.91-2.01-1.09-.84,1.26-1.43,1.96-2.44,3,2.48,2.16,1.84,4.79,1.84,4.79,0,0-1.75,1.51-2.44,1.85-2.19,1.08-6.23,2.58-6.23,2.58l10.17.8,7.54-7.72c-2.67-1.49-4.72-2.85-6.43-4.2Z"/>
      <path class="cls-3" d="m179.17,173.86c-1.62-.28-3.66.96-4.98,0-.31,2.83-.25,4.37-.25,4.37l-15.04,6.2h19.21c.17-2.05-.19-4.01.08-5.91.14-.97.8-3.73.98-4.67Z"/>
      <path class="cls-1" d="m196.68,105.59l-17,32.3s6.89,5.83,13.67,7.77l12.74-38.05-9.41-2.01Z"/>
      <path class="cls-3" d="m215.29,176.02c1.02-1.04,1.86-2.29,2.7-3.55-4.4-3.77-6.55-7.65-12.52-14.33-2.47-2.77,4.08-18.6,5.67-21.26,2.86-4.77,3.3-8.23,5.53-16.4l-16.6,6.2c-3.95,14.15-8.55,28.31-3.94,35.06,4.88,7.14,13.53,12.89,17.71,15.76.16.11,1.32-1.58,1.46-1.48Z"/>
      <path class="cls-11" d="m187.34,73.37c-.23,0-.46-.07-.66-.21-.5-.36-.62-1.07-.26-1.57,1.34-1.86,1.63-3.4,1.63-3.41.11-.61.69-1.02,1.31-.91.61.11,1.02.69.91,1.3-.01.08-.36,2.02-2.02,4.33-.22.31-.57.47-.92.47Z"/>
      <path class="cls-14" d="m215.49,123.9c4.94-13.57,9.16-34.86,10.74-43.35-.88-.37-1.75-.64-2.44-.83-1.47-.4-3.22-.88-4.73-.41-.76.24-1.44.63-2.11,1.05-.62,1.84-.87,3.4-.87,3.4,0,0-10.61,20.29-17.53,34.12,5.87,1.32,11.62,3.25,16.93,6.03Z"/>
      <path class="cls-2" d="m198.36,118.29s0,0,0,0c-.61,1.23-1.19,2.4-1.73,3.5h0c-1.36,2.41-2.83,4.64-4.25,6.78-13.66,20.59-18.81,37-19.73,44.77,1.3,1.02,6.24,1.59,7.88,1.88,2.52-12.88,9.08-21.09,20.82-30.8,3.93-3.25,6.87-7.38,9.46-10.81,1.54-2.04,3.07-5.32,4.54-9.29-5.32-2.79-11.09-4.72-16.97-6.03Z"/>
      <path class="cls-11" d="m185.11,123.95c-1.59,0-3.07-.99-3.62-2.57-.69-2,.37-4.18,2.36-4.87,4.64-1.61,11.76-7.96,16.57-14.77,9.74-13.82,16.58-21.48,16.87-21.8,1.41-1.57,3.83-1.7,5.4-.29,1.57,1.41,1.7,3.83.29,5.4h0c-.07.08-6.85,7.68-16.31,21.1-4.74,6.72-13.12,15.09-20.31,17.59-.41.14-.84.21-1.25.21Z"/>
      <path class="cls-11" d="m223.54,81.82c-.09,0-.18,0-.27,0-1.98-.15-3.47-1.87-3.33-3.86.15-2.07.96-4.45,1.05-4.71.65-1.88,2.7-2.88,4.58-2.23,1.88.65,2.88,2.7,2.23,4.58-.23.66-.61,2.03-.67,2.89-.14,1.89-1.72,3.34-3.59,3.34Z"/>
      <path class="cls-15" d="m224.6,78.02c.64.73,1.33,1.38,2.07,1.98.26-.45.42-.97.47-1.52.06-.86.45-2.23.67-2.89.65-1.88-.35-3.93-2.23-4.58-1.56-.54-3.23.06-4.13,1.35.33,2.03,1.99,4.33,3.15,5.66Z"/>
      <path class="cls-11" d="m233.88,70.22c-.08,3.76-3.2,6.74-6.96,6.65h0c-3.76-.09-6.74-3.2-6.65-6.96l.11-4.73c.08-3.76,3.2-6.74,6.96-6.66h0c3.76.08,6.74,3.2,6.66,6.96l-.11,4.73Z"/>
      <path class="cls-11" d="m179.71,122.9c-1.57,0-3.37-.42-5.38-1.27-.57-.24-.84-.9-.6-1.47.24-.57.9-.84,1.47-.6,2.96,1.25,5.32,1.42,6.82.52.53-.32,1.22-.15,1.55.38.32.53.15,1.22-.38,1.55-.99.6-2.16.9-3.48.9Z"/>
      <path class="cls-11" d="m181.05,124.53c-1.79,0-3.23-.35-4.86-.74l-.51-.12c-.6-.14-.98-.75-.83-1.36.14-.6.75-.98,1.36-.83l.51.12c2.73.66,4.53,1.1,8.53.07.61-.15,1.22.21,1.37.81.16.6-.21,1.22-.81,1.37-1.92.5-3.43.68-4.75.68Z"/>
      <path class="cls-11" d="m179.63,120.68c-3.53,0-5.95-2.17-6.08-2.29-.46-.42-.49-1.13-.07-1.59.42-.46,1.13-.49,1.59-.07.11.1,2.7,2.38,6.18,1.49.61-.16,1.22.21,1.37.81.16.6-.21,1.22-.81,1.37-.76.2-1.5.28-2.19.28Z"/>
      <path class="cls-11" d="m181.99,119.47s-.09,0-.13,0c-3.83-.45-5.39-3.21-5.46-3.33-.3-.54-.1-1.23.45-1.53.54-.3,1.22-.1,1.52.44.05.09,1.12,1.87,3.75,2.18.62.07,1.06.63.99,1.25-.07.57-.55,1-1.12,1Z"/>
      <path class="cls-11" d="m195.44,74.99c-.06,0-.12,0-.18-.02-1.86-.31-6.96-1.11-8.14-1.11-.62,0-1.13-.5-1.13-1.13s.5-1.13,1.13-1.13c1.58,0,7.81,1.02,8.51,1.14.61.1,1.03.68.93,1.29-.09.55-.57.94-1.11.94Z"/>
      <path class="cls-11" d="m194.72,77.35c-.1,0-.2-.01-.3-.04-.05-.01-5.41-1.47-7.9-1.61-.62-.04-1.09-.57-1.06-1.19.04-.62.57-1.11,1.19-1.06,2.73.16,8.13,1.63,8.36,1.69.6.16.95.78.79,1.38-.14.5-.59.83-1.08.83Z"/>
      <path class="cls-11" d="m194.18,79.83c-.12,0-.23-.02-.35-.05-5.07-1.64-6.32-1.74-6.99-1.79-.29-.02-.56-.05-.94-.14-.6-.16-.96-.77-.8-1.38.16-.6.78-.96,1.38-.8.18.05.31.06.54.08.82.07,2.18.18,7.5,1.89.59.19.92.83.73,1.42-.15.48-.6.78-1.07.78Z"/>
      <path class="cls-11" d="m191.95,81.63s-.05,0-.08,0c-5.08-.36-5.29-3.12-5.29-3.43l2.25-.05s0-.03,0-.07c0,.01.23,1.1,3.21,1.31.62.04,1.09.58,1.04,1.2-.04.59-.54,1.05-1.12,1.05Z"/>
      <path class="cls-11" d="m187.7,80.28s-.98-.45-2.5-.45c-1.28,0-3.02-2.17-3.02-4.43,0,0-.62-6.65,6.39-3.64l-.87,8.52Z"/>
      <path class="cls-1" d="m209.79,100.04l-9.84,48.43s15.23,3.67,24.58-1.71l2.36-67.29s-10.46-3.66-17.1,20.57Z"/>
      <path class="cls-13" d="m212.07,126.68l9.42-.51s.23,14.41-5.4,13.85c0,0-7.7,1.68-4.02-13.34Z"/>
      <path class="cls-13" d="m223.9,78.32c-1.03-.93-2.37-1.44-3.76-1.44-1.6,0-3.12.68-4.19,1.87-.29.32-7.17,8.02-17,21.96-.64.91-1.35,1.84-2.11,2.77l-1,1.23,1.09,1.15c1.16,1.23,2.38,2.42,3.55,3.58.64.63,1.28,1.25,1.91,1.89l1.39,1.39,1.26-1.51c1.13-1.35,2.17-2.69,3.1-4,9.4-13.33,16.12-20.86,16.18-20.93,2.07-2.31,1.88-5.88-.43-7.95Z"/>
      <rect class="cls-7" x="198.26" y="100.28" width="5.69" height="13.31" transform="translate(-12.85 185.07) rotate(-48.06)"/>
      <path class="cls-2" d="m213.43,72.92l8.65,3.39s3.68-17.91.99-20.59c0,0-9.65-.91-9.65,17.2Z"/>
      <path class="cls-2" d="m223.58,58.84c.31.46,7.02,4.94,12.29,3.7,0,0-.9-7.91-13.21-6.77l.92,3.08Z"/>
      <path class="cls-17" d="m228.76,67.28c0,2.08-1.69,3.76-3.76,3.76s-3.76-1.68-3.76-3.76,1.68-3.76,3.76-3.76,3.76,1.68,3.76,3.76Z"/>
      <path class="cls-16" d="m237.26,68.02c0,1.81-1.46,3.27-3.27,3.27s-3.27-1.47-3.27-3.27,1.47-3.27,3.27-3.27,3.27,1.47,3.27,3.27Z"/>
      <path class="cls-17" d="m228.76,67.28s1.25-.49,1.99.26"/>
    </g>
    <g>
      <path class="cls-15" d="m119.27,73.87c-.09,0-.18,0-.27-.01-1.98-.14-3.47-1.87-3.33-3.85.15-2.07.96-4.45,1.05-4.71.65-1.88,2.7-2.88,4.58-2.23,1.88.65,2.88,2.7,2.23,4.58-.23.66-.61,2.03-.67,2.89-.14,1.89-1.72,3.34-3.59,3.34Z"/>
      <g>
        <path class="cls-3" d="m117.13,173.84c5.97,2.75,10.86,2.7,11.26,2.75,3.89-6.92,15.61-25.67,4.95-41.05l-15.08-8.1s15.08,15.73-1.13,46.4Z"/>
        <path class="cls-3" d="m124.94,179.96s1.39-2.83,2.48-4.72c-.82-.1-4.47-.25-5.97-.82-1.41,2.88-4.48,7.09-6.64,9.98h20.26l-10.13-4.43Z"/>
        <path class="cls-2" d="m150,136.44c-2.52-4.89-20.82-19.62-22.48-28.08-.15-.75-.27-1.52-.38-2.3-2.94,1.55-6.75,1.98-9.78,2.13-3.43.17-5.48.39-8.8-1.23.28,5.25-.57,10.32,2.49,15.64,6.08,10.55,26.27,19.59,28.53,23.07,4.44,6.88,5.98,21.81,7.49,30.92,2.38,0,8.02-.1,10.33-.93-.78-4.67.49-23.9-7.41-39.22Z"/>
        <path class="cls-3" d="m156.31,179.14s-.66-2.66-.85-3.91c-2.32.81-3.67,0-6.05,0,.36,2.26.09,6.48.3,8.96h19.21l-12.61-5.05Z"/>
        <path class="cls-1" d="m117.5,110.95c2.93-.13,9.07-.95,11.54-3.41-.5-4.02-2.3-10.48-1.67-15.68,2.14-17.63-6.46-22.91-6.46-22.91,0,0-3.96-2.77-7.17.54-4.84,4.99-9.57,19.09-9.09,39.94,3.34,1.72,9.36,1.68,12.86,1.52Z"/>
      </g>
      <path class="cls-11" d="m161.65,116.52c-.29,0-.58-.03-.87-.1-13.87-3.22-25.62-11.53-33.97-24.04-6.26-9.37-8.42-17.78-8.51-18.13-.52-2.05.73-4.13,2.78-4.64,2.05-.52,4.13.72,4.64,2.77.04.15,2.03,7.72,7.6,15.97,7.34,10.89,17.17,17.82,29.19,20.62,2.06.48,3.34,2.53,2.86,4.59-.41,1.77-1.98,2.96-3.72,2.96Z"/>
      <path class="cls-13" d="m153.21,105.02c-7.64-3.62-14.15-9.36-19.34-17.05-5.5-8.15-7.49-15.69-7.5-15.76-.51-2-2.3-3.4-4.36-3.4-.37,0-.74.05-1.1.14-1.17.29-2.15,1.02-2.76,2.06-.62,1.03-.79,2.24-.5,3.41l.02.08c.59,2.58,2.96,11.64,8.59,20.06,6.74,10.09,15.88,17.63,26.43,21.83.08.03.16.05.25.05.13,0,.27-.04.38-.12.18-.12.3-.33.3-.56v-10.13c0-.26-.15-.5-.39-.61Z"/>
      <path class="cls-11" d="m164.49,116.79c-1.23,0-2.53-.14-3.9-.41-.61-.12-1-.71-.88-1.32.12-.61.71-1.01,1.33-.88,3.35.67,6.15.43,8.31-.73.55-.29,1.23-.08,1.52.46.29.55.08,1.23-.46,1.52-1.7.91-3.68,1.36-5.91,1.36Z"/>
      <path class="cls-11" d="m164.65,114.27c-.54,0-1.09-.04-1.65-.12-.62-.09-1.04-.66-.95-1.28.09-.62.66-1.04,1.28-.95,3.6.53,6.93-1.34,6.97-1.36.54-.31,1.23-.12,1.54.42.31.54.12,1.22-.41,1.54-.14.08-3.1,1.75-6.76,1.75Z"/>
      <path class="cls-11" d="m163.65,112.06c-.17,0-.35,0-.54-.02-.62-.04-1.09-.57-1.05-1.19.04-.62.57-1.09,1.19-1.05,2.66.16,4.06-1.45,4.07-1.47.39-.48,1.1-.56,1.58-.16.48.39.56,1.1.16,1.58-.08.1-1.92,2.31-5.43,2.31Z"/>
      <path class="cls-11" d="m159.76,110.16c-.62,0-1.13-.5-1.13-1.12s.5-1.12,1.12-1.12c.1,0,2.32-.05,3.59-1.88.35-.51,1.06-.64,1.57-.28.51.35.64,1.05.28,1.57-1.96,2.82-5.3,2.85-5.44,2.85Z"/>
      <path class="cls-11" d="m156.08,84.75c-.35,0-.7-.16-.92-.47-1.66-2.31-2.01-4.25-2.02-4.34-.11-.61.31-1.19.92-1.3.61-.11,1.19.3,1.3.92,0,0,.3,1.54,1.63,3.4.36.51.25,1.21-.26,1.57-.2.14-.43.21-.65.21Z"/>
      <path class="cls-11" d="m156.31,85.25c-.07,0-.14,0-.21-.02-2.46-.47-7.35-.48-7.4-.48-.62,0-1.12-.5-1.12-1.12s.5-1.12,1.12-1.12c.21,0,5.15,0,7.82.52.61.12,1.01.7.89,1.32-.1.54-.58.91-1.1.91Z"/>
      <path class="cls-11" d="m148.08,87.59c-.56,0-1.04-.42-1.12-.99-.08-.62.36-1.18.98-1.26.71-.09,7.04-.86,9.08-.5.61.11,1.02.69.91,1.3-.11.61-.69,1.02-1.3.91-1.29-.23-5.84.2-8.41.51-.05,0-.09,0-.14,0Z"/>
      <path class="cls-11" d="m149.55,90.14c-.53,0-1-.37-1.1-.91-.12-.61.28-1.2.89-1.32,2.73-.53,3.45-.76,4.77-1.18.62-.2,1.39-.45,2.54-.78.6-.17,1.22.17,1.39.77.17.6-.17,1.22-.77,1.39-1.12.32-1.84.56-2.47.76-1.36.44-2.18.7-5.04,1.25-.07.01-.14.02-.21.02Z"/>
      <path class="cls-11" d="m151.97,91.93c-.54,0-1.01-.39-1.11-.94-.1-.61.31-1.2.92-1.3,3.65-.62,4.37-1.98,4.38-2,.2-.59.83-.91,1.42-.72.59.2.91.83.72,1.42-.14.44-1.12,2.65-6.13,3.51-.06,0-.13.02-.19.02Z"/>
      <path class="cls-11" d="m156.31,90.57l-.86-9.17s4.02.29,4.02,4.51c0,1.41-.41,2.98-3.16,4.66Z"/>
      <path class="cls-11" d="m130.98,60.69c1.02,3.84-1.27,7.78-5.12,8.79h0c-3.84,1.02-7.78-1.27-8.8-5.11l-1.28-4.83c-1.02-3.84,1.27-7.78,5.12-8.79h0c3.84-1.02,7.78,1.27,8.8,5.11l1.28,4.83Z"/>
      <path class="cls-2" d="m130.3,58.13c-.55,1.52-1.32,3.03-2.51,4.06-2.9,2.5-7.34,3.17-10.86,1.67l.13.5c1.02,3.84,4.95,6.13,8.8,5.11,3.84-1.02,6.13-4.95,5.12-8.79l-.67-2.55Z"/>
      <path class="cls-2" d="m117.05,64.1c-2.7-1.73-5.62-8.33-1.35-9.77,2.64-.89,1.58,7.25,1.58,9.55l-.23.22Z"/>
      <path class="cls-2" d="m114.88,54.87c-3.27-2.37.78-9.06,8.85-9.06,4.99,0,4.95,3.82,1.5,5.88-2.86,1.71-7.3.71-9.45,3.63l-.9-.45Z"/>
      <path class="cls-2" d="m130.3,59.61c-1.14-1.73-3.4-5.25-4.27-7.22-.56-1.26-1.32-3.4,1.2-1.88,2.11,1.27,3.25,5.76,3.05,8.04l.02,1.06Z"/>
    </g>
  </g>
  <g>
    <g>
      <path class="cls-6" d="m73.28,75.62c-1.24,1.15-2.61,2.22-3.73,3.5l-16.25,33.94,12.1-15.61,12.85-26.56c-1.64,1.59-3.29,3.18-4.96,4.73Z"/>
      <path class="cls-6" d="m63.64,70.04c1.18-1.61,2.31-3.51,3.65-5.17l-28.44-13.89-26.98,2.7,47.28,21.8c1.55-1.77,3.11-3.56,4.49-5.45Z"/>
      <path class="cls-8" d="m67.7,65.07c-1.51,1.89-2.74,4.12-4.19,5.88-1.3,1.59-2.61,3.17-3.95,4.73l21.49,9.91,7.8-10.19-21.16-10.33Z"/>
      <path class="cls-12" d="m35.34,104.46l8.34-17.41L0,66.14l7.01-14.65L78.93,9.13l19.62,9.4-28.85,60.26,11.89,5.69-8.07,16.86-11.89-5.69-8.34,17.41-17.97-8.6Zm32.35-67.58l-1.11-.53-38.47,22.52,23.63,11.31,15.94-33.31Z"/>
      <polygon class="cls-6" points="81.6 84.48 88.86 75.4 83.16 88.05 73.26 101.88 81.6 84.48"/>
      <path class="cls-6" d="m78.81,70.38l28.36-62.17-8.62,10.31-28.85,60.26c.8-.78,8.64-7.94,9.1-8.4Z"/>
      <polygon class="cls-9" points="7.01 51.49 19.83 40.33 90.1 0 78.93 9.13 7.01 51.49"/>
      <polygon class="cls-10" points="78.93 9.13 98.56 18.53 107.17 8.22 90.1 0 78.93 9.13"/>
    </g>
    <path class="cls-11" d="m54.85,54.54c-2.41-1.72-4.08-.96-5.24-.79-1.27.2-2.21-.5-2.21-.5-.52-.34-1.22-.19-1.56.33-.34.52-.19,1.22.33,1.56.05.03,1.04.66,2.75,1.11-1.87,1.71-3.78,3.77-3.89,3.88-.42.46-.39,1.17.06,1.59.22.2.49.3.76.3.3,0,.61-.12.83-.36.02-.02,1.35-1.46,2.84-2.89-1.38,1.73-2.67,3.52-2.91,3.85-.36.51-.25,1.21.26,1.57.2.14.43.21.66.21.35,0,.7-.16.91-.47.74-1.03,1.78-2.42,2.77-3.66-.37.73-.84,1.56-1.78,3.07-.33.53-.17,1.22.36,1.55.18.11.39.17.59.17.38,0,.74-.19.96-.53.39-.62.7-1.14.96-1.58-.2.49-.03,1.06.43,1.36.19.12.4.18.61.18.37,0,.73-.18.94-.51,1.05-1.62,1.57-2.95,1.79-3.99l.05.03c.63-3.16-.14-4.67-1.28-5.48Zm-2.25,7.92c.37-.65.63-1.15.87-1.64-.2.48-.48,1.03-.87,1.64Z"/>
    <path class="cls-2" d="m20.37,67.31c-3.56-.2-8.73,6.77-3.44,8.67-4.79-.11-5.96,6.66-1.57,8.53-7.69-1.5-6.79,8.47-3.16,12.07-2.46-.39-4.96,1.96-4.58,4.53.38,2.58,1.4,6.16,7.79,8.08,6.39,1.92,10.3-1.67,13.47-5.06,2.04,4.16,12.09-1.46,10.98-6.44,3.8,1.35,7.2-2.96,7.27-6.4.07-3.36-2.28-5.92-4.52-8.11,1.58-1.44,1.88-4.12,1.46-6.16-.69-3.4-4.94-3.74-4.94-6.44,0-.95.18-3.89-.62-5.18-1.28-2.05-3.52-4.09-6.33-3.08-11.81-5.6-11.81,4.99-11.81,4.99Z"/>
    <path class="cls-3" d="m27.26,176.59c-3.25-.57-3.77-.4-6.98-1.19l-7.43,9.08h28.81l-16.73-4.5,2.33-3.39Z"/>
    <path class="cls-3" d="m80.91,179.19l-1.7-2.24c-1.54.99-3.14,1.84-4.87,2.45l4.55,5.08h16.88l-14.86-5.29Z"/>
    <path class="cls-3" d="m17.23,176.62c3.23.79,6.46,1.61,9.72,2.17l23.79-29.27-4.05-11.63-16.66-19.21,4.8,27.22-17.6,30.72Z"/>
    <path class="cls-2" d="m49.59,110.61c-6.53-1.73-15.38.46-21.73,2.86,0,0,3.9,15.51,6.45,20.14,7.45,13.47,39.66,47.09,39.66,47.09,1.77-.6,5.18-3.1,6.74-4.11l-31.12-65.98Z"/>
    <path class="cls-1" d="m26.99,119.53c6.3-2.37,18.95-6.36,25.44-4.74,0,0-8.59-20.19-12.49-24.64-2.63-3-17.01-11.46-17.01-.4,0,15.15,4.06,29.78,4.06,29.78Z"/>
    <path class="cls-11" d="m32.6,88.81c-.08.03-.17.05-.26.08-1.92.52-3.9-.62-4.42-2.54-.54-2.01-.57-4.52-.57-4.79,0-1.99,1.6-3.61,3.59-3.62,1.99,0,3.61,1.6,3.62,3.58,0,.7.1,2.12.32,2.95.5,1.84-.52,3.72-2.28,4.34Z"/>
    <path class="cls-15" d="m35,85.25c-.01-.26-.05-.52-.12-.78-.22-.83-.31-2.25-.32-2.95-.01-1.99-1.63-3.59-3.62-3.58-1.99,0-3.6,1.63-3.59,3.62,0,.04,0,.15,0,.3,1.78,2,4.7,2.95,7.64,3.39Z"/>
    <path class="cls-11" d="m38.52,74.45c1.16,3.58-.8,7.42-4.37,8.58h0c-3.58,1.16-7.42-.8-8.58-4.37l-1.46-4.5c-1.16-3.58.8-7.42,4.37-8.58h0c3.58-1.16,7.42.79,8.58,4.37l1.46,4.5Z"/>
    <path class="cls-11" d="m78.63,70.84c-.14-.12-.31-.19-.48-.23.16-.18.34-.37.54-.59.42-.46.39-1.17-.07-1.59-.06-.05-.12-.1-.18-.13.31-.45.26-1.07-.15-1.46-.32-.3-.77-.37-1.15-.23.51-.52.83-.88.87-.92.41-.47.37-1.18-.1-1.59-.47-.41-1.18-.37-1.59.1-.03.03-2.47,2.79-4.99,4.22-1.09-1.65-2.56-2.23-2.64-2.26-.58-.22-1.21.07-1.44.64-.22.57.06,1.22.63,1.46.05.02.91.38,1.58,1.41-.09.25-.2.62-.26,1.04-16.56,22.42-38.53,14.46-39.52,14.08-1.97-.75-4.18.22-4.94,2.19-.76,1.97.21,4.19,2.18,4.95.27.1,5.64,2.15,13.31,2.15,1.54,0,3.18-.08,4.88-.28,8.27-.96,20.5-5.72,30.27-18.32.16-.09.39-.23.69-.45.2-.13.4-.27.61-.44l-.03-.02c.58-.49,1.29-1.17,2.1-2.14.4-.48.34-1.19-.14-1.58Z"/>
    <path class="cls-13" d="m48.14,84.84l-.93.2c-2.27.49-4.63.74-7,.74-5.81,0-9.84-1.46-10.28-1.63-.52-.2-1.06-.3-1.61-.3-1.87,0-3.52,1.13-4.2,2.88-.43,1.12-.51,2.4.08,3.44,2.2,3.9,8.23,5.48,16.05,5.48,1.66,0,3.33-.1,4.96-.28,1-.12,2.04-.29,3.11-.51l.66-.17s-.94-2.84-1.14-5.73c-.08-1.1.31-4.11.31-4.11Z"/>
    <path class="cls-2" d="m23.96,77.78c2.36-1.5,3.18-4.32,2.92-7.13,2.07,1.39,3.71.54,5.01-1.85,3.93,5.5,9.91-2.68,1.75-5.65-6.53-2.37-12.93,4.09-11.26,10.58l1.58,4.05Z"/>
  </g>
</svg>