<svg width="896" height="651" viewBox="0 0 896 651" fill="none" xmlns="http://www.w3.org/2000/svg">
<path opacity="0.1" d="M91.3899 609.01H832.632C894.08 557.744 862.445 403.522 811.152 372.242C755.921 338.585 843.633 222.186 758.524 184.396C702.968 159.723 614.604 186.609 626.484 120.63C642.952 29.0996 450.311 5.66364 308.409 30.3365C154.92 56.995 295.065 188.139 126.312 214.537C39.5436 228.143 56.3049 344.379 64.409 368.368C71.4715 389.298 118.078 422.466 53.2781 468.167C-41.7245 535.187 89.1442 607.774 91.3899 609.01Z" fill="#9BC1F9"/>
<path d="M749.769 217.532C749.769 217.532 737.629 243.962 729.46 255.127C721.291 266.292 713.512 276.968 707.003 307.923C700.494 338.911 701.6 342.003 699.81 350.01C698.02 358.017 686.433 390.437 686.368 396.361C686.303 402.318 662.903 436.137 656.914 451.989C650.925 467.841 640.315 490.463 640.901 501.954L643.57 501.27C643.57 501.27 645.751 474.416 664.237 447.27C682.723 420.123 680.087 415.012 701.079 401.049C722.072 387.117 735.644 348.578 735.644 348.578C735.644 348.578 756.994 306.751 756.018 285.008C755.041 263.264 760.704 243.669 749.769 217.532Z" fill="#256653"/>
<path d="M721.356 176.877C721.356 176.877 720.64 194.226 715.042 204.544C709.444 214.863 704.627 221.112 703.618 232.277C702.609 243.441 699.094 272.183 683.472 286.212C667.85 300.241 665.864 342.328 653.985 355.055C642.105 367.782 640.543 376.929 642.756 398.737C644.937 420.579 652.39 450.818 635.173 490.301L631.268 480.471C631.268 480.471 643.603 447.986 640.608 428.976C637.614 409.967 627.232 381.226 631.04 367.457C634.848 353.688 620.69 350.987 629.217 330.122C637.744 309.29 634.229 302.031 645.816 283.999C645.816 283.999 647.02 283.152 650.047 267.919C653.106 252.686 677.646 224.725 688.972 215.188C700.331 205.651 716.636 190.385 721.356 176.877Z" fill="#256653"/>
<path d="M675.27 262.809C675.27 262.809 661.731 286.017 661.536 300.957C661.34 315.898 662.968 328.039 656.1 348.513C649.233 368.954 662.87 381.909 658.932 393.204C654.994 404.499 654.701 417.877 654.831 428C654.961 438.156 639.306 471.715 636.931 488.706C634.555 505.697 637.582 505.762 637.582 505.762C637.582 505.762 640.185 483.335 643.765 475.914C647.378 468.492 658.314 442.908 660.852 433.013C663.423 423.117 670.356 416.77 676.312 400.007C682.3 383.244 690.795 369.15 690.144 345.356C689.493 321.561 699.062 296.465 675.27 262.809Z" fill="#3C8F7C"/>
<path d="M646.564 490.17C646.564 490.17 652.878 460.713 679.534 457.783C706.189 454.854 721.844 460.127 740.688 438.579C759.533 417.031 770.468 382.918 776.457 377.027C776.457 377.027 766.986 372.144 751.266 386.857C735.546 401.569 724.48 412.734 715.367 421.295C706.254 429.855 698.866 424.289 689.265 429.92C681.194 434.64 670.779 448.311 666.19 455.472C664.693 457.783 662.935 459.932 660.917 461.819C659.062 463.512 656.882 465.628 655.45 467.158C652.618 470.217 644.481 490.268 644.481 490.268L646.564 490.17Z" fill="#3C8F7C"/>
<path d="M637.159 484.962C637.159 484.962 646.564 448.93 640.25 431.32C633.969 413.678 614.246 400.658 615.06 389.558C615.841 378.491 628.501 348.545 618.184 326.281C618.184 326.281 614.279 346.169 610.405 350.564C606.532 354.99 580.007 372.828 584.726 396.361C589.413 419.895 615.222 425.429 621.569 432.362C627.915 439.295 636.508 439.295 636.54 443.884C636.605 448.506 638.265 465.27 635.434 481.805L637.159 484.962Z" fill="#3C8F7C"/>
<path d="M647.443 460.875L660.624 422.857C660.624 422.857 668.37 392.293 672.862 366.773C677.353 341.254 675.237 262.809 675.237 262.809C675.237 262.809 661.698 286.017 661.503 300.957C661.308 315.898 662.935 328.039 656.068 348.513C649.2 368.954 662.837 381.909 658.899 393.204C654.961 404.499 654.668 417.877 654.798 428C654.929 438.123 639.274 471.715 636.898 488.706C635.596 498.015 635.922 502.247 636.475 504.167C634.359 489.292 647.443 460.875 647.443 460.875Z" fill="#327F6B"/>
<path d="M712.438 438.221C700.656 440.564 690.144 439.783 676.149 450.166C662.187 460.582 653.952 471.682 653.952 471.682C653.952 471.682 647.671 482.912 645.067 488.836C644.677 489.747 644.481 490.268 644.481 490.268L646.532 490.17C646.532 490.17 652.846 460.713 679.501 457.783C706.157 454.854 721.811 460.127 740.656 438.579C759.5 417.031 770.436 382.918 776.424 377.027C776.424 377.027 756.408 392.618 744.008 406.387C731.673 420.188 724.22 435.877 712.438 438.221Z" fill="#327F6B"/>
<path d="M610.405 350.596C606.532 355.023 580.007 372.86 584.726 396.394C589.413 419.928 615.222 425.461 621.569 432.394C627.915 439.327 636.508 439.327 636.54 443.917C636.605 448.539 638.265 465.302 635.434 481.838L636.182 483.205C637.582 476.76 639.502 466.93 640.12 459.443C641.129 447.335 639.176 442.289 635.271 432.492C631.365 422.662 607.183 402.676 601.097 392.162C595.044 381.649 612.781 364.072 616.719 355.576C620.658 347.081 618.152 326.281 618.152 326.281C618.152 326.281 614.279 346.169 610.405 350.596Z" fill="#327F6B"/>
<path d="M673.35 467.581L677.483 457.555C680.705 450.199 688.94 446.684 695.872 449.711C713.349 457.328 720.933 478.583 712.829 497.136L706.905 510.71C704.301 516.666 705.213 523.209 708.728 527.798C711.917 531.997 712.438 537.824 710.225 542.869L707.1 550.03C703.716 557.777 697.141 563.506 689.33 565.882C684.774 567.249 680.738 570.699 678.622 575.582L674.196 585.705C669.314 596.902 656.784 602.24 646.271 597.651L640.25 595.014C629.705 590.424 625.116 577.6 629.998 566.403C637.907 553.025 637.289 543.032 634.457 536.229C630.324 526.268 630.389 514.778 634.848 504.59L635.466 503.158C640.153 492.384 649.233 484.344 660.071 480.894C664.855 479.364 669.835 475.653 673.35 467.581Z" fill="#50BFA5"/>
<path d="M598.754 609.011C607.248 598.009 653.725 539.126 684.025 529.296C717.483 518.456 685.946 561.488 685.946 561.488C685.946 561.488 745.31 496.583 767.083 502.409C787.067 507.78 767.083 548.012 767.083 548.012C767.083 548.012 789.573 525.715 816.847 525.715C843.405 525.715 798.295 604.747 795.854 608.978H598.754V609.011Z" fill="#96D9C9"/>
<path d="M777.629 481.577C753.382 519.465 735.676 561.553 725.554 606.244L723.895 605.788C733.984 562.008 751.559 520.019 775.773 482.163C781.404 473.375 787.49 462.926 798.002 459.508C798.198 459.443 798.295 459.736 798.1 459.834C788.466 463.479 782.901 473.375 777.629 481.577Z" fill="#3C8F7C"/>
<path d="M731.413 607.839C758.524 570.992 791.461 536.912 830.647 507.292C831.037 506.999 831.558 507.682 831.168 507.975C794 536.554 761.128 570.276 733.464 608.392L731.413 607.839Z" fill="#3C8F7C"/>
<path d="M779.841 458.076C780.46 458.988 782.868 461.396 783.552 464.521C784.496 467.516 783.747 471.259 783.682 471.096C783.487 471.161 786.448 468.687 787.36 464.716C788.564 460.908 787.718 455.635 786.22 453.91C783.649 449.971 779.19 449.548 778.312 451.469C777.433 453.422 778.605 455.993 779.841 458.076Z" fill="#3C8F7C"/>
<path d="M785.668 491.896C784.756 491.245 782.413 488.803 779.289 488.055C776.327 487.046 772.584 487.729 772.714 487.794C772.649 487.957 775.188 485.093 779.158 484.246C782.966 483.14 788.239 484.084 789.964 485.581C793.869 488.217 794.162 492.709 792.242 493.523C790.289 494.434 787.718 493.198 785.668 491.896Z" fill="#3C8F7C"/>
<path d="M776.913 506.738C776.002 506.087 773.658 503.646 770.534 502.897C767.572 501.888 763.829 502.572 763.959 502.637C763.894 502.8 766.433 499.935 770.404 499.089C774.211 497.982 779.484 498.926 781.209 500.424C785.114 503.06 785.407 507.552 783.487 508.366C781.534 509.245 778.963 508.008 776.913 506.738Z" fill="#3C8F7C"/>
<path d="M808.125 541.111C807.213 540.46 804.87 538.019 801.746 537.27C798.784 536.261 795.041 536.945 795.171 537.01C795.106 537.173 797.645 534.308 801.615 533.462C805.423 532.355 810.696 533.299 812.421 534.796C816.326 537.433 816.619 541.925 814.699 542.739C812.746 543.617 810.208 542.413 808.125 541.111Z" fill="#3C8F7C"/>
<path d="M824.072 527.05C823.161 526.399 820.817 523.957 817.693 523.209C814.731 522.2 810.988 522.883 811.119 522.948C811.053 523.111 813.592 520.247 817.563 519.4C821.371 518.294 826.643 519.238 828.368 520.735C832.274 523.371 832.567 527.863 830.646 528.677C828.726 529.556 826.155 528.352 824.072 527.05Z" fill="#3C8F7C"/>
<path d="M767.605 474.872C768.353 475.686 771.119 477.671 772.291 480.666C773.691 483.465 773.56 487.273 773.463 487.143C773.3 487.241 775.806 484.311 776.099 480.275C776.685 476.337 775.025 471.259 773.268 469.762C770.111 466.279 765.652 466.572 765.098 468.59C764.48 470.64 766.042 472.984 767.605 474.872Z" fill="#3C8F7C"/>
<path d="M754.715 491.668C755.789 492.254 759.597 493.295 761.485 496.127C763.633 498.633 763.926 502.963 763.763 502.865C763.568 503.06 766.465 498.698 766.335 494.044C766.595 489.389 763.828 484.442 761.42 483.53C756.929 480.991 751.168 483.27 750.68 485.744C750.159 488.282 752.47 490.268 754.715 491.668Z" fill="#3C8F7C"/>
<path d="M741.177 517.122C742.348 517.512 746.254 517.903 748.597 520.377C751.136 522.493 752.145 526.691 751.982 526.626C751.819 526.854 753.935 522.069 753.023 517.512C752.503 512.89 748.955 508.463 746.417 507.975C741.535 506.218 736.262 509.44 736.197 511.979C736.099 514.55 738.703 516.113 741.177 517.122Z" fill="#3C8F7C"/>
<path d="M781.274 534.862C782.12 535.382 785.147 536.456 786.546 538.865C788.141 541.046 788.141 544.561 788.011 544.496C787.848 544.627 790.452 541.274 790.614 537.466C791.103 533.69 789.15 529.523 787.197 528.644C783.682 526.301 778.865 527.831 778.344 529.849C777.759 531.834 779.516 533.592 781.274 534.862Z" fill="#3C8F7C"/>
<path d="M802.136 464.065C801.615 463.642 800.346 462.112 798.524 461.526C796.799 460.81 794.553 461.038 794.651 461.103C794.585 461.201 796.245 459.606 798.621 459.28C800.932 458.792 803.991 459.573 804.935 460.55C807.116 462.275 807.116 464.944 805.944 465.335C804.772 465.758 803.308 464.912 802.136 464.065Z" fill="#3C8F7C"/>
<path d="M797.287 453.226C797.319 453.877 797.742 455.83 797.091 457.653C796.603 459.443 795.073 461.103 795.073 461.006C794.976 460.973 797.221 460.68 798.946 458.988C800.736 457.458 802.006 454.561 801.811 453.194C801.778 450.394 799.662 448.799 798.621 449.483C797.547 450.134 797.319 451.794 797.287 453.226Z" fill="#3C8F7C"/>
<path d="M835.593 512.728C835.072 512.304 833.803 510.775 831.981 510.189C830.256 509.473 828.01 509.701 828.108 509.766C828.042 509.863 829.702 508.268 832.078 507.943C834.389 507.455 837.448 508.236 838.392 509.212C840.573 510.937 840.573 513.607 839.401 513.997C838.197 514.42 836.732 513.574 835.593 512.728Z" fill="#3C8F7C"/>
<path d="M829.702 501.823C829.768 502.474 830.386 504.395 829.898 506.25C829.572 508.073 828.173 509.831 828.14 509.733C828.01 509.733 830.256 509.212 831.818 507.39C833.478 505.729 834.487 502.702 834.194 501.4C833.933 498.634 831.688 497.169 830.711 497.95C829.735 498.699 829.637 500.359 829.702 501.823Z" fill="#3C8F7C"/>
<path d="M825.634 572.327C800.866 575.028 777.791 585.965 755.594 596.642C740.623 603.835 741.371 605.886 738.312 606.96C737.824 607.123 737.336 606.602 737.564 606.114C738.735 603.803 741.827 602.208 743.943 600.873C746.449 599.311 749.052 597.944 751.689 596.674C757.352 593.94 763.145 591.466 768.906 588.96C780.622 583.882 792.534 579.065 804.902 575.842C811.704 574.052 818.604 572.783 825.601 572.164C825.731 572.099 825.764 572.294 825.634 572.327Z" fill="#3C8F7C"/>
<path d="M803.307 564.645C803.47 565.654 804.512 568.616 803.861 571.513C803.47 574.377 801.387 577.209 801.355 577.079C801.159 577.079 804.609 576.135 806.953 573.173C809.459 570.471 810.826 565.719 810.272 563.668C809.687 559.339 806.106 557.256 804.609 558.526C803.112 559.763 803.08 562.399 803.307 564.645Z" fill="#3C8F7C"/>
<path d="M781.501 572.457C781.663 573.466 782.705 576.428 782.054 579.325C781.663 582.189 779.58 585.021 779.548 584.891C779.353 584.891 782.835 583.947 785.146 580.985C787.652 578.283 789.019 573.531 788.466 571.481C787.88 567.151 784.3 565.068 782.803 566.338C781.305 567.575 781.273 570.211 781.501 572.457Z" fill="#3C8F7C"/>
<path d="M759.337 582.32C759.499 583.329 760.541 586.291 759.89 589.188C759.499 592.052 757.416 594.884 757.384 594.754C757.189 594.754 760.671 593.81 762.982 590.848C765.488 588.146 766.855 583.394 766.302 581.343C765.716 577.014 762.136 574.931 760.638 576.2C759.141 577.47 759.109 580.074 759.337 582.32Z" fill="#3C8F7C"/>
<path d="M809.817 585.021C809.361 584.175 808.515 581.408 806.399 579.651C804.512 577.763 801.387 576.819 801.452 576.949C801.322 577.047 804.381 575.81 807.766 576.688C811.118 577.307 814.796 580.009 815.512 581.831C817.498 585.347 816 588.895 814.21 588.797C812.42 588.732 810.923 586.812 809.817 585.021Z" fill="#3C8F7C"/>
<path d="M787.132 593.061C786.676 592.215 785.83 589.448 783.715 587.69C781.827 585.802 778.703 584.858 778.768 584.989C778.637 585.086 781.697 583.849 785.082 584.728C788.434 585.347 792.112 588.048 792.828 589.871C794.813 593.387 793.316 596.935 791.526 596.837C789.703 596.772 788.206 594.851 787.132 593.061Z" fill="#3C8F7C"/>
<path d="M827.098 576.754C826.708 576.298 825.796 574.67 824.234 573.824C822.802 572.88 820.719 572.717 820.752 572.783C820.687 572.88 822.444 571.676 824.69 571.773C826.87 571.708 829.539 572.945 830.255 573.987C831.948 575.94 831.492 578.349 830.353 578.544C829.214 578.739 828.01 577.73 827.098 576.754Z" fill="#3C8F7C"/>
<path d="M824.495 566.077C824.397 566.696 824.495 568.551 823.584 570.081C822.868 571.643 821.175 572.88 821.175 572.782C821.077 572.75 823.193 572.847 825.048 571.578C826.936 570.471 828.563 568.063 828.628 566.793C829.051 564.254 827.391 562.431 826.35 562.855C825.243 563.31 824.755 564.775 824.495 566.077Z" fill="#3C8F7C"/>
<path d="M186.652 420.871C157.556 394.929 142.585 357.659 135.164 330.968C127.093 301.999 125.921 278.856 125.921 278.628L124.326 278.53C124.326 278.758 125.53 302.064 133.634 331.229C141.12 358.18 156.254 395.84 185.709 422.108L186.652 420.871Z" fill="#3C8F7C"/>
<path d="M129.241 271.923C130.673 278.595 129.469 284.91 126.409 289.435C121.625 285.919 117.85 280.255 116.417 273.583C114.985 266.91 116.19 260.595 119.249 256.071C124.033 259.586 127.776 265.25 129.241 271.923Z" fill="#3C8F7C"/>
<path d="M120.291 290.932C125.303 295.587 128.232 301.738 128.818 307.63C123.317 307.89 117.264 305.644 112.252 300.99C107.24 296.335 104.31 290.183 103.725 284.292C109.225 284.031 115.279 286.245 120.291 290.932Z" fill="#3C8F7C"/>
<path d="M117.948 310.885C124.164 312.838 129.274 317.167 132.3 322.44C127.777 325.337 121.723 326.184 115.474 324.231C109.258 322.278 104.148 317.948 101.121 312.675C105.645 309.778 111.731 308.932 117.948 310.885Z" fill="#3C8F7C"/>
<path d="M127.548 334.907C132.495 336.469 136.434 340.44 138.679 345.486C134.936 348.643 130.022 349.815 125.107 348.252C120.16 346.69 116.222 342.719 113.977 337.674C117.719 334.549 122.601 333.345 127.548 334.907Z" fill="#3C8F7C"/>
<path d="M135.979 300.632C139.852 296.726 144.994 295.066 149.973 295.586C150.234 300.86 148.444 306.198 144.538 310.104C140.665 314.01 135.523 315.67 130.543 315.149C130.283 309.876 132.073 304.538 135.979 300.632Z" fill="#3C8F7C"/>
<path d="M140.469 317.851C144.342 313.945 149.485 312.285 154.464 312.805C154.725 318.079 152.935 323.417 149.029 327.323C145.156 331.229 140.014 332.889 135.034 332.368C134.774 327.095 136.596 321.757 140.469 317.851Z" fill="#3C8F7C"/>
<path d="M169.11 456.091C142.227 452.185 119.249 436.235 104.669 423.573C88.851 409.837 79.3149 396.817 79.2173 396.687L78.2734 397.24C78.3711 397.37 88.0048 410.455 103.92 424.322C118.631 437.114 141.869 453.194 169.078 457.165L169.11 456.091Z" fill="#50BFA5"/>
<path d="M78.5667 391.511C81.9515 394.831 83.6765 398.965 83.6439 402.774C79.5105 402.546 75.1493 400.723 71.732 397.403C68.3472 394.083 66.6222 389.949 66.6547 386.141C70.8207 386.368 75.1819 388.191 78.5667 391.511Z" fill="#50BFA5"/>
<path d="M80.6821 405.996C85.4013 406.777 89.437 409.219 92.0407 412.441C88.9488 414.687 84.5551 415.729 79.8684 414.947C75.1492 414.166 71.1135 411.725 68.5098 408.502C71.6017 406.224 75.9629 405.215 80.6821 405.996Z" fill="#50BFA5"/>
<path d="M86.9632 418.495C91.3244 417.226 95.9786 417.812 99.7539 419.7C98.2243 423.117 95.0347 425.949 90.6735 427.186C86.3123 428.423 81.6582 427.87 77.8828 425.982C79.4125 422.564 82.602 419.765 86.9632 418.495Z" fill="#50BFA5"/>
<path d="M101.772 428.781C105.255 427.805 109.063 428.586 112.285 430.669C111.308 433.924 108.932 436.495 105.45 437.504C101.968 438.481 98.1596 437.7 94.9375 435.617C95.9139 432.329 98.2898 429.758 101.772 428.781Z" fill="#50BFA5"/>
<path d="M93.5051 405.606C94.2537 401.83 96.6295 398.9 99.7214 397.305C101.902 400.267 102.911 404.076 102.13 407.819C101.381 411.595 99.0054 414.524 95.9135 416.119C93.7329 413.19 92.7565 409.381 93.5051 405.606Z" fill="#50BFA5"/>
<path d="M102.749 413.906C103.497 410.13 105.873 407.2 108.965 405.605C111.146 408.568 112.155 412.376 111.374 416.119C110.625 419.895 108.249 422.824 105.157 424.419C102.977 421.457 101.968 417.649 102.749 413.906Z" fill="#50BFA5"/>
<path d="M185.286 536.521C154.302 548.305 120.161 542.087 96.9883 534.796C71.83 526.887 53.7993 516.047 53.6366 515.917L52.9531 517.219C53.1484 517.317 71.3092 528.254 96.6303 536.228C120.031 543.585 154.498 549.867 185.872 537.954L185.286 536.521Z" fill="#96D9C9"/>
<path d="M49.8282 509.635C55.4587 511.816 59.7874 516.08 62.0656 521.06C57.5092 523.371 51.7485 523.729 46.1505 521.549C40.52 519.368 36.1913 515.104 33.9131 510.123C38.437 507.78 44.1977 507.422 49.8282 509.635Z" fill="#96D9C9"/>
<path d="M60.7965 527.049C66.2968 525.129 72.09 525.747 76.7767 528.286C74.8239 533.169 70.7882 537.237 65.2879 539.158C59.7875 541.078 53.9943 540.46 49.3076 537.921C51.2929 533.039 55.3287 528.97 60.7965 527.049Z" fill="#96D9C9"/>
<path d="M75.0845 539.321C78.99 534.959 84.2625 532.778 89.4374 532.876C89.893 538.247 88.1681 543.91 84.2951 548.272C80.3895 552.634 75.117 554.815 69.9421 554.717C69.4539 549.346 71.1789 543.683 75.0845 539.321Z" fill="#96D9C9"/>
<path d="M95.0346 545.636C98.9402 541.274 104.213 539.093 109.388 539.191C109.843 544.561 108.118 550.225 104.245 554.587C100.372 558.949 95.0672 561.129 89.8923 561.032C89.4041 555.661 91.1291 550.03 95.0346 545.636Z" fill="#96D9C9"/>
<path d="M76.2562 525.194C72.8388 520.735 71.3091 515.331 71.6671 510.449C76.1911 510.97 80.8126 513.606 84.23 518.066C87.6474 522.525 89.177 527.928 88.819 532.811C84.2951 532.29 79.6735 529.653 76.2562 525.194Z" fill="#96D9C9"/>
<path d="M96.9881 531.671C93.5056 527.245 91.8783 521.874 92.1712 516.991C96.6952 517.447 101.349 519.986 104.832 524.413C108.314 528.84 109.942 534.21 109.649 539.093C105.125 538.637 100.471 536.098 96.9881 531.671Z" fill="#96D9C9"/>
<path d="M121.235 547.393C122.146 545.049 123.968 543.455 126.117 542.771C127.125 544.919 127.321 547.491 126.409 549.802C125.498 552.145 123.676 553.74 121.528 554.424C120.519 552.276 120.323 549.704 121.235 547.393Z" fill="#96D9C9"/>
<path d="M251.811 606.732C251.811 606.732 291.322 450.525 278.206 434.803C260.11 413.125 245.172 485.06 243.707 478.973C229.875 421.262 226.197 347.374 181.544 339.562C156.157 335.102 187.402 394.473 185.514 410.553C183.626 426.6 137.899 373.316 110.137 345.388C82.3424 317.46 67.9894 335.135 85.5644 370.256C102.554 404.206 157.459 441.313 146.133 445.74C134.807 450.166 66.1017 406.289 57.6723 425.038C47.3551 448.018 150.429 479.299 140.73 484.474C131.032 489.65 81.7565 472.626 83.0909 490.203C84.4253 507.78 150.657 507.129 149.55 514.843C147.728 527.375 103.921 499.024 102 516.341C100.015 534.048 159.64 530.825 158.598 544.659C158.013 552.601 145.222 540.623 143.334 551.625C139.038 576.721 217.605 607.253 217.605 607.253L251.811 606.732Z" fill="#3C8F7C"/>
<path d="M281.949 607.676C281.949 607.676 244.358 550.03 226.262 539.158C206.995 527.57 221.673 562.269 221.673 562.269C221.673 562.269 182.292 515.397 171.357 524.934C160.421 534.471 170.348 545.473 170.348 545.473C170.348 545.473 135.002 534.992 128.623 547.979C118.859 567.932 177.085 584.468 177.085 584.468C177.085 584.468 152.089 584.207 156.678 597.683C163.611 617.962 281.949 607.676 281.949 607.676Z" fill="#50BFA5"/>
<path d="M128.623 547.979C134.97 534.992 170.347 545.473 170.347 545.473C170.347 545.473 160.421 534.438 171.356 524.934C182.292 515.429 213.797 543.91 213.797 543.91C213.797 543.91 210.51 520.409 234.203 541.111C251.16 555.889 281.949 607.676 281.949 607.676L128.623 547.979Z" fill="#96D9C9"/>
<path d="M236.318 462.959L238.011 461.819C207.417 415.468 198.076 360.426 195.603 322.44C192.934 281.199 197.621 250.537 197.653 250.244L195.57 249.626C195.538 249.919 190.818 280.776 193.487 322.277C195.961 360.589 205.399 416.119 236.318 462.959Z" fill="#96D9C9"/>
<path d="M203.675 243.018C203.74 252.327 200.518 260.042 195.343 264.631C190.103 257.959 186.751 248.975 186.686 239.666C186.62 230.356 189.843 222.642 195.017 218.052C200.257 224.693 203.61 233.676 203.675 243.018Z" fill="#96D9C9"/>
<path d="M187.108 263.948C192.315 272.183 194.463 281.427 193.617 289.369C186.457 287.319 179.264 281.818 174.024 273.583C168.817 265.348 166.669 256.103 167.515 248.161C174.675 250.179 181.901 255.713 187.108 263.948Z" fill="#96D9C9"/>
<path d="M178.744 288.946C186.262 294.154 191.665 302.031 194.171 310.201C187.564 312.057 179.525 310.527 172.039 305.319C164.521 300.111 159.118 292.234 156.612 284.064C163.219 282.208 171.258 283.706 178.744 288.946Z" fill="#96D9C9"/>
<path d="M188.54 332.596C191.827 334.549 194.301 337.674 195.57 341.059C192.869 342.068 189.516 341.677 186.229 339.724C182.942 337.771 180.469 334.647 179.199 331.261C181.901 330.285 185.253 330.643 188.54 332.596Z" fill="#96D9C9"/>
<path d="M191.209 348.773C194.496 350.726 196.97 353.851 198.239 357.236C195.538 358.245 192.185 357.855 188.898 355.902C185.611 353.949 183.137 350.824 181.868 347.439C184.537 346.43 187.922 346.82 191.209 348.773Z" fill="#96D9C9"/>
<path d="M204.716 283.315C210.77 279.897 217.832 279.93 224.114 282.762C223.072 289.76 219.297 295.945 213.243 299.362C207.19 302.78 200.127 302.747 193.846 299.916C194.887 292.917 198.663 286.733 204.716 283.315Z" fill="#96D9C9"/>
<path d="M205.92 307.663C211.974 304.245 219.036 304.277 225.318 307.109C224.276 314.107 220.501 320.292 214.447 323.71C208.394 327.127 201.331 327.095 195.05 324.263C196.124 317.265 199.867 311.113 205.92 307.663Z" fill="#96D9C9"/>
<path d="M204.716 342.524C208.654 340.278 213.243 340.31 217.344 342.166C216.66 346.723 214.219 350.726 210.281 352.972C206.343 355.218 201.754 355.186 197.653 353.33C198.337 348.806 200.778 344.77 204.716 342.524Z" fill="#96D9C9"/>
<path d="M636.541 479.982C640.088 480.568 639.893 481.154 640.349 481.186C640.902 481.252 647.314 478.029 647.314 478.029C647.314 478.029 666.288 468.655 667.297 468.101L680.999 450.85L691.544 455.732C691.544 455.732 676.15 474.058 675.173 474.872C674.197 475.686 646.988 485.223 644.612 486.134C644.612 486.134 642.236 488.315 640.674 489.649C639.144 490.951 637.061 491.505 636.573 491.798C636.508 491.83 634.783 492.742 632.375 493.263C630.292 493.718 632.017 492.319 632.017 492.319C632.017 492.319 635.694 490.756 635.499 490.496C635.369 490.268 633.416 491.244 631.105 491.765C630.52 491.895 629.934 492.026 629.413 492.156C628.014 492.449 627.395 491.668 628.795 491.082C629.283 490.886 630.129 490.561 630.747 490.431C631.431 490.3 631.984 489.942 632.538 489.715C633.644 489.291 634.425 488.998 634.393 488.966C634.328 488.901 634.49 488.673 633.872 488.803C633.123 488.966 631.594 489.617 630.455 489.747C629.804 489.812 628.469 490.04 628.469 490.04C628.469 490.04 626.126 490.268 626.093 489.942C626.061 489.226 627.493 488.803 628.404 488.836C628.957 488.543 630.389 488.347 630.389 488.347C630.389 488.347 633.123 487.273 632.961 486.85C632.896 486.687 631.236 486.948 629.478 487.045C627.623 487.176 626.289 487.176 626.191 486.818C626.028 486.232 627.525 486.036 627.525 486.036C627.525 486.036 628.827 485.841 629.25 485.743C629.739 485.646 631.203 485.158 631.203 485.158C631.203 485.158 636.215 483.302 636.053 482.944C635.857 482.586 635.044 481.805 634.686 481.805C634.328 481.805 633.709 482.163 633.351 482.163C632.993 482.163 632.245 482.098 632.18 481.642C632.114 481.186 634.1 480.275 634.1 480.275C634.1 480.275 635.532 479.819 636.541 479.982Z" fill="#F8A492"/>
<path d="M671.463 461.591C671.463 461.591 674.88 464.684 676.312 465.725C677.484 466.572 683.245 469.338 683.245 469.338C683.245 469.338 688.973 460.55 691.479 456.156C694.506 450.817 696.621 442.875 695.905 442.647C693.887 442.029 691.121 441.671 688.55 442.843C679.697 446.944 671.463 461.591 671.463 461.591Z" fill="#355389"/>
<path d="M639.86 484.572C638.33 484.8 636.768 484.507 636.117 483.14C635.987 484.8 638.461 485.613 639.86 484.572Z" fill="#FE875E"/>
<path d="M215.001 423.02C215.196 417.909 214.448 412.864 212.202 408.112C210.249 404.011 205.4 401.7 200.973 401.7C186.946 401.667 185.156 420.318 176.206 427.479C173.472 429.66 170.412 431.45 167.841 433.826C158.305 442.582 162.601 458.76 171.356 466.409C177.442 471.715 186.979 474.742 194.464 470.575C198.37 468.394 201.331 464.814 203.447 460.843C206.441 455.244 208.394 448.767 210.51 442.778C212.82 436.43 214.741 429.823 215.001 423.02Z" fill="#13375B"/>
<path d="M217.312 447.758C212.918 434.445 207.157 434.673 207.157 434.673L211.844 462.991C214.545 462.242 218.06 460.615 220.794 459.834C219.85 455.635 218.386 451.045 217.312 447.758Z" fill="#F7CC7F"/>
<path d="M239.443 493.132L223.431 480.894C223.431 480.894 221.803 469.501 219.655 459.378C216.954 460.127 214.513 462.275 211.812 462.991L215.88 485.646L236.872 496.485L242.796 504.102L244.13 496.29L239.443 493.132Z" fill="#F48C7F"/>
<path d="M385.543 474.026C390.523 474.026 395.177 475.328 399.213 477.639C399.733 477.932 400.287 478.192 400.872 478.42C413.175 483.465 426.649 474.123 426.649 460.81V395.32H361.166C347.854 395.32 338.481 381.844 343.558 369.54C343.786 368.954 344.079 368.401 344.339 367.88C346.618 363.844 347.952 359.157 347.952 354.209C347.952 338.422 334.803 325.728 318.856 326.476C304.438 327.16 292.819 338.976 292.428 353.428C292.298 358.571 293.535 363.388 295.845 367.555C296.138 368.075 296.399 368.629 296.627 369.247C301.639 381.779 292.135 395.352 278.628 395.352H213.764V544.561C213.764 579.748 242.307 608.294 277.489 608.294H426.682V543.032C426.682 529.654 413.175 520.214 400.775 525.259C400.189 525.487 399.636 525.748 399.115 526.04C394.689 528.514 389.546 529.816 384.046 529.523C369.921 528.775 358.497 517.285 357.814 503.158C357.065 487.208 369.758 474.026 385.543 474.026Z" fill="#F47458"/>
<path d="M527.445 437.7C527.673 432.72 529.202 428.13 531.676 424.192C532.001 423.703 532.294 423.15 532.555 422.564C538.185 410.488 529.463 396.589 516.151 395.971L450.733 392.911L447.674 458.337C447.056 471.649 433.158 480.373 421.084 474.742C420.498 474.481 419.977 474.188 419.456 473.863C415.518 471.389 410.929 469.859 405.95 469.631C390.197 468.883 376.886 481.447 376.886 497.397C376.886 511.816 388.179 523.99 402.565 525.064C407.675 525.455 412.557 524.413 416.853 522.33C417.373 522.069 417.959 521.842 418.578 521.614C431.303 517.187 444.452 527.343 443.801 540.786L440.774 605.625L589.804 612.591C624.954 614.218 654.799 587.072 656.426 551.918L663.391 402.871L598.201 399.812C584.824 399.193 574.8 412.246 579.259 424.875C579.487 425.494 579.714 426.047 579.975 426.568C582.253 431.092 583.294 436.3 582.774 441.769C581.374 455.863 569.365 466.734 555.207 466.734C539.259 466.767 526.696 453.454 527.445 437.7Z" fill="#F7CC7F"/>
<path d="M345.186 334.712C345.446 339.692 344.372 344.411 342.256 348.545C341.996 349.066 341.768 349.652 341.54 350.238C337.114 362.802 347.138 375.79 360.45 375.106L425.835 371.819L422.548 306.426C421.865 293.113 434.883 283.087 447.414 287.514C447.999 287.742 448.585 287.97 449.106 288.23C453.239 290.313 457.991 291.388 462.938 291.16C478.691 290.378 490.7 276.61 489.17 260.725C487.771 246.371 475.371 235.369 460.953 235.694C455.81 235.825 451.059 237.289 447.023 239.796C446.502 240.121 445.981 240.382 445.396 240.675C433.158 246.306 419.098 237.485 418.415 224.009L415.16 159.169L266.163 166.656C231.013 168.414 203.967 198.36 205.725 233.514L213.21 382.528L278.401 379.24C291.777 378.556 300.499 364.592 294.836 352.451C294.576 351.865 294.283 351.345 293.958 350.824C291.256 346.527 289.694 341.449 289.727 335.948C289.759 321.789 300.662 309.811 314.755 308.444C330.637 306.914 344.404 318.957 345.186 334.712Z" fill="#50BFA5"/>
<path d="M479.049 298.614C474.069 298.614 469.415 297.312 465.379 295.001C464.859 294.708 464.305 294.447 463.719 294.219C451.417 289.174 437.943 298.516 437.943 311.829V377.32H503.426C516.737 377.32 526.111 390.795 521.033 403.099C520.806 403.685 520.513 404.238 520.22 404.759C517.942 408.795 516.607 413.483 516.607 418.43C516.607 434.217 529.756 446.911 545.704 446.163C560.122 445.479 571.741 433.664 572.131 419.211C572.261 414.069 571.025 409.251 568.714 405.085C568.421 404.564 568.161 404.011 567.933 403.392C562.921 390.86 572.424 377.287 585.931 377.287H650.828V228.11C650.828 192.924 622.285 164.377 587.102 164.377H437.91V229.64C437.91 243.018 451.417 252.458 463.817 247.412C464.403 247.185 464.956 246.924 465.477 246.631C469.903 244.158 475.046 242.855 480.546 243.148C494.671 243.897 506.095 255.387 506.778 269.514C507.527 285.463 494.834 298.614 479.049 298.614Z" fill="#184655"/>
<path d="M171.129 587.56C171.129 587.56 170.152 594.428 168.427 596.642C167.841 597.39 166.8 598.334 166.116 599.669C165.042 601.752 165.628 604.877 166.442 606.602C166.832 607.481 166.409 607.481 167.321 607.774C170.054 608.62 172.951 607.188 174.09 604.584C174.741 603.119 175.294 601.166 175.425 598.725C175.718 592.475 177.638 589.318 177.638 589.318L171.129 587.56Z" fill="#F7A491"/>
<path d="M200.908 590.685C200.908 590.685 201.526 598.432 201.038 600.971C200.778 602.305 199.281 605.104 199.964 606.374C200.648 607.643 201.429 607.969 201.429 607.969L219.004 608.262C219.948 608.262 219.329 607.676 218.548 607.09C217.279 606.146 216.27 605.528 212.234 603.575C211.974 603.444 210.997 602.826 210.672 602.631C209.793 602.11 208.914 601.264 208.166 600.417C206.897 599.018 206.799 592.182 206.799 592.182L200.908 590.685Z" fill="#F7A491"/>
<path d="M214.61 487.664C214.61 487.664 216.823 500.261 215.359 508.496C213.894 516.731 206.929 593.224 206.929 593.224L199.183 593.647C199.183 593.647 197.556 561.683 197.849 557.256C198.142 552.797 200.452 545.375 200.452 545.375L199.671 519.596L209.435 485.711L214.61 487.664Z" fill="#355389"/>
<path d="M191.86 485.028C191.86 485.028 185.774 494.239 184.31 501.856C182.845 509.473 185.384 532.876 182.585 542.869C181.088 548.272 175.327 556.605 174.481 563.603C173.602 570.601 170.185 588.862 170.185 588.862L177.931 590.392L195.929 544.724L210.054 503.451L213.666 482.196L191.86 485.028Z" fill="#466EB6"/>
<path d="M196.808 432.655C196.808 432.655 188.736 432.134 185.547 435.617C182.357 439.099 192.642 466.734 193.228 471.161C193.813 475.588 190.266 487.404 190.266 487.404C190.266 487.404 209.24 491.245 214.676 487.632C214.676 487.632 215.261 455.667 214.676 452.51C214.09 449.32 209.24 436.43 208.101 435.161C206.865 433.924 196.808 432.655 196.808 432.655Z" fill="#F7CC7F"/>
<path d="M199.476 421.815C199.476 421.815 199.444 422.043 199.346 422.466C198.988 424.419 197.589 430.864 196.677 432.655C195.538 434.803 200.55 441.638 205.367 440.792C206.799 440.532 204.163 434.51 204.293 433.859C204.521 432.622 204.879 430.962 205.204 429.237C205.4 428.26 205.595 427.284 205.758 426.372C206.278 423.768 206.702 421.62 206.702 421.62L199.476 421.815Z" fill="#F7A491"/>
<path d="M199.379 422.466C199.444 422.076 199.509 421.815 199.509 421.815L206.734 421.62C206.734 421.62 206.311 423.768 205.79 426.372C205.595 427.284 205.432 428.26 205.237 429.237C204.131 429.074 202.959 428.521 201.787 427.512C200.518 426.405 199.672 425.038 199.184 423.606C199.249 423.183 199.314 422.792 199.379 422.466Z" fill="#F47458"/>
<path d="M204.359 405.378C204.359 405.378 200.941 404.987 198.826 407.754C196.678 410.52 194.399 419.081 199.704 423.736C205.01 428.39 210.249 423.117 211.031 417.551C211.779 411.953 212.072 405.182 204.359 405.378Z" fill="#F7A491"/>
<path d="M212.56 417.454C211.942 418.691 210.867 419.374 210.184 418.984C209.501 418.593 209.468 417.291 210.119 416.054C210.737 414.817 211.811 414.134 212.495 414.524C213.146 414.882 213.178 416.217 212.56 417.454Z" fill="#F7A491"/>
<path d="M204.716 404.466C204.716 404.466 200.16 412.604 196.905 412.994C193.651 413.385 193.228 417.682 193.228 417.682C193.228 417.682 194.399 407.721 197.621 405.801C200.843 403.88 204.716 404.466 204.716 404.466Z" fill="#13375B"/>
<path d="M174.643 603.216C170.412 603.998 167.613 601.524 166.149 599.668C165.074 601.752 164.554 604.909 165.335 606.634C166.018 608.164 168.069 608.099 169.664 608.164C171.356 608.229 172.658 607.285 173.504 605.82C173.895 605.104 174.318 604.258 174.643 603.216Z" fill="#F47458"/>
<path d="M210.639 602.598C205.985 603.802 202.568 602.989 200.647 602.208C200.159 603.607 199.508 605.365 199.834 606.406C200.257 607.643 200.875 607.936 201.396 607.936C205.627 608.034 216.953 608.197 220.175 608.229C220.631 608.229 220.891 607.708 220.598 607.35C219.785 606.439 210.965 602.826 210.639 602.598Z" fill="#F47458"/>
<path d="M197.783 415.012C198.044 416.445 197.523 417.779 196.579 417.974C195.668 418.17 194.691 417.161 194.431 415.696C194.171 414.264 194.691 412.929 195.635 412.734C196.547 412.539 197.523 413.58 197.783 415.012Z" fill="#F7A491"/>
<path d="M203.089 420.025L207.19 420.22C207.19 420.22 207.027 421.783 205.205 421.75C203.024 421.685 203.089 420.025 203.089 420.025Z" fill="white"/>
<path d="M553.287 92.5396C553.808 92.5722 555.208 93.0279 557.258 96.9013C559.862 101.849 563.702 116.789 563.702 116.789L552.278 121.053L550.814 117.929L548.405 93.9067C548.373 93.9067 553.125 92.5071 553.287 92.5396Z" fill="#DD513A"/>
<path d="M538.186 90.3588C541.44 90.3588 549.512 91.3027 553.287 92.5071C553.287 92.5071 556.054 116.171 550.814 134.171C549.642 138.207 551.79 150.869 551.79 150.869L517.975 150.414C517.975 150.414 521.978 119.784 520.481 114.836C518.984 109.889 518.951 92.6373 518.951 92.6373C518.951 92.6373 519.179 92.6047 526.567 91.3353C529.919 90.7819 534.703 90.3588 538.186 90.3588Z" fill="#F47458"/>
<path d="M534.248 194.812C534.248 194.812 534.996 203.438 536.363 205.846C537.73 208.222 536.298 212.291 536.233 212.877C536.168 213.43 533.336 214.244 528.845 213.756C524.353 213.268 524.419 212.226 524.777 210.566C525.135 208.906 527.543 206.725 527.673 205.13C527.803 203.535 526.306 197.806 526.306 197.806L534.248 194.812Z" fill="#F7A491"/>
<path d="M547.949 143.741C547.949 143.741 571.318 142.439 576.525 145.596C581.733 148.753 572.815 164.247 572.815 164.247C572.815 164.247 556.574 163.499 524.744 165.321C517.193 165.745 516.542 145.661 517.974 144.001C519.374 142.374 547.949 143.741 547.949 143.741Z" fill="#E0973F"/>
<path d="M528.258 214.407C523.637 213.919 524.223 211.64 524.581 209.915C524.809 208.841 526.143 207.571 526.924 206.367C527.347 206.692 527.998 207.278 530.016 207.864C532.099 208.483 534.963 207.246 536.786 206.497C537.437 208.906 537.469 211.998 537.404 212.454C537.339 213.04 532.913 214.928 528.258 214.407Z" fill="#DD513A"/>
<path d="M530.83 160.471C531.774 167.535 536.395 202.689 536.395 202.689L525.688 204.023C525.688 204.023 512.506 158.16 513.19 151.13C513.873 144.099 518.788 143.513 518.788 143.513C518.788 143.513 528.356 141.755 530.83 160.471Z" fill="#F7CC7F"/>
<path d="M518.528 95.3063C521.685 94.1345 523.247 122.616 523.67 134.366C529.268 134.92 539.032 134.366 541.473 134.204C542.612 134.106 545.248 133.162 546.387 132.999C547.559 132.836 548.601 132.771 549.186 132.869C549.382 132.902 555.24 135.278 555.728 135.831C556.347 136.482 558.006 138.11 557.746 138.826C557.453 139.542 554.524 136.84 554.524 136.84L553.092 136.026C554.882 137.784 558.299 140.063 557.811 140.909C557.323 141.723 554.264 139.379 552.05 137.817C553.938 139.509 556.281 142.569 555.728 143.025C555.24 143.448 552.604 139.932 549.74 138.923C548.698 138.533 547.624 139.574 546.81 139.705C546.192 139.802 545.248 139.997 544.662 139.835L541.603 138.956C540.562 139.054 540.529 139.672 539.488 139.9C538.251 140.16 536.233 140.421 534.671 140.811C525.655 143.025 522.661 144.034 519.895 144.034C511.53 144.001 511.042 98.1056 518.528 95.3063Z" fill="#F7A491"/>
<path d="M512.506 122.062C511.921 110.052 511.986 95.2412 518.723 92.7023C521.392 91.6933 526.078 97.7151 525.232 122.29C521.652 122.616 516.379 122.844 512.506 122.062Z" fill="#DD513A"/>
<path d="M565.589 202.201C565.589 202.201 564.645 205.195 566.338 207.181C567.998 209.166 574.963 211.119 575.874 212.193C576.785 213.268 576.72 214.179 576.72 214.179L557.192 213.626L557.42 207.734L558.332 203.503L565.589 202.201Z" fill="#F7A491"/>
<path d="M567.542 208.19C567.542 208.19 562.53 210.208 560.089 209.003C557.681 207.799 557.746 207.474 557.03 207.929C556.314 208.385 556.086 213.919 556.086 213.919L578.055 214.57C579.584 214.537 580.366 213.398 579.129 212.454C578.283 211.803 577.306 211.347 576.72 211.022C574.995 210.013 567.542 208.19 567.542 208.19Z" fill="#DD513A"/>
<path d="M564.841 149.274C566.338 146.084 569.788 141.95 575.809 144.457C581.57 146.833 583.132 152.659 581.31 158.649C579.487 164.638 567.51 199.792 567.119 204.609L557.551 204.674C557.551 204.674 559.276 176.844 559.699 170.106C560.122 163.661 562.237 154.775 564.841 149.274Z" fill="#F7CC7F"/>
<path d="M580.365 116.92H548.404C547.558 116.92 546.81 117.44 546.484 118.222L536.655 142.276H519.048C518.56 142.276 518.169 142.667 518.169 143.155C518.169 143.643 518.56 144.034 519.048 144.034H569.169C570.536 144.034 571.805 143.22 572.359 141.951L582.253 119.817C582.871 118.482 581.862 116.92 580.365 116.92Z" fill="black"/>
<path d="M563.149 130.916C562.921 131.99 562.01 132.706 561.066 132.544C560.122 132.348 559.536 131.339 559.764 130.233C559.992 129.158 560.936 128.442 561.88 128.605C562.791 128.833 563.377 129.842 563.149 130.916Z" fill="white"/>
<path d="M545.768 61.4543C544.792 61.1288 543.848 60.7708 542.937 60.3151C541.895 59.8268 540.561 59.241 539.715 59.1108C537.925 58.8504 534.865 59.0131 533.173 60.8684C531.058 63.1469 527.315 61.2916 528.063 73.2374C528.909 86.7782 536.46 85.3135 536.623 85.0856C536.786 84.8578 543.328 76.4274 543.328 76.4274C543.328 76.4274 545.606 81.4401 545.606 81.2448C545.671 81.0495 557.322 65.3604 545.768 61.4543Z" fill="#0E2E35"/>
<path d="M540.04 86.0621L540.691 90.9121C540.691 90.9121 542.155 97.8778 540.268 99.2449C538.38 100.579 532.294 90.7168 532.294 90.7168L532.945 78.4454L540.04 86.0621Z" fill="#F7A491"/>
<path d="M532.75 82.4165C534.312 86.6155 537.99 89.1869 540.594 90.1634L540.04 86.0621L532.945 78.4454L532.75 82.4165Z" fill="#F47458"/>
<path d="M539.682 65.1C543.653 64.449 547.2 67.6389 547.103 71.6425C547.07 73.3677 546.907 75.516 546.549 77.8596C545.671 83.4582 541.863 88.3732 539.357 87.9175C536.851 87.4618 530.504 82.6444 531.611 74.7022C532.294 69.7872 535.516 65.7835 539.682 65.1Z" fill="#F7A491"/>
<path d="M533.369 75.6462C533.141 76.8831 532.164 77.7294 531.155 77.5667C530.147 77.4039 529.528 76.2647 529.723 75.0278C529.951 73.7909 530.928 72.9446 531.937 73.1073C532.946 73.2701 533.564 74.4093 533.369 75.6462Z" fill="#F7A491"/>
<path d="M531.936 73.1072C531.936 73.1072 534.996 73.8558 536.102 71.9028C537.241 69.9498 541.277 65.7183 546.419 67.476C551.562 69.2337 541.895 63.212 541.472 63.212C541.049 63.212 536.135 63.1794 536.135 63.1794C536.135 63.1794 532.327 66.3042 532.197 66.6623C532.067 67.0203 530.96 70.7636 530.96 70.7636L531.936 73.1072Z" fill="#0E2E35"/>
<path d="M537.502 81.2773L543.035 82.3515C543.035 82.3515 542.514 84.4347 540.041 84.0441C537.079 83.5558 537.502 81.2773 537.502 81.2773Z" fill="white"/>
<path d="M443.704 467.483C443.932 468.199 444.03 468.46 444.322 468.948C446.047 472.105 450.083 476.63 450.083 476.63L453.208 469.599C453.208 469.599 452.687 467.385 451.808 464.228C448.781 465.009 445.917 465.465 443.704 467.483Z" fill="#F8A492"/>
<path d="M461.604 461.364C461.604 461.364 444.192 468.85 443.639 468.72C443.28 468.622 436.511 457.295 436.413 446.619C436.381 441.703 441.49 435.747 447.219 436.919C450.083 437.505 450.05 438.318 454.314 444.503C458.577 450.687 461.604 461.364 461.604 461.364Z" fill="#13375B"/>
<path d="M476.445 595.828C476.445 595.828 476.022 602.663 476.022 602.696C475.859 603.575 475.273 605.723 475.273 606.504C475.273 609.466 489.366 603.998 486.209 602.663C485.916 602.533 484.419 601.654 484.321 600.645C484.191 599.083 483.801 595.958 483.801 595.958L476.445 595.828Z" fill="#F7A491"/>
<path d="M486.176 602.598C486.176 602.598 482.857 603.51 481.164 603.737C479.472 603.965 477.226 602.045 476.055 602.566C474.753 603.119 474.785 608.229 474.785 608.229C474.785 608.229 492.523 609.694 497.503 608.164C499.488 607.611 492.946 604.714 486.176 602.598Z" fill="#DD513A"/>
<path d="M447.642 595.828C447.642 595.828 447.219 602.663 447.219 602.696C447.057 603.575 446.471 605.723 446.471 606.504C446.471 609.466 460.563 603.998 457.406 602.663C457.113 602.533 455.193 600.971 455.095 599.961C454.965 598.399 455.03 595.925 455.03 595.925L447.642 595.828Z" fill="#F7A491"/>
<path d="M457.374 602.598C457.374 602.598 454.054 603.51 452.361 603.737C450.669 603.965 448.423 602.045 447.252 602.566C445.95 603.119 445.885 608.229 445.885 608.229C445.885 608.229 463.688 609.922 468.7 608.164C470.653 607.546 464.143 604.714 457.374 602.598Z" fill="#DD513A"/>
<path d="M451.971 471.259L464.371 453.877C464.436 453.714 464.534 453.421 464.696 452.933C465.315 451.208 466.617 447.627 467.756 444.047V444.014C468.114 442.778 468.862 440.597 469.578 438.481C470.392 436.137 471.401 433.24 471.433 432.752C471.401 432.655 471.336 432.524 471.271 432.329C470.815 431.157 470.197 428.325 469.969 427.121C469.839 426.34 469.708 424.452 470.62 424.452C472.084 424.452 471.368 426.34 472.052 427.512C472.312 426.73 472.8 425.168 473.061 423.573L473.289 419.895C473.321 419.602 473.028 417.584 474.07 417.584H474.102C475.013 417.649 475.014 419.83 475.372 423.475C475.502 423.052 475.599 422.531 475.697 422.076C475.697 421.815 475.86 420.709 476.022 420.155C475.827 419.146 475.957 417.519 477.031 417.681C477.585 417.747 477.52 419.993 477.52 419.993C477.52 420.286 477.487 422.662 477.487 423.15C477.585 422.369 478.04 418.951 478.887 418.951C479.603 418.951 479.635 419.862 479.635 420.578C479.635 421.002 479.179 424.68 479.147 425.135C479.472 424.582 479.863 421.327 480.188 421.327C481.555 421.327 481.067 425.949 480.546 427.154C480.514 427.284 480.449 427.512 480.384 427.805C480.221 428.618 479.928 430.018 479.212 431.255C478.333 432.752 477.162 435.096 476.966 435.454C476.836 436.202 476.413 438.839 475.892 442.159C475.664 443.591 475.437 445.154 475.176 446.749C475.144 447.107 474.883 448.213 473.874 452.38C472.54 458.109 472.377 458.336 472.345 458.434C471.759 459.476 458.382 477.639 457.829 478.387L457.504 478.843L451.971 471.259Z" fill="#F7A491"/>
<path d="M475.014 430.734C475.014 430.734 474.005 428.163 472.215 428.163C472.215 428.163 473.224 427.805 474.07 428.488C474.916 429.172 475.014 430.734 475.014 430.734Z" fill="#F47458"/>
<path d="M448.943 425.787L447.349 435.877C447.349 435.877 453.435 440.76 456.982 439.718C459.944 438.839 457.926 434.966 457.926 434.966C457.926 434.966 456.331 429.562 456.82 426.763C457.308 423.931 448.943 425.787 448.943 425.787Z" fill="#F7A491"/>
<path d="M450.116 428.814C451.645 429.53 454.64 430.506 457.015 430.767C456.788 429.367 456.657 427.87 456.853 426.763C457.081 425.461 455.421 425.135 453.566 425.201C451.157 425.396 448.977 425.786 448.977 425.786L448.684 427.739C449.107 428.195 449.595 428.586 450.116 428.814Z" fill="#FE875E"/>
<path d="M441.296 414.134C441.035 414.134 443.704 425.428 447.805 427.349C451.906 429.269 458.057 428.293 459.196 425.233C460.466 421.88 455.844 410.358 450.051 408.893C444.258 407.461 441.296 414.134 441.296 414.134Z" fill="#F7A491"/>
<path d="M446.047 403.783C442.76 405.671 441.263 408.47 440.742 409.642C439.212 410.358 437.325 411.953 436.446 416.217C435.339 421.457 439.245 425.494 443.411 426.698C447.544 427.902 448.195 430.669 448.195 430.669L448.651 427.707C448.651 427.707 447.74 425.136 446.34 423.834C444.941 422.532 446.991 420.676 447.186 419.146C447.317 417.974 446.47 415.696 446.633 413.743C446.633 413.743 448.944 410.26 451.222 409.381C455.095 407.917 450.246 401.341 446.047 403.783Z" fill="#13375B"/>
<path d="M447.772 421.099C448.293 422.401 448.097 423.703 447.284 423.996C446.47 424.289 445.396 423.475 444.843 422.173C444.322 420.871 444.517 419.569 445.331 419.276C446.144 418.984 447.251 419.797 447.772 421.099Z" fill="#F7A491"/>
<path d="M463.102 471.552L487.023 467.646C487.023 467.646 484.289 460.778 483.345 460.778C482.402 460.778 465.25 468.264 465.25 468.264L463.883 470.998L463.102 471.552Z" fill="#F8A492"/>
<path d="M450.832 487.957C450.832 487.957 448.456 499.48 449.432 508.236C450.409 516.992 450.474 548.044 450.474 548.044L446.764 597.748L455.584 597.944C455.584 597.944 466.031 548.24 465.836 549.542C465.641 550.844 469.351 514.55 469.351 514.55L456.918 486.85L450.832 487.957Z" fill="#184655"/>
<path d="M453.175 487.404C453.175 487.404 451.612 497.787 453.565 502.344C455.518 506.901 470.229 551.592 470.424 555.238C470.619 558.884 475.534 599.18 475.534 599.18L485.786 598.887L487.999 554.099L483.378 497.82L478.886 483.595L453.175 487.404Z" fill="#13375B"/>
<path d="M447.349 435.877C447.349 435.877 449.887 437.537 452.231 437.342C454.574 437.146 457.926 434.966 457.926 434.966L457.471 433.403C457.471 433.403 451.384 432.524 451.222 432.622C451.059 432.72 447.349 435.877 447.349 435.877Z" fill="#F7A491"/>
<path d="M474.265 460.452C474.265 460.452 483.313 468.98 487.381 467.548C491.449 466.083 493.142 461.103 483.182 453.812C474.297 447.269 474.265 460.452 474.265 460.452Z" fill="#F8A492"/>
<path d="M480.384 470.999C479.05 463.675 469.286 440.922 468.537 436.723C468.147 434.673 462.907 434.64 457.894 434.901C452.622 435.194 447.349 435.845 447.349 435.845C447.349 435.845 442.663 436.626 440.612 438.546C438.562 440.467 438.009 445.805 440.97 455.928C443.314 463.935 446.21 468.329 447.642 474.123C447.935 476.076 448.196 477.997 448.521 480.243C449.042 488.966 448.521 500.456 448.521 500.456C448.521 500.456 474.005 505.729 483.541 497.722C483.508 497.787 481.783 478.485 480.384 470.999Z" fill="#355389"/>
<path d="M486.892 455.277C486.892 455.277 476.901 463.545 476.315 463.545C475.924 463.545 462.06 453.324 458.837 444.926C457.08 440.271 460.79 435.096 465.021 435.096C467.95 435.096 469.285 435.877 475.111 440.792C480.936 445.707 486.892 455.277 486.892 455.277Z" fill="#466EB6"/>
<path d="M311.045 86.9084C312.672 82.9699 314.365 79.0313 318.596 77.0132C322.045 75.3857 325.626 76.0042 328.685 78.3152C337.342 84.8252 329.791 92.0188 339.653 104.355C342.712 108.196 346.423 111.288 348.245 115.78C350.816 122.062 347.757 125.09 342.843 128.117C319.377 142.536 307.074 112.916 307.53 106.145C307.888 101.133 310.003 89.4473 311.045 86.9084Z" fill="#13375B"/>
<path d="M286.701 163.661C287.677 163.499 290.085 161.773 290.932 161.643C291.582 161.513 293.014 161.318 293.6 161.22C294.349 158.453 298.124 143.35 298.547 138.923C299.003 134.138 302.388 113.372 302.388 113.372L311.175 114.967C311.175 114.967 307.53 130.949 306.521 138.663C305.642 145.303 298.352 160.276 297.441 161.839C297.441 161.871 297.441 161.904 297.441 161.969C297.311 164.312 296.171 163.531 296.171 163.531L294.349 163.987C294.349 163.987 287.84 164.605 287.417 164.768C286.993 164.931 285.724 163.824 286.701 163.661Z" fill="#F7A491"/>
<path d="M310.068 101.23C303.852 103.346 300.337 120.207 300.337 120.207C300.337 120.207 310.068 122.941 312.574 121.509C312.574 121.509 315.406 108.945 316.415 109.401L310.068 101.23Z" fill="#6A97CE"/>
<path d="M262.031 192.859C260.143 197.871 259.134 202.689 259.069 203.275C259.036 203.568 259.427 204.902 259.394 205.195C255.586 210.403 250.086 211.542 245.399 211.868C247.808 209.524 251.323 207.311 251.486 206.562C251.746 205.39 253.211 200.15 253.927 192.859C256.823 194.226 258.776 193.152 262.031 192.859Z" fill="#F7A491"/>
<path d="M316.089 136.775L324.486 160.406C324.486 160.406 311.012 162.945 305.967 163.857C300.923 164.768 272.77 166.005 272.054 166.526C271.533 166.884 265.708 185.73 263.104 196.114C260.142 196.765 255.098 195.983 252.429 195.072C253.893 180.229 259.133 156.696 260.793 154.124C263.494 149.958 316.089 136.775 316.089 136.775Z" fill="#256653"/>
<path d="M283.283 203.21C282.339 208.483 282.307 213.43 282.307 214.016C282.307 214.309 282.957 215.579 282.99 215.872C280.224 221.698 275.049 223.846 270.492 225.051C272.412 222.316 275.439 219.485 275.472 218.703C275.504 217.499 275.96 212.063 275.276 204.805C278.433 205.553 280.158 204.121 283.283 203.21Z" fill="#F7A491"/>
<path d="M325.886 138.012L329.141 143.578C334.088 152.041 330.313 162.945 321.167 166.493C321.102 166.526 321.07 166.526 321.037 166.558C316.253 168.414 288.816 174.891 288.198 175.51C287.742 175.965 285.562 195.56 284.943 206.237C282.177 207.441 277.067 207.604 274.268 207.213C272.901 192.338 273.65 168.251 274.821 165.419C276.676 160.797 325.886 138.012 325.886 138.012Z" fill="#327F6B"/>
<path d="M281.916 214.179C282.632 213.365 285.333 217.825 285.984 218.769C286.733 219.843 286.538 220.624 286.44 220.819C286.212 221.275 272.054 229.575 268.605 230.161C268.279 230.226 267.726 229.998 267.563 229.901C266.229 228.696 272.412 219.908 275.211 218.736C277.001 217.955 278.629 217.792 281.916 214.179Z" fill="#13375B"/>
<path d="M258.612 203.437C259.491 202.786 261.281 207.636 261.769 208.711C262.323 209.915 261.965 210.664 261.835 210.794C261.509 211.184 246.05 216.718 242.567 216.653C242.242 216.653 241.721 216.327 241.591 216.197C240.484 214.765 248.23 207.278 251.192 206.66C253.08 206.237 254.707 206.367 258.612 203.437Z" fill="#13375B"/>
<path d="M315.959 101.165C315.796 101.165 315.569 101.1 315.341 101.035C314.202 100.84 311.663 100.514 309.71 101.361C307.334 102.37 303.624 111.777 303.852 121.444C303.949 122.909 304.015 124.243 304.112 125.155C304.731 132.446 306.814 146.149 306.911 146.215C309.743 148.037 326.927 140.941 328.099 139.379C329.27 137.817 329.987 118.872 330.54 117.929L331.679 101.426C329.694 100.84 319.018 101.165 315.959 101.165Z" fill="#9BC1F9"/>
<path d="M322.924 95.1111C322.924 95.1111 321.817 100.84 322.045 103.086C322.273 105.332 321.199 112.623 316.415 112.623C311.63 112.656 315.503 103.379 315.959 101.165C316.415 98.952 316.512 92.1165 316.512 92.1165L322.924 95.1111Z" fill="#F7A491"/>
<path d="M316.415 95.5342C316.48 93.6463 316.513 92.0839 316.513 92.0839L322.924 95.0785C322.924 95.0785 322.696 96.2503 322.469 97.7476C319.67 98.3335 317.619 97.2919 316.415 95.5342Z" fill="#F47458"/>
<path d="M325.267 79.3243C325.267 79.3243 327.741 80.6914 328.652 83.6535C329.563 86.6155 328.522 94.2648 322.143 96.1201C315.764 97.9755 312.997 91.8886 314.332 87.1689C315.634 82.4166 318.465 76.4274 325.267 79.3243Z" fill="#F7A491"/>
<path d="M313.518 85.3135C313.648 86.5829 314.332 87.5594 315.08 87.4943C315.829 87.4292 316.317 86.3225 316.187 85.0531C316.057 83.7836 315.373 82.8071 314.625 82.8722C313.876 82.9699 313.388 84.044 313.518 85.3135Z" fill="#F7A491"/>
<path d="M324.52 78.9337C324.52 78.9337 325.691 87.4618 328.425 89.0242C331.192 90.5541 330.02 94.3624 330.02 94.3624C330.02 94.3624 332.526 85.5739 330.345 82.7421C328.165 79.8777 324.52 78.9337 324.52 78.9337Z" fill="#13375B"/>
<path d="M326.798 90.2286C326.049 91.3353 326.049 92.6698 326.798 93.1581C327.546 93.6789 328.751 93.1581 329.532 92.0514C330.28 90.9447 330.28 89.6101 329.532 89.1219C328.751 88.6336 327.546 89.1219 326.798 90.2286Z" fill="#F7A491"/>
<path d="M317.489 90.7168L321.981 91.856C321.981 91.856 321.428 93.5486 319.442 93.1255C317.034 92.5721 317.489 90.7168 317.489 90.7168Z" fill="white"/>
<path d="M339.815 162.978C340.043 162.978 359.18 162.001 359.18 162.001C359.18 162.001 351.239 167.698 351.076 167.698C350.914 167.698 344.762 165.256 344.47 165.256C344.177 165.256 339.815 162.978 339.815 162.978Z" fill="#50BFA5"/>
<path d="M727.573 596.088C727.573 596.088 727.963 602.793 727.963 602.826C728.093 603.672 728.647 605.788 728.647 606.569C728.647 609.499 715.726 604.095 718.622 602.793C718.883 602.663 720.25 601.784 720.347 600.808C720.478 599.278 720.803 596.186 720.803 596.186L727.573 596.088Z" fill="#F7A491"/>
<path d="M718.492 602.826C718.492 602.826 721.519 603.705 723.081 603.933C724.643 604.161 726.694 602.273 727.768 602.793C728.972 603.347 728.939 608.359 728.939 608.359C728.939 608.359 712.666 609.792 708.077 608.294C706.287 607.741 712.308 604.909 718.492 602.826Z" fill="#F7CC7F"/>
<path d="M749.119 595.763C749.119 595.763 749.509 602.468 749.509 602.501C749.639 603.347 750.193 605.463 750.193 606.244C750.193 609.173 737.272 603.77 740.168 602.468C740.429 602.338 742.219 600.808 742.284 599.831C742.414 598.302 742.349 595.86 742.349 595.86L749.119 595.763Z" fill="#F7A491"/>
<path d="M740.168 602.435C740.168 602.435 743.195 603.314 744.757 603.542C746.32 603.77 748.37 601.882 749.444 602.403C750.648 602.956 750.713 607.969 750.713 607.969C750.713 607.969 734.57 608.62 729.786 607.904C727.898 607.643 733.984 604.486 740.168 602.435Z" fill="#F7CC7F"/>
<path d="M745.278 489.031C745.278 489.031 747.459 500.359 746.58 508.952C745.701 517.545 745.604 548.077 745.604 548.077L749.705 596.902L740.917 597.097C740.917 597.097 731.348 548.272 731.511 549.542C731.674 550.811 728.289 515.169 728.289 515.169L739.713 487.957L745.278 489.031Z" fill="#355389"/>
<path d="M742.218 481.707C742.218 481.707 752.145 492.156 748.435 503.581C746.937 508.171 733.138 551.983 732.942 555.563C732.78 559.144 728.256 598.725 728.256 598.725L718.85 598.432L716.832 554.424L719.533 495.151L725.229 485.158L742.218 481.707Z" fill="#466EB6"/>
<path d="M681.975 447.693C685.23 444.08 692.293 438.904 692.293 438.904C692.293 438.904 696.491 435.291 698.216 434.705C700.755 433.826 705.083 431.515 711.332 440.987C715.824 447.79 744.106 482.944 748.728 484.149L718.427 498.666C717.581 491.733 702.61 478.648 700.462 476.207C695.645 470.738 678.884 451.11 681.975 447.693Z" fill="#F47458"/>
<path d="M683.375 432.948L692.813 438.481C692.813 438.481 693.073 446.553 689.982 448.637C687.378 450.394 685.425 446.163 685.425 446.163C685.425 446.163 681.91 441.28 679.241 439.783C676.605 438.286 683.375 432.948 683.375 432.948Z" fill="#F7A491"/>
<path d="M684.97 436.495C684.612 438.188 683.798 440.597 682.529 442.615C681.487 441.476 680.316 440.369 679.274 439.783C678.037 439.099 678.818 437.57 680.023 436.137C681.715 434.38 683.375 432.915 683.375 432.915L685.197 433.989C685.328 434.705 685.067 435.942 684.97 436.495Z" fill="#F47458"/>
<path d="M678.461 419.114C678.623 418.918 686.369 428.586 685.425 433.11C684.482 437.635 679.762 441.768 676.508 440.629C672.895 439.36 666.191 428 668.599 422.466C671.007 416.933 678.461 419.114 678.461 419.114Z" fill="#F7A491"/>
<path d="M669.966 416.054C673.351 414.166 678.884 413.645 682.984 415.794C688.062 418.463 689.201 425.135 687.639 429.204C686.044 433.273 687.866 435.584 687.866 435.584L685.165 434.022C685.165 434.022 683.603 431.58 683.375 429.627C683.18 427.674 680.316 428.032 678.916 427.121C677.842 426.437 676.475 424.224 674.75 423.085C674.75 423.085 670.389 422.564 668.241 423.768C664.596 425.787 665.117 418.756 669.966 416.054Z" fill="#13375B"/>
<path d="M681.129 428.749C681.096 430.213 681.78 431.385 682.659 431.385C683.537 431.385 684.253 430.246 684.286 428.781C684.319 427.316 683.635 426.145 682.756 426.145C681.878 426.145 681.162 427.284 681.129 428.749Z" fill="#F7A491"/>
<path d="M673.188 436.43L677.288 433.371C677.288 433.371 678.362 435.031 676.605 436.43C674.457 438.123 673.188 436.43 673.188 436.43Z" fill="white"/>
<path d="M662.838 497.559C663.88 496.062 664.303 493.881 665.735 492.221C666.223 491.668 666.972 491.049 667.85 490.398C674.685 486.395 692.52 476.076 693.237 475.262C694.05 474.319 706.222 454.072 706.222 454.072L695.287 451.599L684.612 470.478C683.733 471.194 666.744 483.725 666.744 483.725C666.744 483.725 663.359 486.362 661.536 487.599C660.593 488.152 659.714 488.51 658.9 488.771C657.891 489.129 656.004 490.073 655.613 490.398C655.157 490.789 654.279 491.635 653.758 492.156C653.237 492.677 652.586 493.23 652.326 493.556C652.163 493.751 651.707 494.011 651.349 494.174C650.829 494.434 650.894 495.183 651.447 495.346C651.968 495.509 652.684 495.183 653.107 494.955C654.344 494.369 655.841 492.807 655.906 493.002C655.971 493.198 654.474 496.518 654.311 496.908C654.148 497.299 652.423 501.205 652.326 502.051C652.228 502.93 652.749 503.125 653.139 502.8C653.465 502.539 656.296 497.331 656.296 497.331C656.296 497.331 656.654 496.68 656.785 497.038C656.915 497.429 654.376 502.149 654.116 502.897C653.855 503.679 654.051 504.297 654.767 504.037C655.646 503.711 658.054 498.503 658.054 498.503C658.054 498.503 658.379 497.852 658.575 498.08C658.803 498.308 656.557 502.279 656.524 502.735C656.492 503.19 656.915 503.646 657.501 503.255C658.217 502.8 660.332 498.145 660.332 498.145C660.332 498.145 660.593 497.852 660.69 498.047C660.788 498.275 659.095 501.791 659.226 502.312C659.323 502.735 659.714 502.67 659.714 502.67C660.69 502.735 661.829 499.057 662.838 497.559Z" fill="#F8A492"/>
<path d="M703.228 464.781C703.228 464.781 699.68 463.642 697.37 462.601C695.84 461.884 689.168 458.564 689.168 458.564C689.168 458.564 692.032 446.423 693.985 442.062C701.112 426.047 709.216 437.081 710.323 439.653C712.829 445.447 703.228 464.781 703.228 464.781Z" fill="#355389"/>
<path d="M454.542 422.857L457.927 420.318C457.927 420.318 458.838 421.685 457.374 422.857C455.583 424.257 454.542 422.857 454.542 422.857Z" fill="white"/>
<path d="M852.323 608.034H65.125C64.1486 608.034 63.335 609.043 63.335 610.312C63.335 611.582 64.1486 612.591 65.125 612.591H852.323C853.299 612.591 854.113 611.582 854.113 610.312C854.08 609.043 853.299 608.034 852.323 608.034Z" fill="#184655"/>
<path d="M359.604 161.969C359.539 161.773 359.343 161.773 359.148 161.741C357.358 161.676 355.601 161.611 353.843 161.35C353.55 161.318 353.257 161.253 352.997 161.122C352.509 160.927 352.021 160.927 351.532 161.057C351.272 161.122 350.979 161.155 350.719 161.155C349.84 161.155 347.269 160.276 345.967 160.048C345.674 159.983 345.446 159.755 345.349 159.462C344.047 154.352 341.28 142.927 340.922 139.184C340.467 134.366 337.147 112.688 337.147 112.688L328.262 115.162C328.262 115.162 331.907 131.176 332.916 138.923C333.697 144.912 339.685 157.64 341.573 161.285C342.484 164.019 344.535 164.084 345.023 164.15C345.283 164.182 345.544 164.312 345.739 164.54C346.065 164.931 346.423 165.256 346.846 165.517C347.171 165.712 347.399 165.972 347.627 166.265C348.017 166.819 348.343 167.405 348.668 167.958C348.896 168.348 349.124 168.446 349.449 168.381C349.807 168.283 349.97 168.023 349.97 167.6C349.97 166.981 349.742 166.395 349.449 165.842C349.156 165.321 349.156 165.028 349.514 164.573C349.71 164.312 349.905 164.052 350.198 163.824C350.458 163.596 350.751 163.433 351.109 163.499C351.76 163.661 352.379 163.791 353.062 163.857L353.615 163.954C353.648 163.954 353.908 164.019 353.908 164.019C353.941 164.019 354.885 164.15 355.21 164.15C355.47 164.15 355.894 164.182 356.252 164.182C356.577 164.182 357.261 164.019 357.293 164.019C357.619 164.019 357.879 163.889 358.107 163.694C358.204 163.596 358.302 163.499 358.237 163.368C358.204 163.238 358.074 163.173 357.944 163.14C357.716 163.108 356.642 162.978 356.642 162.913C356.968 162.913 358.009 162.88 358.335 162.88C358.79 162.88 359.148 162.717 359.474 162.392C359.571 162.294 359.701 162.164 359.604 161.969Z" fill="#F7A491"/>
<path d="M331.777 101.393C336.17 100.612 339.783 120.207 339.783 120.207C339.783 120.207 330.052 122.941 327.546 121.509C327.546 121.509 324.714 108.945 323.705 109.401L331.777 101.393Z" fill="#9BC1F9"/>
<path d="M225.741 454.072C226.034 453.226 221.999 452.575 221.771 451.729C221.543 450.883 226.881 450.817 227.076 450.069C227.434 448.702 221.25 449.776 221.38 449.157C221.51 448.506 227.824 447.107 227.141 446C226.457 444.893 220.729 448.148 220.567 447.432C220.404 446.684 226.165 444.893 226.067 443.266C226.002 442.387 216.596 447.595 215.522 447.139C214.415 446.651 216.694 442.582 215.815 441.964C214.936 441.345 212.463 450.264 211.844 450.557C211.258 450.85 198.533 458.109 194.009 459.248C193.455 457.718 192.284 455.7 191.796 454.268C189.257 456.058 187.369 456.969 184.766 458.629C186.653 463.382 189.355 468.59 190.689 469.176C194.725 470.998 210.282 458.076 213.374 455.895C216.498 453.682 218.256 454.398 220.371 453.714C222.454 452.998 225.449 454.919 225.741 454.072Z" fill="#F7A491"/>
<path d="M184.212 460.908C184.212 460.908 180.73 445.512 181.348 441.052C181.966 436.593 187.239 432.427 190.917 433.989C194.594 435.519 196.254 457.002 196.254 457.002L184.212 460.908Z" fill="#F7CC7F"/>
</svg>
