<svg id="Layer_1" data-name="Layer 1" xmlns="http://www.w3.org/2000/svg" viewBox="0 0 2105.98 3399.06"><defs><style>.cls-1{fill:#371a45;}.cls-2{fill:#fff;}.cls-3{opacity:0.35;}.cls-4{opacity:0.3;}.cls-5{fill:#293856;}.cls-6{fill:none;stroke:#293856;stroke-linecap:round;stroke-miterlimit:10;stroke-width:30.92px;}.cls-7{fill:#22a7f0;}.cls-8{opacity:0.6;}.cls-9{fill:#220f2d;}.cls-10{opacity:0.5;}.cls-11{fill:#ffb200;}.cls-12{fill:#d66b09;}.cls-13{fill:#ffcc4d;}.cls-14{fill:#ffec90;}.cls-15{opacity:0.41;}.cls-16{opacity:0.25;}</style></defs><path class="cls-1" d="M2199.6,2245.94a12.32,12.32,0,0,1-12.31-12.32v-914a12.31,12.31,0,0,1,24.62,0v914.05A12.32,12.32,0,0,1,2199.6,2245.94Z" transform="translate(-1024.26 -293.44)"/><path class="cls-2" d="M1663.27,2618.75s-303.1,79-313.92,197.89c-9.42,103.69,104.23,453.3,171,491.7,48.7,28,195.49-23.36,195.49-23.36Z" transform="translate(-1024.26 -293.44)"/><g class="cls-3"><path class="cls-1" d="M1348.85,2836.05c3.5,122,108.45,436,171.48,472.27,48.7,28,195.48-23.35,195.48-23.35l-23.31-136s-146.78,51.38-195.48,23.35C1451.49,3146.15,1384.11,2975,1348.85,2836.05Z" transform="translate(-1024.26 -293.44)"/></g><path class="cls-1" d="M1580.87,3328.18c-31.48,0-63.16-6.79-89.44-26.21-72.59-53.62-163.22-380.53-157-486.2,5.9-101,191.14-163.24,199-165.84a15,15,0,0,1,9.4,28.49c-48.32,16-174.56,72.06-178.47,139.09-5.91,101.21,86.58,417.23,144.92,460.33,71,52.43,202.12-12.56,203.44-13.23a15,15,0,0,1,13.49,26.8C1722,3293.52,1652,3328.18,1580.87,3328.18Z" transform="translate(-1024.26 -293.44)"/><path class="cls-2" d="M2012.19,2657.32s-13.23,107.25,33.26,33.7c42.43-67.18,95.25-179.19,141.87-361.82.39-1.48.78-3,1.18-4.5,0,0,21-1.83,46.75-14.71,60.71-30.33,47.71-148.58,36-188.78-13.79-47.37-46.4-34.58-46.4-34.58-11.43-18.72-34-28.67-72-28.11-71.37,1.05-85.91,58.76-85.91,58.76-65.43,196.9-145.13,318.25-192.58,378.71-25.1,32.08-41.16,47-41.16,47Z" transform="translate(-1024.26 -293.44)"/><g class="cls-3"><path class="cls-1" d="M2012.19,2657.32s-13.23,107.25,33.26,33.7c42.43-67.18,95.25-179.19,141.87-361.82-15.63-3.8-38.63-11-50.77-21.78-30.38-27.15-35.88-89.7-35.88-89.7-12.57,60.32,0,95.64,14.67,115.54,15.8,21.39,20.64,49,11.43,74-13.4,36.27-30.29,75.73-57.05,101.22-61.46,58.54-147.14,32.31-195.42-12.48-25.1,32.08-41.16,47-41.16,47Z" transform="translate(-1024.26 -293.44)"/></g><g class="cls-3"><path class="cls-1" d="M2209.7,2320.14s-55.42,20.25-92.33-63.53c0,0,21.31,10.64,73.86,7.94,52.18-2.68,87.58-52.35,87.58-52.35S2282.43,2302.49,2209.7,2320.14Z" transform="translate(-1024.26 -293.44)"/></g><path class="cls-1" d="M1840.71,2544.62a15.46,15.46,0,0,1-10.2-27.08c1.8-1.6,124.43-112.75,221.53-404.63,6.36-24.09,35.23-68.87,100.52-69.85,36.89-.52,62.67,8.12,78.81,26.49,16.86,19.2,22,47.12,16,87.86-5.86,40.2-33.09,68.36-63.27,65.54-27.74-2.6-56.24-32.66-53-109.23A15.46,15.46,0,1,1,2162,2115c-2.17,51.19,11.44,75.87,25,77.14,11.45,1,26-13.62,29.78-39.22,4.47-30.67,1.64-51.28-8.66-63-9.64-11-28.21-16.39-55.11-16-58.83.87-71,46.63-71.15,47.09l-.33,1.1c-100.33,301.91-225.37,414-230.64,418.62A15.48,15.48,0,0,1,1840.71,2544.62Z" transform="translate(-1024.26 -293.44)"/><path class="cls-1" d="M1964.87,2799.86a15.46,15.46,0,0,1-7.78-28.82c1.1-.67,122-77.36,216.4-450.13l2.7-10.65,10.94-1c.12,0,18.71-1.9,41.2-13.14,48.36-24.18,39.79-130.4,28.06-170.62-3.52-12.07-8.63-20.14-14.78-23.35a15.72,15.72,0,0,0-11.48-1,15.32,15.32,0,0,1-19.88-8.81,15.59,15.59,0,0,1,8.9-20.09,46.56,46.56,0,0,1,35.77,2c14.5,7.13,25,21.46,31.15,42.6,14.75,50.58,24.16,172.9-43.92,206.93A172.39,172.39,0,0,1,2201,2338.3c-98,380-223,456.38-228.33,459.46A15.43,15.43,0,0,1,1964.87,2799.86Z" transform="translate(-1024.26 -293.44)"/><path class="cls-1" d="M2177.72,2340.42c-19.39,0-35.59-6.25-48.27-18.64-24.47-23.9-33.49-68.94-26.82-133.87,6.53-63.44,35-73.44,40.59-74.8l7,29.16a3.89,3.89,0,0,0,1.12-.33c-.14.06-14.56,6.79-18.9,49-5.54,53.81.83,92.64,17.93,109.34,8.59,8.4,20.43,11.5,36.18,9.5a15,15,0,0,1,3.77,29.77A100.77,100.77,0,0,1,2177.72,2340.42Z" transform="translate(-1024.26 -293.44)"/><path class="cls-2" d="M1545.28,2973.16a296.22,296.22,0,0,1,17.45,46.76c14.54,49.93,20.29,103.12,43.13,153.59a160.31,160.31,0,0,0,19.66,32.44c2.22,2.85,4.44,5.52,6.66,8.06,16.81,19.08,32.58,28.59,32.58,28.59.09,5,.45,11.33.68,18.89,1,31.08.63,83.14-21.8,148.06-1.63,4.8-3.35,9.65-5.3,14.55-15,39-5.93,165.27,10.51,194.09,47.26,83.09,165.69,70.45,199.4,13.72,30.49-51.46,17.71-151.32,12-186.43-1.32-8-2.27-12.64-2.27-12.64,31.26-65.42,58.13-153.27,58.13-219.1a145.06,145.06,0,0,0,19.84,1.54l0,2.17c4.48,40.73-3.08,110.28-17.9,173.84-1.63,7-3.35,14-5.16,20.84-8.75,33,7.47,137.28,51.06,189.11,50.51,60.17,161.2,39.15,183.4-5.75,26.73-53.92-8.21-144.44-21.57-175.29-3-6.84-4.89-10.69-4.89-10.69,55.72-131.89,59-244.7,49.11-358.69a807.49,807.49,0,0,0-159.71-416.23c-4.57-6.07-9.37-12-14.27-17.85-6.2-7.38-12.64-14.59-18.93-21.47-11.2-12.14-22.11-23.38-31.4-33.26l-12.73,10.79-20.71,4.8-343.51,80-3,40.32-1.31,18.08-2.86,38.83-7.24,97.54-4.31,58.35-3.58,47.94Z" transform="translate(-1024.26 -293.44)"/><g class="cls-3"><path class="cls-1" d="M1963.87,3601.27c50.5,60.15,161.2,39.15,183.42-5.77,26.71-53.9-8.21-144.43-21.61-175.3a19.1,19.1,0,0,1-2.53,1.1s50.55,93.49-4.5,143.61c-43.38,39.54-113.4,27-142.12-25.5-35-64.08-39.55-179.18-39.55-179.18l-19,31.08c-1.66,7-3.36,14-5.19,20.86C1904.07,3445.13,1920.31,3549.41,1963.87,3601.27Z" transform="translate(-1024.26 -293.44)"/></g><g class="cls-4"><path class="cls-5" d="M1774.38,3465.86l2.62-.61A19.43,19.43,0,0,0,1774.38,3465.86Z" transform="translate(-1024.26 -293.44)"/></g><g class="cls-4"><path class="cls-5" d="M1773.86,3466l.52-.13Z" transform="translate(-1024.26 -293.44)"/></g><g class="cls-3"><path class="cls-1" d="M1648.84,3618.2c47.28,83.11,165.7,70.46,199.4,13.75,30.51-51.5,17.72-151.33,12-186.47l-83,19.73c11.44-2.18,48.41-4.37,50.68,57.66,1.53,40.73-5,86.08-59.45,93.28-133.75,17.59-123.71-117.64-117.69-194.33,1.18-15.32-1.7-17.94-7.11-12.27-1.62,4.8-3.36,9.65-5.28,14.58C1623.31,3463.11,1632.43,3589.39,1648.84,3618.2Z" transform="translate(-1024.26 -293.44)"/></g><g class="cls-3"><path class="cls-1" d="M1882,3395.77s-30.58,62.64-110.44,75.4c-7.76,1.24-11.29-9.32-4.36-13,31.07-16.61,76.4-58.6,88.78-115.91,10.61-49.14,6.16-97.14.15-130a37,37,0,0,1,34.66-43.72c40.35-1.83,98.88-6.46,137.34-18.14,25.83-7.85,52.5-18.59,75.24-38.24a14.67,14.67,0,0,1,24.3,10.17c.73,11.9-.23,24.14-5.92,30.29-21.62,23.43-123,52.62-205.78,69.86,0,0-1.64,37.65-13.68,87.79C1888.61,3367,1882,3395.77,1882,3395.77Z" transform="translate(-1024.26 -293.44)"/></g><g class="cls-3"><path class="cls-1" d="M1935.89,3217.49s119.72-18.88,177.77-74.93c0,0-5.72,71.75-109.1,128.1-46.21,25.19-67,56.92-80.9,100.59C1923.66,3371.25,1943.34,3272.83,1935.89,3217.49Z" transform="translate(-1024.26 -293.44)"/></g><path class="cls-1" d="M2052.34,3653.42c-40.64,0-77.05-15.23-100-42.51-47.32-56.34-63.63-166.62-54.1-202.58,17.79-67.2,27.35-146.77,22.72-189.2a15,15,0,1,1,29.83-3.25c5.05,46.37-4.63,128.67-23.55,200.13-7.11,26.84,6.53,126.15,48.07,175.61,20.08,23.9,55,35.41,93.42,30.81,30.35-3.64,57.11-17.45,65.09-33.57,24-48.44-11-141.12-26.52-172.74l-3-6.14,2.66-6.31c57.26-135.44,56.89-249,48-351.54-12.31-141.48-49.76-254.51-117.85-355.72a15,15,0,0,1,24.89-16.75c71,105.6,110.08,223.12,122.84,369.87,9.13,104.84,9.57,220.91-47.63,359.63,12.09,26.63,54.87,129.7,23.54,193-12.81,25.86-46.68,45-88.4,50A168,168,0,0,1,2052.34,3653.42Z" transform="translate(-1024.26 -293.44)"/><path class="cls-1" d="M1993.23,2610.46a230.25,230.25,0,0,1,21.32,14.93c6.73,5.32,13.27,10.84,19.54,16.63A193.37,193.37,0,0,1,2052,2660.3c5.46,6.57,10.53,13.54,14.24,21.59a15.23,15.23,0,0,1-24.44,17.3l-.22-.21a131.17,131.17,0,0,1-15.45-18.85c-4.73-6.69-8.89-13.92-13.12-21.14s-8.3-14.64-12.24-22.2a257.64,257.64,0,0,1-10.84-23.58,2.26,2.26,0,0,1,3.28-2.75Z" transform="translate(-1024.26 -293.44)"/><path class="cls-2" d="M1559.9,2624.58" transform="translate(-1024.26 -293.44)"/><path class="cls-6" d="M1559.9,2624.58" transform="translate(-1024.26 -293.44)"/><path class="cls-2" d="M1987.45,3405" transform="translate(-1024.26 -293.44)"/><path class="cls-2" d="M1576.69,2948.73l11.57,32.17-.88-14.75A100.44,100.44,0,0,0,1576.69,2948.73Z" transform="translate(-1024.26 -293.44)"/><path class="cls-1" d="M1754.13,3692.5h-1.41c-50.38-.46-93-24.83-116.93-66.87-18.26-32.09-28.29-163.24-11.43-206.9,29.32-76,27-134.45,25.76-165.87,0-.73-.06-1.43-.08-2.12-12.93-9.47-40.68-33-57.86-71-16.25-36-22.53-77.18-28.6-117.05-6.58-43.19-12.79-84-30.81-111.41a15,15,0,0,1,25.08-16.47c21.61,32.91,28.3,76.84,35.39,123.36,5.77,37.87,11.73,77,26.28,109.21,18.51,41,52.72,62.28,53.06,62.49l7,4.28.21,8.22c0,2.69.18,5.81.32,9.32,1.23,31.2,3.8,96.12-27.76,177.86-13.4,34.72-4.63,156.39,9.53,181.26,18.5,32.5,51.71,51.35,91.13,51.71,35.65.44,68.56-15,82.32-38.21,34.07-57.39,8.2-187.1,7.93-188.41l-1-4.93,2.17-4.53c34.53-72.21,54.33-146.54,54.33-203.93a15,15,0,1,1,30,0c0,60.51-20.06,137.67-55.15,212.39,4.79,26,23.71,143.76-12.49,204.72C1842,3671.82,1800.09,3692.5,1754.13,3692.5Z" transform="translate(-1024.26 -293.44)"/><path class="cls-2" d="M1724.81,3448.94" transform="translate(-1024.26 -293.44)"/><path class="cls-1" d="M1908.86,3205.7c8.45-2.61,17-4.82,25.52-6.87,8.48-2.35,17-4.4,25.55-6.49,17-4.51,34.1-8.44,50.94-13.43,16.88-4.83,33.69-10.06,50.17-16.22s33-12.76,48.23-21.49l.13-.08a1.8,1.8,0,0,1,2.18,2.81c-6.51,6.67-13.76,12.12-21.16,17.47s-15.18,10.12-23,14.75a420.32,420.32,0,0,1-49,24,479.85,479.85,0,0,1-51.31,18.35c-8.72,2.48-17.51,4.72-26.33,6.79-8.86,1.86-17.75,3.56-26.72,4.87a12.52,12.52,0,0,1-5.5-24.36Z" transform="translate(-1024.26 -293.44)"/><path class="cls-1" d="M2215,2717.73a91.28,91.28,0,0,1-18.26-1.61,12.5,12.5,0,0,1,5.73-24.34c3.07.7,76.61,16,106.68-83.26,17.9-59.12-23.12-113.4-62.79-165.9-30.47-40.33-59.26-78.43-59.26-117.27a12.5,12.5,0,0,1,25,0c0,30.46,26.33,65.3,54.21,102.2,41.41,54.8,88.35,116.93,66.76,188.22C2305.83,2705.67,2245.42,2717.73,2215,2717.73Z" transform="translate(-1024.26 -293.44)"/><path class="cls-2" d="M2101.42,3015.41c-16.45,8.65-35,18-55.19,27.64,12.42-4.85,23.79-9.47,33.89-13.69A69.54,69.54,0,0,0,2101.42,3015.41Z" transform="translate(-1024.26 -293.44)"/><path class="cls-1" d="M1768.82,3464.22a160.24,160.24,0,0,0,28.06-10.72,138.06,138.06,0,0,0,24.51-15.1,154.38,154.38,0,0,0,20.4-18.83c1.49-1.76,3.27-3.21,4.64-5.07s2.93-3.54,4.48-5.25c3-3.47,5.61-7.33,8.92-10.75l1.16-1.19a12.49,12.49,0,0,1,20.14,14.28,93.72,93.72,0,0,1-20.16,27.15c-8.1,8-18,14.11-28,19a113.4,113.4,0,0,1-31.66,10c-10.84,1.69-21.73,2.07-32.47.07a1.81,1.81,0,0,1-.16-3.52Z" transform="translate(-1024.26 -293.44)"/><path class="cls-1" d="M2042.12,3447.17c18.1-8.43,34.31-19.32,47.37-32.3a159.64,159.64,0,0,0,17.6-20.65c5.55-7,9.82-14.83,15.16-22.32l.67-.94a12.52,12.52,0,0,1,22,11.54,90.84,90.84,0,0,1-16.57,28.59c-7,8.65-15.8,15.68-25,21.56a116.34,116.34,0,0,1-29.34,13.54c-10.24,3-20.68,4.88-31.33,4.51a1.81,1.81,0,0,1-.7-3.45Z" transform="translate(-1024.26 -293.44)"/><path class="cls-2" d="M1415,3394c27.91,8.06,148.65,32.44,145.34-81.15-.68-24-8.47-62.61-7.93-62.65s64.11,32.75,82.1-1.82c6.52-12.55,4.53-24.1-2.36-34.34a57.13,57.13,0,0,0-6.66-8.06c-21.88-22.29-65.6-36.75-84.18-39.15,0,0,.14-1.54.41-4.39,1.63-17.54,8.43-84.5,21-142.49,6.79-31.31,15.27-60,25.5-76.93l-8.88-62.43-4.12-29.18-13.73-96.54-6.93-48.62c-1.58,0-107.92.45-148.83,122.51-.09.23-.13.45-.22.68-24.47,73.71-29.32,209.81-17.63,394.89C1391.2,3276.62,1356,3376.84,1415,3394Z" transform="translate(-1024.26 -293.44)"/><g class="cls-3"><path class="cls-1" d="M1525.62,3180.94c4.94,3.49,10.51-5,16.13-18.53,1.63-17.54,8.43-84.5,21-142.49,14.54,49.93,20.29,103.12,43.13,153.59a160.31,160.31,0,0,0,19.66,32.44c2.22,2.85,4.44,5.52,6.66,8.06,16.81,19.08,32.58,28.59,32.58,28.59.09,5,.45,11.33.68,18.89l17.26-2a517.3,517.3,0,0,0-3-71.69,38.42,38.42,0,0,1,31.55-42.23c33.77-6,76-18.74,126.16-43.66,0,0,25.41-63.38-27.14-81.68,0,0-90.88,58.49-172.48,46.44-15.22-34.66-28.36-81.6-20.8-152,5.53-51.33-11.23-52.28-29.4-40.45a69.4,69.4,0,0,0-8.25,6.34c-17.48,15.54-23.78,37.69-29.85,65.06-.86,3.94-2,8.29-3.13,13.05-9.65,38.42-28.63,101.71-36.88,171.75C1502.06,3193.62,1525.62,3180.94,1525.62,3180.94Z" transform="translate(-1024.26 -293.44)"/></g><path class="cls-1" d="M1592.66,2945.69c-4.53,18-7.47,36.17-10.6,54.63l-4.84,27.63-4.59,27.84-8.79,56c-2.82,18.7-5.17,37.68-7,56.32l-13.5-16.75a160,160,0,0,1,22,5.1c6.91,2.06,13.65,4.44,20.3,7.13,13.26,5.43,26.23,11.9,38.57,20.9a92,92,0,0,1,17.53,16.4c5.27,6.64,10.12,15.05,11.74,25.17a47.94,47.94,0,0,1-4.88,28.8,44,44,0,0,1-9.17,12.35,44.51,44.51,0,0,1-13,8.37c-9.31,3.75-18.29,4.31-26.41,3.94a114,114,0,0,1-22.92-3.84,175.94,175.94,0,0,1-20.84-7.06l-5-2.1-4.59-2.08a14.35,14.35,0,0,0,4.9,1.16c.72,7.56,26.75-23.93,16.4-15.56l0-.89.11.8.37,2.28.81,4.9c2.21,13.3,4.35,26.79,5.74,40.75a172.3,172.3,0,0,1,1,21.77,133.62,133.62,0,0,1-2.08,22.51c-2.55,15.07-9,30.76-19.88,43.41s-25.76,21.24-40.55,25.71c-14.88,4.71-29.85,6-44.39,6a227.16,227.16,0,0,1-42.78-4.71c-3.51-.74-7-1.51-10.52-2.43-1.79-.46-3.47-.9-5.41-1.5l-6.21-2.19a56.68,56.68,0,0,1-22-16.14,66.55,66.55,0,0,1-12-23,110.64,110.64,0,0,1-4.23-22.92c-1.27-14.9-.44-29,.7-42.75s2.91-27.11,4.3-40.18,2.49-25.73,1.73-37.43l-2.29-40.23c-1.36-26.84-2.48-53.7-3.09-80.61s-.89-53.86-.37-80.86,1.44-54,3.7-81.13,5.49-54.25,11.17-81.41c1.38-6.79,3.2-13.57,4.85-20.35l3-10.17,1.55-5.07,1.93-5c2.65-6.63,4.95-13.38,8-19.88,3.29-6.4,6.48-12.85,9.92-19.17,4-6.06,7.86-12.19,12-18.14l6.86-8.52c2.33-2.81,4.37-5.87,7-8.4,5.18-5.17,9.92-10.86,15.76-15.39l8.54-7c3-2.11,6.17-4.06,9.25-6.08,12.57-7.67,26.27-13.65,40.62-16.56a99.47,99.47,0,0,1,21.76-2.21,73.56,73.56,0,0,1,22,3.23,5.39,5.39,0,0,1,.54,10.05l-.58.26c-12,5.32-23.82,10.53-34.86,15.8-2.75,1.4-5.56,2.58-8.26,4s-5.39,2.79-8.08,4.18-5.16,3.13-7.8,4.56l-3.91,2.23-3.72,2.52c-2.51,1.64-5,3.34-7.54,4.9l-7.13,5.48c-5,3.35-9.09,7.87-13.64,11.84-4.37,4.18-8,9.11-12,13.68-3.55,5-6.74,10.21-10.17,15.28-24.69,42.75-31.68,95.71-36.26,147.89-2.2,26.21-3.15,52.66-3.61,79.14s-.23,53,.37,79.61,1.71,53.16,3.06,79.75l2.26,39.88c.93,15-.46,29.13-1.83,42.62s-3.11,26.69-4.25,39.61-1.73,25.6-.7,37.37,3.89,22.54,9.29,28.89a25.62,25.62,0,0,0,10,7.29l3.26,1.13c1.25.4,2.8.81,4.25,1.18,2.94.78,6,1.44,9,2.08,24.29,4.88,50.14,6.18,71.67-.46,10.75-3.27,19.82-8.85,26.46-16.46a59.31,59.31,0,0,0,12.84-28.76,103.73,103.73,0,0,0,1.58-17.39,141.31,141.31,0,0,0-.82-18.29c-1.26-12.65-3.29-25.6-5.47-38.68l-.83-5-.42-2.67-.23-1.68a20.75,20.75,0,0,1-.17-2.14c-10.34,8.25,15.6-23.73,16.59-16a16.4,16.4,0,0,1,5.48,1.4l4.54,2,4.24,1.79a146.65,146.65,0,0,0,17.14,5.81,83.42,83.42,0,0,0,16.57,2.84c5.2.28,9.85-.34,13-1.63a12.12,12.12,0,0,0,6.43-6.07,16.86,16.86,0,0,0,1.93-10.06c-.81-6.31-7.71-14.86-17-21.5-9.28-6.8-20.38-12.47-31.85-17.13-5.75-2.33-11.64-4.41-17.54-6.17a107.12,107.12,0,0,0-17.1-3.88l-14.74-1.8,1.25-15c1.62-19.51,3.64-38.6,5.74-57.88s4.89-38.45,8.51-57.56l2.88-14.32,3.4-14.27c1.1-4.75,2.35-9.5,3.77-14.22s2.69-9.42,4.44-14.1,3.39-9.32,5.28-13.92c2.14-4.57,4.17-9.15,6.41-13.63,2.39-4.47,5.08-8.89,7.8-13.14a113.39,113.39,0,0,1,9.78-12.1,5.22,5.22,0,0,1,9,4.73Z" transform="translate(-1024.26 -293.44)"/><g class="cls-3"><path class="cls-1" d="M1415.07,3394c27.85,8.07,148.63,32.43,145.31-81.15-.3-10.26-1.31-21.52-2.57-31.78-22.79,68.19-122.33,72.09-140.78,55.15-24.52-22.52-23.38-73.78-26.52-95.09C1384.92,3290.11,1373.25,3381.86,1415.07,3394Z" transform="translate(-1024.26 -293.44)"/></g><g class="cls-3"><path class="cls-1" d="M2131,2913.26a761.06,761.06,0,0,1-56.4-142.54A771.7,771.7,0,0,0,2109,2847a437.26,437.26,0,0,1,36.82,97.61C2141.25,2934,2136.28,2923.47,2131,2913.26Z" transform="translate(-1024.26 -293.44)"/></g><circle class="cls-2" cx="1102.82" cy="2594.54" r="49.01"/><g class="cls-3"><path class="cls-1" d="M2173.61,2872.64a49,49,0,1,1-93.09,30.68,48.47,48.47,0,0,1-2.08-21.38,49,49,0,0,0,84.14-27.72A48.41,48.41,0,0,1,2173.61,2872.64Z" transform="translate(-1024.26 -293.44)"/></g><path class="cls-1" d="M2127,2952.48a64.48,64.48,0,1,1,61.29-84.68h0a64.55,64.55,0,0,1-61.29,84.67Zm0-98.05a33.55,33.55,0,1,0,10.52,65.41,33.55,33.55,0,0,0-10.52-65.41Z" transform="translate(-1024.26 -293.44)"/><path class="cls-2" d="M2116.61,3019.44,1875.79,3115a56,56,0,0,1-72.43-31.29l-50.84-128.15a56,56,0,0,1,21.34-67.27,55.06,55.06,0,0,1,10-5.16l240.78-95.54a55.91,55.91,0,0,1,72.43,31.29l40.29,101.49,10.58,26.65A56,56,0,0,1,2116.61,3019.44Z" transform="translate(-1024.26 -293.44)"/><g class="cls-3"><path class="cls-1" d="M2116.61,3019.44,1875.79,3115a56,56,0,0,1-72.43-31.29l-50.84-128.15a56,56,0,0,1,21.34-67.27c17.28,3.66,28.27,6,28.27,6,52.54,98.21,102.19,137.88,230.75,89.28,55.49-21,87-43.21,104.43-63.23l10.58,26.65A56,56,0,0,1,2116.61,3019.44Z" transform="translate(-1024.26 -293.44)"/></g><path class="cls-1" d="M1855.32,3131.43a68.4,68.4,0,0,1-63.56-43.1l-50.86-128.17a68.46,68.46,0,0,1,38.29-88.66L2020,2776a68.44,68.44,0,0,1,88.66,38.29l50.86,128.17a68.45,68.45,0,0,1-38.29,88.65l-240.8,95.56A68.07,68.07,0,0,1,1855.32,3131.43Zm20.49-16.43h0Zm169.24-318.86a43.12,43.12,0,0,0-15.84,3l-240.8,95.56a43.46,43.46,0,0,0-24.27,56.2L1815,3079.11a43.33,43.33,0,0,0,56.2,24.26l240.8-95.54a43.46,43.46,0,0,0,24.27-56.2l-50.86-128.17a43.65,43.65,0,0,0-40.36-27.32Z" transform="translate(-1024.26 -293.44)"/><path class="cls-2" d="M2125.9,3014.65a50,50,0,0,1-9.29,4.79L1875.79,3115a55.92,55.92,0,0,1-59.27-11.76,54.86,54.86,0,0,1-13.12-19.54l-22.61-56.92-7.46-18.78-20.81-52.44a56,56,0,0,1,31.29-72.43l52-20.63a55.94,55.94,0,0,0-22.07,67.67l27.45,69.23,23.4,59a56,56,0,0,0,72.43,31.28Z" transform="translate(-1024.26 -293.44)"/><g class="cls-3"><path class="cls-1" d="M2125.9,3014.65a50,50,0,0,1-9.29,4.79L1875.79,3115a55.89,55.89,0,0,1-72.39-31.3l-30.07-75.7c11.37,11,28.76,23.07,46.86,17.89,9.93-2.82,16.61-13.43,21-26.49l23.4,59a56,56,0,0,0,72.43,31.28Z" transform="translate(-1024.26 -293.44)"/></g><path class="cls-1" d="M1855.35,3131.44a68.67,68.67,0,0,1-63.58-43.13l-50.86-128.16a68.45,68.45,0,0,1,38.28-88.66l52-20.64,11.29,22.18a43.34,43.34,0,0,0-17.1,52.53l50.85,128.17a43.44,43.44,0,0,0,56.18,24.28l188.86-75,11.41,22.1a64,64,0,0,1-11.56,5.93l-240.74,95.53A67.74,67.74,0,0,1,1855.35,3131.44ZM1800.25,2890l-11.83,4.7a43.44,43.44,0,0,0-24.27,56.2L1815,3079.1a43.42,43.42,0,0,0,56.17,24.28l13.39-5.31a67.7,67.7,0,0,1-31.55-35.13l-50.85-128.16A68.07,68.07,0,0,1,1800.25,2890Z" transform="translate(-1024.26 -293.44)"/><path class="cls-7" d="M1934.57,2957.62c1.86,4.75,10.14,45.7,10.14,45.7l-27.06,10.55c-18.64,7.27-41.27-6.13-50.55-29.92s-1.71-49,16.92-56.26l27.06-10.56S1931.55,2949.88,1934.57,2957.62Z" transform="translate(-1024.26 -293.44)"/><g class="cls-3"><path class="cls-1" d="M1934.57,2957.62c1.86,4.75,10.14,45.7,10.14,45.7l-27.06,10.55c-18.64,7.27-41.27-6.13-50.55-29.92s-1.71-49,16.92-56.26l27.06-10.56S1931.55,2949.88,1934.57,2957.62Z" transform="translate(-1024.26 -293.44)"/></g><path class="cls-1" d="M1912.17,3018.33c-19,0-38.34-14.31-47.06-36.66-5.1-13.06-5.88-27-2.2-39.21,3.87-12.88,12.18-22.38,23.39-26.76l18.89-7.37a18,18,0,0,1,21.91,7.36c11.13,18.13,17.69,29.64,19.46,34.2h0c.48,1.2,1.72,4.41,8.71,38.21a18,18,0,0,1-11.1,20.42l-18.8,7.33A36.17,36.17,0,0,1,1912.17,3018.33Zm-.43-96.24a3,3,0,0,0-1.1.21l-18.89,7.38c-6.82,2.66-12,8.73-14.48,17.1-2.72,9-2.07,19.48,1.81,29.44,7.77,19.91,26.11,31.41,40.84,25.66l18.8-7.32a3,3,0,0,0,1.87-3.42c-6.31-30.46-7.77-35.17-8-35.81-1.39-3.55-8.21-15.42-18.26-31.79A3,3,0,0,0,1911.74,2922.09Z" transform="translate(-1024.26 -293.44)"/><ellipse class="cls-7" cx="1932.9" cy="2955.22" rx="36.22" ry="46.26" transform="translate(-1966.22 611.26) rotate(-21.31)"/><g class="cls-3"><path class="cls-1" d="M1900.79,2925.67a58.44,58.44,0,0,0,3.37,12.72c9.28,23.8,31.92,37.2,50.55,29.93a30.62,30.62,0,0,0,15.29-13.55c2.85,19.48-5,37.57-20.29,43.55-18.63,7.27-41.27-6.13-50.55-29.93C1893.14,2953,1894.24,2937,1900.79,2925.67Z" transform="translate(-1024.26 -293.44)"/></g><g class="cls-8"><path class="cls-2" d="M1961.64,2957.06c-9.29-23.8-31.92-37.2-50.56-29.93a30.53,30.53,0,0,0-15.36,13.67c1.88-13.26,9.07-24.26,20.36-28.67,18.64-7.27,41.27,6.13,50.56,29.93,6,15.35,4.92,31.26-1.56,42.58A55.15,55.15,0,0,0,1961.64,2957.06Z" transform="translate(-1024.26 -293.44)"/></g><path class="cls-1" d="M1939.23,3007.77c-19,0-38.34-14.31-47.06-36.66-10.77-27.61-1.27-57.21,21.19-66s49.49,6.58,60.26,34.2c5.1,13.06,5.88,27,2.21,39.2-3.88,12.89-12.19,22.39-23.4,26.76A36.17,36.17,0,0,1,1939.23,3007.77Zm-12.45-90.14a21.67,21.67,0,0,0-8,1.49c-14.75,5.75-20.43,26.63-12.67,46.54s26.1,31.42,40.84,25.67c6.82-2.66,12-8.74,14.48-17.11,2.72-9,2.08-19.48-1.81-29.43C1953.23,2928.35,1939.63,2917.63,1926.78,2917.63Z" transform="translate(-1024.26 -293.44)"/><path class="cls-1" d="M2041.38,3060.72a12.5,12.5,0,0,1-11.72-8.17l-30.45-82.34a27.09,27.09,0,0,1,3.56-25.44l21.56-29.45a2.11,2.11,0,0,0,.26-2l-42.71-108.72a12.5,12.5,0,1,1,23.28-9.14l42.7,108.72a27,27,0,0,1-3.36,25.93l-21.56,29.46a2.14,2.14,0,0,0-.27,2l30.44,82.34a12.51,12.51,0,0,1-7.39,16.06A12.71,12.71,0,0,1,2041.38,3060.72Z" transform="translate(-1024.26 -293.44)"/><path class="cls-2" d="M1572.09,3008.78s-16.77,23.84-10.06,52.12c7.76,32.71,30.65,40.82,30.65,40.82s96.88,23.4,224.11-42.14c0,0,25.4-63.37-27.19-81.68C1789.6,2977.9,1652.24,3035.86,1572.09,3008.78Z" transform="translate(-1024.26 -293.44)"/><g class="cls-3"><path class="cls-1" d="M1562.05,3060.92c7.75,32.67,30.62,40.78,30.62,40.78s96.87,23.42,224.13-42.14c0,0,8.34-20.88,5.53-42.09-.36,1.18-.63,1.82-.63,1.82-93,47.92-169.78,48.29-204.36,45a57.14,57.14,0,0,1-50.16-42.7l-.24-1a10.55,10.55,0,0,1-.32-1.64C1562.46,3028.62,1558,3044,1562.05,3060.92Z" transform="translate(-1024.26 -293.44)"/></g><path class="cls-1" d="M1638.56,3121.32c-29.77,0-47.78-4.16-49.51-4.58l-1.53-.45c-11.45-4.06-32.87-19.54-40.53-51.82-8.22-34.66,11.6-63.38,12.45-64.59l6.64-9.45,11,3.7c73.63,24.86,205.25-29.92,206.56-30.47l5.48-2.31,5.61,2c17.6,6.12,30.59,17.47,37.57,32.81,13.77,30.23.46,65.32-1.11,69.22l-2.15,5.35-5.12,2.65C1747,3112.9,1680.9,3121.32,1638.56,3121.32Zm-41.16-34.4c10.59,2.09,96.5,16.59,206.76-38.27,2.81-9.79,5.75-27.12-.09-39.82-2.85-6.2-7.61-10.9-14.49-14.24-26.73,10.55-133.88,49.77-209.57,32.45-3,7.46-5.73,18.53-2.93,30.29C1582,3078.1,1594.24,3085.36,1597.4,3086.92Z" transform="translate(-1024.26 -293.44)"/><path class="cls-1" d="M2028.08,3385.54c-32.48,0-68.88-8.32-106.15-32.43a10,10,0,1,1,10.86-16.8c107.78,69.72,207.13-6.93,208.12-7.71a10,10,0,1,1,12.4,15.69C2152.54,3344.89,2099.87,3385.54,2028.08,3385.54Z" transform="translate(-1024.26 -293.44)"/><path class="cls-1" d="M1767.77,3383a203.51,203.51,0,0,1-112.37-33.18,10,10,0,1,1,10.86-16.79c108.29,70.06,222.63-4.14,223.76-4.9a10,10,0,1,1,11.06,16.67C1900.23,3345.34,1842.22,3383,1767.77,3383Z" transform="translate(-1024.26 -293.44)"/><path class="cls-1" d="M1549.28,3108.05a10,10,0,0,1-3.34-.58c-1.09-.38-109.5-38.15-157.53-1.47a10,10,0,1,1-12.14-15.9c56.64-43.23,171.49-3.2,176.36-1.48a10,10,0,0,1-3.35,19.43Z" transform="translate(-1024.26 -293.44)"/><path class="cls-1" d="M2149.1,2438.42c-142.56,0-167-131.9-167.19-133.27a10,10,0,0,1,19.71-3.41c.89,5.12,23.17,122.44,157.39,116.46h.46a10,10,0,0,1,.44,20C2156.24,2438.34,2152.62,2438.42,2149.1,2438.42Z" transform="translate(-1024.26 -293.44)"/><g class="cls-3"><path class="cls-1" d="M1405.74,2828.73a330.27,330.27,0,0,0,93.74,22.06,489.43,489.43,0,0,0,54.78,1.59c6.88-.18,13.86-.5,21-1,61.12-4.3,130-20.79,201.79-59.48,101.76-55,163.11-129.63,200-196.63-11.2-12.14-22.11-23.38-31.4-33.26l-12.73,10.79-20.71,4.8-343.51,80-3,40.32-1.31,18.08-2.86,38.83-6.93-48.62C1553,2706.22,1446.65,2706.67,1405.74,2828.73Z" transform="translate(-1024.26 -293.44)"/></g><path class="cls-2" d="M2005.79,2250a481.59,481.59,0,0,1-41.21,240.38,488.65,488.65,0,0,1-24,46.21c-4.32,7.37-8.91,14.67-13.67,21.94a484.32,484.32,0,0,1-47.6,60.75,481.58,481.58,0,0,1-110.08,89.05q-12,7-24.4,13.42c-150.84,77.41-337.93,73.29-489.3-27.06-223-147.79-284-448.37-136.19-671.36a483.54,483.54,0,0,1,100.81-110.48c4.43-3.61,9-7.11,13.61-10.51q18.43-13.75,37.94-25.58a486.86,486.86,0,0,1,196-67q16.41-1.9,33-2.69a484,484,0,0,1,290,80.12C1919,1972.21,1993.61,2107.77,2005.79,2250Z" transform="translate(-1024.26 -293.44)"/><path class="cls-1" d="M1523.26,2776.74A485.81,485.81,0,0,1,1254.7,2696c-223.31-148-284.59-450.08-136.61-673.4a485,485,0,0,1,101.12-110.82c4.23-3.44,8.82-7,13.66-10.54,12.25-9.14,25.06-17.78,38.05-25.66a488.34,488.34,0,0,1,196.63-67.22c11.07-1.29,22.2-2.19,33.08-2.7A485.37,485.37,0,0,1,1791.5,1886c124.37,82.4,203,215.05,215.76,363.93h0a484.16,484.16,0,0,1-65.44,287.46c-4,6.78-8.45,14-13.7,22a488,488,0,0,1-47.75,60.94A483.59,483.59,0,0,1,1770,2709.62c-8,4.68-16.22,9.2-24.48,13.46A486.43,486.43,0,0,1,1523.26,2776.74Zm.16-968.72q-11.25,0-22.65.52c-10.81.51-21.88,1.41-32.88,2.69A485.44,485.44,0,0,0,1272.44,1878c-12.91,7.84-25.64,16.42-37.83,25.51-4.8,3.53-9.36,7-13.55,10.47a482.07,482.07,0,0,0-100.52,110.15c-147.08,222-86.17,522.24,135.78,669.33,145.45,96.43,332.37,106.76,487.82,27,8.2-4.23,16.39-8.74,24.33-13.39a480,480,0,0,0,109.74-88.76,484.43,484.43,0,0,0,47.45-60.57c5.23-8,9.69-15.13,13.63-21.87a489.66,489.66,0,0,0,24-46.08,481.87,481.87,0,0,0,41.09-239.64h0c-12.67-148-90.83-279.83-214.45-361.73a481.75,481.75,0,0,0-239.43-79.63C1541.59,1808.28,1532.56,1808,1523.42,1808Z" transform="translate(-1024.26 -293.44)"/><g class="cls-3"><path class="cls-1" d="M1255.51,2694.71c151.36,100.38,338.47,104.49,489.3,27.05q12.36-6.36,24.39-13.41a481.22,481.22,0,0,0,110.09-89,483.76,483.76,0,0,0,47.61-60.76c4.74-7.28,9.34-14.56,13.67-21.92a495,495,0,0,0,24-46.24A481.34,481.34,0,0,0,2005.79,2250a487,487,0,0,0-29.3-129.73,483.23,483.23,0,0,1-66,275.46c-4.3,7.36-8.91,14.65-13.67,21.93a482.94,482.94,0,0,1-157.67,149.79q-12.08,7.05-24.42,13.41c-150.83,77.44-337.92,73.32-489.31-27.05a482.06,482.06,0,0,1-185.77-233.18C1048.71,2467,1123.87,2607.49,1255.51,2694.71Z" transform="translate(-1024.26 -293.44)"/></g><path class="cls-1" d="M1523.26,2786.58a495.53,495.53,0,0,1-274-82.43c-227.83-151-290.35-459.19-139.38-687a494.6,494.6,0,0,1,103.19-113.06c4.27-3.49,9-7.14,14-10.79,12.46-9.29,25.52-18.1,38.78-26.15a498.31,498.31,0,0,1,200.61-68.58c11.29-1.31,22.65-2.24,33.76-2.75a495.08,495.08,0,0,1,296.77,82c126.88,84.08,207.11,219.41,220.12,371.3h0a494.56,494.56,0,0,1-42.19,246,501,501,0,0,1-24.58,47.29c-4,6.89-8.6,14.22-13.94,22.39a498.35,498.35,0,0,1-48.75,62.22A492.91,492.91,0,0,1,1775,2718.1c-8.17,4.78-16.55,9.4-25,13.73A496.36,496.36,0,0,1,1523.26,2786.58Zm.16-968.71q-11,0-22.2.51c-10.59.49-21.42,1.38-32.2,2.63a475.72,475.72,0,0,0-191.48,65.45c-12.63,7.67-25.1,16.08-37,25-4.72,3.48-9.15,6.9-13.22,10.21a472.12,472.12,0,0,0-98.53,108c-144.09,217.44-84.42,511.58,133,655.67,142.47,94.46,325.59,104.59,477.88,26.42,8-4.14,16.07-8.56,23.85-13.12a473.76,473.76,0,0,0,154-146.28c5.1-7.79,9.47-14.81,13.33-21.4a479,479,0,0,0,23.48-45.18A471.89,471.89,0,0,0,1994.52,2251h0c-12.41-145-89-274.13-210.08-354.36a471.9,471.9,0,0,0-234.53-78C1541.22,1818.12,1532.37,1817.87,1523.42,1817.87Z" transform="translate(-1024.26 -293.44)"/><path class="cls-1" d="M1523.25,2789.86a498.92,498.92,0,0,1-275.81-83c-229.33-152-292.27-462.23-140.29-691.59A497.89,497.89,0,0,1,1211,1901.48c4.29-3.5,9.06-7.19,14.07-10.87,12.52-9.33,25.67-18.2,39-26.3a501.3,501.3,0,0,1,201.93-69c11.37-1.32,22.8-2.25,34-2.77A498.61,498.61,0,0,1,1798.76,1875c127.72,84.63,208.49,220.85,221.58,373.75h0a498,498,0,0,1-42.47,247.65,506.46,506.46,0,0,1-24.74,47.6c-4.06,6.93-8.65,14.3-14,22.52A501,501,0,0,1,1890,2629.2a496,496,0,0,1-113.4,91.73c-8.22,4.81-16.66,9.45-25.12,13.82A499.56,499.56,0,0,1,1523.25,2789.86Zm.17-968.71q-11,0-22.05.51c-10.51.49-21.27,1.36-32,2.61a472.46,472.46,0,0,0-190.14,65c-12.56,7.61-24.93,16-36.79,24.8-4.7,3.46-9.08,6.85-13.1,10.13a468.63,468.63,0,0,0-97.88,107.24c-143.08,215.93-83.83,508,132.09,651.11,141.49,93.81,323.33,103.86,474.57,26.24,8-4.11,16-8.5,23.7-13a470.43,470.43,0,0,0,152.88-145.27c5.07-7.73,9.41-14.7,13.24-21.24a473.88,473.88,0,0,0,23.32-44.88,468.59,468.59,0,0,0,40-233.09c-12.32-144-88.36-272.23-208.62-351.91a468.67,468.67,0,0,0-232.9-77.47C1541.1,1821.4,1532.3,1821.15,1523.42,1821.15Z" transform="translate(-1024.26 -293.44)"/><path class="cls-1" d="M2000.44,2374c-128.12,321.63-528.33,415.65-733.45,140.87-139.55-186.94-64.26-467.9,123.87-590.44,136.92-89.18,309.61-116.35,506.12,58.32,0,0,75,90.76,91.37,173.31s18.26,165.6,18.26,165.6Z" transform="translate(-1024.26 -293.44)"/><path class="cls-9" d="M1267,2514.91c205.11,274.77,605.33,180.74,733.45-140.86l1.24-10.61c-230.25,218.16-592.95,233-805.5-41C1201.32,2390.59,1223.94,2457.21,1267,2514.91Z" transform="translate(-1024.26 -293.44)"/><path class="cls-1" d="M1577.53,2739.84a444.7,444.7,0,0,1-57.94-3.76c-121-15.89-226-79.2-303.57-183.09-71.37-95.59-98.25-218.08-75.68-344.91,24.56-138,106.1-264,218.13-336.93,62.89-41,126.87-66.64,190.15-76.33l1.3-.2,1.31.08a496,496,0,0,1,246.46,82c127.22,84.3,207.67,220,220.71,372.3h0a495.92,495.92,0,0,1-42.3,246.67,506.09,506.09,0,0,1-24.64,47.42c-4,6.91-8.63,14.25-14,22.44a501.23,501.23,0,0,1-48.89,62.4l-1.46,1.35C1796.31,2700.94,1686.12,2739.84,1577.53,2739.84ZM1551.15,1820c-59.28,9.29-119.46,33.61-178.87,72.31-106.28,69.23-183.68,188.91-207,320.16-21.33,119.87,3.9,235.41,71,325.35,73.38,98.28,172.48,158.15,286.6,173.13,119.45,15.69,246.18-21.11,347.77-101a472.15,472.15,0,0,0,45.68-58.43c5.09-7.77,9.45-14.77,13.3-21.34a478.69,478.69,0,0,0,23.42-45.05,470.62,470.62,0,0,0,40.13-234.07c-12.38-144.55-88.73-273.35-209.48-353.36A470.65,470.65,0,0,0,1551.15,1820Z" transform="translate(-1024.26 -293.44)"/><ellipse class="cls-2" cx="1188.06" cy="2557.57" rx="125.87" ry="173.23" transform="translate(-2221.17 759.29) rotate(-32.83)"/><path class="cls-1" d="M1228.75,2732.8c-59.85,0-126.33-41.88-165.61-110.38h0c-29.79-52-38.8-109-24.73-156.46,9.66-32.61,29.34-57.32,56.92-71.47,68.73-35.25,166.36,8.8,217.64,98.23,29.79,51.94,38.8,109,24.74,156.45-9.67,32.61-29.36,57.33-56.93,71.47A113.11,113.11,0,0,1,1228.75,2732.8Zm-140.29-124.9c43.63,76.09,123.94,115,179,86.77,20.31-10.42,34.92-29,42.27-53.79,11.63-39.28,3.39-89.24-22.07-133.64-43.64-76.1-123.94-115-179-86.78-20.31,10.42-34.92,29-42.26,53.8-11.64,39.28-3.39,89.24,22.06,133.64Z" transform="translate(-1024.26 -293.44)"/><ellipse class="cls-2" cx="1160.04" cy="2590.28" rx="102.56" ry="137.48" transform="translate(-2294.99 831.72) rotate(-34.8)"/><path class="cls-1" d="M1190.78,2719c-29.83,0-61.51-13.44-88.74-38h0c-55.67-50.26-75.1-131.81-43.29-181.79,13.16-20.69,33.13-33.4,57.71-36.73,33.38-4.5,70.41,9,101.59,37.17,55.67,50.27,75.09,131.82,43.29,181.8-13.17,20.69-33.13,33.39-57.71,36.73A96.41,96.41,0,0,1,1190.78,2719Zm-61.45-254.36a93.69,93.69,0,0,0-12.46.83c-23.67,3.21-42.88,15.44-55.55,35.35-31,48.78-11.85,128.58,42.76,177.89h0c30.51,27.55,66.61,40.82,99.14,36.41,23.66-3.21,42.87-15.43,55.54-35.34,31-48.78,11.86-128.58-42.75-177.89C1189.34,2477.79,1158.39,2464.62,1129.33,2464.62Z" transform="translate(-1024.26 -293.44)"/><g class="cls-3"><path class="cls-1" d="M1273.06,2592.6c-7.06-25.07-21-48.3-39-67.33,11.28,58.53-21.77,104-77.65,103.65-36.12-.21-73.46-19.53-101.24-49,.69,3.69,1.61,7.47,2.67,11.27,18,63.84,80.76,115.91,140.2,116.29S1291,2656.41,1273.06,2592.6Z" transform="translate(-1024.26 -293.44)"/></g><path class="cls-1" d="M1195.84,2729.65c-47.32,0-100.65-35.23-134.11-93.06h0c-25.22-43.59-33.53-92.21-22.22-130.08,7.2-24.14,21.71-42.29,42-52.47,53.7-27,129.43,10,172.4,84.24,25.22,43.59,33.52,92.22,22.22,130.09-7.21,24.14-21.72,42.28-42,52.46A84.47,84.47,0,0,1,1195.84,2729.65Zm-76.06-259.13a59.41,59.41,0,0,0-26.94,6.13c-13.87,7-23.92,19.8-29.09,37.1-9.35,31.31-1.91,72.5,19.88,110.17h0c35.65,61.62,98,95,139.13,74.31,13.86-7,23.92-19.8,29.09-37.1,9.35-31.32,1.91-72.51-19.88-110.18C1203.47,2501.7,1157.89,2470.52,1119.78,2470.52Z" transform="translate(-1024.26 -293.44)"/><g class="cls-10"><path class="cls-2" d="M1344.06,2075.54s181-102.12,341.79-64.33l.5.12a195.79,195.79,0,0,1,90,49c33.27,31.73,51.54,58.46,66.73,82.62,46.13,73.48,54,116.55,54,116.55,17.41-65.07,13.29-123.94-24.53-185.53q-5.62-9.09-12.22-18.31c-1-1.42-2-2.81-3.1-4.19,0,0,0-.05-.07-.07a486,486,0,0,0-39.75-42.55c-49.91-47.38-128.21-100.9-220.48-90.61C1424.44,1937.44,1333.19,2071.66,1344.06,2075.54Z" transform="translate(-1024.26 -293.44)"/></g><g class="cls-10"><ellipse class="cls-2" cx="1322.6" cy="2337.3" rx="64.75" ry="75.45" transform="translate(-1654.52 200.33) rotate(-17.15)"/></g><g class="cls-10"><ellipse class="cls-2" cx="1363.02" cy="2468.29" rx="26.74" ry="31.16" transform="translate(-1518.94 53.71) rotate(-12.3)"/></g><path class="cls-11" d="M2789.22,1015.26a648.91,648.91,0,0,1-44.67,183.85c-60.06,148.37-175.05,274.77-332.41,345.94-157.7,71.32-329,74.06-480.29,20.84a650.7,650.7,0,0,1-166.58-87.53c158.39-39.84,341.44-104.08,530.89-189.76S2654.72,1107.89,2789.22,1015.26Z" transform="translate(-1024.26 -293.44)"/><path class="cls-12" d="M2296.16,1288.6c189.43-85.67,358.56-180.71,493.06-273.34a640,640,0,0,1-12,78.14c-103.51,75.2-268.9,168-461.48,255.14-184.46,83.43-356.41,144.63-480.26,174.3a645.9,645.9,0,0,1-70.16-44.48C1923.66,1438.52,2106.71,1374.28,2296.16,1288.6Z" transform="translate(-1024.26 -293.44)"/><path class="cls-11" d="M2763,765.92c-105,84.94-312.51,203.84-560.36,315.95S1728.5,1271.24,1595.34,1294a648.17,648.17,0,0,1-37.64-71.2c-.52-1.17-1-2.31-1.57-3.51q-7.34-16.41-13.64-33a642.51,642.51,0,0,1-24.37-78.46c-.28-1.08-.53-2.12-.77-3.2a643.26,643.26,0,0,1,11.4-337.43,649.48,649.48,0,0,1,67.7-149.6A642.91,642.91,0,0,1,1880,368.34q18.16-8.2,36.54-15.21c164.17-62.63,340-53.69,490.91,13.09.95.43,1.9.83,2.86,1.29a646,646,0,0,1,179.28,119.58,636.72,636.72,0,0,1,71.92,80.39c2.39,3.14,4.73,6.33,7.06,9.53,1.94,2.61,3.82,5.26,5.69,7.93A643.92,643.92,0,0,1,2717,655.07q7.23,13.65,13.83,27.78c1.2,2.58,2.4,5.16,3.56,7.78A646.69,646.69,0,0,1,2763,765.92Z" transform="translate(-1024.26 -293.44)"/><path class="cls-12" d="M2730.84,682.87c1.21,2.56,2.4,5.13,3.58,7.74a648.13,648.13,0,0,1,28.6,75.3c-105,84.94-312.51,203.85-560.36,315.95S1728.49,1271.23,1595.35,1294a649.1,649.1,0,0,1-37.66-71.2c-.53-1.16-1-2.31-1.55-3.48,126.25-14,356.65-88.73,609.3-203C2428.07,897.55,2642.8,768.64,2730.84,682.87Z" transform="translate(-1024.26 -293.44)"/><path class="cls-12" d="M1509.47,1003.47c-3.31,0-6.47-.08-9.5-.24l1.72-33.22c88.69,4.59,319.91-68.72,562.18-178.28C2353,661,2540.07,535.07,2575.42,478.31l28.24,17.59c-45,72.3-261.35,206.41-526.08,326.14C1835.06,931.73,1609.77,1003.47,1509.47,1003.47Z" transform="translate(-1024.26 -293.44)"/><path class="cls-12" d="M1531.19,783.64l-4.89-32.92c99.42-14.77,271.57-73.86,449.27-154.23C2161.78,512.27,2323,419.28,2396.31,353.8l22.17,24.82c-75.66,67.57-240.12,162.67-429.2,248.19C1809,708.35,1633.44,768.45,1531.19,783.64Z" transform="translate(-1024.26 -293.44)"/><path class="cls-12" d="M1518.32,1121.24h-1l.16-33.27h1c102.21,0,340.22-76.62,593.06-191,266.14-120.37,489.69-256,543.62-329.81L2682,586.81c-57.87,79.23-281.62,216.07-556.76,340.5C1868.43,1043.44,1624.88,1121.24,1518.32,1121.24Z" transform="translate(-1024.26 -293.44)"/><path class="cls-12" d="M1932.45,1574.19l-.59-8.25-3.12-7.76,1.2-.48,1.32-.1c87.63-6.32,254.48-60.25,425.08-137.41,171.53-77.58,318.06-164.57,382.41-227l11.59,11.94c-65.63,63.72-214,152-387.15,230.27C2188.31,1514.45,2023.26,1567.65,1932.45,1574.19Z" transform="translate(-1024.26 -293.44)"/><path class="cls-1" d="M2146.42,1619.74A664.7,664.7,0,0,1,1755,1492.5l-30.2-22,36.24-9.11c163-41,345.6-106.27,527.94-188.74s351.88-176.44,490.35-271.8l30.77-21.19-3.42,37.21c-21.81,237.45-170.21,445.95-387.29,544.12A662.09,662.09,0,0,1,2146.42,1619.74Zm-339.53-134.13c178.26,114,404,131.25,598,43.49s330.21-268.63,362.26-477.8c-133.91,89-293.41,176.17-463.82,253.24S1962.19,1443.86,1806.89,1485.61Z" transform="translate(-1024.26 -293.44)"/><path class="cls-12" d="M2771.87,606.36a22,22,0,0,1,1.39,4.17Z" transform="translate(-1024.26 -293.44)"/><path class="cls-13" d="M3105.93,623c39,86.19-89.53,235.82-316.71,392.26-134.5,92.63-303.63,187.67-493.06,273.34s-372.5,149.92-530.89,189.76c-267.51,67.28-464.71,65-503.69-21.23-35.41-78.28,67.3-208.82,256.53-349.32a644,644,0,0,0,24.39,78.47c-52.32,42.78-78.08,76.72-69.13,96.51,9.11,20.15,53.07,23,122,11.21,133.14-22.77,359.48-100.06,607.31-212.14S2658,850.85,2763,765.91c54.32-44,81.23-78.84,72.11-99-8.94-19.76-51.44-22.85-118.1-11.83A645.21,645.21,0,0,0,2674.21,585C2904.68,535.63,3070.53,544.72,3105.93,623Z" transform="translate(-1024.26 -293.44)"/><path class="cls-14" d="M1503.8,1363c-49.68,0-87.56-10.31-100-37.91-17.85-39.45,22.86-98.92,121-176.75l15.5,19.55c-123.06,97.61-118.17,137.13-113.75,146.92,15.37,34,136,36.47,370.7-34.5,129.13-39.09,275.13-94.91,422.22-161.43s285.41-139.29,400-210.44c208.34-129.41,286.1-221.62,270.74-255.59-4.43-9.79-30.87-39.56-185.45-11.61l-4.45-24.55c123.25-22.3,194.78-13.59,212.63,25.88,34.71,76.73-160.72,212.79-280.31,287.07-115.52,71.71-254.83,145-402.9,212s-295.11,123.18-425.28,162.57C1718.14,1330.31,1592.27,1363,1503.8,1363Z" transform="translate(-1024.26 -293.44)"/><path class="cls-14" d="M1467.72,1450.12c-70.22,0-127.72-14.25-146.48-55.74-34.77-76.86,87.11-191,195.49-273.15l15.08,19.89c-138.82,105.27-209,196.11-187.84,243,12.57,27.79,59.78,42.37,133.29,41.17,76.29-1.29,179.71-19.31,299-52.12,147.06-40.4,312.45-101.41,478.3-176.42s320.86-158.91,448.32-242.65c103.45-68,185.28-133.72,236.64-190.16,49.39-54.29,69.68-99.49,57.11-127.28-21.2-46.87-135.77-54.13-306.51-19.41l-5-24.45c133.29-27.11,299.47-43.28,334.22,33.58,47.1,104.14-196.06,278.46-302.79,348.58-128.52,84.44-284.73,169-451.73,244.53s-333.68,137-482,177.75C1708.84,1417.58,1573.8,1450.11,1467.72,1450.12Z" transform="translate(-1024.26 -293.44)"/><path class="cls-1" d="M1449.82,1543.11c-109.53,0-180.52-26.43-204.19-78.77-51.86-114.65,141.92-281.39,262-370.58L1528.9,1078l6.22,25.68a631.85,631.85,0,0,0,23.72,76.34l4.51,11.8-9.78,8c-68.83,56.29-64.34,75.59-64.26,75.76s12,16.73,103.09,1.17c135.75-23.22,366.82-104,603-210.84s449.49-227,556.57-313.61c71.83-58.14,67.26-78,67.18-78.17s-11.62-16.28-99.3-1.78l-12.46,2.06-5.89-11.18A629.42,629.42,0,0,0,2659.89,595l-15.19-21.63,25.85-5.53c146.3-31.31,399.47-66.71,451.33,47.94,42,92.87-75.63,243.73-322.73,413.9-140.16,96.52-311.6,191.56-495.78,274.86s-368.8,149.29-533.83,190.79C1642.57,1527.27,1534.64,1543.11,1449.82,1543.11Zm58-405.64C1337,1268.29,1249.06,1387,1277.52,1449.92c33.33,73.7,218.59,78.09,483.49,11.47,163-41,345.6-106.27,527.94-188.74s351.88-176.44,490.35-271.8c225-154.92,344-297,310.69-370.64h0c-28.46-62.93-175.65-75.3-386.72-33.39q12.3,19.13,23.3,39.06c72.71-10.61,112.39-3,124.51,23.82,13,28.69-11.51,66.76-77,119.81-110.9,89.69-321.8,208.68-564.16,318.29s-471,189.4-611.57,213.45c-83.15,14.19-127.9,7.45-140.88-21.25-12.11-26.79,8.36-61.65,64.36-109.24C1516.65,1166.52,1512,1152.05,1507.83,1137.47Z" transform="translate(-1024.26 -293.44)"/><g class="cls-15"><path class="cls-2" d="M2763,765.9q-18.34,14.83-40.73,31c-6-17-12.82-33.89-20.35-50.57-1.2-2.61-2.39-5.17-3.59-7.73q-6.57-14.18-13.81-27.8a646.86,646.86,0,0,0-42.81-70.14c-1.87-2.67-3.78-5.3-5.69-7.93a637.22,637.22,0,0,0-79-89.92,645.23,645.23,0,0,0-182.11-120.86c-162.22-71.75-353.14-76.75-527.46,2.11a642.72,642.72,0,0,0-274.54,235.13A643,643,0,0,1,1880,368.33c174.32-78.82,365.24-73.86,527.42-2.12a645.18,645.18,0,0,1,182.14,120.91,638.58,638.58,0,0,1,79,89.87c1.95,2.63,3.82,5.3,5.69,8a642.61,642.61,0,0,1,42.82,70.1q7.21,13.7,13.8,27.8c1.24,2.57,2.43,5.13,3.58,7.77A650.71,650.71,0,0,1,2763,765.9Z" transform="translate(-1024.26 -293.44)"/></g><path class="cls-1" d="M1586.61,1313.25l-6.19-10.12a668.28,668.28,0,0,1-38.67-73.12c-5.59-12.36-10.85-25-15.61-37.51a665.27,665.27,0,0,1-25-80.57C1426.41,803,1582.71,483.57,1872.75,352.4s633.13-37.6,815.78,222.5a663.67,663.67,0,0,1,44,72c6.23,11.81,12.25,24.09,17.85,36.47h0a669.25,669.25,0,0,1,29.37,77.33l3.5,11.33-9.22,7.45c-110.89,89.69-321.79,208.68-564.15,318.29s-471,189.4-611.57,213.45Zm559.2-984.81a626.55,626.55,0,0,0-258.64,55.85c-274.74,124.25-422.79,426.81-352.05,719.41a631.7,631.7,0,0,0,23.72,76.33c4.52,11.89,9.5,23.85,14.8,35.56a633.08,633.08,0,0,0,30.52,59.05c137.08-25.7,361.75-104.92,591.28-208.73s437.4-220.21,547.23-306.18a639,639,0,0,0-24.19-61.91h0c-5.31-11.73-11-23.36-16.92-34.56A630.25,630.25,0,0,0,2659.89,595C2539.45,423.5,2345.33,328.44,2145.81,328.44Z" transform="translate(-1024.26 -293.44)"/><g class="cls-16"><path class="cls-1" d="M2284.51,1293.85c-185.32,83.09-364.11,145.47-519.24,184.51-267.5,67.27-464.73,65-503.71-21.23-35.37-78.29,67.33-208.81,256.54-349.32a647.84,647.84,0,0,0,24.4,78.48c-52.33,42.76-78.1,76.7-69.14,96.49,9.13,20.17,53.09,23,122,11.23,88.33-15.11,217.68-54.22,367.15-111.57-3.6,19.46-2,37.22,5,52.87C1996.72,1299.88,2114.72,1317.39,2284.51,1293.85Z" transform="translate(-1024.26 -293.44)"/></g><g class="cls-4"><path class="cls-5" d="M1626.26,573.42c2.43-3.32,4.89-6.64,7.47-9.93C1631.18,566.78,1628.69,570.07,1626.26,573.42Z" transform="translate(-1024.26 -293.44)"/></g><g class="cls-4"><path class="cls-5" d="M1642.49,552.27q8.52-10.69,17.61-21Q1651.05,541.59,1642.49,552.27Z" transform="translate(-1024.26 -293.44)"/></g><g class="cls-4"><path class="cls-5" d="M1698.11,491.36q-9.45,9.13-18.5,18.56Q1688.64,500.42,1698.11,491.36Z" transform="translate(-1024.26 -293.44)"/></g><g class="cls-4"><path class="cls-5" d="M1708.19,481.87c6.79-6.27,13.74-12.42,20.84-18.38C1721.93,469.48,1715,475.63,1708.19,481.87Z" transform="translate(-1024.26 -293.44)"/></g><g class="cls-16"><path class="cls-1" d="M2789.22,1015.26a648.91,648.91,0,0,1-44.67,183.85c-60.06,148.37-175.05,274.77-332.41,345.94-157.7,71.32-329,74.06-480.29,20.84a650.7,650.7,0,0,1-166.58-87.53c158.39-39.84,341.44-104.08,530.89-189.76S2654.72,1107.89,2789.22,1015.26Z" transform="translate(-1024.26 -293.44)"/></g><g class="cls-16"><path class="cls-1" d="M2763,765.94C2658,850.85,2450.5,969.76,2202.65,1081.86s-474.14,189.4-607.31,212.16a641.47,641.47,0,0,1-37.62-71.22c-.53-1.17-1-2.29-1.57-3.5-4.92-10.92-9.47-22-13.66-33a641.58,641.58,0,0,1-24.37-78.47c-.28-1.09-.52-2.09-.76-3.18a636.87,636.87,0,0,1-16.52-118,646.77,646.77,0,0,1,231-525.47,637.92,637.92,0,0,0-43.06,61.51,648.68,648.68,0,0,0-95.59,369.05,637.82,637.82,0,0,0,16.52,118c.24,1.08.48,2.13.76,3.18l.45,1.78c28.47,110.32,144.22,173.57,253,139.72,122.3-38.06,272.28-95.6,431.09-167.44,184.2-83.34,346.13-170.39,460.25-244.51C2758,750.27,2760.58,758.08,2763,765.94Z" transform="translate(-1024.26 -293.44)"/></g></svg>