<?xml version="1.0" encoding="UTF-8"?>
<svg id="Graphic_elements" data-name="Graphic elements" xmlns="http://www.w3.org/2000/svg" xmlns:xlink="http://www.w3.org/1999/xlink" viewBox="0 0 1200 800">
  <defs>
    <style>
      .cls-1, .cls-2, .cls-3 {
        stroke-width: 0px;
      }

      .cls-2 {
        fill: none;
      }

      .cls-4 {
        clip-path: url(#clippath);
      }

      .cls-3 {
        fill: #0d0c0e;
      }
    </style>
    <clipPath id="clippath">
      <rect class="cls-2" width="1200" height="800"/>
    </clipPath>
  </defs>
  <g class="cls-4">
    <g>
      <path class="cls-2" d="m958.83,161.92s-.05-.05-.07-.08c0,.01,0,.02,0,.03.02.02.05.03.07.05Z"/>
      <path class="cls-2" d="m970.57,165.27c-.21-.07-.43-.12-.64-.15.15.04.31.09.46.13.06,0,.12,0,.18.02Z"/>
      <path class="cls-2" d="m958.74,161.87s.01,0,.02.01c0,0,0,0,0-.01,0,0-.01,0-.02,0Z"/>
      <path class="cls-2" d="m787.93,154.01c-.17-.04-.35-.07-.54-.07-.21.12.32.69.15.29.21-.08.4-.12.6-.16-.03-.01-.06-.03-.1-.04-.04,0-.08-.02-.11-.02Z"/>
      <path class="cls-2" d="m618.94,339.7c-.06,0-.13-.01-.19-.01.01.08.03.15.03.24.07-.07.1-.15.15-.23Z"/>
      <path class="cls-2" d="m968.39,170.73c.01.05.02.11.02.16.14-.03.26-.06.41-.1-.16-.01-.28-.04-.43-.06Z"/>
      <path class="cls-2" d="m989.4,169.96c-.12.31-.27.59-.43.85.3-.2.5-.48.43-.85Z"/>
      <path class="cls-2" d="m726.27,150.93c-.1-.04-.2-.09-.29-.17.03.13.12.2.29.17Z"/>
      <path class="cls-1" d="m609.81,337.14c-1.86-.44-3.74-.74-5.64-.93,1.86.34,3.76.61,5.64.93Z"/>
      <path class="cls-1" d="m574.25,339.26c3.94-1.34,8-2.11,12.14-2.64-.09,0-.19.02-.28.03-4.09.38-8.04,1.27-11.85,2.61Z"/>
      <g>
        <path class="cls-3" d="m133.48,752.85s0,0,0,0c0,0,0,0,.01,0,0,0,0,0-.01-.01Z"/>
        <path class="cls-3" d="m177.54,746.91c-.12-.12-.25-.24-.38-.37.08.17.21.3.38.37Z"/>
        <path class="cls-3" d="m145.48,782.24s0-.02,0-.03c0,0-.01,0-.02-.01,0,.01,0,.03,0,.04Z"/>
        <path class="cls-3" d="m1156.5,681.67s.1.06.14.09c.02-.07.04-.14.06-.22-.07.05-.14.08-.2.13Z"/>
        <path class="cls-3" d="m156.74,767.26s.02.08.03.13c.06,0,.11.01.17.02-.06-.06-.12-.12-.18-.19,0,.01-.01.03-.02.04Z"/>
        <path class="cls-3" d="m220.82,665.04c-.09,0-.18,0-.27,0,.13.03.25.06.38.09.04-.1.1-.21.19-.31.02-.02.04-.04.06-.06-.12-.03-.24-.06-.36-.1,0,.13,0,.25,0,.38Z"/>
        <path class="cls-3" d="m150.66,760.46s.05.05.07.07c0,0,0-.01,0-.02-.01-.02-.03-.03-.04-.05-.01,0-.03,0-.04,0Z"/>
        <path class="cls-3" d="m176.1,774.63s.1,0,.15,0c-.01-.08-.04-.16-.06-.23-.03.08-.05.15-.09.24Z"/>
        <path class="cls-3" d="m164.88,772.39h0s.02-.02.03-.03c0-.02,0-.04-.01-.07,0,.03,0,.06-.02.1Z"/>
        <path class="cls-3" d="m187.88,708.04s0-.02,0-.03c-.02,0-.05.02-.07.03.02,0,.04,0,.07,0Z"/>
        <path class="cls-3" d="m177.59,703.83s0-.01,0-.02c0,0-.02,0-.02,0,.01,0,.02.01.03.02Z"/>
        <path class="cls-3" d="m163.37,706.06s.04,0,.06-.01c-.02,0-.04-.02-.06-.03,0,.01,0,.03,0,.04Z"/>
        <path class="cls-3" d="m153.35,767.91c.04-.16-.13-.26,0,0h0Z"/>
        <path class="cls-3" d="m145.67,782.41s0-.04,0-.06c-.01,0-.02-.02-.03-.03.01.03.02.06.03.08Z"/>
        <path class="cls-3" d="m109.49,784.08c0-.05,0-.1-.02-.15-.02.04-.04.07-.06.11.02.01.05.02.07.04Z"/>
        <path class="cls-3" d="m484.89,638.5c.22,0,.44.02.66.04-.14-.11-.38-.11-.66-.04Z"/>
        <path class="cls-3" d="m191.35,712.35c.06-.04.11-.08.16-.12-.06.05-.12.08-.18.12,0,0,.01,0,.02,0Z"/>
        <path class="cls-3" d="m127.18,776.37s.03,0,.04,0c-.03-.01-.06-.04-.09-.05.02.01.03.03.05.04Z"/>
        <path class="cls-3" d="m297.58,521.93s0,0,.01,0c.04,0,.07,0,.11,0-.04-.16-.07-.32-.1-.47-.07.04-.14.07-.22.1.06.1.12.19.18.31,0,.02,0,.04,0,.06Z"/>
        <path class="cls-3" d="m193.12,734.81c0-.08.02-.16.03-.25-.12.02-.23.05-.35.07.11.06.21.12.32.18Z"/>
        <path class="cls-3" d="m69.51,754.5s.03.04.04.06c0-.02,0-.04,0-.06-.01,0-.02,0-.03,0Z"/>
        <path class="cls-3" d="m158.21,782.08s.02,0,.03.01c.01-.04.03-.07.04-.11-.01,0-.02,0-.03,0-.01.03-.03.06-.04.1Z"/>
        <path class="cls-3" d="m153.63,790.51c.05-.06.11-.11.18-.17-.15-.05-.29-.11-.45-.16.1.11.17.22.26.33Z"/>
        <path class="cls-3" d="m69.45,754.49s.04,0,.06,0c-.03-.04-.07-.08-.1-.12.01.04.03.08.04.11Z"/>
        <path class="cls-3" d="m348.18,366.45c.07-.02.14-.05.2-.07-.08,0-.15-.01-.22-.02,0,.03.02.04.02.07,0,0,0,.01,0,.02Z"/>
        <path class="cls-3" d="m65.79,773.14s.01-.01.02-.02c0,0-.02,0-.03.01,0,0,0,0,0,0Z"/>
        <path class="cls-3" d="m1131.59,437.46c-.08.08-.16.14-.23.2.07.08.13.16.21.24,0-.16.02-.3.02-.45Z"/>
        <path class="cls-3" d="m65.73,773.15s.03,0,.05-.01c0-.01.01-.02.02-.04-.02.02-.05.03-.07.05Z"/>
        <path class="cls-3" d="m59.82,788.04c-.1.1-.21.18-.31.24.07.05.13.1.2.14.1-.11.21-.24.31-.41-.07.01-.13.03-.2.04,0,0,0,0,0,0Z"/>
        <path class="cls-3" d="m68.02,787.3s.07,0,.11.01c-.03-.11-.07-.21-.11-.3,0,.1,0,.19,0,.29Z"/>
        <path class="cls-3" d="m67.94,787.17c0,.11-.02.21-.02.32.03-.07.07-.13.1-.2-.03-.06-.07-.1-.1-.16,0,.01.01.03.02.04Z"/>
        <path class="cls-3" d="m91.19,795.91s.02-.02.02-.03c-.02-.01-.03-.02-.05-.03,0,.03.02.04.03.07Z"/>
        <path class="cls-3" d="m111.47,750.09c.3.26.62.51.94.74.01-.55-.42-.68-.94-.74Z"/>
        <path class="cls-3" d="m177.61,703.77s-.02.03-.02.04c.03,0,.07.02.1.03-.03-.02-.05-.05-.08-.07Z"/>
        <path class="cls-3" d="m191.75,712.01c-.08.08-.15.16-.23.22.08-.07.16-.14.24-.22,0,0,0,0,0,0,0,0,0,0,0,0Z"/>
        <path class="cls-3" d="m338.24,370.32c-.08-.06-.14-.1-.22-.15-.1-.08-.2-.15-.3-.21-.01.1-.02.21-.06.3.02,0,.03,0,.05,0,.17.01.35.03.53.06Z"/>
        <path class="cls-3" d="m434.71,467.7c-1.14-14.78-3.42-29.3-8.29-43.36-1.86-5.38-5.01-9.34-10.81-10.74-2.41-.58-4.74-1.51-7.16-2.01-2.6-.54-1.84-2.44-2.04-4.07-.24-1.9.87-2.32,2.36-2.53,1.35-.19,2.71-.35,4.01-.72,1.47-.41,2.22-1.64,2.33-3.07.11-1.46-.63-2.61-1.97-3.32-1.33-.7-2.66-.25-4.01-.07-.87.12-2.28.83-2.31-.79-.05-2.85-.1-5.77.47-8.53.37-1.82,2.85-1.59,4.28-2.46,1.27-.77,2.62-1.43,3.83-2.29,1.93-1.37,3.2-3.24,2.78-5.7-.39-2.28-2.08-3.54-4.18-4.35-2.94-1.13-6.07-1.1-9.51-1.53-.09-.1-.15-.22-.23-.33.79-1.37.74-2.72.59-4.07-2.2-2.23-5.02-2.57-7.82-2.84-.75-.07-1.51-.14-2.24-.24-2.17-.29-4.32-.5-6.47-.67-2.34-.19-4.68-.32-7-.37-3.22-.07-6.42-.02-9.6.16-.85.05-1.7.12-2.55.19-7.86.62-15.59,2.03-23.19,4.17-1.35.38-2.69.78-4.03,1.21-3.22,1.03-6.42,2.18-9.59,3.47-1.53.62-3.05,1.27-4.56,1.95-1.96.88-3.92,1.79-5.87,2.77-1.96.99-3.98,1.85-5.98,2.76-.14.06-.28.12-.42.19-.61.4-1.2.85-1.84,1.2-4.91,2.64-9.87,5.19-14.73,7.93-2.35,1.32-4.34,3.72-2.15,6,2.09,2.19,1.56,4.36,1.78,6.67.26,2.59.46,5.19.89,7.75.44,2.58,2.06,3.84,4.77,3.52.94-.11,2.01-.64,2.7.49,1.18,1.93-.39,6.21-2.62,7.15-2.62,1.11-5.38,1.98-7.86,3.33-14.12,7.68-17.14,20.12-11.28,34.12.79,1.88,2.23,3.21,4.05,4.21,4.58,2.52,7.44.02,10.23-3.66.13,0,.26.01.38.04,3.97,19.32,4.39,38.39,5.23,57.42.12.22.23.43.32.64.54,1.25.32,2.1-1.14,2.3-.22.03-.46.05-.74.05-1.22.76-2.43,1.53-3.65,2.29-.37.21-.75.43-1.12.64-.44.25-.88.5-1.31.75h0c-.98,1.11-2.17,1.87-3.65,2.16-1.6,1.46-3.18,2.95-5.19,3.86-.71.52-1.41,1.03-2.12,1.55h0c-3.18,2.76-6.36,5.51-9.53,8.28-4.32,3.78-6.68,8.51-7.06,14.26-1.83,27.97-1.74,55.97-1.45,83.98-.17-1.07-.34-2.14-.47-3.22-.16-1.27-.31-2.53-.45-3.8.16,3.86.43,7.71.84,11.56.05.62.11,1.24.13,1.86,1.21,38.74,4,77.39,7.23,116.01.99,11.87,1.57,23.78,2.34,35.67h0c.06,1.48.13,2.95.19,4.43.77,2.46.6,4.98.55,7.5h0c.01.53.03,1.06.04,1.59.02.71.04,1.42.06,2.13-.13-.01-.26-.02-.4-.02.14.1.28.2.43.28.84,5.85.77,11.74.75,17.62l.13.19.05.08-.05.1-.1.19c.64,2.01.57,4.08.53,6.15,0,.12.02.24.02.36.33,4.76.65,9.51.98,14.27h0c-.01.12,0,.25-.05.37-.06.16-.09.33-.1.5.1-.08.21-.15.32-.24.6,2.31.49,4.69.61,7.05.02.03.03.06.05.09.65,1.16.56,2.43.53,3.69h7.45c-.03-.65-.07-1.3-.1-1.95-.11-.28-.16-.52-.18-.74-1.38-5.43-1.42-11.04-1.79-16.57-1.18-17.47-1.88-34.97-3.09-52.44-1.78-25.64-3.91-51.26-5.74-76.89-1.48-20.69-2.54-41.4-3.31-62.13-1.15-31.06-.49-62.09.67-93.14.24-6.43,2.21-11.39,7.41-15.75,12.77-10.71,26.53-18.82,43.05-22.61,15.79-3.62,31.41-7.4,47.79-6.42,5.01.3,9.61,1.02,12.83,5.4-.44,1.3-1.62.98-2.49,1.08-17.9,2-34.76,8.24-52.08,12.63-1.64.42-3.2,1.34-4.67,2.25-1.51.93-2.18,2.41-1.55,4.18.61,1.71,1.97,2.49,3.73,2.57,1.79.08,3.43-.57,5.05-1.17,11.57-4.3,23.35-7.68,35.68-8.92,4.46-.45,8.91-.74,13.39-.48.69.04,1.61-.14,1.92.74.32.88-.45,1.39-1.02,1.78-4.1,2.81-8.21,5.59-13.25,6.49-8.76,1.56-17.01,4.53-24.84,8.77-2.22,1.2-3.68,2.76-2.88,5.33.86,2.75,3.34,2.86,5.56,2.38,3.02-.66,5.99-1.63,8.88-2.72,5.11-1.93,10.21-3.89,15.18-6.13,3.23-1.46,6.44-1.63,9.81-1.16,2.09.29,3.93.92,4.31,3.35.38,2.38-.69,4.13-2.7,5.26-3.71,2.09-7.78,3.25-11.83,4.42-5,1.44-10.04,2.77-15.03,4.26-1.77.53-3.5,1.28-5.17,2.1-2.17,1.06-4.98,1.92-4.06,5.2.89,3.14,3.46,3.44,6.31,3.05,4.43-.6,8.87-1.15,13.32-1.53,2.96-.26,5.96-.33,8.93-.24,1.72.06,3.44.43,3.71,2.82.27,2.37-.58,3.74-2.83,4.46-5.71,1.85-11.67,2.34-17.53,3.35-9.78,1.68-19.27,4.8-29.2,5.76-3.93.38-6.2,3.01-6.4,6.6-.39,7.16-.62,14.4-.49,21.5.23,12.37.23,24.79,1.19,37.16,1.52,19.72,1.23,39.49.71,59.23-.83,31.39,2.25,62.5,5.69,93.62,1.49,13.44,2.2,26.98,3.23,40.47.29,3.71.48,7.42.72,11.13.11,1.23.61,2.45.09,3.69h7.45c0-1.11-.02-2.21-.03-3.32,0-.14,0-.27,0-.41-1.69-13.37-2.13-26.83-2.98-40.26,0,0,0,0,0,0-.22-.17-.24-.36-.05-.56.01-.1.04-.18.06-.27-.05,0-.11,0-.16.01-.56-1.41-.52-2.9-.45-4.39,0-.04,0-.09,0-.13-.01-.26-.02-.53-.03-.79,0-.19-.01-.37-.02-.56-.64-5.42-1.3-10.84-1.91-16.26-2.59-23.33-4.99-46.68-4.59-70.21.38-22.11.93-44.22-.32-66.32-.66-11.66-1.16-23.32-1.35-35-.05-3.05.9-4.03,3.88-4.19,17.07-.93,33.67-4.31,50.02-9.28,16.6-5.05,33.07-10.54,49.96-14.59,5.41-1.3,8.38-5.5,8.64-11.19.24-5.24-.23-10.46-1.02-15.6-5.15-33.43-6.88-67.17-9.48-100.83Zm-137.59-18.44c-1.44,2.42-2.9,4.84-4.39,7.33-4.65-5.82-4.34-15.7.52-21.07.27.31.53.61.8.92-.27,3.79-1.06,7.7,3.08,10.21,1.08.65.51,1.74-.01,2.61Zm38.93-69.83h0c2.41-1.42,5.03-2.3,7.75-2.91,12.86-5.54,26.43-6.18,40.14-5.65,6.07.24,12.15.61,18.06,2.2-1.2,4.91-.39,5.97,5.1,7.04-31.22,10.5-63.72,11.04-96.28,11.95,8.07-5.04,16.24-9.65,25.24-12.62Zm-4.47,19.6c9.28-.66,18.54-1.58,27.81-2.36,12.74-1.06,25.43-2.46,37.79-5.93,2.16-.61,2.71-.12,2.66,2.15-.14,6.36-.05,6.31-6.17,7.75-5.43,1.27-10.91,2.41-16.23,4.04-9.57,2.93-19.35,2.66-29.15,2.17-5.58,0-11.17,0-16.75,0-1.57,0-3.3,0-2.67-2.27.54-1.97-1.68-5.24,2.73-5.56Zm-24.4,6.48c-.15.26-.46.44-1.44,1.33,0-2.62,0-4.51,0-6.41,0-1.59,1.11-1.25,2.08-1.23,3.84.11,7.68.15,11.51.32.93.04,2.63-.69,2.53,1.12-.11,1.9.58,4.91-1.03,5.45-1.93.65-4.92,1.5-6.73-.93-2.76-3.72-4.69-3.68-6.92.34Zm7.69,8.12c1.63-.39,3.45-.1,5.17.1.8.09.69,1.01.42,1.52-.68,1.32.2,3.47-2.07,3.94-1.33.28-2.67.57-4.36.94,0-1.29-.11-2.29.03-3.25.17-1.13-.76-2.88.81-3.25Zm-9.21,24.08c-.37-3.42,2.45-6.45,9.51-9.89-2.29,4.23-3.94,5.9-9.51,9.89Zm124.83,151.65c-8.78,2.07-17.33,5.1-26.01,7.62-14.03,4.08-27.81,9.08-42.2,11.86-8.65,1.67-17.4,2.66-26.18,3.38-2.34.19-3.32-.21-3.14-2.86.26-3.83.13-7.69.02-11.53-.06-1.88.62-2.45,2.49-2.79,14.26-2.6,28.49-5.34,42.72-8.09,2.32-.45,4.57-1.24,6.55-2.55,4.62-3.08,5.45-7.41,2.93-14.65-1.74-2.5-4.51-3.55-7.22-4.87,3.27-1.5,6.36-2.91,9.44-4.33,6.84-6.42,7.41-10.98,2.3-18.42-2.74-1.13-4.13-2.48-.72-4.58,2.4-3.17,3.61-6.52,1.17-10.2-1.45-2.18.55-2.09,1.57-2.64,3.84-2.09,4.36-4.24,1.9-8.03,2.87-1.09,5.58.9,8.42.44,2.05-.33,2.57.65,2.37,2.54-.2,1.84-.23,3.7-.22,5.55.03,4.98,2.66,9.03,7.07,10.75,1.71.67,3.54,1.03,5.31,1.54.45,0,.9-.01,1.34-.02.66,0,1.32-.02,1.97-.05,2.18-.1,3.53-1.19,3.57-3.42.04-2.22-1.23-3.46-3.4-3.6-2.35-.15-4.71-.14-6.86-1.31-1.04-.57-2.02-1.39-1.72-2.58.45-1.79,1.5-.03,2.28-.09,1.64-.14,3.14-.65,3.46-2.24.54-2.72,1.46-5.6-.74-8.12-.65-.8-.7-1.6.03-2.38,2.42-1.5,4.83-3.03,7.27-4.51,1.77-1.08,3.36-2.25,2.73-4.68-.64-2.47-2.58-2.71-4.68-2.62-4.79,2.92-9.07,6.76-14.94,7.69-2.83.45-5.54.62-9.37-.17,4.95-3.48,9.36-5.66,14.45-6.44,4.11-.63,4.95-2.03,3.77-6.07-2.91-2.07-5.84-.71-8.75-.03-1.53.36-3.01.88-4.52,1.32h0c-2.02,1.13-4.1,2.16-6.05,3.4-4.16,2.64-6.97,6.13-6.71,11.41-4.24-4.38-9.34-6.47-15.5-6.77-13.87-.68-27.5.58-40.96,3.87-.27.07-.54.15-.81.22-.1.03-.2.06-.3.08-6.29,1.72-12.58,3.46-18.88,5.13-2.05.54-3.37-.42-3.68-2.49-.21-1.42-.18-2.89-.28-4.8,7.35,3.39,14.45,1.85,21.55.98,10.63-3.28,19.81-9.43,29.36-14.99,1.85,7.78,6.41,10.44,14.64,8.74,6.72-1.39,11.52-6.05,16.75-9.96.58-.43,1.11-1.74.87-2.3-1.39-3.29.86-3.07,2.93-3.55,3.49-.8,7.55-.09,10.11-3.7.66-.93,1.75.21,2.64.37h0c1.24-.46,2.32-1.17,3.22-2.16.6-2.77-.68-4.59-3.07-5.67-12.32-5.51-24.73-7.24-37.25-.61-1.19.63-2.14,1.37-3.75.84-21.9-7.34-39.83.36-55.87,14.97-.73.66-1.27,1.52-2.53,3.04-.4-4.43-.74-7.89-1.03-11.36-.82-9.9-2.23-19.72-4.37-29.42-.61-2.77-.4-5.1,1.73-7.14,1.43-1.37,2.56-3.08,4.11-4.28,8.65-6.71,13.59-15.62,15.59-26.22.42-2.24,1.75-1.95,3.24-1.92,9.31.2,18.62.27,27.92.59,9.48.32,18.38-2.48,27.4-4.7,3.61-.89,7.25-1.66,10.86-2.55,1.65-.41,2.34-.17,2.54,1.83.62,6.39,2.02,8.53,8.37,9.55,8.12,1.3,11.7,5.71,13.83,13.46,3.74,13.64,5.4,27.47,6.39,41.45.36,5.06,1.21,10.1.84,15.2,0,0,0,0,0,0,0,0,0,0,0,0,0,0,0,0,0,0,.26,1.08.48,2.27.51,3.38.75,5.97.77,12.01,1.39,18,.79,7.63,1.28,15.29,1.91,22.94-.43.86.29,2.52-1.63,2.34-3.78-.34-5.95,3.31-9.38,3.85-.08.01-.16.03-.24.04-.53.42-1.07.85-1.6,1.27-2.44.64-4.76,1.56-6.89,2.92-4.29,1.54-8.69,2.86-12.35,5.72-1.49,1.16-2.85,2.5-2.31,4.68.55,2.23,2.4,2.72,4.27,2.93,5.29.58,10.61.84,15.81,2.14,1.91.47,3.44-.48,4.01-2.43.63-2.16-.39-3.66-2.37-4.36-1.5-.53-3.12-.78-4.7-1.06-1.14-.2-1.09-.73-.61-1.51,6.23-1.81,12.21-4.17,17.43-8.15h0c2.01-.51,1.57,1.21,1.66,2.06,1.22,12.09,3.56,24.04,4.42,36.18.52,7.35-.44,8.02-7.65,9.71Zm-77.53-98.99c.32.92-.03,1.39-.74,1.8-9.41,5.55-18.74,11.34-30.27,11.09-1.36-.03-2.73-.11-4.07-.3-3.39-.48-3.66-1.15-1.7-3.9,8.56-12,29.55-20.49,44.94-17.68-2.17,1.32-3.76,2.21-5.26,3.23-2,1.36-3.88,2.89-2.89,5.75Zm29.85,2.29c-3.57,2.95-7,4-11.11,3.55,2.27-3.23,5-4.13,11.11-3.55Zm-3.75-11.29c3.53-3.56,13.74-4.33,20.07-1.41-6.96,1.12-13.32,1.9-20.07,1.41Z"/>
        <path class="cls-3" d="m545.78,437.01s.02-.05.03-.07c-.02,0-.04,0-.07,0,.02.02.02.04.04.07Z"/>
        <path class="cls-3" d="m621.77,342.46c-.21-.15-.41-.27-.62-.41-3.64-2.46-7.44-4-11.34-4.92-1.88-.32-3.78-.59-5.64-.93-5.82-.57-11.8-.13-17.78.42-4.14.53-8.2,1.29-12.14,2.64-1.69.59-3.35,1.27-4.99,2.04-.83.39-1.66.8-2.48,1.24-8.2,5.63-14.28,13.47-21.12,20.82-.03,0-.06-.01-.08-.02-2.35-4.12-4.42-7.74-6.49-11.36-.1-.15-.2-.3-.3-.45-.26-.4-.53-.8-.79-1.21-.13-.2-.26-.4-.4-.61-6.25-10.15-16.6-14.13-27.11-17.61-8.57-2.84-16.62.79-21.18,8.61-5.34,9.15-6.86,18.97-5.9,29.38,2.77,30.02,17.09,54.18,37.87,75.1,1.36,1.37,2.86,2.62,4.54,4.13-.02.11-.05.21-.1.32-1.96.68-3.52,1.2-5.04,1.77-11.83,4.44-18.34,14.7-17.34,27.28.17,2.13.69,4.14,1.92,5.94,1.22,1.78,2.99,2.57,5.37,2.45-1.41,2.94-2.51,5.43-3.79,7.83-5.67,10.63-8.41,21.9-7.88,33.98.2,4.58-.01,9.18-.04,13.78-.21,31.89.18,63.8-3.95,95.52,0,.09,0,.18.01.28.03.69.05,1.38-.04,2.06-.05.39-.14.78-.28,1.16-.05.16-.12.32-.22.48-.99,12.11-2.01,24.22-2.98,36.33-2.31,28.81-4.61,57.62-6.91,86.43.02.88.05,1.77.03,2.65-.02,1.13-.11,2.26-.34,3.38-.07.32-.14.64-.23.96,0,0,0,0,0,0,.01.99.09,1.98.04,2.96-1.06,20.48-1.15,40.98-.61,61.47.15,5.58-.65,11.12-.12,16.68.22,2.32,1.42,4.14,4.05,3.9,2.35-.21,3.34-1.92,3.34-4.19,0-3.85,0-7.7-.09-11.55-.53-26.09-.66-52.16,1.37-78.2,1.61-20.67,3.14-41.35,4.82-62.02,1.52-18.69,3.11-37.37,4.83-56.03,2.01-21.76,4.1-43.51,4.04-65.41-.05-19.38.42-38.75.6-58.13.04-5.04,1.12-9.79,2.97-14.47,6.33-15.94,15.25-30.39,25.73-43.84,4.37-5.61,8.98-11.35,16.31-13.61.56-.17,1.23-.58,1.47-1.07,2.01-4.03,6.17-4.33,9.96-6.25.01,0,.03.02.04.03-.77,4.69-2.86,8.19-5.17,11.48-6.53,9.3-12.12,19.41-22.03,25.87-2.17,1.41-3.8,3.56-5.21,5.79-2.39,3.8-2.18,6.57.4,10.31,1.44,2.08,3.04,2.85,5.34,1.58,1.4-.77,2.83-.86,4.8-.75.05.08.11.13.16.22.08.16.12.31.16.45-.87.64-1.39,1.03-1.92,1.42-4.19,3.13-8.45,6.21-11.02,10.93-2.86,5.27-.59,9.46,5.35,9.96,1.84.15,3.72.07,5.92.04.32.19.5.43.55.74-1.22,1.56-2.24,2.8-3.11,4.11-1.76,2.62-3.44,5.39-1.49,8.59,1.94,3.19,5.19,3.02,8.33,2.71,3.88-.38,7.48-1.78,11.01-3.35,11.37-5.07,22.07-11.37,32.72-17.77,1.11-.67,2.03-1.82,3.59-1.75.68,7.86.38,15.42-4.85,21.89-.5,1.24-1.39,2.14-2.48,2.88-2.85,4.05-5.83,8.08-7.29,12.86-5.07,16.61-9.47,33.29-8.89,50.98.45,13.75-.18,27.53-.33,41.29,0,.66,0,1.32,0,1.97,0,1.88,0,3.76,0,5.64,0,1.34,0,2.67,0,4.01,0,1.2,0,2.39,0,3.59,0,.82,0,1.64,0,2.46,0,1.42,0,2.84,0,4.25,0,1.89,0,3.78,0,5.67,0,.95,0,1.9,0,2.85v.85c.68,6.04,1.41,12.07,2.04,18.11,1.21,11.58,2.99,23.12,2.63,34.82.02.14.03.27.04.41.09.73.15,1.46.21,2.19.17,2.12.22,4.24.15,6.36-.03,1.08-.1,2.16-.19,3.24-.07.79-.14,1.59-.24,2.38,0,0,0,0,0,0,0,0,0,0,0,0,.07,1.35.23,2.7.19,4.05-.67,23.75.22,47.43,2.64,71.06.93,9.1,2.07,18.19,3.11,27.28-.02.01-.03.03-.05.04.02.01.04.02.05.03.69,4.97,1.39,9.93,2.08,14.9.29,1,.57,1.99.86,2.99h8.2c-.22-.85-.43-1.7-.65-2.56-.03-.14-.07-.27-.1-.41-1.31-.67-1.36-1.93-1.51-3.16-.38-3.07-.88-6.12-1.16-9.19-.86-9.33-2.91-18.53-3.32-27.91-.02-.04-.04-.09-.06-.13-.33-.7-.49-1.43-.56-2.17-.06-.71-.04-1.44.01-2.17-1.9-19.05-2.83-38.14-2.49-57.29.36-20,.45-39.98-2.08-59.89-.98-7.73-2.43-15.44-2.3-23.29-.42-1.92-.61-3.85-.69-5.78-.04-1.01-.06-2.02-.04-3.03.02-1.46.07-2.92.12-4.38.05-1.26.09-2.53.1-3.79.02-2.03-.05-4.06-.04-6.1,0-1.79.07-3.57.31-5.35-.01-.14-.02-.28-.04-.42-.04-.37.16-.71.27-1.06,0,0,0,0,0,0h0s0,0,0,0c.02-11.53.34-23.06,0-34.58-.49-16.49.96-32.62,5.92-48.46,2.39-7.65,5.11-14.79,10.61-20.92,4.92-5.49,7.06-12.44,7.17-19.89.06-3.97.09-7.94.05-11.91-.02-2.46,1.34-5.42-1.85-6.96-3.15-1.51-4.14,1.69-6.08,2.95-13.75,8.93-27.72,17.47-43.02,23.55-1.18.47-2.44,1.02-4.24.61-.07-.14-.12-.28-.15-.42,4.31-4.59,7.33-10.07,13.03-12.32,11.24-4.45,21.83-10.13,32.28-16.12,3.76-2.15,3.84-4.2.48-7.12-.5-.55-1-1.1-1.51-1.64,2.3-1.54,4.31-3.61,7.64-2.06,1.53.71,3.12-.43,3.71-2.23.58-1.75.05-3.2-1.49-4.17-2.32-1.45-4.83-1.82-7.49-1.1-.6-.25-1.46-.06-1.69-.97,2.27-1.97,4.57-3.99,4.64-7.29.12-5.5-3.19-9.16-7.22-12.49,0-.11,0-.22.04-.34.94-.57,1.72-1.02,2.46-1.5,5.11-3.3,7.01-7.14,5.44-10.96-1.48-3.6-4.76-4.53-11.01-3.39-4.62.84-8.83,2.94-13.41,4.19,1.32-11.36,1.27-11.52-4.48-14.1,15.38-10.53,31.17-20.15,44.54-32.99.17-.16.35-.32.52-.48.72-.67,1.43-1.34,2.15-2.01.13-.12.25-.23.38-.35,1.67-1.8,3.34-3.61,5.01-5.41.1-.12.2-.25.3-.37,1.32-1.61,2.64-3.23,3.96-4.84.02-.02.03-.04.05-.06.81-1.24,1.6-2.5,2.42-3.73,9.95-14.77,9.26-27.89-2.18-41.44Zm-109.01,140.64c-4.4-6.2-2.26-12,.55-17.55,3.5-6.92,10.26-8.25,17.96-9.64-6.77,9.27-12.81,18.01-18.51,27.2Zm39.39,24.88c-4.63,4.31-10.76,4.05-16.76,4.05,8.87-9.79,20.11-15.78,32.09-20.62,1.08-.63,2.35-.63,3.5-1.06.68-.25,1.85-.41,1.73,1.07-7.37,4.88-14.09,10.54-20.56,16.56Zm34.65-25.59c-1.93,1.29-3.84,2.61-5.79,3.85-.63.4-1.43,1.38-2.06.02-.45-.99-.4-1.87.85-2.38,1.79-.73,3.54-1.55,5.31-2.33.12.3.33.44.56.51-.1.06-.2.12-.29.19-1.66.97-3.56,1.53-4.99,2.89,2-.69,3.62-2.06,5.45-3.04.33.07.69.08.96.29Zm-3.33-7.9c-4.17,2.11-8.12,5.38-13.44,3.82-1.22-.36-2.32.69-3.42,1.26-7.92,4.15-16.14,7.48-25.58,9.58,3.01-6.74,7.42-10.81,13.49-13.12.82-.31,1.55-.7,2.47-.3.55.24,1.49.56,1.76.31,2.87-2.63,7.01-3.55,9.37-6.78.96-1.32,8.25-6.01,9.78-5.9.69.05.7.55.89.96.86,1.92,2.35,2.99,4.3,3.82,3.28,1.39,3.56,4.73.39,6.34Zm-18.49-18.76c6.64.88,11.89-3.58,18-4.67.68-.12,1.39-.02,2.98-.02-8.41,6.14-17.84,8.11-26.34,12.36,1.54-2.31,3.07-4.62,4.63-6.92.2-.3.52-.79.73-.76Zm56.5-81.32c-2.7,5.65-6.78,10.36-10.91,15-10.76,12.07-23.74,21.42-37.14,30.24-6.9,4.54-13.78,9.1-20.67,13.65-1.38,1.24-2.86,2.32-4.6,3.03-.8,1.04-1.8,1.79-3.06,2.19-.69.97-1.61,1.49-2.83,1.46-2.78-.07-4.28,1.27-3.99,4.07.19,1.81-.83,1.71-2,1.74-1.54.04-2.97-.36-4.24-1.19-1.45-.94-3-1.83-4.23-3.03-21.75-21.1-36.23-45.78-37.59-76.87-.32-7.4,1.64-14.21,5.34-20.59,3.33-5.74,6.66-7.11,13.04-5.22,11.59,3.43,21.34,9.18,26.74,20.69,1.25,2.67,2.97,5.17,4.75,7.54,3.17,4.23,6.81,4.5,10.76.91,1.65-1.5,3.09-3.22,4.61-4.86,2.35-2.56,4.67-5.15,7.03-7.7,6.82-7.36,15.26-11.15,25.26-11.9,5.83-.44,11.63-.86,17.47-.29,17.99,1.76,21.83,19.5,16.27,31.14Z"/>
        <path class="cls-3" d="m240.3,428.53c-4.38-1.42-8.85-.98-13.27-.28-10.98,1.74-21.31,5.57-31.4,10.11-1.36.61-2.34.8-3.62-.4-1.42-1.34-.36-2.22.13-3.22,2.44-5.05,4.22-10.29,4.89-15.9,1.21-10.17-1.55-19.36-6.84-27.94-.19-.22-.38-.43-.57-.65-1.42-1.63-2.84-3.25-4.27-4.88-.01-.02-.02-.04-.03-.06-.01-.02-.02-.04-.03-.06-.19-.38-.37-.76-.56-1.15-.18-.2-.36-.41-.54-.61-.09-.07-.18-.14-.27-.21-.63-.49-1.25-.98-1.88-1.47-.05-.13-.12-.24-.18-.36-.29-.52-.7-.9-1.28-1.13-.03-.01-.05-.03-.08-.04-2.03-2.55-4.72-4.32-7.28-6.25-.03-.03-.06-.06-.08-.1-.62-.77-1.34-1.4-2.25-1.77-.18-.07-.34-.15-.53-.21-.42-.71-1.77-1.7.49-1.59,2.23.11,5.27,1.36,5.75-2.07.5-3.55-2.7-3.49-5.13-3.8-1.56-.2-1.68-.99-.69-1.91,2.31-2.16,4.97-3.77,8.27-3.56,2.62.17,4.31,1.59,4.87,4.29.56,2.74.57,5.46-.41,8.06-1.13,2.99-.25,4.6,2.68,5.11.12.02.22.05.35.07.94-.61,1.76-1.25,2.29-2.34,3.57-7.33.86-16.64-6.07-20.66-1.01-.17-2.01-.29-3.02-.35-1.12-.07-2.24-.06-3.36.04-.81.07-1.63.2-2.44.38-4.14,1.96-8.07,4.17-9.89,8.76.04.82.07,1.63.11,2.45.04.93.08,1.87.12,2.8-.18-.02-.37-.05-.55-.07-.16-.02-.32-.04-.48-.06-.17-.02-.34-.04-.51-.06-.27-.16-.54-.31-.8-.47-.15-.11-.31-.22-.47-.33-.39-.27-.79-.53-1.22-.74-.33-.16-.66-.29-1.02-.39-.3-.08-.61-.15-.93-.18,0,0-.01,0-.02,0-2.31-1.47-4.86-2.31-7.53-2.83-.02-.02-.05-.03-.07-.05-.11-.08-.21-.15-.32-.23-.22-.16-.44-.31-.66-.47,0,0,0,0,0,0-2.03-.33-4.07-.67-6.1-1.01-1.22-.78-2.58-.74-3.94-.69-2.19-.95-4.49-.8-6.79-.67-1.49-.38-2.98-.35-4.47-.01-.5.01-.99.02-1.49.04-.25,0-.5.02-.75.02-3.57-.17-7.06.31-10.49,1.31-2.2.43-4.57-.43-6.66.85-2.7.44-5.18,1.43-7.42,3.03-.67.28-1.49.4-2,.86-2.44,2.2-4.39,1.79-6.91-.29-3.53-2.91-7.85-4.05-12.52-3.68-6.38.5-10.45,4.95-10.72,11.98-.21,5.43.68,9.79,9.16,10.12.18,0,.35.28.72.58-7.22,11.47-11.3,23.8-9.03,37.6,2.26,13.78,8.67,24.89,20.88,32.23.23.04.46.09.67.16,1.2.37,2.17,1.16,3.12,1.97.96,1.03,3.49.37,3.18,2.71-.31,2.28-2.22,2.64-4.1,2.92-1.2.18-2.39.42-3.59.63-12.58,3.97-24.54,9.87-37.79,12.61,3.06-5.99,17.95-12.73,29.41-13.55,2.78-.95,5.62-.6,8.45-.46,3.65.18,4.57-1.14,3.34-4.69-.79.1-1.37-.31-1.95-.75.02-.03.04-.07.05-.1-.06,0-.11,0-.17.01-18.6-.7-34.98,4.28-47.63,18.72v3.73c1.82,2.63,4.43,3.27,7.45,3.07,3.88-.25,7.62-1.16,11.25-2.42,8.79-3.05,17.53-6.24,26.31-9.33,1.69-.59,3.45-1,5.77-1.63.11.09.2.2.27.33-3.54,12.04-2.73,23.4-.35,34.81,3.21,15.42,9.75,28.85,23.74,37.05,18.29,10.72,37.68,11.53,53.4-5.72,1.99-2.19,4.2-4.19,6.3-6.27.35-.07.66-.17.96-.29,3.9-1.47,3.98-6.05,6.31-8.81,2.7-3.21,4.94-6.83,7.26-10.35,2.78-4.21,6.6-7.04,11.26-8.73,2.85-1.03,4.67-1.27,5.99,2.91,3.17,10.03,6.84,19.88,9.22,30.17,3.65,15.74,3.54,31.47.42,47.27-.62,3.13-1.34,6.39,1.1,9.23.65.75.24,1.65.11,2.5-3.23,21.75-3.81,43.74-6.09,65.58-1.37,13.06-2.69,26.13-5.19,39.05-.32,5.71-1.37,11.33-2.33,16.95-.01.07-.02.13-.03.2-.28,3.04-.42,6.11-1.33,9.05,0,0,0,.01,0,.02-.05.7-.1,1.4-.16,2.1-.02,0-.04,0-.07,0,.02.02.04.04.06.06-.26,3.52-.45,7.04-1.29,10.48-.01,0-.03,0-.04.01,0,.02.02.04.02.06-.56,6.89-1.12,13.78-1.68,20.68.05,2.11.15,4.21-.38,6.28-.05.18-.09.37-.15.55-.05.96-.09,1.92-.14,2.89-.01.5-.03.99-.04,1.49.04,5.74.06,11.47-.55,17.18.07.3.12.59.16.89.16,1.13.1,2.27-.16,3.4-.01.05-.02.1-.03.15,0,.49,0,.99,0,1.48.02.16.02.32.03.48.4,4.42.31,8.84-.15,13.25-.02.15-.02.29-.04.44-.01.5-.03,1-.04,1.5,0,.04,0,.09,0,.13,0,.15,0,.31-.01.46,0,.06,0,.11,0,.17.3,1.79-.62,4.02,1.69,5.11,1.91.89,3.18-.22,4.31-1.57,0,0,0,0,0,0-.08-.16-.08-.3,0-.42.03-.05.07-.1.13-.14.15-1.97.46-3.94.42-5.91-.32-17,.03-33.98,1.26-50.93,2.14-29.45,7.51-58.5,11.05-87.78,0-.03,0-.06,0-.09-.02-.32-.04-.64-.05-.96-.02-1,.1-1.99.61-2.92,0,0,0,0,0,0,.3-4.2.51-8.41.92-12.6,2.02-20.22,2.15-40.63,6.25-60.63.28-1.35.18-2.78-.95-3.33-2.05-1-1.57-2.41-1.29-4.02,1.81-10.41,3.06-20.84,2.13-31.45-1.25-14.17-4.77-27.79-9.57-41.13-.41-1.15-1.06-2.39-.93-3.52.9-8.36-3.08-12.39-11.39-11.22-1.81.25-3.6.75-5.72,1.25-.21-.09-.4-.2-.53-.36,2.11-6.52,3.17-12.8,4.09-19.1,0-.3.01-.6.02-.9.01-.7.03-1.4.04-2.09.02-.04.05-.07.07-.11-.02,0-.05,0-.07-.01-.03-1.44-.06-2.89-.09-4.33,0-.04-.01-.08-.02-.12-.21-1.4-.43-2.81-.64-4.21,0-.05-.02-.1-.02-.15-1.17-2.27-.67-3.75,1.7-5.04,3.7-2.02,7.4-4.01,11.27-5.68,6.71-2.9,13.42-5.79,20.07-8.81,2.83-1.29,5.42-3.02,7.25-5.65,2.81-4.04,1.63-7.79-3.03-9.3Zm-164.95-53.81c-.14-4.78,1.68-7.15,5.78-7.3.61-.02,1.24,0,1.85.09,2.92.47,7.21,1.13,7.27,3.64.04,2.17-3.66,4.56-5.98,6.52-.63.53-2.29-.17-3.47-.31-2.05-.36-5.31,1.74-5.44-2.65Zm4.15,21.64c3.31-7.51,8.32-13.74,13.95-19.56.17-.14.35-.26.52-.4.62-.49,1.25-.96,1.89-1.41,1.21-.86,2.45-1.65,3.7-2.39,9.77-5.72,20.67-7.72,32.24-7.41,12.69.34,24.34,4.09,34.86,11.22.7.48,1.31,1.09,1.97,1.64,2.55,1.63,5.15,3.22,6.73,5.94,3.06,1.55,4.71,4.63,7.27,6.72.04.04.08.08.13.11,4.2,6.05,7.82,12.32,8.44,19.91.66,8.05-1.23,15.48-4.92,22.57-.84,1.62-2.19,2.18-3.72,2.76-.72.27-1.42.59-1.96,1.01-.54.41-.93.93-1.07,1.59-.11.5-.08,1.08.15,1.77.58,1.8-.78,2.45-1.71,3.34-9.17,8.81-20.56,12.77-32.8,14.51-14.69,2.09-29-.08-42.79-5.24-26.17-9.79-31.67-36.75-22.87-56.69Zm116.5,88.33c-1.93,8.5-4.68,16.65-11.25,22.99-3.5,3.37-5.37,7.97-8.02,11.98.1.91-.5,1.33-1.2,1.67-.53,1.17-1.37,2.07-2.46,2.73-3.19,3.98-6.8,7.56-10.73,10.78-11.87,9.72-24.62,7.77-37.09,1.85-12.66-6.01-19.68-16.72-23.31-30.14-4-14.78-4.5-29.31.97-43.79.54-1.43.63-3.13,3.17-2.36,20.5,6.25,40.83,5.81,60.91-1.9,2.26-1.28,4.52-2.56,6.78-3.84,4.61-3.3,9.18-6.64,12.64-11.22.81-1.07,1.46-1.55,2.49-.24,3.06,3.87,4.64,8.41,6.01,13.05.36,1.23-.38,1.84-1.23,2.4-1.03.68-2.11,1.29-3.11,2.03-1.53,1.13-1.89,2.71-.86,4.24,1.06,1.59,2.65,1.65,4.25.66.83-.52,1.63-1.09,2.73-1.84,2.01,7.24.84,14.14-.7,20.94Zm37.5-46.6c-6.41,2.92-12.89,5.68-19.36,8.49-3.86,1.68-7.71,3.37-11.26,5.66-1.6,1.03-2.45,1.49-3.34-.97-2.58-7.14-2.74-7.11,4.34-9.96,9.2-3.7,18.53-6.93,28.54-7.59,1.48-.1,2.97-.02,4.45.03.44.01.88.2,1.51.36-1.09,2.27-3.07,3.15-4.89,3.98Z"/>
        <path class="cls-3" d="m988.02,792.18c-.8-12.72-1.68-25.43-2.52-38.14-.21-.41-.31-.84-.34-1.27-.07-.33-.13-.66-.18-.99-.23-1.67-.19-3.37-.16-5.06,0-.14,0-.29,0-.43-.25-1.71-.55-3.42-.73-5.14-.91-8.64-1.76-17.28-2.68-25.92-2.19-20.48-5.05-40.9-6.36-61.47-.92-14.5-1.69-29-2.53-43.5-1.22-21.08-4.09-41.99-6.25-62.98-2.7-26.29-5.67-52.55-9.77-78.66-2.45-15.66-7.46-30.06-19.86-40.93-6.54-5.74-13.26-11.23-20.57-15.97-5.61-3.64-11.66-6.09-18.36-6.64-15.55-1.27-28.27,3.89-37.47,16.79-1.67,2.34-3.01,4.94-2.01,7.99.6,1.82,1.8,2.99,3.88,2.74,1.88-.23,3.04-1.44,2.97-3.23-.08-2.08.9-3.59,2.04-5.03,7.35-9.31,17.21-13.63,28.78-12.31,17.48,2,28.82,14.31,40.45,25.84.14.08.28.16.42.25.85.55,1.5,1.26,1.74,2.29.02.08.04.16.06.25,2.72,2.33,4.11,5.52,5.44,8.7,4.24,10.18,5.81,20.99,7.29,31.8,3.08,22.38,5.76,44.8,8.02,67.27,1.77,17.66,4.28,35.24,5.44,52.96,1.21,18.46,2.1,36.94,3.38,55.4,1.75,25.27,5.45,50.34,7.94,75.54,3.92,39.66,6.25,79.42,8.41,119.46-2.04-.46-4.01-1.05-5.49.85-1.57,2.01-.22,3.72.55,5.49.02.02.04.04.06.07.9,1.12,2.03,2.1,2.25,3.64h9.69c.91-1.04.36-2.37.68-3.53.02-.07.03-.13.05-.2h0c-.24-2.58-.55-5.16-.71-7.75-1.2-19.39-2.35-38.79-3.56-58.19Z"/>
        <path class="cls-3" d="m925.86,605.39c3.83-.34,7.65-.67,11.52-.55,4.41.13,6.38-2.11,5.91-6.55-.29-2.71-.81-5.4-1.33-8.07-6.38-32.26-16.11-63.65-24.52-95.39-3.58-13.5-7.86-26.77-12.43-39.96-.49-1.42-1.51-2.43-3.01-2.34-1.47.09-2.17-.44-2.78-1.69-.66-1.35-1.95-1.89-3.44-1.67-1.64.25-2.67,1.26-2.96,2.92-.28,1.6-.58,3.17-1.65,4.48-1.08,1.33-1.91,3.15-4.08,2.58-1.99-.52-2.48-2.34-2.8-4.05-.41-2.19-.49-4.45-.89-6.64-.36-1.95-1.42-3.44-3.6-3.73-2.24-.3-3.47.99-4.26,2.84-.49,1.14-.78,2.36-1.32,3.47-.46.96-.79,2.4-2.14,2.25-1.18-.14-1.73-1.42-1.97-2.47-.63-2.78-1.1-5.59-1.6-8.39-.91-5.03-4.35-6.34-8.19-3.08-1.71,1.45-3.44,2.9-5.53,3.74-3.11,1.25-6.25,2.46-9.72,1.23-1.91-.68-2.69-2.02-2.8-3.94-.18-3.03,1.15-5.32,3.55-6.95,1.48-1,3.19-.77,4.45.46,2.11,2.06,4.37,2.45,5.91-.13,1.45-2.44.43-4.81-2.08-6.31-4.1-2.45-9.32-2.19-12.97.63-4.25,3.28-6.86,10.94-5.38,15.78,1.27,4.17,6,7.6,10.78,7.88,5.51.33,10.45-1.4,15.21-4.37,1,2.76,1.3,5.51,2.67,7.91,2.74,4.82,6.51,6.38,11.49,4.08,2.15-.99,2.45.26,3.3,1.45,5.05,7.01,11.94,7.14,17.24.37.5-.64.71-1.58,1.73-1.84,1.88,3.64,3.56,7.35,4.79,11.27,7.35,23.54,13.24,47.49,20,71.2,2.47,8.66,4.51,17.43,6.53,26.22,2.1,9.14,4.33,18.26,6.2,27.46.32,1.59-.12,2.17-1.83,2.25-12.67.58-25.23,2.14-37.58,5.08-2.01.48-2.28-.21-2.42-1.9-.36-4.33-.89-8.64-1.35-12.96-1.82-17.02-3.64-34.05-5.46-51.07-.23-2.13-1.31-3.54-3.53-3.57-2.26-.03-3.4,1.47-3.57,3.53-.14,1.72-.03,3.48.2,5.19,2.48,19.2,4.65,38.44,6.47,57.72.16,1.75-.03,2.91-1.44,4.19-2.36,2.15-2.4,5.19.09,6.22,3.23,1.33,3.03,3.85,3.29,6.28,2.66,25.68,5.93,51.31,7.22,77.12,1.04,20.83,2,41.66,3.01,62.68-1.84-1.19-3.77-2.11-5.6-.29-2.56,2.56.17,4.74.84,7.18-6.57,1.49-13.08,2.27-19.64,2.56-16.53.74-33.03.01-49.53-.77-27.05-1.29-54.16-.03-81.18-2.22-15.5-1.25-30.72-3.99-45.59-8.6-2.29-.71-3.3-1.3-2.78-4.26,1.66-9.53,3.07-19.12,4-28.75,1.82-18.66,4.04-37.25,8.39-55.52.33-1.41.68-2.61,2.24-3.52,2.28-1.33,3.07-3.81,1.47-6.07-1.22-1.72-.94-3.22-.58-4.9,2.61-12.14,4.19-24.45,5.76-36.76,1.11-8.72,1.61-17.52,3.5-26.13.03-2.01-.01-4.02.84-5.92.62-8.06,2.29-15.95,3.88-23.85-.11-.87-.05-1.7.55-2.41.05-.44.11-.88.16-1.32.7-4.03,1.4-8.06,2.1-12.1.67-7.77.89-15.61,3.06-23.18.64-2.21.37-4.07-1.92-4.91-2.51-.92-4.07.46-4.79,2.77-.62,2-1.19,4.06-1.47,6.13-.73,5.41-1.11,10.87-1.96,16.26-2.55,16.17-5.27,32.32-7.92,48.47,0,0,0,0,0,0h0c-.15-.08-.29-.08-.44,0-1.71-4.45-5.75-4.82-9.53-5.02-16.98-.88-33.97-1.28-50.23-7.32-2.9-1.08-4.06-1.58-2.09-4.51,4.14-6.14,6.02-13.12,8.11-20.19,4.37-14.83,9.7-29.38,14.82-43.98,4.26-12.18,9.02-24.15,16.24-34.98,1.12-1.68,1.96-2.27,4.12-1.43,5.52,2.13,9.87-.17,11.48-5.86.57-2,1.21-4.31.75-6.22-1.56-6.54,2.15-9.11,7.36-10.86,1.29-.43,2.54-1.03,3.85-1.37,13-3.41,26.15-5.4,39.66-5.69,7.82-.16,13.78,2.7,19.63,7.24,2.49,1.93,4.13,3.96,5.02,6.95,1.68,5.63,4.41,10.78,8.07,15.39,9.15,11.54,22.94,11.72,32.38.37,3.58-4.31,6.48-9.1,8.77-14.21.95-2.13,1.67-4.41,2.11-6.7.47-2.48-1.19-3.8-3.29-4.77-1.71-.79-3.35-1.21-4.81.25-1.58,1.57-1.38,3.34-.11,5.03.74.99.29,1.96-.1,2.81-2.65,5.64-5.68,11.07-10.25,15.39-5.41,5.11-11.89,4.9-17.24-.26-2.35-2.27-4.27-4.89-5.6-7.83-2.23-4.93-4.23-9.96-6.33-14.95-2.75-2.03-5.51-4.05-8.26-6.08-2.51-1.52-5.02-3.03-7.53-4.55-9.38-1.58-18.8-1.48-28.16-.18-12.01,1.68-24.18,2.94-35.15,8.85-.61.33-1.8,1.3-1.9-.31-.09-1.57-2.6-3.46.28-4.76,2.89-1.31,5.3-3.23,7.45-5.47,2.95-3.07,3.09-6.56.27-9.65-2.61-2.85-5.51-5.63-9.34-6.54-14.5-3.46-28.6-3.17-40.25,7.55-18.94,17.42-29.31,39.4-32.28,64.81-2.23,19.07-.71,38.19.34,57.27.77,13.87,1.78,27.72,2.69,41.58.13.33.22.65.28.99.53,2.23.42,4.51.34,6.79.03.5.05.99.08,1.49.86,3.44.79,6.94.76,10.44l.17.2-.15.22c.75,2.05.64,4.17.57,6.29,1.28,12.99,1.73,26.02,2.16,39.05,1.44,44.31-3.22,88.33-6.64,132.4.1,3.25-.04,6.49-.62,9.69-.02,1.49-.05,2.98-.07,4.47,0,1,0,1.99-.01,2.99.55,7.35-.3,14.62-1.27,21.89-.33,2.46.55,4.34,3.04,4.72,2.62.39,3.84-1.43,4.08-3.79.62-6.17,1.57-12.33,1.49-18.55-.21-16.55,1.1-33.03,2.69-49.45,3.65-37.75,5.26-75.56,4.11-113.47-.31-10.17-.99-20.33-1.49-30.49,0,0,0,0,0,0-.27-1.31-.38-2.63-.41-3.94-.82-7.92-1.32-15.87-1.67-23.82-.64-7.79-1.36-15.57-1.91-23.37-1.4-20.07-2.85-40.13-2.48-60.27.46-25.33,8.43-47.78,25.02-67.24,9.43-11.06,21.04-14.63,34.92-12.88,2.92.37,5.61,1.25,7.75,3.26.89.83,3.4,1.4,1.79,3.22-1.35,1.53-2.96,3.98-5.51,2.75-2.06-1-3.68-1.97-5.62,0-1.98,2.02-.66,3.93.07,5.83,2.63,6.89,4.5,13.93,4.15,21.38-.09,1.91.75,4.65-1.26,5.46-2.07.84-3.79-1.39-5.26-2.85-3.75-3.72-6.17-8.36-8.76-12.88-1.15-2.02-2.78-3.4-5.17-2.44-2.46,1-2.38,3.22-1.87,5.4.62,2.65,1.49,5.26,1.88,7.94.32,2.16.56,4.53-1.82,6-2.53,1.57-5.28,1.96-7.76.37-3-1.92-5.92-4.05-6.75-8-.44-2.09-1.44-4.28-4.27-3.45-2.68.79-3.73,2.79-2.87,5.52.61,1.94,1.43,3.82,2.19,5.82-5.43.13-7.96,4.6-5.41,9,1.15,1.99,2.98,3.33,4.74,4.67,4.14,3.17,10.14,2.34,10.61-4.2.05-.76-.23-2.21,1.07-1.86,4.7,1.26,8.99-.03,14.01-2.64-5.09,8.55-8.56,16.58-11.95,24.68-10.47,24.98-15.74,51.84-27.65,76.3-.16.33-.27.69-.35,1.06-.93,4.35.6,7.7,4.67,8.87,12.26,3.52,24.39,7.73,37.39,7.73,3.24,0,6.93-.65,8.31,3.83.24.78,1.4,1.44,2.28,1.8,1.08.44,1.5,1.06,1.63,2.17,1.35,10.96,2.64,21.92,3.1,32.96.83,3.44,1.05,6.96,1.28,10.48.05.68.11,1.35.16,2.03h0s0,0,0,0c.89,2.73,1,5.57,1.32,8.39,1.03,2.59.35,5.12-.21,7.67-3.29,15.15-6.66,30.27-8.07,45.77-1.48,16.31-3.18,32.61-6.47,48.68-.62,3.04.55,5.09,3.47,6.09,3.63,1.23,7.25,2.58,10.95,3.56,10.43,2.78,20.98,5.02,31.74,6.17,1.28.14,3.16-.34,3.05,2.15-.47,11,2.35,21.69,3.22,32.57.63,7.94.57,16,2.58,23.82.58,2.25,1.36,4.16,4.05,3.91,2.94-.27,3.22-2.51,3.32-4.91.1-2.32-1.13-4.29-1.36-6.52-1.3-12.97-2.13-25.98-4.28-38.86-.14-.86-.81-2.06.46-2.63,1.75-.79,2.86-1.91,2.71-3.96-.14-1.95-1.6-3-2.29-3.44,7.3,0,15.11-.07,22.92.01,25.46.29,50.91.78,76.36,1.87,15.63.67,31.3.92,46.81-1.87,2.06-.37,4.37-1.5,6.12-.93,1.95.64,1.63,3.59,2.47,5.47.82,1.82,2.08,2.86,4.04,2.49,1.95-.37,2.9-1.77,2.86-3.78-.03-1.37,0-2.73-.07-4.1-.83-16.87-1.67-33.74-2.53-50.61-.84-16.37-1.31-32.76-2.8-49.09-.99-10.87-2.03-21.74-3.04-32.61-.08-.16-.14-.31-.18-.47-.6-1.65-.49-3.37-.42-5.09-.49-3.68-1.16-7.35-1.41-11.05-.24-3.55-2.54-7.9-.44-10.41,2.14-2.56,6.87-2.1,10.48-2.86,6.09-1.28,6.11-1.19,6.83,4.82.15,1.23.26,2.47.47,3.69,5.31,29.88,5.62,60.16,7.22,90.34.66,1.44.62,2.96.52,4.49,1.64,17.93,4.26,35.73,6.99,53.52,2.18,14.22,4.54,28.41,6.87,42.61.41,2.48,1.4,4.78,4.54,4.13,2.92-.6,2.93-2.96,2.54-5.33-1.09-6.73-2.16-13.47-3.29-20.2-6.06-35.88-11.33-71.83-12.48-108.29-.48-15.38-1.34-30.77-3.47-46.04-.88-6.26-1.89-12.51-2.85-18.76-.82-5.31.51-7.05,5.67-7.51Zm-222.75-14.85c.68-.4,1.43-.05,2.04.46,1.98,1.63,4,1.78,6.08.18.15.01.3.02.45.03.06,0,.13,0,.19.01.08,0,.17.01.25.02-1.5,12.77-3,25.54-4.5,38.31-.24,0-.48,0-.72,0-.75-7.66-1.46-15.32-2.27-22.97-.49-4.68-1.14-9.34-1.69-14.02-.08-.68-.64-1.54.18-2.02Z"/>
        <path class="cls-3" d="m1123.4,427.1s-.02.03-.02.04c0,0,0,.02.01.03v-.07Z"/>
        <path class="cls-3" d="m1138.34,485.46c1.25-3.09,2.76-6.09,3.67-9.26,2.33-8.16-.96-11.87-9.43-10.98-.15.02-.33-.2-.63-.4,1.14-2.59,2.29-5.17,3.43-7.76.03-1.48.25-3.02.09-4.44-.17-1.6-.81-3.06-2.71-4.11-3.27-1.79-6.34.06-9.86,1.04.52-.99.85-1.59,1.16-2.18.09.01.18.02.27.04-.06-.04-.11-.08-.17-.13-.02,0-.04,0-.06,0l.02-.04s.01,0,.02.01c0,0-.02-.02-.02-.02.08-.47.12-.95.25-1.41,2.41-8.83-1.81-14.45-10.93-14.33-6.5.09-12.2,2.65-17.56,6.11-3.08,1.25-5.81,3.06-8.34,5.2-1.21.35-2.16,1.07-2.93,2.06-1.99.98-3.72,2.29-5.2,3.94-.25.2-.49.4-.74.6-.92.29-1.63.85-2.11,1.69-.27.23-.54.45-.81.68-2,1.21-3.76,2.7-5.24,4.51-5.1,3.76-9.48,8.28-13.57,13.07-11.21,13.1-20.96,27.22-29.57,42.15-.49-.03-.97-.06-1.46-.09-.5-2.96-2.29-5.19-4.24-7.29-2.8-2.99-5.73-5.85-8.52-8.85-1.52-1.64-2.78-3.44-3.16-5.78-.33-2.04.44-2.8,2.39-2.59,2.91.31,5.43.96,7.1,3.9,2.09,3.68,7,5.45,10.79,4.24,2.51-.81,3.44-3.04,2.08-5-2-2.89-4.43-6.17-7.2-7.64-2.98-1.59-4.25-3.7-5.66-6.16-2.72-4.73-5.36-9.5-8.13-14.2-2.59-4.4-2.68-4.72,1.44-7.71,26.31-19.08,52.69-38.07,78.96-57.2,2.67-1.95,3.75-1.61,5.45,1.16,6.03,9.82,11.57,19.96,18.26,29.37,2.94,4.14,5.58,3.91,7.84-.41.04.02.07.04.11.07,0-.03,0-.05-.01-.08-.02-.02-.04-.04-.05-.06,0,0,0-.01.01-.02-.43-1.42-1.22-2.6-2.1-3.8-2.98-4.1-5.67-8.39-8.06-12.87-.33-.61-.67-1.22-.98-1.84-3.15-4.95-6.3-9.91-9.71-15.27.02-.05.04-.1.07-.15,2.53-.24,4.36-1.04,4.5-3.54.13-2.39-1.61-3.43-3.4-4.41-1.16-.64-2.48-.92-3.59-.42-2.36,1.06-3.22-.34-4.36-1.96-4.33-6.18-8.08-12.83-13.99-17.79,1.35-1.84,2.74-3.58,3.95-5.43,1.33-2.05,2.17-4.32.47-6.55-1.9-2.48-4.36-1.75-6.75-.81-4.45,1.75-11.16,2.57-15.63,1.8-10.46-1.8-19.89,1.54-28.95,6.09-15.75,7.91-29.54,18.63-42.32,30.68-4.35,4.1-7.91,8.89-10.83,14.13-1.33,2.39-2.7,4.92-2.27,7.71.36,2.35,1.19,4.22-1.84,5.7-1.74.86-1.15,3.4-.55,5.16.7,2.07,1.71,4.03,2.59,6.03.09.03.16.07.24.1.81.37,1.15,1.06,1.21,1.94,0,.03,0,.06,0,.09,2.55,3.34,5.14,6.65,7.66,10.01,8.34,11.14,16.03,22.71,22.74,34.91.89,1.61,1.96,2.8-1.27,3.22-5.13.66-7.52,3.84-7.49,9.01.02,4.19,1.9,7.7,4.61,10.7,2.91,3.22,6.1,6.19,9.09,9.34,1.37,1.44,3.13,3.15,2.47,5.14-1.42,4.31.57,5.72,4.51,6.06-1.2,4.09-1.92,8.16-.37,12.13,2.92,7.53,4.43,15.49,6.99,23.11,5.32,15.82,9.4,31.88,9.88,48.67,1.08,37.78-.08,75.5-2.48,113.21-1.58,24.8-2.59,49.62-1.94,74.48.02.62-.02,1.25.1,1.86.34,1.83,1.53,2.85,3.33,2.94,1.79.08,3.22-.74,3.58-2.59.28-1.44.28-2.96.23-4.43-.71-19.89.13-39.75,1.28-59.59,2.17-37.7,3.5-75.4,3.71-113.19.17-29.32-8.37-56.48-16.89-83.81-1.31-4.22-1.55-7.89.05-11.85,1.87-4.63,4.42-8.88,7.05-13.09,12.36-19.77,26.14-38.36,44.65-52.95-.13-.17-.34-.33-.6-.48.02-.02.05-.03.07-.05.16.13.34.3.53.53,4.51-3.24,9.01-6.48,13.52-9.72h0s0,0,0,0c4.24-1.95,8.17-4.6,12.75-5.8,2.85-.75,5.71-1.84,8.6-.13.7,2,.35,3.89-.5,5.77-1.72,3.78-4.25,7.01-7,10.05-11.83,13.07-23.6,26.21-37.01,37.73-1.99,1.71-3.35,3.67-1.24,6,1.92,2.11,3.8,1.18,5.83-.42,9.4-7.42,17.46-16.2,25.61-24.9,4.6-4.92,9.55-9.44,15.29-12.99,2.46-1.52,4.92-3.25,8.72-4.23,0,0,.02.01.03.02.26.25.44.51.55.77-3.74,6.54-5.87,12.93-11.61,17.08-6.25,4.52-12.2,9.42-17.46,15.07-3.73,4.01-7.1,8.29-9,13.55-.74,2.05-.24,3.75,1.26,5.04,1.44,1.23,3.23,1.22,4.88.26.95-.55,1.92-1.19,2.66-2,8.24-8.94,17.14-17.27,24.48-27.06,2.96-3.94,7.58-5.45,12.48-7.03-.41,3.54-1.66,6.1-3.06,8.55-3.52,6.16-7.46,11.94-13.07,16.53-6.37,5.21-11.66,11.51-16.61,18.06-1.39,1.85-2.02,3.87-.1,5.67,1.9,1.78,3.93,1.11,5.72-.34,1.44-1.17,2.87-2.4,4.12-3.76,4.63-5.02,9.32-9.99,13.72-15.21,3.16-3.75,7.11-6.13,11.53-7.9,1.23-.49,2.74-1.38,3.88-.47,1.35,1.07.16,2.65-.26,3.76-7.13,18.62-14.72,36.99-30.95,49.95-3.38,2.7-4.15,5.97-3.15,9.91,1.07,4.24,1.4,8.55,1.42,12.91.07,22.11.18,44.22.26,66.32.05,15.77-.2,31.54.87,47.3,1.24,18.38,5.64,36.27,8.15,54.45,1.49,10.79,2.93,21.6,2.92,32.54,0,2.74,2.19,5.24,4.47,4.98,3.09-.36,3.66-2.57,3.39-5.18-1.59-15.3-2.65-30.66-5.58-45.8-4.02-20.74-7.01-41.59-6.98-62.8.05-28.81-.1-57.63-.16-86.44-.01-6.71-.01-13.43-1.71-19.98-.46-1.77.42-2.51,1.47-3.41,3.97-3.38,7.97-6.74,11.13-10.94,9.31-12.42,16.06-26.23,21.11-40.81,3.37-9.73.64-13.42-9.58-14.53Zm-95.37-120.84c1.1-.87,2.36-1.32,3.75-1.43,4.99-2.16,10.2-2.83,15.57-2.05,1.33.19,3.03.13,2.33,2.6-.61,2.14,1.12,3.29,3.07,4.34-5.77,4.77-11.64,9.1-17.72,13.14-12.31,8.16-25.14,15.46-37.99,22.71-7.59,4.28-15.97,6.54-24.77,7.5,2.15-11.56,35.24-39.21,55.76-46.81Zm-39.72,85c-5.49-7.82-11.11-15.55-16.65-23.34-1.65-2.33-3.19-4.74-3.09-7.67,12.22.08,23.52-3.43,33.95-9.43,18.06-10.4,36.37-20.44,52.61-33.68.1-.08.18-.18.28-.24.59-.33,1-1.26,1.88-.65,3.36,2.36,8.76-3.95,11.31,2.99,1.24,3.39,4,6.24,6.21,9.24,1.18,1.6.82,2.39-.73,3.5-27.59,19.88-55.15,39.81-82.67,59.79-1.49,1.08-2.07.94-3.1-.52Z"/>
        <polygon class="cls-3" points="126.82 775.98 126.8 776.02 126.82 775.98 126.82 775.98"/>
        <path class="cls-3" d="m204.27,576.4c3.1-2.31,4-6.55,2.28-10.22-.13-.06-.25-.11-.38-.16-3.91-1.69-6.32,1.02-8.46,3.54-1.96,2.29-4.64,2.4-7.07,3.07-1.89.53-1.34-1.3-1.13-2.23,1.37-6.14,3.09-12.1,9-15.48.21-.12.42-.25.64-.36.36-1.27-.42-2.85.87-3.84,4.43-3.41,7.98-8.34,14.39-8.42,1.72-.02,2.84-1.02,2.89-2.78.06-1.93-1.04-2.98-2.96-3.12-3.11-.23-5.89.84-8.49,2.35-5.55,3.22-10.17,7.52-14.12,12.53-1.25,1.58-2.5,3.07-4.38,3.92-3.54,1.6-7.95-1.28-7.28-5.05.32-1.81.12-3.76.79-5.39,5.27-12.81,12.39-23.87,27.11-27.29,2.1-.49,3.61-1.36,3.14-3.71-.48-2.41-2.38-2.54-4.39-2.16-5.49,1.03-10.36,3.35-14.69,6.88-3.68,3-6.55,6.75-9.69,10.26-.02,0-.04,0-.05,0,0,.01.02.03.03.04-5.02,7.06-7.37,15.44-11.41,22.98,0,.15,0,.29,0,.44,0,.62-.05,1.23-.4,1.76-.07.11-.15.22-.25.32-1.17,7.85-2.09,15.71-1.54,23.66.35,5.07.48,10.4,3.78,14.5,2.07,2.57,2.17,4.59,1.47,7.62-4.13,17.99-10.81,35.12-17.15,52.37,0,.17,0,.35-.02.52-.04.59-.17,1.15-.64,1.59-.04.04-.07.07-.11.11-5.12,16.29-9.96,32.66-14.47,49.13-3.51,12.83-7.05,25.67-11.53,38.21-.02,0-.05,0-.07,0,.01.04.02.08.03.12l-.2.93c-.02.1-.04.2-.07.3-.19.5-.38,1-.57,1.5-.02.11-.04.23-.06.34-.02.09-.03.19-.05.28,0,.04-.01.08-.02.12-.22,1.37-.47,2.72-1.28,3.89-.03-.01-.07-.03-.1-.04.03.03.06.05.08.08.11.19.09.35-.06.48-.02.02-.04.04-.07.06-.92,4.06-2.05,8.05-3.63,11.91-.02,0-.05-.01-.07-.02.01.03.03.06.04.1-.38,2.72-1.15,5.32-2.18,7.86-.04.09-.07.19-.11.28.08.88.02,1.71-.65,2.38,0,.04,0,.08,0,.12.05,1.17-.22,2.26-.77,3.28-.03.06-.06.12-.09.18.13,1.09-.17,2.06-.72,2.98.02.17.03.34.04.5.03.65-.05,1.27-.55,1.8-.17.07-.32.15-.49.23.14.02.29.06.44.1-.59,4.34-1.18,8.68-1.78,13.01.04.04.06.09.08.14.08.13.12.27.09.43,0,.03,0,.05,0,.07,3.41,2.42,4.32,2.12,6.53-2.17,0-.21.01-.43.03-.64.04-.59.16-1.15.64-1.61,0,0,0,0,0,0-.91-5.18.84-9.94,2.29-14.75.05.02.09.05.14.07,0-.07-.03-.13-.04-.19-.01-.02-.03-.03-.04-.05,0,0,0-.02,0-.02,0,0,0,0,0,0,.02-1.03-.05-2.09.75-2.92-.02-.3,0-.59.02-.88.09-.93.41-1.81.83-2.67.02-.05.04-.1.07-.15.4-2.33.97-4.62,2.02-6.75.02-.17.05-.33.07-.5.24-1.84.8-3.58,1.57-5.27.02-.05.04-.1.06-.15.15-1.33.45-2.61,1.17-3.76.05.02.1.04.15.06-.01-.06-.03-.11-.04-.17-.01,0-.03,0-.04,0v-.03s.03-.03.03-.03c0,.01-.01.02-.02.03,0,0,0,0,0,0,.39-2.55,1.16-4.99,2.26-7.33.03-.1.05-.2.08-.31.04-.13.07-.26.11-.39.14-.07.28-.14.42-.21-.13,0-.26,0-.39,0,.16-1.52.57-2.97,1.39-4.28.02-.14.05-.27.07-.41.02-.11.04-.22.06-.34.01,0,.02-.01.03-.02,0,0-.02,0-.03,0,.18-1.32.46-2.61,1.24-3.74,0-.16.02-.31.03-.47.07-.97.39-1.87.78-2.76.07-.15.13-.3.2-.45.47-1.49.95-2.99,1.42-4.48.03-.25.07-.5.1-.75.2-1.32.56-2.58,1.28-3.74.91-4.57,2.28-9.01,3.82-13.41.42-2.61,1.06-5.15,2.15-7.57-.11-.21-.08-.39.06-.55.02-.03.04-.05.07-.08.96-3.7,1.94-7.4,2.89-11.1,7.28-28.56,19.32-55.59,27.13-83.98.28-1.02.58-1.72,2.01-1.24,1.69.57,3.27-.01,3.97-1.8.79-2.02-.45-3.02-1.98-4.2-1.76-1.37-4.78-2.51-2.62-5.88.39-.61-.12-1.74-.9-2.27-3.41-2.34-3.8-5.85-3.79-9.54l-.11-.12-.08-.09.12-.24s0,0,0,0c-.88-2.03-.68-4.15-.55-6.27-.43-5.85.25-11.59,1.3-17.76,2.95,2.61,5.48,5.12,9.6,4.45-.79,2.92-1.49,5.52-2.19,8.11.05,1.47.09,2.94.14,4.42,0,.26.02.52.02.78,3.95,5.16,11.36,4.98,15.28-.47,1.28,2.11,2.69,4.06,5.41,2.04Z"/>
        <path class="cls-3" d="m164.05,362.41c-.1.28-.16.57-.2.87.07-.26.14-.55.2-.87Z"/>
        <path class="cls-3" d="m184.73,384.12c.18.13.37.25.55.37-.1-.17-.26-.3-.55-.37Z"/>
        <path class="cls-3" d="m292.15,525.99c.37-.19.74-.37,1.12-.53.11-.05.23-.1.34-.15-.04-.04-.09-.08-.13-.11,0,0,0,0,0,0-.46.24-.9.51-1.33.79Z"/>
        <path class="cls-3" d="m293.18,524.92c.1.09.21.19.32.28.13-.04.25-.11.37-.16-.04-.26-.22-.35-.69-.12Z"/>
        <path class="cls-3" d="m129.94,548.9c-1.21-1.8-2.83-1.59-4.58-.64-4.29,2.32-8.08,5.32-11.81,8.4-7.94,6.55-15.79,13.21-23.68,19.82-1.15,1.4-2.47,2.55-5.13,3.23,1.46-2.06,2.53-3.37,4.02-4.33,2.48-2.6,4.85-5.32,7.45-7.79,7.07-6.72,13.38-14.43,23-17.92,1.46-.53,2.09-1.81,1.47-3.34-.64-1.58-1.91-2.27-3.6-1.86-2.32.57-4.42,1.66-6.39,2.97-12.54,8.33-22.58,19.32-32.28,30.65-1.33,1.56-2.2,3.6-2.94,5.55-1.29,3.39.45,5.61,4.1,5.4,2.55-.14,4.76-1.34,6.88-2.63,3.84-2.32,7.26-5.2,10.7-8.05,10.31-8.56,19.92-17.98,31.32-25.18,1.6-1.01,2.78-2.34,1.47-4.28Z"/>
        <path class="cls-3" d="m1096,434.09c1.55-2.12,2.55-4.48,3.18-7.04,2.2-8.93-3.64-15.42-11.36-14.36-1.6.1-3.24.04-4.8.33-3.38.62-5.87,3.55-5.02,6.63,1.4,5.1,3.11,10.26,6.08,14.64,3.91,5.76,7.76,5.49,11.92-.2Zm-7.7-14.15c2.01-.27,3.83.02,4,2.6.18,2.65-.45,5.1-2.06,7.45-1.96-1.87-2.19-4.46-3.14-6.66-.55-1.27-1.25-3.05,1.19-3.38Z"/>
        <path class="cls-3" d="m1042.55,465.89c.91-.64,1.86-1.24,2.74-1.92,1.64-1.25,2.57-2.85,1.34-4.8-1.27-2.01-3.2-2.24-5.18-1.09-1.93,1.11-3.8,2.34-5.64,3.6-1.06.73-1.8,1.02-2.71-.31-1.03-1.51-.38-2.2.88-2.89,2.19-1.21,4.52-1.94,6.98-2.41,2.08-.39,3.26-1.83,3-4.01-.26-2.2-1.75-3.14-4.05-3.19-4.49.94-9.02,2.18-12.55,5.64-1.68,1.64-2.9,3.86-2.23,6.03,2.13,6.82,6.3,12.28,12.34,16.16,1.52.98,3.22.4,4.28-1.07,1.04-1.43,1.27-3.47-.18-4.38-4.52-2.84-1.08-3.89.97-5.33Z"/>
        <path class="cls-3" d="m1057.78,435.36c-3.25-.05-5.67,1.33-6.37,4.48-.41,1.83-.93,3.49-1.76,5.15-1.49,2.97-.59,7.24,1.74,9.2,2.38,1.99,6.58,2.04,9.34.02,3.58-2.62,5.09-6.24,5.05-10.62-.12-.98-.15-1.98-.37-2.93-.68-2.98-4.05-5.24-7.63-5.29Z"/>
        <path class="cls-3" d="m1071.46,439.1c4.29-.12,7.69-4.23,7.72-9.32.02-4.13-2.72-7.23-6.34-7.18-4.45.07-7.85,4-7.78,9,.06,4.59,2.64,7.6,6.41,7.5Z"/>
        <path class="cls-3" d="m407.85,579.48c-.95.24-1.86.67-2.79,1.02-11.36,4.26-22.38,9.39-33.93,13.14-1.25.41-2.25.86-3.77-.02-4.4-2.55-10.35,1.43-10.12,6.53,2.47,2.92,5.76,2.34,8.95,2.07,1.47-.13,2.92-.47,4.38-.72,12.63-4.38,24.92-9.64,37.36-14.51.81-.32,1.65-.56,2.43-.92,1.99-.91,2.77-2.48,2.03-4.55-.78-2.16-2.53-2.55-4.55-2.03Z"/>
        <path class="cls-3" d="m126.92,439.65c2.58-1.83,4.49-4.29,6.04-6.96,1.24-2.13,2.09-3.32,4.45-.99,2.03,2.01,4.77,3.08,8.06,3.17,2.59-.02,5.1-1.68,4.85-3.67-.39-3.15-2.44-2.9-4.96-2.49-3.34.54-7.4-3.55-7.6-7.18-.07-1.34-.61-2.37-1.9-2.92-1.2-.52-2.37-.16-3.06.68-1.37,1.7-3.19,3.04-3.78,5.39-1,3.99-2.5,7.72-6.06,10.31-1.53,1.11-2.05,2.89-.67,4.56,1.41,1.7,3.07,1.21,4.62.11Z"/>
        <path class="cls-3" d="m165.46,410.57c2.01-.12,4.11-.46,4.17-3.11.05-2.12-1.34-2.99-3.2-3.08-2.17.21-4.26.62-4.33,3.15-.05,1.97,1.31,3.16,3.36,3.04Z"/>
        <path class="cls-3" d="m106.91,413.21c2.75-.08,4.41-.71,4.4-3.12,0-2.19-1.51-2.98-3.44-2.94-1.89.04-3.42.82-3.5,2.97-.08,2.12,1.17,3.08,2.54,3.09Z"/>
      </g>
    </g>
  </g>
</svg>