<svg width="200" height="199" viewBox="0 0 200 199" fill="none" xmlns="http://www.w3.org/2000/svg">
<g clip-path="url(#clip0_3_17678)">
<rect width="198.663" height="198.663" transform="translate(0.579102 0.167969)" fill="#75D3FB"/>
<path d="M71.6049 95.4591C69.8576 119.089 87.607 125.972 97.5578 126.781C100.051 134.047 104.781 149.517 103.822 153.331C102.863 157.145 81.9391 168.651 71.6049 173.914C73.3947 176.493 83.3668 183.396 108.893 190.321C160.799 200.165 178.996 159.766 178.996 157.806C130.414 135.134 135.741 110.971 135.741 109.181C136.658 109.181 147.759 101.979 149.868 94.0954C151.978 86.2115 152.404 78.3702 152.404 78.3702C152.404 78.3702 151.04 66.6936 148.27 59.9603C144.456 50.6488 123.511 40.3572 111.877 40.2719C87.7988 40.1228 73.0112 76.3886 71.6049 95.4591Z" fill="#FF6B6B"/>
<path d="M141.217 95.6096C138.32 92.7544 133.035 94.9491 130.755 96.3767C137.893 95.8014 140.323 96.675 142.006 100.127C142.368 99.4024 142.709 97.4847 141.217 95.6096Z" fill="#E34545"/>
<path d="M131.309 111.1C128.645 111.547 127.133 108.308 126.685 106.625C128.922 109.502 131.415 110.354 133.781 109.097C133.631 109.629 132.864 110.652 131.309 111.1Z" fill="#E34545"/>
<path d="M129.071 114.679C115.2 122.648 102.351 126.121 97.6636 126.845L102.607 143.806L129.071 114.679Z" fill="#E34545"/>
<path d="M88.9919 94.2875C88.9919 94.2875 83.047 89.3654 84.1337 86.2331C84.8155 84.2302 96.0234 76.7725 96.0234 76.7725" stroke="black" stroke-width="1.70462" stroke-linecap="round"/>
<path d="M107.53 82.9123C108.43 81.3257 108.388 79.6017 107.436 79.0616C106.484 78.5215 104.983 79.3699 104.083 80.9564C103.182 82.543 103.224 84.2669 104.176 84.807C105.128 85.3471 106.63 84.4988 107.53 82.9123Z" fill="black"/>
<path d="M85.4181 74.9318C85.8206 73.1649 85.2819 71.5354 84.2149 71.2924C83.1478 71.0493 81.9565 72.2847 81.554 74.0516C81.1515 75.8186 81.6902 77.448 82.7573 77.6911C83.8243 77.9342 85.0156 76.6988 85.4181 74.9318Z" fill="black"/>
<path d="M100.071 126.547C105.824 125.162 118.971 121.199 125.513 116.362" stroke="black" stroke-width="1.70462" stroke-linecap="round"/>
<path d="M120.655 89.7704C116.841 98.1869 108.573 102.406 102.309 99.5719C96.0444 96.738 93.7857 87.7248 97.5998 79.3082C101.414 70.8917 109.681 66.6727 115.946 69.5067C122.21 72.3619 124.49 81.3538 120.655 89.7704Z" stroke="black" stroke-width="1.70462"/>
<path d="M90.0999 75.9425C86.3711 84.4017 78.1463 88.7272 71.8605 85.9572C65.5747 83.1871 63.2095 74.2166 66.9384 65.7574C70.6672 57.2982 78.892 52.9727 85.1778 55.7427C91.4636 58.4914 93.8288 67.462 90.0999 75.9425Z" stroke="black" stroke-width="1.70462"/>
<path d="M91.2925 73.5967L98.3453 77.219" stroke="black" stroke-width="1.70462" stroke-linecap="round"/>
<path d="M90.4414 51.0755C90.0579 50.7559 69.9007 -2.59879 97.8565 6.05217C104.803 8.20425 112.452 17.601 112.452 17.601C112.452 17.601 116.565 0.341686 127.815 13.2968C132.183 18.3254 130.884 30.1086 130.884 30.1086C130.884 30.1086 144.286 24.4834 147.631 30.1086C149.954 34.0293 146.374 41.7427 146.374 41.7427C154.28 49.6266 160.864 60.2805 160.864 73.1077C160.864 94.1811 137.084 109.352 134.911 109.991C134.889 108.798 144.201 105.389 145.373 97.3773C146.523 89.4934 136.061 87.9379 132.759 89.3442C132.673 89.4082 132.631 89.4508 132.61 89.4082C132.652 89.3869 132.716 89.3656 132.759 89.3442C134.101 88.1084 142.582 73.5552 142.582 73.0864C142.709 73.0864 134.911 71.1687 134.911 71.1687C134.911 71.1687 135.848 64.3076 130.884 59.8117C125.919 55.3157 115.286 59.8117 115.286 59.8117C115.286 59.8117 114.157 51.6508 110.471 48.689C104.632 44.0013 90.825 51.3951 90.4414 51.0755Z" fill="black"/>
<path d="M121.997 85.6367L137.189 88.0019" stroke="black" stroke-width="1.70462" stroke-linecap="round"/>
<path d="M201.415 40.9537L240.557 4.26172C269.365 41.2307 305.93 104.408 292.591 140.504C285.24 160.426 258.435 180.647 234.996 198.333C215.947 212.716 199.092 225.436 196.727 234.94C192.487 251.922 213.433 313.565 223.639 342.054H26.7978L31.5069 324.965L-16.2226 294.9C-31.3511 283.117 -53.8308 251.645 -22.7001 220.046C8.43053 188.446 74.7403 158.956 104.017 148.153L124.643 165.839L156.69 144.701C168.217 150.348 195.364 156.037 223.66 140.482C251.957 124.928 245.714 102.768 240.579 86.254C235.422 69.8044 201.415 40.9537 201.415 40.9537ZM44.9734 276.468L56.096 231.68C44.1637 232.02 18.85 234.705 13.1182 242.674C7.38646 250.665 13.6083 258.549 18.6156 261.745L44.9734 276.468Z" fill="#00C471"/>
<path d="M87.5893 187.594L71.8002 161.514L63.959 165.136C70.053 171.784 82.4328 185.4 82.4328 186.145C82.4328 186.891 71.0545 194.732 65.3653 198.589L89.1874 257.335L73.8458 196.608L87.5893 187.594Z" fill="#07A358"/>
<path d="M164.935 176.642L180.724 150.562H189.183C183.089 157.21 170.092 174.448 170.092 175.193C170.092 175.939 181.47 183.802 187.159 187.637L165.02 246.766L178.7 185.655L164.935 176.642Z" fill="#07A358"/>
<path d="M177.231 342.097L143.309 153.48L124.558 165.903L111.07 154.226L77.8511 342.097H177.231Z" fill="white"/>
<path d="M121.084 175.747V168.95C121.084 168.715 121.276 168.523 121.511 168.523H126.39C126.625 168.523 126.816 168.715 126.816 168.95V175.747C126.816 175.981 126.625 176.173 126.39 176.173H121.511C121.276 176.173 121.084 175.981 121.084 175.747Z" stroke="black" stroke-width="1.70462"/>
<path d="M153.387 156.996L126.816 169.12V175.747L152.492 183.993L153.387 156.996Z" stroke="black" stroke-width="1.70462"/>
<path d="M94.5146 156.996L121.085 169.12V175.747L95.4096 183.993L94.5146 156.996Z" stroke="black" stroke-width="1.70462"/>
<path d="M120.659 171.145L103.037 166.713" stroke="black" stroke-width="1.70462" stroke-linecap="round"/>
<path d="M120.808 173.17L107.107 175.45" stroke="black" stroke-width="1.70462" stroke-linecap="round"/>
<path d="M127.094 171.144L140.177 166.308" stroke="black" stroke-width="1.70462" stroke-linecap="round"/>
<path d="M127.541 174.021L146.207 177.345" stroke="black" stroke-width="1.70462" stroke-linecap="round"/>
<path d="M181.684 148.281L165.916 176.216L179.894 184.76L165.916 241.226" stroke="black" stroke-width="1.70462" stroke-linecap="round"/>
<path d="M67.5586 154.845L87.8223 187.701L73.8444 196.267L87.8223 252.733" stroke="black" stroke-width="1.70462" stroke-linecap="round"/>
<path d="M102.122 146.704L124.687 166.052L152.408 147.62" stroke="black" stroke-width="1.70462" stroke-linecap="round"/>
<path d="M168.281 25.1864C170.71 30.7903 184.454 31.941 202.288 40.1018L232.396 11.9116C217.225 -4.34619 189.802 -37.4584 184.219 -35.3277C178.637 -33.1969 196.429 -19.6239 195.214 -17.8766C194 -16.1294 172.564 -36.2013 168.281 -33.4313C164.488 -30.9596 188.396 -13.1463 188.396 -11.9957C188.396 -11.0794 188.055 -11.4843 187.543 -11.4843L169.602 -23.374C165.809 -26.2293 158.373 -30.6613 158.991 -25.654C159.758 -19.3895 181.002 -4.60187 178.722 -4.79364C176.442 -4.98541 162.059 -3.64302 160.504 4.11301C159.545 8.92856 160.695 15.6831 164.488 16.0667C168.281 16.4502 164.872 8.09756 171.69 6.0094C184.773 6.96825 185.924 14.362 188.374 17.196C190.825 20.0299 187.607 21.3723 184.198 21.9476C180.789 22.5442 165.255 18.1761 168.281 25.1864Z" fill="#FF6B6B"/>
<path d="M195.108 18.1761C200.797 17.3451 212.346 19.4759 218.44 23.7801" stroke="black" stroke-width="1.70462" stroke-linecap="round"/>
<path d="M211.578 146.022C212.622 150.135 210.129 154.311 206.016 155.355C201.904 156.399 197.728 153.842 196.684 149.73C196.684 149.73 200.519 149.176 204.631 148.153C208.744 147.088 211.578 146.022 211.578 146.022Z" fill="#2039D2"/>
<path d="M62.723 165.712C64.5981 169.505 63 174.065 59.2072 175.94C55.4144 177.815 50.8119 176.259 48.9155 172.466C48.9155 172.466 51.9412 170.932 55.734 169.057C59.5268 167.161 62.723 165.712 62.723 165.712Z" fill="#2039D2"/>
<path d="M37.0296 213.374C40.9436 211.753 42.8023 207.266 41.181 203.352C39.5597 199.437 35.0724 197.579 31.1583 199.2C27.2443 200.821 25.3856 205.309 27.0069 209.223C28.6282 213.137 33.1155 214.996 37.0296 213.374Z" fill="#2039D2"/>
</g>
<defs>
<clipPath id="clip0_3_17678">
<rect width="198.663" height="198.663" fill="white" transform="translate(0.579102 0.167969)"/>
</clipPath>
</defs>
</svg>
