<svg width="200" height="199" viewBox="0 0 200 199" fill="none" xmlns="http://www.w3.org/2000/svg">
<g clip-path="url(#clip0_3_17679)">
<rect width="198.663" height="198.663" transform="translate(0.868164 0.167969)" fill="#5578F8"/>
<path d="M106.735 40.8808C113.898 40.8808 150.522 48.5358 161.864 114.024C165.393 139.588 169.309 152.088 170.766 155.214C170.959 155.214 171.117 155.196 171.258 155.196C171.486 156.249 171.275 156.32 170.766 155.214C162.128 155.652 112.09 159.339 75.3073 155.196C45.5127 151.843 13.0669 124.734 13.0669 124.734C42.563 101.717 54.66 78.7342 59.1546 64.6884C72.0241 37.3343 103.065 40.8808 106.735 40.8808Z" fill="black"/>
<path d="M70.3405 128.017C47.1825 119.098 51.8879 82.7016 63.4932 68.7261C91.6199 68.9017 108.264 50.1154 107.773 51.7658C102.505 69.6917 103.928 82.4558 107.492 91.4276C107.492 91.4276 113.97 80.6123 120.782 90.0055C124.592 97.081 116.463 105.087 116.463 105.087C116.463 105.087 114.269 112.97 116.463 125.998C121.046 140.588 132.405 146.118 132.335 146.189C117.552 165.115 104.753 165.73 90.6016 159.953L83.2626 127.929C81.2787 128.544 75.0459 129.843 70.3405 128.017Z" fill="#FF6B6B"/>
<path d="M116.657 90.8127C114.111 89.7944 111.302 91.4974 110.213 92.4806C110.213 92.4806 113.321 91.7081 115.305 91.9714C117.201 92.2172 118.149 93.7974 118.149 93.7974C118.255 93.0776 118.079 91.4798 116.657 90.8127Z" fill="#E34545"/>
<path d="M112.02 107.072C109.808 107.37 108.403 106.282 107.982 105.702C107.964 106.475 108.21 108.055 109.211 108.23C110.212 108.406 111.511 107.528 112.02 107.072Z" fill="#E34545"/>
<path d="M85.9829 108.458C89.6094 108.458 92.5493 105.518 92.5493 101.892C92.5493 98.2651 89.6094 95.3252 85.9829 95.3252C82.3564 95.3252 79.4165 98.2651 79.4165 101.892C79.4165 105.518 82.3564 108.458 85.9829 108.458Z" fill="#E34545"/>
<path d="M61.5256 90.865C60.9286 94.4467 57.4699 96.8345 53.8882 96.2375C53.8882 96.2375 54.0638 93.2353 54.7485 89.6536C55.3454 86.0719 56.3462 83.3154 56.3462 83.3154C59.9103 83.9124 62.1225 87.3009 61.5256 90.865Z" fill="#E34545"/>
<path d="M83.2622 127.93C90.1446 125.559 105.753 118.326 114.075 108.652L114.567 108.072C114.409 108.265 114.251 108.459 114.075 108.652L86.405 141.571L83.2622 127.93Z" fill="#E34545"/>
<path d="M70.0234 100.961C70.0234 100.961 63.8081 98.8539 63.8081 95.6585C63.8081 93.6219 70.8486 82.7891 70.8486 82.7891" stroke="black" stroke-width="2.76219" stroke-linecap="round"/>
<path d="M111.653 111.145C108.598 115.06 99.7672 123.206 88.7588 126.981" stroke="black" stroke-width="2.44908" stroke-linecap="round"/>
<path d="M87.584 88.2943C88.7174 87.2206 88.9712 85.6484 88.151 84.7825C87.3308 83.9166 85.7471 84.085 84.6137 85.1586C83.4803 86.2322 83.2264 87.8045 84.0466 88.6704C84.8668 89.5363 86.4506 89.3679 87.584 88.2943Z" fill="black"/>
<path d="M65.2561 80.8525C66.1063 79.5431 65.9846 77.9552 64.9843 77.3056C63.984 76.6561 62.4839 77.191 61.6337 78.5003C60.7835 79.8096 60.9051 81.3976 61.9054 82.0472C62.9057 82.6967 64.4059 82.1618 65.2561 80.8525Z" fill="black"/>
<path d="M206.67 197.509C182.125 165.625 145.94 149.648 131.069 145.662C105.242 160.041 93.2855 153.282 88.9489 150.824C88.0008 150.28 87.4038 149.946 87.1229 150.104C86.842 150.245 86.0695 150.525 84.8932 150.964C79.31 153.036 64.7901 158.426 52.184 166.906C38.8054 175.913 26.1642 190.047 14.7345 202.846C2.21615 216.839 -8.84491 229.217 -17.8167 231.447C-34.7945 235.678 -59.2342 201.108 -65.2914 192.557C-65.9937 191.574 -66.4502 190.925 -66.6082 190.732L-88.6074 236.17C-72.5426 249.583 -37.2876 276.815 -24.8395 278.412C-6.93117 280.712 6.55279 267.544 19.5451 254.868C27.2352 247.354 34.7497 240.032 42.8963 236.17C60.4359 227.883 60.4359 236.17 60.4359 236.17L35.7329 323.447L167.64 346.956V323.447C187.041 318.934 228.283 304.713 238.168 283.996C250.511 258.081 237.36 237.346 206.67 197.509ZM165.656 281.151L164.164 221.878C173.241 226.864 192.238 239.839 195.592 251.813C198.945 263.787 177.034 276.358 165.656 281.151Z" fill="#FFB905"/>
<path d="M89.4575 150.964C94.8651 154.247 110.403 158.004 129.312 146.68" stroke="black" stroke-width="1.40458" stroke-linecap="round"/>
</g>
<defs>
<clipPath id="clip0_3_17679">
<rect width="198.663" height="198.663" fill="white" transform="translate(0.868164 0.167969)"/>
</clipPath>
</defs>
</svg>
