<svg xmlns="http://www.w3.org/2000/svg" viewBox="535.93 287.26 1693.96 1244.58">  <defs>    <style>.cls-1 { fill: rgb(217, 175, 0); }.cls-2 { opacity: 0.6; }.cls-3 { fill: rgb(255, 255, 255); }.cls-11, .cls-13, .cls-14, .cls-15, .cls-16, .cls-18, .cls-19, .cls-21, .cls-22, .cls-23, .cls-4, .cls-5, .cls-8 { fill: none; }.cls-16, .cls-22, .cls-23, .cls-4, .cls-5 { stroke: rgb(86, 48, 60); }.cls-11, .cls-13, .cls-14, .cls-15, .cls-16, .cls-21, .cls-22, .cls-23, .cls-4, .cls-5 { stroke-linecap: round; }.cls-11, .cls-13, .cls-14, .cls-15, .cls-18, .cls-19, .cls-21, .cls-22, .cls-23, .cls-4, .cls-5, .cls-8 { stroke-miterlimit: 10; }.cls-13, .cls-16, .cls-18, .cls-21, .cls-4 { stroke-width: 7.04px; }.cls-11, .cls-15, .cls-19, .cls-5 { stroke-width: 6.49px; }.cls-6 { fill: rgb(180, 112, 47); }.cls-7 { fill: rgb(2, 168, 92); }.cls-15, .cls-19, .cls-21, .cls-8 { stroke: rgb(217, 175, 0); }.cls-8 { stroke-width: 4.33px; }.cls-9 { fill: rgb(215, 185, 63); }.cls-10 { fill: rgb(34, 34, 34); }.cls-11 { stroke: rgb(245, 239, 217); }.cls-12 { fill: rgb(255, 175, 177); }.cls-13 { stroke: rgb(140, 214, 255); }.cls-14, .cls-18 { stroke: rgb(255, 255, 255); }.cls-14, .cls-23 { stroke-width: 5.41px; }.cls-16 { stroke-linejoin: round; }.cls-17 { fill: rgb(68, 68, 68); }.cls-20 { fill: rgb(255, 208, 0); }.cls-22 { stroke-width: 5.95px; }</style>  </defs>  <g id="HAND">    <path class="cls-1" d="M838.72,1164l-14.26,202.52-233,32.79c-22.14,0-55.5-65.12-55.5-135.7s33.3-127.83,55.45-127.84h0Z"></path>    <g id="PATTERN" class="cls-2">      <path class="cls-3" d="M553.83,1176.51v177.68c-1.32-3.14-2.59-6.41-3.79-9.78V1185.59Q551.86,1180.87,553.83,1176.51Z"></path>      <path class="cls-3" d="M585.87,1136.82V1398a24.4,24.4,0,0,1-3.79-2.09V1138.66A24.77,24.77,0,0,1,585.87,1136.82Z"></path>      <polygon class="cls-3" points="617.91 1138.73 617.91 1395.53 614.12 1396.07 614.12 1138.3 617.91 1138.73"></polygon>      <polygon class="cls-3" points="649.95 1142.37 649.95 1391.03 646.16 1391.56 646.16 1141.93 649.95 1142.37"></polygon>      <path class="cls-3" d="M679.19,1232v3.79H537.68c.16-1.27.33-2.53.5-3.79Z"></path>      <path class="cls-3" d="M679.19,1198.81v3.79H544.38c.35-1.28.73-2.54,1.11-3.79Z"></path>      <path class="cls-3" d="M679.19,1165.61v3.79H557.26c.66-1.29,1.33-2.56,2-3.79Z"></path>      <path class="cls-3" d="M595.67,1136.21h-7.88a14.44,14.44,0,0,1,3.62-.49h0Z"></path>      <path class="cls-3" d="M599.08,1398.19l-7.62,1.07a14.07,14.07,0,0,1-5.12-1.07Z"></path>      <path class="cls-3" d="M679.19,1365v3.79H560.7c-.66-1.23-1.3-2.49-2-3.79Z"></path>      <path class="cls-3" d="M679.19,1331.8v3.78H547.07c-.39-1.25-.77-2.51-1.15-3.78Z"></path>      <path class="cls-3" d="M679.19,1298.6v3.79h-140c-.2-1.26-.4-2.52-.59-3.79Z"></path>      <path class="cls-3" d="M679.19,1265.4v3.79H536c0-1.26-.06-2.52-.07-3.79Z"></path>      <polygon class="cls-3" points="810.22 1160.54 810.22 1368.78 808.03 1368.78 806.43 1369.01 806.43 1160.12 810.22 1160.54"></polygon>      <polygon class="cls-3" points="779.11 1157.02 779.11 1372.85 775.32 1373.38 775.32 1156.59 779.11 1157.02"></polygon>      <polygon class="cls-3" points="683.44 1146.16 683.44 1386.31 679.66 1386.85 679.66 1145.74 683.44 1146.16"></polygon>      <polygon class="cls-3" points="715.48 1149.8 715.48 1381.8 711.7 1382.34 711.7 1149.37 715.48 1149.8"></polygon>      <polygon class="cls-3" points="747.52 1153.43 747.52 1377.3 743.73 1377.83 743.73 1153.01 747.52 1153.43"></polygon>      <polygon class="cls-3" points="834.95 1232 834.65 1235.79 649 1235.79 649 1232 834.95 1232"></polygon>      <polygon class="cls-3" points="837.53 1198.81 837.24 1202.6 649 1202.6 649 1198.81 837.53 1198.81"></polygon>      <rect class="cls-3" x="649" y="1165.61" width="189.46" height="3.79"></rect>      <polygon class="cls-3" points="824.57 1364.99 824.46 1366.47 810.22 1368.47 810.22 1368.78 649 1368.78 649 1364.99 824.57 1364.99"></polygon>      <polygon class="cls-3" points="827.16 1331.8 826.86 1335.59 649 1335.59 649 1331.8 827.16 1331.8"></polygon>      <polygon class="cls-3" points="829.75 1298.6 829.46 1302.39 649 1302.39 649 1298.6 829.75 1298.6"></polygon>      <polygon class="cls-3" points="832.34 1265.4 832.05 1269.19 650.8 1269.19 650.8 1265.4 832.34 1265.4"></polygon>    </g>    <line class="cls-4" x1="745.63" y1="1152.91" x2="745.63" y2="1380.6"></line>    <circle class="cls-5" cx="778.08" cy="1333.73" r="13.53"></circle>    <path class="cls-6" d="M1225.64,1382.6H1084.11s85.2-9.49,85.45,46.2L998.32,1420c-25.78-1.27-50-15.83-67.27-35l-13.82-15.32-92.77-3.23S806.11,1237.61,838.72,1164L928,1175s64.27-26.4,115.28,5.11,96.83,58.8,96.83,58.8l88.27-14.92a64.86,64.86,0,0,1,64.56,27.65l29.78,44.09a8.25,8.25,0,0,1-5.52,12.76l-72.13,11.68,61.57,13.91a52.4,52.4,0,0,1,39.15,37.85h0a8.5,8.5,0,0,1-8.22,10.64Z"></path>    <path class="cls-4" d="M1001,1300.21c71.11,7.46,78.52,70.11,78.52,70.11l38.89,12.28"></path>    <path class="cls-4" d="M1140.09,1422.94c.27-6.36,6.23-11.28,13.33-11s12.63,5.68,12.36,12"></path>    <line class="cls-4" x1="1252.72" y1="1320.2" x2="1182.15" y2="1310.77"></line>  </g>  <g id="PRESENT_BOX" data-name="PRESENT BOX">    <path id="BOX" class="cls-7" d="M1916.11,688.94l-469,439L917.23,742.4,1293,366.59a93.75,93.75,0,0,1,118-11.88Z" style="fill: rgba(68, 68, 68, 0.765);"></path>    <g id="BOX-2" data-name="BOX">      <rect class="cls-6" x="1411.28" y="640.79" width="179.89" height="232.35"></rect>      <line class="cls-8" x1="1575.07" y1="872" x2="1575.07" y2="640.65"></line>      <line class="cls-8" x1="1543.97" y1="872" x2="1543.97" y2="640.65"></line>      <line class="cls-8" x1="1448.29" y1="872" x2="1448.29" y2="640.65"></line>      <line class="cls-8" x1="1480.33" y1="872" x2="1480.33" y2="640.65"></line>      <line class="cls-8" x1="1512.37" y1="872" x2="1512.37" y2="640.65"></line>      <line class="cls-8" x1="1591.33" y1="862.35" x2="1411.14" y2="862.35"></line>      <line class="cls-8" x1="1591.33" y1="829.15" x2="1411.14" y2="829.15"></line>      <line class="cls-8" x1="1591.33" y1="795.96" x2="1411.14" y2="795.96"></line>      <line class="cls-8" x1="1591.33" y1="762.76" x2="1411.14" y2="762.76"></line>      <line class="cls-8" x1="1591.33" y1="729.56" x2="1411.14" y2="729.56"></line>      <line class="cls-8" x1="1591.33" y1="696.37" x2="1412.95" y2="696.37"></line>      <line class="cls-8" x1="1591.33" y1="663.17" x2="1411.14" y2="663.17"></line>    </g>    <g id="T-SHIRT">      <rect class="cls-9" x="1061.05" y="415.03" width="368.01" height="495.01" rx="46.9" style="fill: rgb(2, 168, 92);"></rect>      <path class="cls-10" d="M1340.61,466.31l-48.87,71.42a16.44,16.44,0,0,1-25.53,2l-22.34-23.68-23,23.93a16.44,16.44,0,0,1-25.25-1.86L1145.69,468a43.21,43.21,0,0,1,4.64-55.62l58.91-58.91a49,49,0,0,1,69.24,0l57.25,58.1A43.22,43.22,0,0,1,1340.61,466.31Z" style="fill: rgb(68, 68, 68);"></path>      <path class="cls-9" d="M1244.85,363.48h17.67a44,44,0,0,1,44,44v17.67a63.71,63.71,0,0,1-63.71,63.71h-61.72a0,0,0,0,1,0,0V427.19a63.71,63.71,0,0,1,63.71-63.71Z" transform="translate(62.95 1004.36) rotate(-45)" style="fill: rgb(255, 255, 255);"></path>      <circle class="cls-5" cx="1243.89" cy="596.27" r="10.5"></circle>      <circle class="cls-5" cx="1243.89" cy="668.37" r="10.5"></circle>      <line class="cls-11" x1="1243.89" y1="518.78" x2="1243.89" y2="560.09"></line>    </g>    <g id="BEAR">      <path class="cls-12" d="M1196.91,802l-64.44-12.9,11.1,156.33c1.63,22.88-26.16,32.36-37.3,12.73l-44.48-78.47a75.4,75.4,0,0,1-42.26-.41L974.8,958.19c-11.13,19.63-38.93,10.15-37.3-12.73l11.93-168,.61.6q-.25-4.24-.26-8.56,0-1.43,0-2.85L872,710.18c-19.93-14.47-9.65-42.31,13.79-37.37L947,685.72c-14.61-16.92-23.26-37.9-23.26-60.61a89.79,89.79,0,0,1,11-43,36.18,36.18,0,1,1,45.67-43.85,134.24,134.24,0,0,1,118.25-1.82,36.18,36.18,0,1,1,48.59,44.4A90,90,0,0,1,1159,625.11c0,29.53-14.62,56.11-38,74.66l94.34,66.33C1235.51,780.23,1221.72,807,1196.91,802Z"></path>      <path class="cls-4" d="M1122.09,700.49a119.53,119.53,0,0,1-26.86,16.42"></path>      <path class="cls-4" d="M981.64,714.11a114.39,114.39,0,0,1-34.47-26.66"></path>      <path class="cls-4" d="M1124.24,554a26.44,26.44,0,0,1,25-18.24,25.75,25.75,0,0,1,12.8,3.39"></path>      <path class="cls-4" d="M955.24,554a26.26,26.26,0,0,0-24.76-18.24,25.46,25.46,0,0,0-12.69,3.38"></path>      <path class="cls-3" d="M1090.53,666.59c0,24.12-22,43.68-49.16,43.68s-49.15-19.56-49.15-43.68,22-32.52,49.15-32.52S1090.53,642.46,1090.53,666.59Z"></path>      <circle class="cls-7" cx="1086.71" cy="631.76" r="6.56" style="fill: rgb(68, 68, 68);"></circle>      <circle class="cls-7" cx="997.41" cy="631.76" r="6.56" style="fill: rgb(68, 68, 68);"></circle>      <path class="cls-7" d="M1058.63,653.37c0,4.49-5.69,11.69-13.32,13.65v7.5a3.94,3.94,0,0,1-7.88,0V667c-7.62-2-13.31-9.16-13.31-13.65,0-5.24,7.73-9.48,17.25-9.48S1058.63,648.13,1058.63,653.37Z" style="fill: rgb(180, 112, 47);"></path>      <line class="cls-4" x1="1131.64" y1="759.11" x2="1131.64" y2="788.83"></line>      <path class="cls-1" d="M1073.9,726.47v34.94a6.36,6.36,0,0,1-10.86,4.5l-21.66-21.66-21.67,21.66a6.36,6.36,0,0,1-10.86-4.5V726.47a6.36,6.36,0,0,1,10.86-4.5l21.67,21.66L1063,722A6.36,6.36,0,0,1,1073.9,726.47Z" style="fill: rgb(2, 168, 92);"></path>    </g>    <g id="BOTTLE">      <path class="cls-3" d="M1461.5,776.17v261.45a99.77,99.77,0,0,1-99.77,99.77h0a99.77,99.77,0,0,1-99.78-99.77V776.17a99.76,99.76,0,0,1,164.67-75.78c2,1.67,3.84,3.42,5.65,5.23A99.42,99.42,0,0,1,1461.5,776.17Z"></path>      <path class="cls-9" d="M1426.62,700.39c-6.46,7.22-25.11,12.45-47.13,12.45-27,0-49-7.88-49.55-17.67,0-.13,0-.25,0-.37V681.57a99.87,99.87,0,0,1,96.69,18.82Z"></path>      <path class="cls-6" d="M1411.29,641.1v47.56c0,.12,0,.25,0,.37-.55,9.79-22.52,17.67-49.56,17.67s-49-7.88-49.55-17.67c0-.12,0-.25,0-.37V641.1c0-.11,0-.21,0-.31.45-9.82,22.46-17.74,49.55-17.74s49.11,7.92,49.56,17.74C1411.29,640.89,1411.29,641,1411.29,641.1Z"></path>      <ellipse class="cls-1" cx="1361.87" cy="638.71" rx="49.27" ry="15.65"></ellipse>    </g>    <g id="BALL">      <circle class="cls-1" cx="1197.68" cy="964.92" r="133.89" transform="translate(-331.51 1129.5) rotate(-45)"></circle>      <path class="cls-13" d="M1145.52,838.7A133.91,133.91,0,0,1,1197.63,1096"></path>    </g>    <g id="PACK">      <rect class="cls-1" x="1529.8" y="579.8" width="151.78" height="492.86"></rect>      <rect class="cls-6" x="1681.58" y="579.8" width="123.23" height="492.86"></rect>      <polygon class="cls-3" points="1742.95 494.61 1591.17 494.61 1529.8 579.8 1681.59 579.8 1742.95 494.61"></polygon>      <polygon class="cls-9" points="1804.82 579.8 1681.59 579.8 1742.95 494.61 1743.45 494.61 1804.82 579.8"></polygon>      <path class="cls-1" d="M1611.57,457H1722.8a20.4,20.4,0,0,1,20.4,20.4v17.21a0,0,0,0,1,0,0h-152a0,0,0,0,1,0,0V477.4A20.4,20.4,0,0,1,1611.57,457Z"></path>      <rect class="cls-3" x="1529.81" y="696.32" width="151.78" height="85.78"></rect>      <rect class="cls-9" x="1681.59" y="696.32" width="73.76" height="85.78"></rect>    </g>    <g id="PRESENT">      <path class="cls-12" d="M1629.64,910v190.23a27.64,27.64,0,0,1-27.64,27.64H1408a27.65,27.65,0,0,1-27.65-27.64V910A27.64,27.64,0,0,0,1408,937.68h194A27.63,27.63,0,0,0,1629.64,910Z"></path>      <rect class="cls-9" x="1380.37" y="844.28" width="249.27" height="93.4" rx="27.64"></rect>      <path class="cls-14" d="M1597.4,937.66h-194A27.65,27.65,0,0,1,1375.77,910"></path>      <path class="cls-14" d="M1548.31,980.1h-144.9a27.64,27.64,0,0,1-27.64-27.64"></path>      <path class="cls-14" d="M1597.4,1022.55h-194a27.65,27.65,0,0,1-27.64-27.65"></path>      <path class="cls-14" d="M1474.67,1065h-71.26a27.65,27.65,0,0,1-27.64-27.64"></path>      <line class="cls-15" x1="1505.01" y1="848.52" x2="1505.01" y2="1135.36"></line>      <path class="cls-15" d="M1505,886.48s-16.58,7.2-31.35,7.2-22.15-3.22-22.15-7.2,7.37-7.2,22.15-7.2S1505,886.48,1505,886.48Z"></path>      <path class="cls-15" d="M1549.51,857c2.3,3.25-.89,9.23-13,17.74s-30.75,13.1-30.75,13.1,11.93-16.88,24-25.4S1547.22,853.71,1549.51,857Z"></path>      <line class="cls-15" x1="1505.8" y1="887.8" x2="1539.14" y2="902.3"></line>    </g>    <g id="BOX-3" data-name="BOX">      <polyline class="cls-16" points="920.3 748.54 747.93 923.78 920.3 923.78"></polyline>      <path class="cls-17" d="M1916.11,688.93V1102a98.83,98.83,0,0,1-36.7,76.86l-432.35,349.48V1127.91Z"></path>      <path class="cls-10" d="M1447.06,1127.91v400.41L956,1205.11a86,86,0,0,1-38.71-71.83V742.41Z"></path>      <line class="cls-18" x1="1447.06" y1="1127.91" x2="1447.06" y2="1528.32"></line>      <line class="cls-16" x1="2082.29" y1="534.13" x2="1447.06" y2="1127.91"></line>    </g>    <g id="FLOWERS">      <line class="cls-19" x1="1464.63" y1="640.65" x2="1464.63" y2="526.16"></line>      <line class="cls-19" x1="1495.47" y1="640.65" x2="1496.84" y2="561.72"></line>      <path class="cls-12" d="M1534.19,458.3c.3,11.95-20.87,30.6-20.87,30.6s-22.1-17.55-22.4-29.5a21.64,21.64,0,0,1,43.27-1.1Z"></path>      <path class="cls-12" d="M1492.75,530.91c-.31-11.94,20.86-30.59,20.86-30.59s22.1,17.54,22.4,29.49a21.64,21.64,0,1,1-43.26,1.1Z"></path>      <path class="cls-12" d="M1479.08,473.84c12-.31,30.6,20.86,30.6,20.86s-17.55,22.1-29.5,22.4a21.64,21.64,0,0,1-1.1-43.26Z"></path>      <path class="cls-12" d="M1547.85,515.38c-11.94.3-30.59-20.87-30.59-20.87s17.54-22.1,29.49-22.4a21.64,21.64,0,0,1,1.1,43.27Z"></path>      <circle class="cls-9" cx="1513.47" cy="494.61" r="12.96" transform="translate(453.92 1683.13) rotate(-66.38)"></circle>      <path class="cls-12" d="M1487.79,353.86c-.35,11.95-22.51,29.41-22.51,29.41s-21.1-18.74-20.75-30.68a21.64,21.64,0,0,1,43.26,1.27Z"></path>      <path class="cls-12" d="M1442.42,424.09c.35-11.95,22.52-29.4,22.52-29.4s21.1,18.73,20.74,30.68a21.64,21.64,0,1,1-43.26-1.28Z"></path>      <path class="cls-12" d="M1431.91,366.35c11.95.35,29.41,22.52,29.41,22.52s-18.74,21.09-30.68,20.74a21.64,21.64,0,0,1,1.27-43.26Z"></path>      <path class="cls-12" d="M1498.3,411.61c-11.94-.36-29.4-22.52-29.4-22.52s18.73-21.1,30.68-20.74a21.64,21.64,0,0,1-1.28,43.26Z"></path>      <circle class="cls-9" cx="1465.11" cy="388.98" r="13.5" transform="translate(132.19 1110.91) rotate(-43.31)"></circle>      <path class="cls-7" d="M1605,312.34c-.71,10.86-21.48,26-21.48,26s-18.59-17.76-17.87-28.63a19.72,19.72,0,1,1,39.35,2.6Z"></path>      <path class="cls-7" d="M1561.31,374.79c.72-10.87,21.48-26,21.48-26s18.59,17.76,17.88,28.63a19.72,19.72,0,0,1-39.36-2.59Z"></path>      <path class="cls-7" d="M1553.65,321.86c10.87.71,26,21.47,26,21.47s-17.75,18.6-28.62,17.88a19.72,19.72,0,0,1,2.59-39.35Z"></path>      <path class="cls-7" d="M1612.61,365.27c-10.87-.72-26-21.48-26-21.48s17.76-18.59,28.62-17.88a19.72,19.72,0,0,1-2.59,39.36Z"></path>      <circle class="cls-20" cx="1583.13" cy="343.56" r="12.3" transform="matrix(0.75, -0.66, 0.66, 0.75, 166.07, 1128.6)"></circle>      <line class="cls-21" x1="1481.54" y1="304.8" x2="1509.58" y2="304.8"></line>      <line class="cls-21" x1="1495.56" y1="318.82" x2="1495.56" y2="290.78"></line>      <line class="cls-21" x1="1640.34" y1="409.62" x2="1668.38" y2="409.62"></line>      <line class="cls-21" x1="1654.36" y1="423.64" x2="1654.36" y2="395.59"></line>      <line class="cls-21" x1="1347.7" y1="368.34" x2="1375.74" y2="368.34"></line>      <line class="cls-21" x1="1361.72" y1="382.36" x2="1361.72" y2="354.32"></line>    </g>  </g>  <g id="HAND-2" data-name="HAND">    <path class="cls-12" d="M2037.62,989c-4,23.81-16.27,44.82-32.15,63-58.38,66.78-134.24,136.45-172.74,164.85-9.4,6.93-20.65-6.45-12.8-15.09l53.21-66.41L1759,1199.05c-13.16,7.34-26.45-9.43-16.29-20.56l12.64-13.85-37,18.07c-16.68,8.16-32.65-12.26-20.73-26.49l17.49-20.86-16.69,8.15c-17.08,8.34-31.94-14.64-17.34-26.8l112-93.19,1.89-1.57c5-4.47,1.14-12.27-4.84-11.84a7.56,7.56,0,0,0-1.94.43l-54,19.53a34.57,34.57,0,0,1-30.23-3.3l-7.54-4.76,147.78-126.53c22.16-20.64,36.36-33.24,68.79-33.24,68.82,0,124.61,56.76,124.61,126.78Z" style="fill: rgb(180, 112, 47);"></path>    <line class="cls-4" x1="1715.12" y1="1135.36" x2="1813.52" y2="1065.51"></line>    <line class="cls-4" x1="1755.34" y1="1164.63" x2="1844.14" y2="1102.53"></line>    <circle class="cls-5" cx="1689.95" cy="1130.31" r="11.52" transform="translate(303.54 2617.38) rotate(-80.78)"></circle>    <path class="cls-5" d="M1717.11,1006.82a11.52,11.52,0,1,1-17.45,15"></path>    <circle class="cls-5" cx="1708.39" cy="1168.62" r="11.52" transform="translate(178.53 2562.81) rotate(-76.72)"></circle>    <circle class="cls-22" cx="1751.27" cy="1188.82" r="10.01"></circle>    <circle class="cls-23" cx="1826.9" cy="1209.75" r="7.31"></circle>    <path class="cls-9" d="M2037.62,989c0-70-55.79-126.77-124.62-126.77-13.6,0-26.69,5.28-39,9.39l125.36-136.06c24.22-16.3,54.74-26,87.9-26,78.77,0,142.63,54.84,142.63,122.48a106.05,106.05,0,0,1-3.71,27.85Z"></path>  </g></svg>