<svg xmlns="http://www.w3.org/2000/svg" xmlns:xlink="http://www.w3.org/1999/xlink" width="793" zoomAndPan="magnify" viewBox="0 0 595.5 842.249979" height="1122" preserveAspectRatio="xMidYMid meet" version="1.0"><defs><clipPath id="9296722630"><path d="M 0.015625 395 L 81 395 L 81 526 L 0.015625 526 Z M 0.015625 395 " clip-rule="nonzero"/></clipPath><clipPath id="025a819ac6"><path d="M 192 397 L 273 397 L 273 527.335938 L 192 527.335938 Z M 192 397 " clip-rule="nonzero"/></clipPath><clipPath id="67f08c323b"><path d="M 162 397 L 243 397 L 243 527.335938 L 162 527.335938 Z M 162 397 " clip-rule="nonzero"/></clipPath></defs><path fill="crimson" d="M 136.960938 403.125 L 68.710938 521.335938 L 205.207031 521.335938 Z M 136.960938 425.996094 L 185.402344 509.898438 L 88.515625 509.898438 L 136.960938 425.996094 " fill-opacity="1" fill-rule="nonzero"/><path fill="crimson" d="M 36.953125 525.5625 C 35.980469 525.5625 35 525.3125 34.101562 524.796875 C 31.367188 523.21875 30.425781 519.722656 32.003906 516.988281 L 100.253906 398.78125 C 101.832031 396.050781 105.320312 395.117188 108.066406 396.691406 C 110.800781 398.269531 111.738281 401.765625 110.15625 404.5 L 41.910156 522.707031 C 40.851562 524.535156 38.925781 525.5625 36.953125 525.5625 " fill-opacity="1" fill-rule="nonzero"/><g clip-path="url(#9296722630)"><path fill="crimson" d="M 6.566406 525.5625 C 5.601562 525.5625 4.617188 525.3125 3.714844 524.796875 C 0.980469 523.21875 0.0429688 519.722656 1.621094 516.988281 L 69.871094 398.78125 C 71.453125 396.050781 74.941406 395.117188 77.683594 396.691406 C 80.417969 398.269531 81.355469 401.765625 79.777344 404.5 L 11.527344 522.707031 C 10.46875 524.535156 8.546875 525.5625 6.566406 525.5625 " fill-opacity="1" fill-rule="nonzero"/></g><path fill="crimson" d="M 366.707031 401.636719 L 230.207031 401.636719 L 298.460938 519.847656 Z M 346.902344 413.070312 L 298.460938 496.976562 L 250.011719 413.070312 L 346.902344 413.070312 " fill-opacity="1" fill-rule="nonzero"/><g clip-path="url(#025a819ac6)"><path fill="crimson" d="M 266.710938 527.050781 C 264.734375 527.050781 262.8125 526.027344 261.753906 524.191406 L 193.507812 405.980469 C 191.925781 403.246094 192.863281 399.75 195.597656 398.171875 C 198.339844 396.601562 201.832031 397.53125 203.410156 400.265625 L 271.660156 518.480469 C 273.238281 521.214844 272.296875 524.710938 269.5625 526.289062 C 268.664062 526.804688 267.683594 527.050781 266.710938 527.050781 " fill-opacity="1" fill-rule="nonzero"/></g><g clip-path="url(#67f08c323b)"><path fill="crimson" d="M 236.332031 527.050781 C 234.355469 527.050781 232.433594 526.027344 231.375 524.191406 L 163.121094 405.980469 C 161.542969 403.246094 162.484375 399.75 165.21875 398.171875 C 167.960938 396.601562 171.449219 397.53125 173.027344 400.265625 L 241.273438 518.480469 C 242.859375 521.214844 241.917969 524.710938 239.183594 526.289062 C 238.277344 526.804688 237.296875 527.050781 236.332031 527.050781 " fill-opacity="1" fill-rule="nonzero"/></g><path fill="crimson" d="M 458.46875 402.011719 L 390.222656 520.222656 L 526.714844 520.222656 Z M 458.46875 424.875 L 506.910156 508.785156 L 410.027344 508.785156 L 458.46875 424.875 " fill-opacity="1" fill-rule="nonzero"/><path fill="crimson" d="M 358.464844 524.449219 C 357.492188 524.449219 356.511719 524.199219 355.605469 523.683594 C 352.871094 522.101562 351.9375 518.605469 353.515625 515.871094 L 421.761719 397.660156 C 423.34375 394.933594 426.835938 393.996094 429.570312 395.570312 C 432.304688 397.148438 433.246094 400.644531 431.667969 403.378906 L 363.421875 521.589844 C 362.363281 523.421875 360.4375 524.449219 358.464844 524.449219 " fill-opacity="1" fill-rule="nonzero"/><path fill="crimson" d="M 328.078125 524.449219 C 327.113281 524.449219 326.132812 524.199219 325.226562 523.683594 C 322.492188 522.101562 321.558594 518.605469 323.136719 515.871094 L 391.382812 397.660156 C 392.960938 394.933594 396.453125 393.996094 399.191406 395.570312 C 401.925781 397.148438 402.867188 400.644531 401.289062 403.378906 L 333.035156 521.589844 C 331.984375 523.421875 330.054688 524.449219 328.078125 524.449219 " fill-opacity="1" fill-rule="nonzero"/><path fill="crimson" d="M 588.222656 525.9375 C 586.242188 525.9375 584.320312 524.914062 583.265625 523.078125 L 515.011719 404.867188 C 513.433594 402.132812 514.375 398.636719 517.109375 397.058594 C 519.851562 395.484375 523.34375 396.417969 524.917969 399.152344 L 593.167969 517.359375 C 594.75 520.09375 593.808594 523.589844 591.074219 525.167969 C 590.175781 525.691406 589.191406 525.9375 588.222656 525.9375 " fill-opacity="1" fill-rule="nonzero"/><path fill="crimson" d="M 557.84375 525.9375 C 555.863281 525.9375 553.941406 524.914062 552.882812 523.078125 L 484.632812 404.867188 C 483.054688 402.132812 483.992188 398.636719 486.726562 397.058594 C 489.472656 395.484375 492.964844 396.417969 494.539062 399.152344 L 562.785156 517.359375 C 564.363281 520.09375 563.429688 523.589844 560.695312 525.167969 C 559.789062 525.691406 558.808594 525.9375 557.84375 525.9375 " fill-opacity="1" fill-rule="nonzero"/></svg>