<svg xmlns="http://www.w3.org/2000/svg" xmlns:xlink="http://www.w3.org/1999/xlink" x="0px" y="0px"
	 viewBox="0 0 750 500" style="enable-background:new 0 0 750 500;" xml:space="preserve">
<g id="BACKGROUND">
	<rect id="XMLID_1_" style="fill:#F1FFF2;" width="750" height="500"/>
</g>
<g id="OBJECTS">
	<g id="XMLID_302_">
		<ellipse id="XMLID_138_" style="fill:#E1E7EA;" cx="381.833" cy="420.127" rx="309.662" ry="33.016"/>
		<g id="XMLID_301_">
			<g id="XMLID_300_">
				<g id="XMLID_294_">
					<g id="XMLID_291_">
						<path id="XMLID_292_" style="fill:#9FCEBA;" d="M705.279,259.662c-10.639-8.753-23.856-15.274-37.974-13.834
							c-12.288,1.253-23.626,9.177-26.853,21.449c-0.186,0.245-0.153,0.699,0.237,0.839c11.227,4.038,23.161,8.201,35.234,5.784
							c10.75-2.153,18.219-11.706,29.021-13.38C705.318,260.462,705.65,259.967,705.279,259.662z"/>
						<path id="XMLID_298_" style="fill:#9FCEBA;" d="M666.834,307.34c-12.17-5.029-22.23-14.838-35.363-17.576
							c-9.291-1.937-20.339,0.897-24.635,10.106c-0.058,0.123-0.056,0.24-0.027,0.346c-0.099,0.083-0.164,0.207-0.154,0.378
							c0.661,11.122,12.882,16.495,22.533,17.345c13.307,1.172,25.836-4.35,37.659-9.735
							C667.172,308.056,667.167,307.477,666.834,307.34z"/>
						<path id="XMLID_257_" style="fill:#80AFA6;" d="M698.861,258.164c-6.875-1.963-13.972-2.44-21.039-1.431
							c-0.035-0.001-0.066-0.009-0.103-0.003c-0.087,0.015-0.172,0.034-0.259,0.049c-0.094,0.014-0.188,0.022-0.282,0.036
							c-0.037,0.006-0.064,0.024-0.096,0.035c-2.677,0.479-5.34,1.025-7.994,1.613c2.625-2.839,4.884-5.936,6.748-9.341
							c0.309-0.565-0.563-1.055-0.872-0.49c-2.036,3.721-4.526,7.085-7.492,10.119c-0.031,0.032-0.044,0.066-0.064,0.1
							c-5.686,1.315-11.304,2.898-16.845,4.714c1.851-3.389,3.364-6.909,4.526-10.601c0.193-0.614-0.778-0.853-0.971-0.241
							c-1.23,3.907-2.852,7.624-4.871,11.186c-0.018,0.032-0.019,0.061-0.03,0.092c-25.347,8.508-48.939,22.152-68.932,39.966
							c-7.798,6.948-15.013,14.524-21.594,22.633c-0.403,0.497,0.311,1.197,0.717,0.698c7.818-9.633,16.576-18.463,26.063-26.42
							c0.075,0.139,0.212,0.239,0.425,0.217c10.072-1.049,20.196-0.859,30.164,0.531c0.134,0.164,0.349,0.239,0.57,0.083
							c0.966,0.139,1.93,0.292,2.893,0.454c0.015,0.037,0.022,0.073,0.049,0.111c2.391,3.353,4.352,6.947,5.858,10.781
							c0.233,0.594,1.195,0.319,0.96-0.282c-1.443-3.673-3.294-7.131-5.533-10.374c5.536,0.991,11.012,2.352,16.392,4.093
							c0.028,0.046,0.06,0.091,0.113,0.131c2.666,2.058,4.949,4.483,6.826,7.282c0.358,0.533,1.216,0.02,0.857-0.516
							c-1.673-2.495-3.671-4.696-5.958-6.621c7.1,1.368,14.305,1.86,21.539,1.419c0.64-0.039,0.619-1.039-0.026-1
							c-5.184,0.316-10.352,0.155-15.478-0.468l8.778-4.315c0.578-0.284,0.058-1.139-0.516-0.857c-3.33,1.637-6.66,3.274-9.99,4.911
							c-0.016,0.008-0.023,0.02-0.037,0.029c-2.147-0.306-4.286-0.687-6.415-1.159c-0.026-0.006-0.046,0.001-0.07-0.001
							c-6.272-1.994-12.676-3.481-19.15-4.466c3.264-2.541,6.383-5.247,9.338-8.145c0.461-0.452-0.258-1.148-0.717-0.698
							c-3.15,3.09-6.475,5.971-9.982,8.648c-9.877-1.392-19.908-1.615-29.886-0.625c18.243-15.098,39.175-26.929,61.605-34.656
							c1.152-0.397,2.316-0.755,3.476-1.129c0.052,0.036,0.116,0.065,0.193,0.079c5.548,1.048,10.706,3.154,15.401,6.289
							c0.536,0.358,1.022-0.517,0.49-0.872c-4.374-2.919-9.153-4.95-14.26-6.089c6.767-2.112,13.642-3.863,20.599-5.225
							c0.059,0.063,0.132,0.116,0.238,0.141c4.656,1.095,9.05,2.806,13.221,5.15c0.562,0.316,1.051-0.557,0.49-0.872
							c-3.742-2.102-7.664-3.706-11.787-4.821c0.483-0.089,0.966-0.179,1.45-0.267c7.069-1.046,14.151-0.596,21.032,1.368
							C699.24,259.312,699.479,258.341,698.861,258.164z"/>
					</g>
					<g id="XMLID_289_">
						<path id="XMLID_299_" style="fill:#9FCEBA;" d="M571.416,232.619c-6.377-11.945-18.27-19.237-30.208-24.73
							c-0.523-0.241-0.972,0.338-0.606,0.785c8.583,10.49,6.36,24.865,9.025,37.296c2.003,9.34,8.138,19.217,18.517,20.057
							c0.143,0.12,0.344,0.172,0.556,0.068c1.109-0.546,1.613-1.86,2.148-2.912C576.052,252.957,576.207,241.593,571.416,232.619z"
							/>
						<path id="XMLID_286_" style="fill:#9FCEBA;" d="M675.57,173.93c-18.687,0.136-38.075-0.615-55.784,6.355
							c-14.084,5.543-26.443,16.084-30.157,31.251c-1.904,7.776-1.299,15.994,2.402,23.128c0.16,0.455,0.393,0.874,0.816,1.152
							c0.667,0.439,1.482,0.337,2.227,0.512c0.151,0.035,0.279,0.004,0.38-0.063c13.8,1.647,28.017-2.154,39.089-10.62
							c11.148-8.524,17.274-21.315,24.74-32.828c4.472-6.896,9.606-13.394,16.539-17.956
							C676.223,174.597,676.086,173.926,675.57,173.93z"/>
						<path id="XMLID_295_" style="fill:#9FCEBA;" d="M639.976,254.649c-13.836-2.103-28.516-3.805-42.054,0.788
							c-9.151,3.104-17.443,9.03-22.095,17.517c-0.845,1.263-1.563,2.597-2.145,4.022c-0.136,0.334,0.109,0.555,0.392,0.587
							c10.278,7.1,24.155,8.065,35.41,2.676c12.076-5.782,17.683-20.189,30.492-24.625
							C640.392,255.469,640.507,254.73,639.976,254.649z"/>
						<g id="XMLID_288_">
							<path id="XMLID_271_" style="fill:#80AFA6;" d="M650.898,200.997c-6.096-2.548-12.487-4.015-19.068-4.422
								c5.323-4.126,10.841-8.001,16.56-11.573c0.545-0.34,0.043-1.206-0.505-0.863c-5.099,3.184-10.035,6.61-14.816,10.235
								c-0.002-0.009-0.006-0.018-0.009-0.027c0.025-0.051,0.05-0.102,0.058-0.166c0.63-4.714,0.788-9.424,0.473-14.17
								c-0.042-0.639-1.043-0.643-1,0c0.315,4.746,0.158,9.456-0.473,14.17c-0.005,0.039,0.01,0.064,0.012,0.098
								c-0.003,0.014-0.011,0.022-0.013,0.036c-0.039,0.294-0.079,0.588-0.119,0.882c-8.841,6.795-17.109,14.317-24.738,22.447
								c0.13-7.417-0.721-14.762-2.56-21.955c-0.159-0.623-1.124-0.359-0.964,0.266c1.886,7.376,2.725,14.906,2.516,22.515
								c-0.002,0.078,0.012,0.146,0.036,0.205c-6.121,6.611-11.82,13.62-17.054,20.969c-7.834,10.999-14.632,22.744-20.281,35.017
								c0.342-5.321,0.206-10.641-0.4-15.903c0.014-0.081,0.008-0.164-0.031-0.245c-0.432-3.661-1.099-7.292-1.984-10.878
								c0.109-0.028,0.213-0.089,0.29-0.207c1.992-3.053,3.647-6.276,4.986-9.666c0.236-0.599-0.73-0.858-0.964-0.266
								c-1.242,3.145-2.785,6.124-4.602,8.969c-0.423-1.619-0.909-3.223-1.424-4.82c-1.581-3.934-3.637-7.825-6.051-11.537
								c0.052-0.053,0.097-0.118,0.124-0.205c0.916-2.98,1.394-6.008,1.448-9.125c0.011-0.644-0.989-0.644-1,0
								c-0.049,2.83-0.48,5.584-1.26,8.295c-3.144-4.66-6.848-9.009-10.9-12.753c-0.472-0.436-1.181,0.269-0.707,0.707
								c5.342,4.936,9.877,10.592,13.55,16.805c-3.488-0.995-7.027-1.51-10.67-1.509c-0.643,0-0.645,1,0,1
								c3.863-0.001,7.616,0.571,11.303,1.717c0.022,0.007,0.04,0.002,0.061,0.006c0.811,1.432,1.593,2.882,2.312,4.37
								c0,0.001,0,0.002,0,0.004c2.093,5.881,3.548,11.931,4.356,18.067c-3.631-3.061-7.684-5.456-12.141-7.161
								c-0.602-0.23-0.862,0.736-0.266,0.964c4.659,1.782,8.856,4.344,12.58,7.658c0.649,5.661,0.755,11.387,0.296,17.116
								c-0.019,0.232,0.103,0.378,0.265,0.441c-5.382,11.988-9.677,24.462-12.751,37.236c-3.571,14.843-5.473,30.063-5.623,45.33
								c-0.006,0.644,0.994,0.644,1,0c0.268-27.207,6.199-54.215,16.965-79.186c9.084-21.07,21.552-40.685,36.824-57.811
								c0.068,0.157,0.209,0.279,0.432,0.277c7.948-0.052,15.75,1.278,23.234,3.949c0.607,0.217,0.869-0.749,0.266-0.964
								c-7.504-2.678-15.332-4.01-23.296-3.981c2.4-2.666,4.863-5.276,7.398-7.816c5.727-5.738,11.799-11.114,18.164-16.118
								c0.073,0.052,0.157,0.093,0.267,0.098c6.787,0.327,13.358,1.823,19.625,4.444
								C651.226,202.209,651.484,201.242,650.898,200.997z"/>
							<path id="XMLID_272_" style="fill:#80AFA6;" d="M629.569,255.335c-8.911,1.666-18.125,3.542-26.975,6.309
								c0.577-1.737,1.153-3.474,1.73-5.211c0.203-0.612-0.762-0.875-0.964-0.266c-0.648,1.952-1.296,3.905-1.944,5.857
								c-5.004,1.617-9.884,3.524-14.512,5.861c0.738-1.837,1.241-3.735,1.492-5.719c0.081-0.637-0.92-0.631-1,0
								c-0.285,2.246-0.918,4.398-1.881,6.446c-1.544,0.818-3.067,1.673-4.547,2.595c-0.137,0.026-0.253,0.103-0.334,0.209
								c-6.003,3.788-11.432,8.479-15.958,14.417c-0.39,0.512,0.478,1.01,0.864,0.505c4.41-5.786,9.705-10.368,15.565-14.073
								c5.536,2.565,10.781,5.64,15.716,9.231c0.521,0.379,1.021-0.488,0.505-0.863c-4.786-3.483-9.87-6.471-15.221-8.989
								c1.282-0.78,2.597-1.507,3.927-2.21c0.079-0.012,0.151-0.05,0.215-0.113c7.07-3.707,14.77-6.365,22.627-8.46
								c0.02,0.174,0.125,0.334,0.347,0.392c4.095,1.062,7.818,2.896,11.136,5.523c0.499,0.395,1.212-0.308,0.707-0.707
								c-3.252-2.575-6.868-4.435-10.838-5.567c6.536-1.685,13.162-2.997,19.609-4.203
								C630.466,256.181,630.199,255.217,629.569,255.335z"/>
						</g>
					</g>
				</g>
				<g id="XMLID_227_">
					<g id="XMLID_223_">
						<polygon id="XMLID_222_" style="fill:#F9C495;" points="662.626,306.768 590.309,305.529 517.812,308.385 591.193,330.08 
													"/>
						<polygon id="XMLID_267_" style="fill:#F4A279;" points="663.2,410.09 622.05,414.52 613.96,415.39 578.71,419.19 
							578.71,310.14 613.96,308.72 622.05,308.4 662.63,306.77 						"/>
						<polygon id="XMLID_260_" style="fill:#E0856C;" points="622.05,308.4 622.05,414.52 613.96,415.39 613.96,308.72 						"/>
						<polygon id="XMLID_219_" style="fill:#EA8E6E;" points="578.705,419.189 517.812,414.006 517.812,308.385 578.705,310.142 
													"/>
					</g>
					<g id="XMLID_226_">
						<polygon id="XMLID_225_" style="fill:#F7F2ED;" points="656.56,359.927 586.41,368.05 586.254,343.821 656.56,338.386 						
							"/>
						
							<text id="XMLID_224_" transform="matrix(0.6741 -0.0622 0 1 591.0729 362.0204)" style="fill:#42284C; font-family:'Montserrat-Medium'; font-size:18.5451px;">CLOTHES</text>
					</g>
				</g>
			</g>
			<g id="XMLID_297_">
				<g id="XMLID_283_">
					<g id="XMLID_263_">
						<path id="XMLID_281_" style="fill:#9FCEBA;" d="M158.638,201.026c0.102-0.08,0.178-0.198,0.196-0.355
							c1.829-15.919-11.952-28.256-26.704-30.384c-17.848-2.574-34.231,6.515-48.562,16.025c-0.404,0.268-0.262,0.928,0.252,0.932
							c15.258,0.099,26.265,12.131,39.487,17.893c11.588,5.05,24.904,3.958,35.362-3.23
							C159.024,201.663,158.91,201.198,158.638,201.026z"/>
						<path id="XMLID_284_" style="fill:#9FCEBA;" d="M165.005,214.823c-0.047-0.136-0.136-0.223-0.238-0.277
							c0.297-0.081,0.522-0.382,0.291-0.694c-5.146-6.945-14.665-7.003-22.05-4.043c-10.113,4.053-18.374,12.868-29.777,13.311
							c-0.523,0.02-0.645,0.645-0.252,0.932c9.9,7.226,22.746,11.569,35.086,10.342c5.34-0.531,10.823-2.452,14.289-6.746
							C165.269,224.036,166.555,219.284,165.005,214.823z"/>
						<path id="XMLID_264_" style="fill:#80AFA6;" d="M213.77,254.255c-14.412-23.899-35.547-43.438-60.258-56.289
							c0.41-4.23,0.423-8.445,0.038-12.678c-0.058-0.636-1.059-0.642-1,0c0.37,4.063,0.363,8.108,0,12.167
							c-3.547-1.813-7.166-3.49-10.85-5.021c-0.583-0.242-1.17-0.472-1.755-0.707c0.036-0.088,0.054-0.187,0.023-0.305
							c-1.853-6.988-5.374-13.297-10.34-18.552c-0.443-0.469-1.149,0.239-0.707,0.707c4.761,5.037,8.13,11.05,9.967,17.723
							c-7.023-2.748-14.247-4.947-21.606-6.6c0.003-0.081-0.008-0.165-0.054-0.252c-1.691-3.246-3.894-6.129-6.58-8.615
							c-0.472-0.437-1.181,0.269-0.707,0.707c2.478,2.293,4.511,4.936,6.123,7.891c-0.349-0.075-0.696-0.158-1.045-0.231
							c-0.048-0.01-0.09-0.003-0.134-0.001c-6.502-1.141-13.044-1.003-19.493,0.434c-0.628,0.14-0.362,1.104,0.266,0.964
							c5.408-1.205,10.881-1.473,16.339-0.818c-2.611,1.185-5.088,2.6-7.423,4.277c-0.518,0.372-0.019,1.24,0.505,0.864
							c2.609-1.875,5.386-3.439,8.341-4.699c0.117-0.05,0.181-0.127,0.219-0.212c0.438,0.068,0.875,0.126,1.312,0.206
							c0.01,0.002,0.018-0.002,0.028-0.001c6.699,1.408,13.283,3.291,19.704,5.607c-4.836,1.765-9.254,4.324-13.196,7.665
							c-0.492,0.417,0.219,1.121,0.707,0.707c4.081-3.46,8.687-6.059,13.755-7.772c0.055-0.018,0.094-0.049,0.135-0.078
							c5.968,2.22,11.78,4.839,17.419,7.788c-5.417,0.935-10.316,3.406-14.276,7.293c-0.46,0.452,0.247,1.158,0.707,0.707
							c4.11-4.035,9.296-6.549,15.019-7.233c0.002,0,0.003-0.001,0.006-0.002c6.989,3.751,13.696,8.029,20.023,12.82
							c-5.505,0.233-10.929,1.064-16.22,2.434c-2.847-1.595-5.445-3.527-7.79-5.797c-0.462-0.448-1.17,0.258-0.707,0.707
							c2.166,2.098,4.555,3.903,7.14,5.439c-3.602,1.002-7.138,2.258-10.586,3.776c-0.037-0.006-0.076-0.005-0.114-0.004
							c-0.052-0.112-0.153-0.202-0.318-0.234c-3.227-0.625-6.198-1.833-8.943-3.642c-0.539-0.355-1.04,0.51-0.505,0.864
							c2.612,1.721,5.452,2.917,8.493,3.592c-4.367,2.129-8.959,3.643-13.673,4.529c-0.028-0.013-0.049-0.031-0.082-0.04
							c-1.553-0.401-2.972-1.093-4.225-2.099c-0.497-0.399-1.209,0.304-0.707,0.707c0.92,0.738,1.918,1.322,2.983,1.771
							c-3.859,0.574-7.788,0.735-11.737,0.462c-0.642-0.044-0.64,0.956,0,1c3.447,0.238,6.88,0.132,10.267-0.271
							c-1.112,1.28-2.025,2.703-2.695,4.275c-0.249,0.585,0.612,1.096,0.864,0.505c0.78-1.832,1.866-3.464,3.267-4.88
							c0.027-0.027,0.037-0.056,0.055-0.085c3.731-0.549,7.397-1.478,10.95-2.782c-1.71,2.648-2.9,5.541-3.554,8.654
							c-0.132,0.628,0.832,0.896,0.964,0.266c0.734-3.494,2.144-6.665,4.231-9.553c1.236-0.499,2.459-1.039,3.663-1.629
							c0.045-0.008,0.09-0.011,0.137-0.033c4.61-2.121,9.393-3.76,14.287-4.926c-1.243,3.904-2.212,7.865-2.908,11.903
							c-0.108,0.629,0.855,0.9,0.964,0.266c0.703-4.08,1.683-8.082,2.945-12.026c0.046-0.143,0.024-0.265-0.032-0.364
							c4.848-1.088,9.8-1.716,14.808-1.85c7.369,5.698,14.226,12.066,20.442,19.032c6.098,6.834,11.529,14.23,16.258,22.072
							C213.238,255.31,214.104,254.808,213.77,254.255z"/>
					</g>
					<g id="XMLID_256_">
						<path id="XMLID_275_" style="fill:#9FCEBA;" d="M225.983,159.249c-3.204-11.854-11.145-22.09-21.611-28.434
							c-0.379-0.23-0.843,0.149-0.735,0.565c2.837,10.881-5.331,20.944-4.188,31.917c0.989,9.497,6.485,17.575,12.555,24.627
							c0.111,0.129,0.242,0.171,0.367,0.159c0.039,0.268,0.268,0.527,0.613,0.458C226.34,185.867,229.012,170.456,225.983,159.249z"
							/>
						<path id="XMLID_278_" style="fill:#9FCEBA;" d="M184.285,124.976c-11.706-11.646-27.815-13.396-43.508-14.372
							c-0.426-0.027-0.668,0.57-0.354,0.854c5.93,5.349,10.622,11.959,13.516,19.419c2.881,7.426,3.837,15.478,7.188,22.738
							c2.699,5.85,6.944,10.732,13.086,13.025c6.419,2.397,13.519,1.929,20.152,0.811c0.256,0.167,0.664,0.124,0.772-0.259
							C199.365,152.245,195.331,135.965,184.285,124.976z"/>
						<path id="XMLID_287_" style="fill:#9FCEBA;" d="M200.41,194.088c-10.914-4.739-22.323,0.827-33.501-1.637
							c-0.34-0.075-0.757,0.235-0.615,0.615c7.377,19.837,29.917,29.725,49.506,21.599c0.291,0.289,0.938,0.024,0.837-0.501
							C214.931,205.296,208.683,197.681,200.41,194.088z"/>
						<g id="XMLID_251_">
							<path id="XMLID_265_" style="fill:#80AFA6;" d="M212.07,195.515c0.027-0.046,0.052-0.093,0.064-0.155
								c0.645-3.433,1.136-6.884,1.494-10.344c0.019-0.006,0.036-0.003,0.055-0.011c3.725-1.579,7.149-3.643,10.303-6.175
								c0.502-0.403-0.21-1.106-0.707-0.707c-2.922,2.346-6.109,4.247-9.53,5.754c0.365-3.868,0.554-7.748,0.572-11.631
								c3.878-1.856,7.317-4.364,10.272-7.488c0.442-0.467-0.264-1.176-0.707-0.707c-2.766,2.924-5.963,5.28-9.552,7.072
								c-0.021-5.124-0.342-10.251-0.979-15.36c-0.001-0.021,0.006-0.039,0.002-0.061c-0.006-0.037-0.014-0.074-0.021-0.111
								c-0.011-0.084-0.019-0.169-0.028-0.253c1.455-3.344,2.621-6.771,3.483-10.318c0.152-0.625-0.812-0.892-0.964-0.266
								c-0.735,3.027-1.697,5.97-2.873,8.846c-1.302-6.683-3.35-13.158-6.149-19.379c-0.264-0.586-1.126-0.078-0.863,0.505
								c3.03,6.735,5.164,13.776,6.416,21.051c0.439,3.524,0.716,7.058,0.861,10.594c-2.889-2.872-6.277-5.068-10.099-6.555
								c-0.6-0.234-0.86,0.733-0.266,0.964c3.992,1.553,7.486,3.944,10.409,7.066c0.124,4.193,0.039,8.388-0.246,12.572
								c-2.41-1.843-4.934-3.504-7.6-4.96c-0.565-0.309-1.07,0.555-0.505,0.863c2.763,1.509,5.392,3.224,7.875,5.161
								c0.047,0.037,0.097,0.055,0.147,0.074c-0.324,4.199-0.851,8.385-1.598,12.548c-6.046-11.659-12.873-22.913-20.427-33.665
								c0.008-0.021,0.023-0.035,0.029-0.058c1.031-3.879,2.294-7.672,3.793-11.396c0.24-0.597-0.727-0.856-0.964-0.266
								c-1.406,3.493-2.596,7.05-3.59,10.68c-0.362-0.511-0.717-1.027-1.083-1.536c-6.216-8.646-12.914-16.934-20.037-24.844
								c0.081-0.08,0.137-0.191,0.134-0.341c-0.085-5.132-0.169-10.264-0.254-15.395c-0.011-0.643-1.011-0.645-1,0l0.243,14.762
								c-0.972-1.07-1.95-2.134-2.937-3.19c-0.016-0.035-0.023-0.069-0.05-0.104c-5.395-7.064-12.425-12.484-20.629-15.906
								c-0.593-0.248-0.852,0.72-0.266,0.964c7.067,2.948,13.265,7.513,18.228,13.298c-2.492-1.102-5.102-1.814-7.841-2.135
								c-0.638-0.075-0.633,0.926,0,1c3.214,0.376,6.246,1.332,9.104,2.849c0.027,0.015,0.053,0.015,0.08,0.024
								c6.949,7.379,13.499,15.122,19.631,23.181c-5.199,0.105-10.257,1.08-15.129,2.952c-0.594,0.229-0.336,1.196,0.266,0.964
								c5.016-1.928,10.233-2.909,15.604-2.932c21.778,28.875,38.177,61.763,48.083,96.584c3.555,12.494,6.253,25.218,8.107,38.074
								c0.091,0.634,1.055,0.365,0.964-0.266C236.782,255.411,226.782,224.264,212.07,195.515z"/>
							<path id="XMLID_274_" style="fill:#80AFA6;" d="M222.271,217.31c-3.427-2.659-7.486-3.697-11.647-4.448
								c0.108-0.136,0.137-0.32-0.001-0.51c-2.657-3.656-4.136-7.776-4.367-12.296c-0.033-0.64-1.033-0.644-1,0
								c0.236,4.612,1.71,8.879,4.39,12.632c-2.646-0.452-5.316-0.83-7.876-1.471c-0.311-0.078-0.618-0.169-0.927-0.252
								c-0.118-0.126-0.29-0.188-0.48-0.13c-2.475-0.687-4.899-1.528-7.258-2.521c0-0.069-0.014-0.141-0.045-0.214
								c-1.746-4.072-3.141-8.253-4.208-12.552c-0.155-0.624-1.12-0.36-0.964,0.266c1.015,4.09,2.349,8.063,3.967,11.949
								c-4.551-2.038-8.854-4.619-12.801-7.701c-0.501-0.392-1.214,0.311-0.707,0.707c2.259,1.764,4.624,3.373,7.084,4.817
								c-2.072,0.269-4.117,0.66-6.139,1.201c-0.621,0.166-0.358,1.131,0.266,0.964c2.187-0.585,4.4-1.011,6.65-1.267
								c0.182-0.021,0.306-0.122,0.384-0.249c3.697,2.066,7.591,3.771,11.662,5.036c0.318,0.099,0.643,0.185,0.967,0.274
								c-1.15,0.832-2.127,1.868-2.891,3.083c-0.344,0.546,0.521,1.049,0.863,0.505c0.849-1.349,1.983-2.436,3.343-3.253
								c7.064,1.662,15.228,1.636,21.03,6.138C222.066,218.407,222.779,217.704,222.271,217.31z"/>
						</g>
					</g>
				</g>
				<g id="XMLID_228_">
					<g id="XMLID_229_">
						<g id="XMLID_249_">
							<polygon id="XMLID_252_" style="fill:#F9C495;" points="106.917,308.196 179.235,306.957 251.731,309.813 178.35,331.509 
															"/>
							<polygon id="XMLID_269_" style="fill:#F4A279;" points="190.84,311.57 190.84,420.62 146.55,415.85 138.36,414.97 
								106.34,411.52 106.92,308.2 138.36,309.46 146.55,309.79 							"/>
							<polygon id="XMLID_258_" style="fill:#E0856C;" points="146.55,415.85 146.55,309.79 138.36,309.46 138.36,414.97 							"/>
							<polygon id="XMLID_270_" style="fill:#EA8E6E;" points="251.73,309.81 251.73,412.08 229.12,415.25 220.26,416.49 
								190.84,420.62 190.84,311.57 220.26,310.72 229.12,310.46 							"/>
							<polygon id="XMLID_259_" style="fill:#C67163;" points="220.26,310.72 220.26,416.49 229.12,415.25 229.12,310.46 							"/>
						</g>
						<g id="XMLID_230_">
							<polygon id="XMLID_247_" style="fill:#F7F2ED;" points="112.983,386.871 183.133,394.995 183.289,370.765 112.983,365.33 
															"/>
						</g>
						
							<text id="XMLID_250_" transform="matrix(0.9303 0.0822 0 1 116.6496 381.6813)" style="fill:#422748; font-family:'Montserrat-Medium'; font-size:12px;">DONATION</text>
					</g>
					<g id="XMLID_231_">
						<g id="XMLID_255_">
							<polygon id="XMLID_266_" style="fill:#F4A279;" points="187.98,230.43 187.98,310.42 153.75,309.17 148.14,308.97 
								127.05,308.2 126.57,232.32 148.14,231.66 153.75,231.48 							"/>
							<polygon id="XMLID_261_" style="fill:#E0856C;" points="153.75,231.48 153.75,309.17 148.14,308.97 148.14,231.66 							"/>
							<polygon id="XMLID_268_" style="fill:#EA8E6E;" points="234.54,232.1 234.54,308.2 220.26,308.88 211.26,309.31 
								187.98,310.42 187.98,230.43 211.26,231.27 220.26,231.59 							"/>
							<polygon id="XMLID_262_" style="fill:#C67163;" points="220.26,308.88 220.26,231.59 211.26,231.27 211.26,309.31 							"/>
						</g>
						<g id="XMLID_253_">
							<polygon id="XMLID_254_" style="fill:#F7F2ED;" points="130.87,290.051 182.331,291.628 182.445,268.516 130.87,269.867 
															"/>
						</g>
						
							<text id="XMLID_221_" transform="matrix(0.8161 0.0141 0 1 132.074 283.6853)" style="fill:#422748; font-family:'Montserrat-Medium'; font-size:12px;">CLOTHES</text>
					</g>
				</g>
			</g>
			<g id="XMLID_193_">
				<g id="XMLID_220_">
					<path id="XMLID_118_" style="fill:#E5DDD8;" d="M284.532,148.522v-3.884c0,0,5.638,0.621,8.824,6.691
						c3.656,6.964,5.427,45.126,7.87,46.81c2.443,1.684,24.409,5.778,24.409,5.778l3.239,13.161c0,0-39.117,6.355-44.674-0.695
						C278.643,209.334,284.532,148.522,284.532,148.522z"/>
					<path id="XMLID_62_" style="fill:#F7F2ED;" d="M248.55,137.84c0,0-16.226,2.542-18.848,8.257
						c-2.623,5.715,7.236,58.771,7.236,58.771l51.706,0.611c0,0-0.952-55.334-2.59-59.425c-1.043-2.607-11.002-4.137-11.002-4.137
						L248.55,137.84z"/>
					<path id="XMLID_52_" style="fill:none;stroke:#FFFFFF;stroke-miterlimit:10;" d="M257.273,106.732"/>
					<g id="XMLID_213_">
						<g id="XMLID_212_">
							<path id="XMLID_67_" style="fill:#5D808F;" d="M232.36,185.823c0,0,9.692-10.973,11.565-19.656l40.606,0.001
								c0,0,4.542,8.563,4.95,13.816c0.442,5.684,1.358,25.496,1.358,25.496h-56.997L232.36,185.823z"/>
							<path id="XMLID_63_" style="fill:#5D808F;" d="M250.982,166.167c-1.532-9.664-3.968-18.567-7.429-27.289
								c-1.574,0.142-4.25,0.861-5.845,1.756c2.995,9.432,5.102,17.687,6.217,25.533H250.982z"/>
							<path id="XMLID_68_" style="fill:#5D808F;" d="M277.722,166.167c0.553,0.096-0.126-13.537-2.67-24.373
								c1.735-0.011,5.26,0.85,6.88,1.561c2.08,6.158,2.227,14.211,2.6,22.813L277.722,166.167z"/>
						</g>
						<g id="XMLID_211_">
							<path id="XMLID_73_" style="fill:none;stroke:#446177;stroke-miterlimit:10;" d="M253.632,176.309h25.341
								c0,0,1.281,13.041,0.047,15.333c-1.234,2.292-9.443,6.316-10.5,6.492c-1.058,0.176-13.706-4.578-14.235-6.341
								C253.757,190.031,253.632,176.309,253.632,176.309z"/>
							
								<line id="XMLID_74_" style="fill:none;stroke:#446177;stroke-miterlimit:10;" x1="253.697" y1="180.589" x2="279.316" y2="180.589"/>
						</g>
					</g>
					<g id="XMLID_218_">
						<g id="XMLID_217_">
							<path id="XMLID_126_" style="fill:#547D87;" d="M303.425,389.057c0,0-8.274,12.016-30.721,7.922l13.032-14.752
								L303.425,389.057z"/>
							<g id="XMLID_133_">
								<g id="XMLID_131_">
									<polygon id="XMLID_142_" style="fill:#FCBFA9;" points="297.036,405.147 280.695,407.149 280.085,400.695 277.743,376.079 
										277.353,371.936 294.144,368.714 295.105,368.524 296.405,393.27 									"/>
									<path id="XMLID_137_" style="fill:#EF9C9C;" d="M296.405,393.27c-3.692-0.32-10.657,0.22-16.32,7.425l-2.341-24.616
										l16.4-7.365l0.961-0.19L296.405,393.27z"/>
								</g>
								<g id="XMLID_130_">
									<path id="XMLID_144_" style="fill:#422748;" d="M319.66,410.671c0,0,0,0.06-0.01,0.16
										c-0.65,6.034-37.464,14.399-40.296,12.178c-1.061-0.831-1.151-3.232-0.85-5.914c0.52-4.553,2.191-9.946,2.191-9.946
										c5.253-2.181,10.227-3.402,16.23-4.093c3.642-0.4,18.612-2.492,22.054,5.013c0.01,0,0.01,0,0.01,0
										C319.34,408.83,319.57,409.7,319.66,410.671z"/>
									<path id="XMLID_139_" style="fill:#634466;" d="M319.66,410.671c0,0,0,0.06-0.01,0.16
										c-0.65,6.034-37.464,14.399-40.296,12.178c-1.061-0.831-1.151-3.232-0.85-5.914c3.112-2.131,9.076-2.622,10.777-2.852
										c2.762-0.38,16.17-7.985,23.495-8.085c3.002-0.04,4.953,0.84,6.204,1.911c0.01,0,0.01,0,0.01,0
										C319.34,408.83,319.57,409.7,319.66,410.671z"/>
									<path id="XMLID_140_" style="fill:#908791;" d="M319.66,410.671c0,0,0,0.06-0.01,0.16
										c-0.65,6.034-37.464,14.399-40.296,12.178c-1.611-6.073,5.606-4.999,11.276-7.102c2.883-1.069,15.808-6.314,19.439-7.468
										C316.373,406.437,319.66,410.671,319.66,410.671z"/>
								</g>
							</g>
						</g>
						<g id="XMLID_141_">
							<g id="XMLID_59_">
								<path id="XMLID_148_" style="fill:#422748;" d="M209.887,414.288c-0.393,0.977-0.955,1.71-1.718,2.135
									c-7.033,3.941-26.2-31.999-24.227-35.378c0.361-0.616,0.891-1.116,1.517-1.53c2.832-1.891,8.646-1.964,8.646-1.964
									l10.935,4.96C205.04,382.511,213.112,406.32,209.887,414.288z"/>
								<path id="XMLID_146_" style="fill:#634466;" d="M209.887,414.288c-0.393,0.977-0.955,1.71-1.718,2.135
									c-7.033,3.941-26.2-31.999-24.227-35.378c0.361-0.616,0.891-1.116,1.517-1.53c1.252,4.866,5.283,13.6,10.326,21.301
									C201.966,410.256,205.199,414.468,209.887,414.288z"/>
							</g>
							<g id="XMLID_135_">
								<path id="XMLID_128_" style="fill:#FCBFA9;" d="M206.105,388.821c-6.108-1.972-10.027-5.797-12-11.27l4.567-4.601
									l17.408-17.56l2.932-2.952l13.226,10.834l0.761,0.616l-18.175,16.844L206.105,388.821z"/>
								<path id="XMLID_60_" style="fill:#EF9C9C;" d="M214.824,380.732c-3.806,0.751-10.653-2.276-16.153-7.782l17.408-17.56
									l16.158,7.882l0.761,0.616L214.824,380.732z"/>
							</g>
						</g>
						<g id="XMLID_216_">
							<path id="XMLID_65_" style="fill:#5D808F;" d="M233.843,205.479c0,0-2.191,95.872-7.255,116.585
								c-2.819,11.533-22.621,38.249-22.621,38.249c4.498,9.796,12.148,16.399,23.508,19.244c0,0,23.15-28.884,27.651-50.127
								c3.023-14.268,10.434-59.923,10.434-59.923l7.553,118.485l28.113-3.741L290.84,205.479H233.843z"/>
							<g id="XMLID_75_">
								
									<path id="XMLID_72_" style="fill:none;stroke:#446177;stroke-linecap:round;stroke-linejoin:round;stroke-miterlimit:10;" d="
									M236.464,227.045c0,0-1.437,83.193-7.132,98.89c-5.04,13.891-21.881,35.28-21.881,35.28"/>
								
									<path id="XMLID_122_" style="fill:none;stroke:#446177;stroke-linecap:round;stroke-linejoin:round;stroke-miterlimit:10;" d="
									M241.84,227.763c0,0,2.08,15.745-5.506,14.826"/>
							</g>
							<g id="XMLID_123_">
								
									<line id="XMLID_124_" style="fill:none;stroke:#446177;stroke-linecap:round;stroke-linejoin:round;stroke-miterlimit:10;" x1="269.055" y1="254.017" x2="268.425" y2="228.148"/>
								
									<path id="XMLID_125_" style="fill:none;stroke:#446177;stroke-linecap:round;stroke-linejoin:round;stroke-miterlimit:10;" d="
									M274.33,228.148c0,0,2.667,14.252-5.536,15.142"/>
							</g>
							<path id="XMLID_69_" style="fill:#77A9AA;" d="M271.537,381.431c10.987-5.93,21.161-8.128,30.584-6.975l1.304,14.602
								c-7.73-2.348-21.268,1.503-30.721,7.922L271.537,381.431z"/>
							<path id="XMLID_70_" style="fill:#77A9AA;" d="M234.535,373.999c-11.78-1.88-20.2-9.619-26.487-21.075l-8.103,8.608
								c5.284,11.551,14.699,19.677,26.798,25.579L234.535,373.999z"/>
							
								<path id="XMLID_129_" style="fill:none;stroke:#446177;stroke-linecap:round;stroke-linejoin:round;stroke-miterlimit:10;" d="
								M234.535,226.594c0,0,28.401,3.896,56.82-0.652"/>
						</g>
					</g>
					<g id="XMLID_210_">
						<path id="XMLID_77_" style="fill:#422748;" d="M239.75,82.369c0,0-6.052,16.153-1.554,31.298
							c3.829,12.893,12.848,25.429,34.423,23.635c15.597-1.297,21.487-26.616,17.551-40.267L239.75,82.369z"/>
						<g id="XMLID_127_">
							<path id="XMLID_134_" style="fill:#FCBFA9;" d="M273.161,141.63c0,0,0.527,14.234-8.641,14.234
								c-9.544,0-16.776-17.807-16.776-17.807c4.223-0.77,5.754-6.494,6.224-11.868c0.14-1.551,0.2-3.072,0.2-4.433
								c0.02-3.092-0.21-5.363-0.21-5.363l16.961,10.397c-0.04,0.16-0.07,0.32-0.1,0.48c-0.6,2.872-0.834,5.213-0.891,7.145
								C269.712,141.794,273.161,141.63,273.161,141.63z"/>
							<path id="XMLID_132_" style="fill:#EF9C9C;" d="M270.919,126.79c-0.04,0.16-0.07,0.32-0.1,0.48
								c-0.6,2.872-0.81,5.213-0.891,7.145c-5.363,1.211-12.598-3.182-15.96-8.225c0.14-1.551,0.2-3.072,0.2-4.433
								c0.02-3.092-0.21-5.363-0.21-5.363L270.919,126.79z"/>
						</g>
						<g id="XMLID_50_">
							<path id="XMLID_165_" style="fill:#422748;" d="M289.161,170.839c-3.362,10.146-12.518,11.527-12.518,11.527
								s5.784-6.194,0.63-13.679c-5.253-7.625-9.576-10.567-7.195-31.25l2.542-0.14c0,0,0.851-0.01,2.161,0.21
								c3.742,0.62,11.287,3.092,13.859,12.958C291.032,159.611,290.712,166.156,289.161,170.839z"/>
							<path id="XMLID_159_" style="fill:#57385B;" d="M289.161,170.839c-0.53-25.937-14.379-33.331-14.379-33.331
								c3.742,0.62,11.287,3.092,13.859,12.958C291.032,159.611,290.712,166.156,289.161,170.839z"/>
						</g>
						<g id="XMLID_209_">
							<path id="XMLID_58_" style="fill:#EF9C9C;" d="M279.732,111.468c0.482,3.267,4.198,5.425,8.298,4.819
								c4.101-0.605,7.034-3.745,6.551-7.012s-4.198-5.425-8.298-4.819C282.183,105.061,279.249,108.201,279.732,111.468z"/>
							<g id="XMLID_160_">
								<path id="XMLID_56_" style="fill:#FCBFA9;" d="M242.38,101.039c0.848,14.859,12.707,27.843,26.131,28.726
									c13.416,0.882,19.437-10.814,20.413-25.665c0.394-5.999,0.282-10.683-0.292-14.36c-0.221-1.465-0.966-19.525-22.889-18.531
									C252.305,71.818,241.075,78.165,242.38,101.039z"/>
								<path id="XMLID_51_" style="fill:#EF9C9C;" d="M250.119,105.334l2.555-4.2c0,0,18.037-7.341,21.317-16.89
									c0,0,11.884,9.155,14.648,14.276l-0.288-1.655c0,0-7.283-19.759-13.57-20.531c-6.288-0.772-24.545,15.337-25.544,20.256
									C248.237,101.509,250.119,105.334,250.119,105.334z"/>
							</g>
							<g id="XMLID_86_">
								<path id="XMLID_164_" style="fill:#422748;" d="M288.33,108.999c0.6-4.343,0.74-8.455-0.05-12.138
									c0,0-5.373-8.656-14.829-17.181c-0.56-0.51-2.221,11.878-22.104,20.813l-2.181,8.165l-9.646-2.792
									c0,0-6.975-20.193,6.054-31.96c1.181-1.061,2.361-1.971,3.542-2.732c11.487-7.445,22.704-1.931,22.704-1.931
									s9.806-3.632,18.902,9.346c2.972,4.233,4.073,8.305,4.123,12.048C294.954,99.273,289.431,106.107,288.33,108.999z"/>
								<path id="XMLID_162_" style="fill:#57385B;" d="M294.844,90.637c-6.206-18.973-21.215-16.466-21.215-16.466
									c-7.378-5.478-17.29-5.127-24.514-2.996c11.487-7.445,22.704-1.931,22.704-1.931s9.806-3.632,18.902,9.346
									C293.694,82.823,294.794,86.895,294.844,90.637z"/>
							</g>
							<path id="XMLID_53_" style="fill:#FCBFA9;" d="M235.127,104.306c-1.361,3.009,0.596,6.833,4.373,8.542
								c3.777,1.709,7.942,0.655,9.303-2.354c1.361-3.009-0.596-6.833-4.373-8.542C240.654,100.243,236.489,101.297,235.127,104.306
								z"/>
							<g id="XMLID_163_">
								<g id="XMLID_43_">
									<path id="XMLID_49_" style="fill:#434851;" d="M264.806,109.327c-0.06,0.918,0.538,1.705,1.336,1.757
										c0.798,0.053,1.494-0.649,1.555-1.567c0.06-0.918-0.538-1.705-1.336-1.757
										C265.563,107.708,264.867,108.409,264.806,109.327z"/>
									<path id="XMLID_48_" style="fill:#434851;" d="M281.696,109.327c-0.06,0.918,0.538,1.705,1.336,1.757
										c0.798,0.053,1.494-0.649,1.555-1.567c0.06-0.918-0.538-1.705-1.336-1.757
										C282.453,107.708,281.757,108.409,281.696,109.327z"/>
									
										<path id="XMLID_47_" style="fill:none;stroke:#40294D;stroke-linecap:round;stroke-linejoin:round;stroke-miterlimit:10;" d="
										M267.17,99.205c-1.452-1.143-4.701-1.352-6.853,0.383"/>
									
										<path id="XMLID_46_" style="fill:none;stroke:#40294D;stroke-linecap:round;stroke-linejoin:round;stroke-miterlimit:10;" d="
										M287.157,100.49c-1.299-1.538-5.072-2.174-6.914-0.902"/>
									
										<path id="XMLID_45_" style="fill:none;stroke:#BF5665;stroke-linecap:round;stroke-linejoin:round;stroke-miterlimit:10;" d="
										M275.487,107.757c0,0,1.234,3.954-0.707,7.461"/>
									
										<path id="XMLID_44_" style="fill:none;stroke:#BF5665;stroke-linecap:round;stroke-linejoin:round;stroke-miterlimit:10;" d="
										M273.521,119.578c0,0-5.452,2.95-8.261-2.592"/>
								</g>
								<g id="XMLID_61_">
									
										<line id="XMLID_57_" style="fill:none;stroke:#FFFFFF;stroke-miterlimit:10;" x1="257.273" y1="106.732" x2="250.21" y2="104.993"/>
									<path id="XMLID_41_" style="fill:none;stroke:#FFFFFF;stroke-miterlimit:10;" d="M290.17,107.4
										c0,3.573-2.897,6.47-6.47,6.47c-3.573,0-6.47-2.897-6.47-6.47s2.897-6.47,6.47-6.47
										C287.273,100.93,290.17,103.827,290.17,107.4z"/>
									<circle id="XMLID_54_" style="fill:none;stroke:#FFFFFF;stroke-miterlimit:10;" cx="263.743" cy="107.757" r="6.47"/>
									<path id="XMLID_55_" style="fill:none;stroke:#FFFFFF;stroke-miterlimit:10;" d="M269.391,104.604
										c2.934-1.58,5.777-1.828,8.477,0"/>
								</g>
							</g>
						</g>
					</g>
					<g id="XMLID_215_">
						<g id="XMLID_84_">
							<path id="XMLID_103_" style="fill:#EF9C9C;" d="M333.725,211.743c0,0,1.906,3.352-1.906,4.609
								c-3.813,1.256-9.841,0.859-10.168-0.992C321.323,213.509,333.725,211.743,333.725,211.743z"/>
							<path id="XMLID_104_" style="fill:#EF9C9C;" d="M336.798,212.421c0,0,1.906,3.353-1.906,4.609
								c-3.813,1.256-9.841,0.859-10.168-0.992C324.397,214.188,336.798,212.421,336.798,212.421z"/>
							<path id="XMLID_105_" style="fill:#EF9C9C;" d="M340.954,212.421c0,0,1.907,3.353-1.906,4.609
								c-3.813,1.256-9.901,0.868-10.168-0.992C328.578,213.94,341.004,211.935,340.954,212.421z"/>
							<path id="XMLID_106_" style="fill:#FCBFA9;" d="M344.519,211.743c0,0,1.907,3.352-1.907,4.609
								c-3.813,1.256-9.841,0.859-10.168-0.992C332.118,213.509,344.519,211.743,344.519,211.743z"/>
						</g>
						<g id="XMLID_214_">
							<g id="XMLID_91_">
								<g id="XMLID_96_">
									<path id="XMLID_99_" style="fill:#D74C58;" d="M355.014,175.063c-0.516,2.363-1.846,4.325-1.846,4.325
										s1.175,1.498,1.381,3.692c0.039,0.349,0.039,0.723,0.013,1.11c-0.09,1.356-0.607,2.892-1.975,4.467
										c-3.163,3.667-65.87,3.15-74.004,2.143c-5.874-0.736-9.993-5.564-9.605-11.284c0.181-2.569,1.265-5.319,3.525-7.953
										c8.069-9.386,73.333-4.312,73.333-4.312C354.833,167.472,355.762,171.668,355.014,175.063z"/>
									<path id="XMLID_98_" style="fill:#CE454F;" d="M354.562,184.191c-0.09,1.356-0.607,2.892-1.975,4.467
										c-3.163,3.667-65.87,3.15-74.004,2.143c-5.874-0.736-9.993-5.564-9.605-11.284c1.549,3.37,14.828,7.115,22.496,7.248
										c5.095,0.088,12.891-1.246,16.152-1.238C327.016,185.574,347.169,187.637,354.562,184.191z"/>
									<path id="XMLID_97_" style="fill:#CE454F;" d="M353.167,179.389c0,0,1.175,1.498,1.381,3.692
										c-0.775-0.491-1.833-0.93-3.253-1.123c-4.441-0.633-35.764-1.155-45.594,0.936c-4.762,1.013-8.037,2.808-8.876,1.375
										c-0.852-1.433,0.504-3.434,2.66-4.751c0,0-2.259-6.546-0.349-7.036c2.401-0.607,3.785,3.502,8.76,3.828
										c7.85,0.514,36.363,3.363,47.117-1.246C354.497,177.426,353.167,179.389,353.167,179.389z"/>
								</g>
								<g id="XMLID_92_">
									
										<path id="XMLID_95_" style="fill:none;stroke:#AD2D37;stroke-width:0.75;stroke-linecap:round;stroke-linejoin:round;stroke-miterlimit:10;" d="
										M300.94,176.659c0,0,1.68,2.954,6.347,2.859c4.667-0.095,37.288,0.712,45.356,0"/>
									
										<path id="XMLID_94_" style="fill:none;stroke:#AD2D37;stroke-width:0.75;stroke-linecap:round;stroke-linejoin:round;stroke-miterlimit:10;" d="
										M299.741,181.695c0,0,1.889-1.619,5.187-2.392"/>
								</g>
							</g>
							<g id="XMLID_82_">
								<g id="XMLID_79_">
									<path id="XMLID_93_" style="fill:#F4A378;" d="M353.858,197.286c-0.516,2.363-1.846,4.325-1.846,4.325
										s1.175,1.498,1.381,3.692c0.039,0.349,0.039,0.723,0.013,1.11c-0.09,1.356-0.607,2.892-1.975,4.467
										c-3.163,3.667-65.87,3.15-74.004,2.143c-5.874-0.736-9.993-5.564-9.605-11.284c0.181-2.569,1.265-5.319,3.525-7.953
										c8.069-9.386,73.333-4.312,73.333-4.312C353.677,189.695,354.607,193.891,353.858,197.286z"/>
									<path id="XMLID_89_" style="fill:#EF9073;" d="M353.406,206.414c-0.09,1.356-0.607,2.892-1.975,4.467
										c-3.163,3.667-65.87,3.15-74.004,2.143c-5.874-0.736-9.993-5.564-9.605-11.284c1.549,3.37,4.996,7.114,12.665,7.204
										C293.785,209.1,342.548,211.475,353.406,206.414z"/>
									<path id="XMLID_85_" style="fill:#EF9073;" d="M352.012,201.611c0,0,1.175,1.498,1.381,3.692
										c-0.775-0.49-1.833-0.929-3.253-1.123c-4.441-0.633-35.764-1.155-45.594,0.936c-4.762,1.013-8.037,2.808-8.877,1.375
										c-0.852-1.433,0.504-3.434,2.66-4.751c0,0-2.259-6.546-0.349-7.036c2.401-0.607,3.785,3.502,8.76,3.828
										c7.85,0.514,36.363,3.363,47.117-1.246C353.342,199.649,352.012,201.611,352.012,201.611z"/>
								</g>
								<g id="XMLID_81_">
									
										<path id="XMLID_78_" style="fill:none;stroke:#CC5A52;stroke-width:0.75;stroke-linecap:round;stroke-linejoin:round;stroke-miterlimit:10;" d="
										M299.784,198.882c0,0,1.68,2.954,6.347,2.859c4.667-0.095,37.288,0.712,45.356,0"/>
									
										<path id="XMLID_80_" style="fill:none;stroke:#CC5A52;stroke-width:0.75;stroke-linecap:round;stroke-linejoin:round;stroke-miterlimit:10;" d="
										M298.585,203.917c0,0,1.889-1.619,5.187-2.392"/>
								</g>
							</g>
						</g>
						<g id="XMLID_83_">
							<path id="XMLID_121_" style="fill:#FCBFA9;" d="M288.02,215.267c0,0,0.901,1.511-0.81,2.502c0,0,0.901,1.611-1.621,2.421
								c0,0-0.38,1.221-4.253,2.392c-2.361,0.71-8.665,0.5-13.218,0.23c-2.912-0.17-5.113-0.37-5.113-0.37l0.63-12.778
								c0,0,0.58-1.151,1.871-2.382c0.76-0.73,1.771-1.481,3.042-2.041c3.452-1.511,3.632-1.331,5.704-2.271
								c2.071-0.951,1.231,3.722-3.872,6.694c0,0,6.124,2.161,9.866,2.672c4.543,0.62,9.846-0.951,10.026,0.57
								C290.452,214.436,288.02,215.267,288.02,215.267z"/>
							
								<path id="XMLID_100_" style="fill:none;stroke:#EF9C9C;stroke-width:0.75;stroke-linecap:round;stroke-linejoin:round;stroke-miterlimit:10;" d="
								M287.454,215.541c-3.119,0.88-5.687,1.102-9.269,0.518"/>
							
								<path id="XMLID_101_" style="fill:none;stroke:#EF9C9C;stroke-width:0.75;stroke-linecap:round;stroke-linejoin:round;stroke-miterlimit:10;" d="
								M286.54,217.844c-2.314,0.903-6.148,1.458-9.269,0.797"/>
							
								<path id="XMLID_102_" style="fill:none;stroke:#EF9C9C;stroke-width:0.75;stroke-linecap:round;stroke-linejoin:round;stroke-miterlimit:10;" d="
								M284.832,220.327c-2.306,0.936-5.995,1.291-9.269,0.797"/>
							<path id="XMLID_119_" style="fill:#EF9C9C;" d="M268.117,222.812c-2.912-0.17-5.113-0.37-5.113-0.37l0.63-12.778
								c0,0,0.58-1.151,1.871-2.382L268.117,222.812z"/>
						</g>
						<g id="XMLID_120_">
							<path id="XMLID_71_" style="fill:#F7F2ED;" d="M237.524,147.418l-2.829-5.624c0,0-5.788,1.212-9.182,8.679
								c-3.394,7.466-7.806,63.326-3.394,69.573s43.155,4.734,43.155,4.734v-19.475c0,0-22.39-1.828-23.27-3.243
								c-0.597-0.96,0.273-31.112,0.273-31.112L237.524,147.418z"/>
							
								<path id="XMLID_87_" style="fill:none;stroke:#E5DDD8;stroke-linecap:round;stroke-linejoin:round;stroke-miterlimit:10;" d="
								M241.149,202.422c-3.897,0.419-7.468,3.102-8.955,6.728"/>
							
								<path id="XMLID_90_" style="fill:none;stroke:#E5DDD8;stroke-linecap:round;stroke-linejoin:round;stroke-miterlimit:10;" d="
								M239.102,201.321c-4.081-0.39-8.287,0.693-11.672,3.005"/>
							
								<path id="XMLID_117_" style="fill:none;stroke:#E5DDD8;stroke-linecap:round;stroke-linejoin:round;stroke-miterlimit:10;" d="
								M235.973,149.343c2.821,6.066,5.436,13.674,6.047,20.336"/>
						</g>
					</g>
				</g>
				<g id="XMLID_208_">
					<g id="XMLID_203_">
						<path id="XMLID_8_" style="fill:#40294D;" d="M534.327,97.111c0,3.726,3.315,11.048-5.914,11.819
							c-9.796,0.818-11.688-5.726-11.688-9.452c0-3.726,9.098-6.519,11.688-6.519C534.826,92.959,534.327,93.385,534.327,97.111z"/>
						<g id="XMLID_201_">
							<path id="XMLID_21_" style="fill:#FCBFA9;" d="M534.926,120.639c0,0-12.096,23.378-20.352,22.155
								c-8.265-1.223-11.918-16.972-11.918-16.972s3.935-0.7,4.177-7.541c0.08-2.302-0.258-5.295-1.312-9.198l21.519-10.655
								c0,0-0.282,2.334-0.266,5.497C526.806,110.161,528.021,119.617,534.926,120.639z"/>
							<path id="XMLID_17_" style="fill:#EF9C9C;" d="M527.04,98.427c0,0-0.282,2.334-0.266,5.497
								c-3.259,5.448-11.049,16.393-19.942,14.357c0.08-2.302-0.258-5.295-1.312-9.198L527.04,98.427z"/>
						</g>
						<g id="XMLID_199_">
							<path id="XMLID_9_" style="fill:#EF9C9C;" d="M496.532,95.93c-0.453,3.07-3.945,5.098-7.799,4.529
								c-3.854-0.569-6.61-3.519-6.157-6.59c0.453-3.07,3.945-5.098,7.798-4.529C494.229,89.91,496.986,92.86,496.532,95.93z"/>
							<path id="XMLID_10_" style="fill:#40294D;" d="M493.494,65.531c0,0-8.262-0.822-9.066,8.702
								c-1.303,15.432,5.127,19.741,5.127,19.741L493.494,65.531z"/>
							<g id="XMLID_195_">
								<path id="XMLID_20_" style="fill:#FCBFA9;" d="M531.634,86.13c0.918,13.957-11.942,26.166-24.557,26.995
									c-12.608,0.829-18.266-10.163-19.184-24.119c-0.371-5.637-0.265-10.04,0.274-13.495c0.208-1.377,0.482-2.604,0.829-3.7
									c2.704-8.67,9.392-8.884,18.137-9.459C519.749,61.523,530.716,72.173,531.634,86.13z"/>
								<path id="XMLID_18_" style="fill:#EF9C9C;" d="M528.508,91.707c0,0-11.775-4.783-14.11-16.38c0,0-17.773,6.04-26.231,0.184
									c0.208-1.377,0.482-2.604,0.829-3.7c4.288-3.726,13.485-5.887,21.465-8.404l14.413,8.109L528.508,91.707z"/>
							</g>
							<g id="XMLID_198_">
								<path id="XMLID_3_" style="fill:#40294D;" d="M537.46,70.755c0.867,10.376-2.273,18.926-5.268,20.211
									c-6.456,2.771-11.129-3.214-14.692-11.64c-3.562-8.426-1.114-16.944,1.791-18.874
									C527.518,54.986,536.699,61.638,537.46,70.755z"/>
								<g id="XMLID_197_">
									<path id="XMLID_40_" style="fill:#40294D;" d="M504.91,74.247c-7.905,1.325-15.174-0.044-19.184-3.171
										c-0.539-0.424-1.025-0.874-1.431-1.36c1.201-15.765,29.217-15.854,35.108-15.748c2.164,1.413,3.586,3.25,3.948,5.423
										C524.412,65.697,516.154,72.357,504.91,74.247z"/>
									<path id="XMLID_36_" style="fill:#553A60;" d="M519.404,53.968c-5.891-0.106-33.907-0.018-35.108,15.748
										c-0.892-1.024-1.466-2.19-1.678-3.462c-1.06-6.315,7.189-12.966,18.441-14.856
										C508.434,50.153,515.279,51.265,519.404,53.968z"/>
								</g>
							</g>
							<g id="XMLID_34_">
								<path id="XMLID_13_" style="fill:#434851;" d="M512.398,91.641c0.057,0.863-0.505,1.602-1.256,1.651
									c-0.75,0.049-1.404-0.61-1.461-1.473c-0.057-0.863,0.505-1.602,1.256-1.651C511.687,90.119,512.341,90.779,512.398,91.641z"
									/>
								<path id="XMLID_32_" style="fill:#434851;" d="M496.049,92.354c0.057,0.863-0.505,1.602-1.256,1.651
									c-0.75,0.049-1.404-0.61-1.461-1.473c-0.057-0.863,0.506-1.602,1.256-1.651C495.338,90.832,495.992,91.491,496.049,92.354z"
									/>
								
									<path id="XMLID_31_" style="fill:none;stroke:#40294D;stroke-linecap:round;stroke-linejoin:round;stroke-miterlimit:10;" d="
									M508.338,83.434c1.585-1.788,5.917-1.958,7.448,0"/>
								
									<path id="XMLID_33_" style="fill:none;stroke:#40294D;stroke-linecap:round;stroke-linejoin:round;stroke-miterlimit:10;" d="
									M489.075,84.169c0.911-0.903,2.176-1.44,3.459-1.468c1.283-0.028,2.57,0.454,3.519,1.317"/>
								
									<path id="XMLID_35_" style="fill:none;stroke:#BF5665;stroke-linecap:round;stroke-linejoin:round;stroke-miterlimit:10;" d="
									M499.947,90.423c0,0-0.585,5.737,1.238,9.032"/>
								
									<path id="XMLID_38_" style="fill:none;stroke:#BF5665;stroke-linecap:round;stroke-linejoin:round;stroke-miterlimit:10;" d="
									M503.236,103.89c0,0,5.022,0,8.825-5.084"/>
							</g>
							<path id="XMLID_6_" style="fill:#FCBFA9;" d="M538.45,89.2c1.28,2.828-0.56,6.422-4.109,8.028
								c-3.549,1.606-7.463,0.615-8.743-2.212c-1.28-2.828,0.56-6.422,4.109-8.028C533.256,85.382,537.171,86.372,538.45,89.2z"/>
						</g>
					</g>
					<g id="XMLID_207_">
						<g id="XMLID_16_">
							<polygon id="XMLID_24_" style="fill:#D74C59;" points="561.86,405.841 538.439,406.553 526.92,265.495 511.22,406.553 
								486.309,405.841 495.539,223.651 495.681,214.484 558.221,210.218 558.301,214.316 							"/>
							<polygon id="XMLID_22_" style="fill:#C44141;" points="526.92,265.495 525.372,253.87 516.071,251.679 513.59,385.257 
															"/>
							<polygon id="XMLID_19_" style="fill:#C44141;" points="558.301,214.316 495.539,223.651 495.681,214.484 558.221,210.218 
															"/>
							<g id="XMLID_153_">
								<g id="XMLID_143_">
									
										<line id="XMLID_149_" style="fill:none;stroke:#AA333F;stroke-linecap:round;stroke-linejoin:round;stroke-miterlimit:10;" x1="554.69" y1="208.73" x2="559.024" y2="402.327"/>
									
										<path id="XMLID_150_" style="fill:none;stroke:#AA333F;stroke-linecap:round;stroke-linejoin:round;stroke-miterlimit:10;" d="
										M549.837,209.677c0,0-1.067,18.594,4.853,18.594"/>
									
										<line id="XMLID_151_" style="fill:none;stroke:#AA333F;stroke-linecap:round;stroke-linejoin:round;stroke-miterlimit:10;" x1="538.659" y1="403.304" x2="561.2" y2="402.327"/>
								</g>
								
									<line id="XMLID_152_" style="fill:none;stroke:#AA333F;stroke-linecap:round;stroke-linejoin:round;stroke-miterlimit:10;" x1="487.119" y1="402.327" x2="511.103" y2="403.304"/>
							</g>
							
								<path id="XMLID_145_" style="fill:none;stroke:#AA333F;stroke-linecap:round;stroke-linejoin:round;stroke-miterlimit:10;" d="
								M520.255,210.218c0,0,0.566,26.365,2.44,42.072"/>
							
								<path id="XMLID_147_" style="fill:none;stroke:#AA333F;stroke-linecap:round;stroke-linejoin:round;stroke-miterlimit:10;" d="
								M524.714,212.215c0,0.506,4.582,21.602-3.524,21.483"/>
						</g>
						<g id="XMLID_206_">
							<g id="XMLID_12_">
								<path id="XMLID_26_" style="fill:#42284C;" d="M512.326,422.275l-46.049-0.031c-0.033-1.147,0.1-2.219,0.38-3.217
									c2.815-10.032,19.907-13.289,19.907-13.289l24.655,0.815l0.884,12.535L512.326,422.275z"/>
								<path id="XMLID_23_" style="fill:#89798E;" d="M512.326,422.275c-15.718,1.821-31.079,1.867-46.049-0.031
									c-0.033-1.147,0.1-2.219,0.38-3.217c14.725,1.135,29.904,1.077,45.447,0.061L512.326,422.275z"/>
								<g id="XMLID_5_">
									
										<path id="XMLID_2_" style="fill:none;stroke:#89798E;stroke-width:3;stroke-linecap:round;stroke-linejoin:round;stroke-miterlimit:10;" d="
										M478.31,408.79c0.521,1.273,0.945,2.596,1.267,3.951"/>
									
										<path id="XMLID_7_" style="fill:none;stroke:#89798E;stroke-width:3;stroke-linecap:round;stroke-linejoin:round;stroke-miterlimit:10;" d="
										M482.052,407.126c0.521,1.273,0.945,2.596,1.267,3.951"/>
									
										<path id="XMLID_11_" style="fill:none;stroke:#89798E;stroke-width:3;stroke-linecap:round;stroke-linejoin:round;stroke-miterlimit:10;" d="
										M485.852,406.144c0.521,1.273,0.945,2.596,1.267,3.951"/>
								</g>
							</g>
							<g id="XMLID_14_">
								<path id="XMLID_30_" style="fill:#42284C;" d="M537.333,422.275l46.049-0.031c0.033-1.147-0.1-2.219-0.38-3.217
									c-2.815-10.032-19.907-13.289-19.907-13.289l-24.655,0.815l-0.885,12.535L537.333,422.275z"/>
								<path id="XMLID_29_" style="fill:#89798E;" d="M537.333,422.275c16.46,1.513,32.282,2.15,46.049-0.031
									c0.033-1.147-0.1-2.219-0.38-3.217c-11.681,1.073-27.833,0.789-45.447,0.061L537.333,422.275z"/>
								<g id="XMLID_15_">
									
										<path id="XMLID_28_" style="fill:none;stroke:#89798E;stroke-width:3;stroke-linecap:round;stroke-linejoin:round;stroke-miterlimit:10;" d="
										M571.35,408.79c-0.521,1.273-0.945,2.596-1.267,3.951"/>
									
										<path id="XMLID_27_" style="fill:none;stroke:#89798E;stroke-width:3;stroke-linecap:round;stroke-linejoin:round;stroke-miterlimit:10;" d="
										M567.607,407.126c-0.521,1.273-0.945,2.596-1.267,3.951"/>
									
										<path id="XMLID_25_" style="fill:none;stroke:#89798E;stroke-width:3;stroke-linecap:round;stroke-linejoin:round;stroke-miterlimit:10;" d="
										M563.807,406.144c-0.521,1.273-0.945,2.596-1.267,3.951"/>
								</g>
							</g>
						</g>
					</g>
					<g id="XMLID_205_">
						<path id="XMLID_194_" style="fill:#573A60;" d="M503.236,141.781c-0.969-0.108-12.426-11.615-12.426-11.615
							s-6.329,2.027-16.917,27.013l8.636,17.87L503.236,141.781z"/>
						<path id="XMLID_4_" style="fill:#42284C;" d="M505.082,123.913c-1.76,7.095,0.129,12.786,6.979,16.568
							c8.745-4.306,14.991-12.09,20.383-21.064c0,0,18.785,1.49,21.875,8.587c3.216,7.386,4.762,84.109,4.762,84.109l-63.853,4.069
							c0,0-11.055-71.152-8.552-80.162C489.18,127.01,505.082,123.913,505.082,123.913z"/>
					</g>
					<path id="XMLID_172_" style="fill:#52767F;" d="M475.509,164.375c0,0,0.019,0.282,0.038,0.809
						c-0.912-0.517-1.439-0.809-1.439-0.809H475.509z"/>
					<g id="XMLID_204_">
						<g id="XMLID_178_">
							<g id="XMLID_177_">
								<path id="XMLID_171_" style="fill:#446472;" d="M363.361,228.257c0,0-1.188,10.694,1.528,11.883
									c2.716,1.188,14.598,4.75,19.521,2.375c4.923-2.375,5.432-12.954,5.432-12.954L363.361,228.257z"/>
								<path id="XMLID_76_" style="fill:#52767F;" d="M414.375,163.827c0-1.25-5.209-19.575-5.209-19.575
									s-23.063,12.127-28.505,20.921c-10.648,17.206-26.264,58.558-16.684,66.925c9.58,8.367,22.435,6.903,26.24,2.983
									c3.805-3.92,4.998-31.686,13.745-39.6C412.709,187.568,414.375,163.827,414.375,163.827z"/>
								<g id="XMLID_166_">
									
										<path id="XMLID_64_" style="fill:none;stroke:#446472;stroke-linecap:round;stroke-linejoin:round;stroke-miterlimit:10;" d="
										M395.632,195.739c-3.926-3.692-7.293-7.976-9.953-12.662"/>
									
										<path id="XMLID_157_" style="fill:none;stroke:#446472;stroke-linecap:round;stroke-linejoin:round;stroke-miterlimit:10;" d="
										M396.394,200.605c-4.912,0.666-10.035-0.327-14.342-2.78"/>
								</g>
							</g>
							<g id="XMLID_176_">
								<path id="XMLID_156_" style="fill:#446472;" d="M397.92,235.081c0,0-2.499,12.529,0,13.917s14.819,4.998,35.872,4.721
									c21.053-0.278,39.96-2.349,46.323-6.109c2.367-1.399-0.763-15.512-0.763-15.512L397.92,235.081z"/>
								<path id="XMLID_175_" style="fill:#5C8088;" d="M481.762,237.526c-5.99,8.454-73.593,14.482-85.761,0
									c-0.856-1.016-1.495-3.178-1.956-6.197c-2.906-19.108,1.448-72.088,5.332-79.075c9.366-16.842,70.424-21.6,76.837-1.448
									c0.95,2.962,2.407,11.566,3.799,22.296C483.125,197.09,485.9,231.686,481.762,237.526z"/>
								<path id="XMLID_173_" style="fill:#52767F;" d="M481.762,237.526c-5.99,8.454-73.593,14.482-85.761,0
									c-0.856-1.016-1.495-3.178-1.956-6.197c55.798,22.095,77.117-13.363,76.346-39.11l3.502,1.113
									c0,0-1.008-21.961-1.083-24.321c1.523,0.865,4.138,2.342,7.203,4.09C483.125,197.09,485.9,231.686,481.762,237.526z"/>
							</g>
							<g id="XMLID_174_">
								<path id="XMLID_169_" style="fill:#446472;" d="M499.385,239.829c0,0,2.019,9.286,5.249,8.882
									c3.23-0.404,15.9-6.056,16.227-8.075c0.326-2.019-0.901-13.852-0.901-13.852L499.385,239.829z"/>
								<path id="XMLID_66_" style="fill:#5C8088;" d="M459.775,158.412l7.259-16.631c0,0,28.869,16.405,37.878,29.846
									s19.33,55.043,16.435,60.471c-2.895,5.427-16.697,12.886-22.899,9.616c-6.202-3.27-9.684-37.486-14.599-40.818
									C478.935,197.564,461.441,183.403,459.775,158.412z"/>
								<g id="XMLID_154_">
									<g id="XMLID_88_">
										<path id="XMLID_170_" style="fill:#6B9699;" d="M468.315,142.38c0,0-13.231,10.419-43.952,12.121
											c-6.47,0.357-16.71-0.122-20.613-5.482c-1.091-1.495-1.194-3.931-0.987-6.15c0.103-1.194,0.301-2.323,0.489-3.216
											c0.903-4.401,8.736-6.827,30.261-6.827c16.908,0,27.402,4.862,32.029,7.655C467.403,141.59,468.315,142.38,468.315,142.38
											z"/>
										<path id="XMLID_168_" style="fill:#618B91;" d="M468.315,142.38c0,0-13.231,10.419-43.952,12.121
											c-6.47,0.357-16.71-0.122-20.613-5.482c-1.091-1.495-1.194-3.931-0.987-6.15c6.122,1.373,26.875,4.702,62.779-2.389
											C467.403,141.59,468.315,142.38,468.315,142.38z"/>
									</g>
									<path id="XMLID_155_" style="fill:#6B9699;" d="M468.313,142.379c0,0-48.627,11.252-65.632,3.645
										c0,0-5.163,1.564-2.783,9.137c2.38,7.572,14.6,21.099,32.991,19.801C451.279,173.663,468.313,142.379,468.313,142.379z"/>
								</g>
								<g id="XMLID_167_">
									
										<path id="XMLID_158_" style="fill:none;stroke:#446472;stroke-linecap:round;stroke-linejoin:round;stroke-miterlimit:10;" d="
										M484.783,199.098c0.093-5.51,2.904-10.909,7.365-14.144"/>
									
										<path id="XMLID_190_" style="fill:none;stroke:#446472;stroke-linecap:round;stroke-linejoin:round;stroke-miterlimit:10;" d="
										M462.518,164.375c0.565,14.02,6.371,23.076,15.745,31.874"/>
									
										<path id="XMLID_192_" style="fill:none;stroke:#446472;stroke-linecap:round;stroke-linejoin:round;stroke-miterlimit:10;" d="
										M455.244,181.57c4.956,5.557,11.499,9.683,18.649,11.762"/>
									
										<path id="XMLID_161_" style="fill:none;stroke:#446472;stroke-linecap:round;stroke-linejoin:round;stroke-miterlimit:10;" d="
										M487.82,199.671c2.326-2.172,5.055-3.91,8.007-5.1c0.975-0.393,2-0.731,3.052-0.705c1.051,0.027,2.142,0.476,2.703,1.365
										c0.8,1.266,0.267,3.036-0.83,4.055c-1.097,1.019-2.609,1.447-4.075,1.75c-1.466,0.303-2.983,0.527-4.296,1.247"/>
								</g>
							</g>
						</g>
						<path id="XMLID_180_" style="fill:#FCBFA9;" d="M505.401,159.263c-3.678-5.049-9.512-7.454-11.938-7.45
							c-1.781,0.003-7.429,1.244-9.925,3.646c-3.047,2.932-4.946,7.286-3.837,8.124c1.971,1.489,3.9-1.48,6.283-3.445
							c3.006-2.478,4.565-2.416,4.565-2.416s-1.98,0.939-4.148,2.924c-2.561,2.346-4.624,6.885-3.981,7.86
							c1.765,2.677,4.064-2.031,7.017-3.838c2.953-1.808,5.929-2.42,5.929-2.42s-2.91,0.947-5.143,3.037
							c-2.464,2.306-3.624,6.118-2.514,6.924c1.006,0.73,3.165-1.954,5.529-3.606c2.609-1.823,4.39-2.32,4.39-2.32
							s-1.969,0.847-4.005,3.021c-1.849,1.975-2.752,4.523-2.019,5.389c0.734,0.868,2.958-1.037,5.097-2.485
							c2.345-1.587,3.976-1.162,3.976-1.162s3.72,3.41,6.638,1.819C511.282,170.701,509.322,164.644,505.401,159.263z"/>
						<g id="XMLID_189_">
							<g id="XMLID_181_">
								<path id="XMLID_184_" style="fill:#FCBFA9;" d="M383.241,164.022c0,0-8.868-4.667-11.045-0.226
									c-1.326,2.704,6.536,15.486,9.477,14.708c2.941-0.778-2.382-11.652-2.382-11.652L383.241,164.022z"/>
								<path id="XMLID_183_" style="fill:#FCBFA9;" d="M386.424,159.498c0,0-8.868-4.667-11.045-0.226
									c-1.326,2.704,6.536,15.486,9.477,14.708s-2.382-11.652-2.382-11.652L386.424,159.498z"/>
								<path id="XMLID_182_" style="fill:#FCBFA9;" d="M390.656,155.127c0,0-8.868-4.667-11.045-0.226
									c-1.326,2.704,6.536,15.486,9.477,14.708c2.941-0.778-2.382-11.652-2.382-11.652L390.656,155.127z"/>
								<path id="XMLID_179_" style="fill:#FCBFA9;" d="M395.716,152.217c0,0-8.738-4.472-10.915-0.032
									c-1.326,2.704,6.536,15.486,9.477,14.708c2.941-0.778-2.382-11.652-2.382-11.652
									C393.071,154.147,394.324,153.12,395.716,152.217z"/>
							</g>
							<g id="XMLID_185_">
								
									<path id="XMLID_186_" style="fill:none;stroke:#BF5665;stroke-width:0.75;stroke-linecap:round;stroke-linejoin:round;stroke-miterlimit:10;" d="
									M385.059,153.779c0.741,2.672,1.663,5.003,2.867,6.798"/>
								
									<path id="XMLID_187_" style="fill:none;stroke:#BF5665;stroke-width:0.75;stroke-linecap:round;stroke-linejoin:round;stroke-miterlimit:10;" d="
									M379.946,157.661c0.78,2.509,1.948,4.782,3.504,6.82"/>
								
									<path id="XMLID_188_" style="fill:none;stroke:#BF5665;stroke-width:0.75;stroke-linecap:round;stroke-linejoin:round;stroke-miterlimit:10;" d="
									M375.756,162.421c1.494,3.686,3.202,6.652,5.436,9.157"/>
							</g>
						</g>
						<g id="XMLID_37_">
							<path id="XMLID_202_" style="fill:#FCBFA9;" d="M549.759,169.011c0,0-1.016,3.132-2.689,7.344
								c-3.395,8.567-9.526,21.581-15.394,21.722c-8.745,0.207-26.593-24.967-26.593-24.967l-0.47-8.332l0.357-6.065l20.848,16.334
								l5.36-12.874l0.498-1.204L549.759,169.011z"/>
							<path id="XMLID_200_" style="fill:#EF9C9C;" d="M549.759,169.011c0,0-1.016,3.132-2.689,7.344l-15.892-14.181l0.498-1.204
								L549.759,169.011z"/>
							<path id="XMLID_191_" style="fill:#573A60;" d="M530.015,160.257l22.58,14.654c0,0,7.659-21.077,7.838-27.8
								c0.18-6.723-1.089-19.19-10.674-23.355C540.175,119.591,530.015,160.257,530.015,160.257z"/>
						</g>
					</g>
				</g>
				<g id="XMLID_136_">
					<g id="XMLID_116_">
						<polygon id="XMLID_113_" style="fill:#D16961;" points="508.995,297.014 384.808,291.624 256.973,297.014 390.075,330.95 
													"/>
						<path id="XMLID_115_" style="fill:#573A60;" d="M355.347,299.293c0,0,31.587-4.066,40.146-3.784
							c8.559,0.282,57.34,6.406,57.34,6.406l-70.82,11.534L355.347,299.293z"/>
						<path id="XMLID_114_" style="fill:#5C8088;" d="M287.345,301.808c0,0,54.648-5.43,66.095-4.794
							c11.448,0.636,41.413,4.476,42.049,9.246c0.636,4.77-73.775,10.176-73.775,10.176L287.345,301.808z"/>
					</g>
					<g id="XMLID_112_">
						<g id="XMLID_111_">
							<polygon id="XMLID_196_" style="fill:#D16961;" points="508.995,297.014 535.524,351.006 479.106,351.006 							"/>
							<polygon id="XMLID_39_" style="fill:#F4A279;" points="509.358,434.039 346.63,444.457 346.63,302.72 508.995,297.014 
															"/>
						</g>
						<g id="XMLID_110_">
							<polygon id="XMLID_42_" style="fill:#EA8E6E;" points="346.63,444.457 257.45,428.206 256.973,297.014 346.63,302.72 							
								"/>
							<polygon id="XMLID_240_" style="fill:#F4A279;" points="346.628,302.722 328.74,357.774 237.805,347.947 239.629,343.096 
								239.639,343.077 256.974,297.018 339.149,302.247 							"/>
							<polygon id="XMLID_238_" style="fill:#F7BD8D;" points="339.149,302.247 260.278,304.473 239.639,343.077 256.974,297.018 
															"/>
						</g>
						<g id="XMLID_109_">
							<path id="XMLID_108_" style="fill:#F7F2ED;" d="M367.767,366.206c0,2.686,0,37.472,0,37.472l129.569-9.661l-0.888-33.893
								L367.767,366.206z"/>
							
								<text id="XMLID_107_" transform="matrix(0.9903 -0.0533 0 1 374.9056 391.4959)" style="fill:#42284C; font-family:'Montserrat-Medium'; font-size:20.7067px;">DONATION</text>
						</g>
					</g>
				</g>
			</g>
		</g>
	</g>
</g>
</svg>
