<?xml version="1.0" standalone="no"?>
<!DOCTYPE svg PUBLIC "-//W3C//DTD SVG 20010904//EN"
 "http://www.w3.org/TR/2001/REC-SVG-20010904/DTD/svg10.dtd">
<svg version="1.0" xmlns="http://www.w3.org/2000/svg"
 width="1080.000000pt" height="1080.000000pt" viewBox="0 0 1080.000000 1080.000000"
 preserveAspectRatio="xMidYMid meet">

<g transform="translate(0.000000,1080.000000) scale(0.100000,-0.100000)"
fill="#1f2d41" stroke="none">
<path d="M1430 10785 c0 -20 -92 -204 -138 -278 -182 -287 -411 -478 -672
-562 -72 -23 -106 -28 -220 -31 -129 -3 -182 3 -367 42 -32 6 -33 5 -33 -25 0
-17 4 -31 8 -31 5 0 51 -9 103 -21 144 -31 322 -36 439 -11 199 41 378 140
550 304 40 39 138 151 163 188 9 14 29 43 45 65 52 74 167 292 182 346 8 28 7
29 -26 29 -24 0 -34 -5 -34 -15z"/>
<path d="M9309 10757 c29 -42 44 -69 116 -202 112 -209 190 -316 292 -400 121
-100 263 -171 428 -214 153 -40 422 -44 603 -10 49 10 52 12 52 40 0 24 -4 29
-17 25 -56 -16 -250 -33 -348 -30 -353 12 -623 133 -803 362 -36 46 -90 136
-214 362 -63 113 -60 110 -101 110 l-38 0 30 -43z"/>
<path d="M4580 9529 l0 -131 34 -34 c30 -30 40 -34 88 -34 62 0 113 26 128 66
6 14 10 79 10 145 l0 119 -24 0 c-24 0 -24 -1 -28 -119 -2 -100 -6 -122 -22
-140 -29 -32 -88 -29 -115 5 -18 23 -21 41 -21 140 l0 114 -25 0 -25 0 0 -131z"/>
<path d="M4960 9495 l0 -165 25 0 25 0 0 115 c0 63 4 115 8 115 5 0 46 -52 93
-115 72 -98 88 -115 112 -115 l27 0 0 165 0 165 -25 0 -24 0 -3 -122 -3 -122
-90 122 c-77 103 -94 121 -117 122 l-28 0 0 -165z"/>
<path d="M5380 9495 l0 -165 25 0 25 0 0 165 0 165 -25 0 -25 0 0 -165z"/>
<path d="M5560 9495 l0 -165 25 0 c24 0 25 2 25 70 l0 70 60 0 c57 0 60 1 60
25 0 24 -3 25 -60 25 l-60 0 0 45 0 45 70 0 c68 0 70 1 70 25 0 25 0 25 -95
25 l-95 0 0 -165z"/>
<path d="M5814 9645 c3 -8 28 -48 56 -90 49 -73 50 -75 50 -150 0 -73 1 -75
25 -75 25 0 25 1 25 78 0 77 0 77 55 159 30 46 55 85 55 88 0 3 -13 5 -29 5
-25 0 -35 -9 -66 -60 -20 -33 -40 -58 -44 -55 -5 2 -23 29 -42 60 -28 46 -38
55 -62 55 -22 0 -28 -4 -23 -15z"/>
<path d="M6175 9386 c-27 -20 -15 -51 20 -51 23 0 31 5 33 22 4 29 -28 47 -53
29z"/>
<path d="M6978 8958 c-12 -9 -20 -43 -29 -118 -7 -58 -18 -108 -23 -112 -6 -4
-28 -8 -48 -8 -36 0 -37 1 -58 65 -23 68 -24 126 -2 133 8 2 19 -12 29 -37 11
-29 22 -41 36 -41 17 0 19 5 14 38 -15 89 -122 100 -147 14 -9 -30 -7 -51 7
-109 l19 -71 -38 -11 c-68 -21 -90 -90 -43 -136 28 -29 80 -33 125 -10 34 17
45 49 37 106 -4 28 -1 39 8 39 7 0 27 3 44 6 l31 7 0 -46 c0 -102 40 -131 60
-44 13 54 53 141 69 151 5 3 12 -39 16 -97 4 -56 11 -110 16 -119 21 -39 65
-14 92 50 12 29 15 31 27 18 19 -24 36 -19 63 15 l24 31 6 -51 c8 -71 22 -93
55 -89 22 2 34 16 65 73 l38 70 -6 -52 c-4 -41 -3 -53 8 -53 14 0 30 69 43
188 6 60 15 71 40 54 8 -5 9 -22 3 -57 -21 -128 -3 -219 46 -231 32 -8 64 19
90 76 l18 39 16 -32 c13 -25 22 -32 46 -32 24 0 33 7 52 39 l22 40 3 -45 c2
-36 7 -45 24 -47 17 -3 22 7 37 70 18 76 53 148 75 156 9 3 12 -19 12 -87 0
-107 10 -141 42 -141 30 0 42 9 65 48 18 30 21 31 26 13 9 -37 53 -27 77 17
l20 37 -3 -39 c-2 -34 -7 -42 -42 -62 -68 -37 -75 -104 -12 -104 46 0 82 30
103 88 9 26 34 64 56 86 48 48 51 72 3 26 l-35 -34 0 88 0 87 -50 -5 c-27 -3
-59 -10 -69 -15 -10 -6 -35 -46 -56 -88 -20 -43 -42 -88 -48 -101 -21 -43 -32
-16 -37 92 -5 107 -12 125 -48 126 -14 0 -49 -34 -69 -66 -11 -17 -12 -16 -12
13 -2 95 -61 77 -61 -19 0 -31 -58 -158 -72 -158 -13 0 -21 70 -16 146 5 67 3
74 -14 74 -10 0 -18 -7 -18 -15 0 -34 -61 -202 -84 -230 l-24 -30 -8 29 c-6
24 -2 113 9 236 2 23 -2 25 -62 33 -35 4 -66 5 -69 2 -3 -3 -8 -32 -10 -65 -2
-33 -8 -60 -13 -60 -5 0 -24 -31 -44 -69 -52 -105 -57 -101 -53 40 l3 124 -53
-1 c-60 -2 -95 -26 -107 -72 -4 -15 -23 -60 -42 -102 -32 -68 -36 -73 -43 -50
-5 14 -8 62 -9 107 -1 45 -4 88 -7 97 -11 28 -51 18 -84 -21 l-32 -38 6 50
c11 97 11 188 1 192 -6 2 -18 -2 -27 -9z m1262 -187 c0 -28 -62 -158 -67 -143
-3 7 -2 32 1 55 11 69 66 143 66 88z m-920 -1 c0 -16 -64 -140 -72 -140 -19 0
4 104 30 133 16 18 42 23 42 7z m-524 -127 c8 -54 -3 -77 -39 -81 -27 -3 -57
28 -57 59 0 27 39 69 65 69 21 0 25 -6 31 -47z m1424 -84 c0 -17 -31 -79 -40
-79 -19 0 -31 29 -21 49 17 31 61 53 61 30z"/>
<path d="M5705 8920 c-9 -17 -23 -30 -35 -30 -10 0 -22 -4 -25 -10 -4 -6 5
-10 20 -10 l27 0 -7 -77 c-6 -56 -16 -95 -37 -138 -17 -33 -32 -62 -35 -65
-13 -14 -23 37 -23 123 0 79 -3 97 -15 97 -10 0 -17 -14 -21 -41 -5 -31 -14
-45 -38 -60 l-30 -18 -38 71 c-34 66 -52 87 -70 88 -4 0 -13 -28 -20 -62 -10
-51 -18 -64 -43 -80 -16 -10 -32 -18 -35 -18 -3 0 -18 29 -34 65 -29 66 -58
101 -74 91 -5 -3 -15 -32 -21 -64 -9 -44 -23 -74 -57 -118 -53 -68 -70 -76
-84 -39 -17 44 -12 83 10 90 27 9 53 61 46 91 -14 55 -92 36 -115 -28 -22 -59
-96 -202 -107 -205 -6 -2 -17 16 -25 39 -35 105 4 269 43 183 14 -32 28 -32
28 0 0 35 -39 59 -74 46 -29 -12 -66 -65 -66 -96 0 -24 -95 -145 -114 -145 -8
0 -19 20 -25 44 -14 58 -15 53 18 70 39 21 57 71 36 103 -19 28 -56 30 -79 4
-23 -26 -45 -87 -46 -129 0 -42 -34 -108 -62 -123 -41 -22 -49 8 -46 177 3
138 1 154 -16 173 -26 28 -58 26 -96 -5 -31 -27 -31 -27 -37 -5 -5 20 -37 29
-46 13 -10 -15 -27 -272 -21 -311 5 -31 11 -41 25 -41 22 0 26 14 34 134 7
120 50 216 95 216 24 0 28 -47 16 -182 -8 -94 -7 -109 10 -144 16 -32 25 -40
52 -42 38 -4 65 15 89 62 l15 28 19 -31 c16 -26 25 -31 58 -31 36 0 42 5 77
52 l37 52 12 -49 c18 -71 65 -102 114 -76 9 5 28 32 41 60 l23 51 17 -39 c19
-41 35 -51 81 -51 22 0 36 9 59 42 33 46 37 41 15 -21 -12 -35 -12 -41 0 -41
14 0 65 140 65 178 0 9 4 23 9 31 6 9 14 -2 26 -39 l17 -52 -36 -30 c-40 -33
-45 -57 -18 -81 50 -45 129 3 119 71 -5 28 -2 34 23 47 l29 15 -19 -67 c-18
-66 -18 -87 -1 -67 12 14 39 92 54 159 l14 60 15 -36 c29 -68 29 -73 -5 -94
-60 -38 -44 -105 25 -105 42 0 68 32 68 83 0 34 4 44 24 53 23 11 24 9 30 -37
8 -57 28 -81 65 -77 20 2 31 14 50 53 l24 50 8 -43 c13 -70 30 -97 64 -100 35
-3 67 25 82 73 l10 30 17 -32 c29 -57 77 -40 110 37 l14 35 7 -27 c11 -41 47
-70 86 -66 26 2 41 13 67 47 30 40 33 42 26 15 -4 -16 -11 -40 -16 -53 -9 -25
-3 -41 11 -25 12 14 39 92 54 159 l14 60 15 -36 c29 -68 29 -73 -5 -94 -60
-38 -44 -105 25 -105 43 0 68 32 68 85 0 29 4 45 13 45 17 1 65 39 49 40 -7 0
-26 -6 -41 -14 l-28 -15 -28 60 c-29 60 -58 99 -75 99 -4 0 -15 -28 -23 -63
-11 -48 -26 -79 -62 -125 -27 -34 -54 -62 -62 -62 -16 0 -33 40 -33 81 0 18 5
29 14 29 22 0 56 49 56 79 0 47 -43 67 -81 38 -20 -15 -49 -70 -49 -92 0 -25
-70 -146 -81 -139 -5 3 -9 52 -9 110 0 94 -2 105 -17 102 -12 -2 -21 -20 -29
-58 -13 -64 -48 -158 -68 -186 -12 -16 -17 -17 -28 -6 -10 10 -12 48 -11 154
1 78 6 145 10 149 4 4 37 11 73 15 60 7 64 6 51 -9 -11 -14 -11 -18 3 -23 23
-9 28 -1 20 30 -6 25 -9 26 -75 26 -67 0 -69 1 -69 25 0 36 -35 33 -55 -5z
m-1065 -131 c0 -24 -17 -59 -29 -59 -5 0 -4 18 1 40 11 42 28 54 28 19z m376
-47 c-15 -15 -16 -14 -16 7 0 12 6 32 12 44 13 22 13 21 16 -7 2 -17 -3 -35
-12 -44z m1059 11 c-16 -32 -20 -34 -22 -17 -2 11 1 33 7 49 8 21 14 25 22 17
9 -9 7 -21 -7 -49z m-840 -123 c14 -45 -18 -78 -45 -45 -10 12 -9 20 4 40 20
30 33 32 41 5z m203 -17 c-2 -30 -7 -38 -23 -38 -26 0 -32 37 -10 59 26 26 36
19 33 -21z m850 0 c-2 -30 -7 -38 -23 -38 -26 0 -32 37 -10 59 26 26 36 19 33
-21z"/>
<path d="M3178 8932 c-21 -4 -25 -19 -33 -137 -5 -69 -13 -104 -35 -152 -45
-98 -53 -90 -54 59 -1 67 -5 91 -17 104 -24 23 -54 10 -89 -38 l-29 -39 -3 48
c-2 40 -6 48 -23 48 -16 0 -21 -11 -31 -70 -11 -71 -58 -170 -75 -159 -5 3 -9
52 -9 110 0 95 -2 105 -17 102 -21 -4 -30 -40 -32 -121 -2 -112 55 -155 105
-79 l22 32 7 -40 c6 -34 11 -41 27 -38 16 2 24 18 38 75 22 84 56 156 73 150
8 -2 13 -37 15 -102 1 -54 8 -105 14 -112 20 -25 56 -15 82 24 26 38 32 35 38
-17 2 -14 11 -26 21 -28 14 -3 17 4 17 32 0 42 -1 41 44 20 41 -20 79 -13 111
22 25 27 28 25 39 -18 4 -18 15 -30 31 -34 36 -9 54 1 67 37 12 36 28 23 28
-24 0 -23 4 -28 22 -25 17 2 25 17 43 84 24 88 52 144 72 144 10 0 13 -24 13
-96 0 -106 9 -134 45 -134 21 0 55 31 69 63 3 8 8 6 16 -5 19 -31 54 -22 78
20 l22 37 0 -32 c0 -35 -7 -43 -58 -74 -63 -37 -61 -99 4 -99 44 0 85 39 102
97 6 21 30 56 52 78 22 21 40 44 40 49 0 5 -16 -5 -35 -24 l-35 -34 0 88 0 87
-50 -5 c-27 -3 -59 -10 -71 -16 -11 -7 -42 -55 -67 -108 -26 -53 -53 -98 -59
-100 -10 -3 -13 21 -13 96 0 81 -3 104 -18 122 -25 31 -55 20 -90 -33 l-27
-41 -3 52 c-2 33 -8 52 -16 52 -22 0 -36 -24 -36 -64 0 -38 -55 -176 -70 -176
-15 0 -20 33 -20 126 0 75 -3 94 -14 94 -8 0 -18 -14 -21 -32 -4 -18 -19 -55
-32 -83 -47 -93 -74 -106 -111 -55 -26 34 -27 40 -8 40 23 0 78 51 93 87 29
70 -34 99 -97 46 l-32 -26 3 71 c2 39 1 72 -1 75 -3 2 -13 2 -22 -1z m122
-131 c0 -25 -44 -77 -70 -84 -27 -7 -25 1 10 56 30 48 60 62 60 28z m600 -29
c0 -9 -15 -49 -34 -87 -33 -67 -35 -69 -35 -35 -1 46 14 98 35 121 21 24 34
24 34 1z m-31 -234 c-11 -38 -33 -63 -48 -54 -17 11 -13 38 11 63 32 34 49 30
37 -9z"/>
<path d="M2548 8913 c-15 -4 -18 -17 -19 -91 0 -48 -4 -109 -7 -137 -6 -44
-10 -50 -34 -55 -35 -6 -68 -35 -68 -58 0 -51 76 -59 120 -12 25 27 31 28 61
20 43 -13 100 -12 119 0 11 7 1 10 -35 11 -27 0 -61 4 -75 8 l-25 7 4 136 c3
128 -2 179 -17 177 -4 -1 -15 -3 -24 -6z m-53 -333 c-16 -32 -35 -32 -35 -1 0
23 9 31 32 31 17 0 18 -2 3 -30z"/>
<path d="M2761 8866 c-12 -14 -5 -26 16 -26 15 0 18 26 4 34 -5 3 -14 0 -20
-8z"/>
<path d="M3407 8873 c-4 -3 -7 -12 -7 -20 0 -15 26 -18 34 -4 7 11 -18 33 -27
24z"/>
<path d="M5577 8873 c-4 -3 -7 -12 -7 -20 0 -15 26 -18 34 -4 7 11 -18 33 -27
24z"/>
<path d="M7743 8864 c-7 -19 2 -28 22 -21 19 8 19 23 0 31 -9 3 -18 -1 -22
-10z"/>
<path d="M1632 8714 c-16 -61 -58 -102 -112 -110 l-43 -7 51 -19 c62 -23 98
-63 107 -119 l7 -42 18 53 c22 66 44 87 111 110 43 15 48 19 26 19 -39 1 -100
35 -115 63 -6 12 -18 40 -25 61 l-13 38 -12 -47z"/>
<path d="M6426 8594 c-8 -21 -8 -24 4 -24 5 0 14 9 20 20 8 16 8 20 -4 20 -7
0 -17 -7 -20 -16z"/>
<path d="M4700 8258 c-23 -87 -44 -131 -87 -176 l-44 -47 6 128 6 127 -36 0
-35 0 0 -125 0 -125 -24 0 c-34 0 -56 -10 -56 -26 0 -16 31 -34 59 -34 17 0
21 -9 27 -60 6 -55 9 -60 30 -60 23 0 24 3 24 65 l0 65 60 0 c33 0 77 7 97 15
19 8 37 15 38 15 2 0 6 -20 9 -45 9 -54 29 -77 65 -73 18 2 31 13 42 37 13 27
17 30 22 17 4 -10 7 -29 7 -43 0 -19 4 -24 22 -21 17 2 25 17 43 84 24 88 52
144 72 144 10 0 13 -24 13 -96 0 -106 9 -134 45 -134 21 0 58 33 67 61 2 6 16
3 35 -7 27 -16 33 -16 48 -4 10 8 24 28 31 45 l12 30 5 -25 c3 -14 10 -51 17
-82 11 -58 38 -92 65 -82 16 6 32 41 41 91 l7 38 9 -32 c6 -22 15 -33 27 -33
14 0 22 18 40 82 21 81 54 148 72 148 11 0 12 -8 13 -117 1 -62 5 -86 18 -99
25 -25 65 -11 85 31 16 33 33 46 33 25 0 -22 41 -50 74 -50 29 0 40 7 62 38
44 59 45 59 29 7 -17 -59 -18 -65 -6 -65 12 0 45 89 61 165 l13 60 18 -40 c25
-55 24 -62 -16 -99 -40 -38 -42 -49 -15 -76 48 -48 120 -10 120 64 0 36 4 45
24 54 l24 11 -18 -67 c-18 -65 -18 -86 -1 -66 12 14 39 92 54 159 l14 60 15
-36 c29 -68 29 -73 -5 -94 -60 -38 -44 -105 25 -105 43 0 68 32 68 85 0 29 4
45 13 45 17 1 65 39 49 40 -7 0 -26 -6 -41 -14 l-28 -15 -28 60 c-29 60 -58
99 -75 99 -5 0 -15 -28 -22 -62 -12 -53 -19 -66 -45 -81 l-32 -18 -30 64 c-30
63 -65 106 -77 94 -4 -3 -13 -34 -21 -67 -10 -45 -25 -76 -60 -118 -25 -31
-52 -58 -59 -60 -16 -4 -34 37 -34 78 0 20 6 31 20 35 27 9 53 61 46 91 -4 14
-16 26 -30 30 -48 12 -87 -31 -99 -109 -7 -47 -52 -147 -66 -147 -16 0 -24 45
-19 108 6 67 -6 117 -29 126 -21 9 -59 -18 -83 -57 l-20 -32 0 48 c0 34 -4 49
-16 54 -24 9 -32 -6 -42 -77 -13 -89 -52 -220 -65 -220 -7 0 -8 66 -4 205 l6
205 -24 0 c-21 0 -25 -7 -35 -57 -7 -32 -14 -63 -15 -70 -2 -6 -17 -14 -33
-18 -40 -8 -60 -32 -107 -128 -56 -113 -65 -111 -65 11 0 81 -3 104 -18 122
-25 31 -55 20 -90 -33 l-27 -41 -3 52 c-2 33 -8 52 -16 52 -22 0 -36 -24 -36
-64 0 -38 -55 -176 -70 -176 -15 0 -20 33 -20 126 0 75 -3 94 -14 94 -9 0 -18
-16 -23 -42 -10 -50 -40 -75 -106 -87 -84 -15 -89 -7 -31 53 73 75 126 225 82
234 -13 2 -20 -8 -28 -40z m1096 -186 c-15 -15 -16 -14 -16 7 0 12 6 32 12 44
13 22 13 21 16 -7 2 -17 -3 -35 -12 -44z m-517 -14 c-12 -29 -25 -63 -30 -75
-13 -35 -19 -28 -19 21 0 33 7 52 26 75 38 46 46 38 23 -21z m-769 -48 c0 -5
-9 -10 -19 -10 -11 0 -23 5 -26 10 -4 6 5 10 19 10 14 0 26 -4 26 -10z m1508
-67 c-3 -41 -33 -59 -44 -28 -9 22 12 65 31 65 13 0 15 -9 13 -37z m200 0 c-2
-30 -7 -38 -23 -38 -26 0 -32 37 -10 59 26 26 36 19 33 -21z"/>
<path d="M4807 8203 c-4 -3 -7 -12 -7 -20 0 -15 26 -18 34 -4 7 11 -18 33 -27
24z"/>
<path d="M5443 7480 c-14 -35 -21 -41 -55 -46 -49 -8 -52 -34 -3 -34 l35 0 -6
-102 c-7 -97 -10 -109 -57 -203 -75 -152 -94 -165 -124 -87 -27 70 -26 254 2
300 23 39 34 37 60 -11 35 -64 64 -33 30 32 -29 57 -83 56 -140 -1 -32 -33
-45 -56 -55 -98 -13 -56 -77 -155 -138 -214 l-30 -28 -16 23 c-14 22 -35 97
-36 126 0 7 18 24 40 38 69 43 91 121 47 163 -63 60 -142 -5 -167 -137 -13
-68 -66 -194 -91 -217 -32 -29 -39 -4 -39 143 0 72 -4 143 -10 157 -26 69
-101 50 -152 -41 l-33 -58 -5 75 c-5 70 -7 75 -29 78 -13 2 -27 0 -32 -5 -5
-5 -14 -56 -20 -113 -12 -109 -47 -209 -83 -239 -29 -24 -36 3 -36 146 0 72
-4 143 -10 157 -26 69 -101 50 -152 -41 l-33 -58 -5 75 -5 75 -30 0 c-33 0
-42 -20 -44 -102 -1 -36 -5 -44 -25 -49 -31 -7 -81 15 -134 59 -42 35 -45 36
-72 22 -18 -9 -39 -36 -56 -72 -16 -32 -50 -95 -76 -140 -73 -124 -119 -150
-172 -96 -42 41 -61 121 -61 253 0 108 2 119 30 175 25 50 35 61 58 63 37 4
74 -20 94 -63 10 -21 24 -35 35 -35 14 0 18 8 18 41 0 35 -6 48 -39 80 -34 34
-44 39 -85 39 -59 0 -94 -18 -140 -71 -94 -111 -92 -314 4 -448 38 -52 70 -72
123 -78 55 -6 99 23 147 96 l34 54 8 -31 c17 -66 103 -95 146 -49 29 31 42 70
42 128 l0 49 54 0 53 0 7 -96 c4 -53 9 -101 12 -105 3 -5 18 -9 33 -9 27 0 29
4 41 63 29 139 91 277 124 277 19 0 26 -55 19 -157 -7 -110 7 -170 43 -184 36
-13 73 7 104 55 l25 39 5 -44 c5 -41 7 -44 36 -47 31 -3 31 -2 44 60 29 140
91 278 124 278 19 0 26 -55 19 -157 -7 -109 7 -170 43 -183 46 -18 99 22 126
96 6 19 14 34 18 34 3 0 13 -19 23 -40 29 -64 104 -90 155 -54 12 8 41 43 64
77 46 67 44 68 68 -23 16 -60 67 -110 112 -110 50 0 76 24 118 112 l39 79 6
-38 c14 -83 18 -99 36 -134 20 -40 35 -49 81 -49 45 0 81 43 111 135 31 91 33
115 13 115 -9 0 -24 -30 -41 -79 -27 -82 -62 -145 -80 -144 -21 2 -34 72 -34
188 -1 157 9 286 23 290 6 2 55 7 109 10 73 5 97 10 97 21 0 11 -21 14 -105
14 l-105 0 0 35 c0 32 -2 35 -31 35 -26 0 -33 -5 -46 -40z m-473 -204 c0 -32
-32 -86 -50 -86 -11 0 -2 52 16 98 16 40 34 34 34 -12z m-1125 -101 c21 -54
16 -131 -10 -171 l-18 -28 -20 25 c-16 20 -19 34 -14 89 6 69 24 130 37 130 5
0 16 -20 25 -45z"/>
<path d="M7428 7487 c-82 -50 -122 -136 -123 -262 0 -81 3 -97 33 -160 66
-139 153 -188 239 -135 30 18 46 39 101 130 l21 35 11 -32 c21 -59 70 -53 112
14 l23 38 12 -80 c13 -84 36 -128 71 -133 39 -6 62 18 112 116 48 93 50 95 45
52 -3 -25 -8 -57 -11 -73 -4 -19 -1 -29 11 -33 9 -4 18 -4 21 -1 8 7 41 211
49 301 l7 68 31 -6 c17 -3 32 -8 35 -11 2 -2 -1 -33 -7 -68 -17 -96 -14 -249
5 -297 18 -45 38 -60 83 -60 38 0 90 59 122 137 l22 55 18 -35 c35 -67 98 -95
150 -66 20 10 139 165 139 181 0 25 -32 -2 -85 -73 -33 -45 -68 -85 -77 -90
-24 -13 -45 21 -56 93 -9 57 -3 78 24 78 7 0 26 16 43 35 24 27 31 45 31 75 0
102 -111 105 -159 6 -11 -23 -36 -94 -56 -158 -52 -166 -111 -251 -129 -185
-10 37 -6 186 8 282 7 50 11 95 9 102 -3 6 -30 14 -61 17 -31 3 -75 8 -98 11
l-41 7 -6 -63 c-4 -34 -7 -79 -7 -100 0 -25 -5 -39 -12 -39 -7 0 -38 -49 -69
-108 -30 -59 -60 -105 -65 -102 -5 3 -7 79 -5 183 l3 178 -80 -3 c-100 -5
-118 -18 -172 -135 -86 -185 -156 -262 -215 -235 -93 43 -117 380 -34 486 37
47 107 27 135 -40 9 -23 21 -34 34 -34 48 0 7 118 -50 147 -39 20 -101 16
-142 -10z m1162 -202 c0 -40 -24 -95 -42 -95 -7 0 -9 14 -5 38 12 83 47 126
47 57z m-722 -26 c4 -21 -89 -202 -107 -208 -11 -3 -13 7 -7 53 8 67 28 122
59 154 23 25 50 26 55 1z"/>
<path d="M2163 7488 c-23 -29 -48 -193 -48 -323 0 -113 3 -136 22 -178 14 -30
31 -51 48 -57 59 -22 98 13 131 115 8 28 18 56 20 64 3 9 13 -2 26 -28 25 -52
69 -81 121 -81 72 0 114 38 132 118 7 36 6 36 73 22 48 -11 49 -12 66 -65 21
-67 62 -105 114 -105 20 0 46 8 58 18 25 21 124 158 124 172 0 24 -23 4 -85
-75 -90 -116 -118 -112 -132 20 -5 49 -5 50 33 70 68 36 92 134 41 170 -35 25
-66 18 -107 -23 -31 -30 -41 -51 -51 -100 -14 -68 -23 -73 -83 -48 -33 14 -33
14 -40 101 -10 135 -52 208 -118 208 -86 0 -72 -137 29 -261 l34 -42 -15 -53
c-33 -113 -67 -114 -103 -1 -12 38 -28 96 -35 129 -12 56 -15 60 -44 63 l-31
3 -32 -133 c-30 -125 -66 -227 -76 -216 -2 2 -9 38 -15 79 -8 54 -8 122 1 252
6 98 10 180 8 182 -13 12 -57 15 -66 3z m387 -68 c23 -45 39 -160 22 -160 -18
0 -72 120 -72 162 0 51 23 50 50 -2z m336 -125 c7 -27 -23 -96 -43 -103 -18
-5 -16 25 3 81 18 52 31 59 40 22z"/>
<path d="M6131 7468 c-21 -65 -41 -212 -41 -299 0 -168 32 -243 105 -243 49 0
68 23 99 122 l24 76 21 -42 c37 -72 117 -102 186 -70 25 11 65 72 65 100 1 33
15 38 72 27 l55 -11 17 -53 c21 -67 62 -105 114 -105 20 0 46 8 58 18 25 21
124 158 124 172 0 24 -23 4 -85 -75 -90 -116 -118 -112 -132 20 -5 49 -5 50
33 70 68 36 92 134 41 170 -35 25 -66 18 -107 -23 -31 -30 -41 -51 -51 -100
-15 -70 -26 -76 -89 -44 l-35 17 -5 90 c-7 104 -28 158 -74 186 -39 24 -51 24
-76 -1 -41 -41 -13 -155 59 -240 l41 -48 -16 -54 c-9 -29 -24 -62 -35 -73 -19
-19 -19 -19 -39 0 -11 12 -28 56 -40 105 -40 165 -38 160 -70 160 -24 0 -31
-5 -36 -27 -50 -220 -90 -337 -106 -309 -14 25 -19 192 -11 345 7 115 5 147
-5 158 -24 23 -50 15 -61 -19z m393 -41 c15 -20 21 -47 24 -100 4 -80 -1 -81
-42 -3 -17 31 -26 65 -26 93 0 50 12 53 44 10z m342 -132 c7 -27 -23 -96 -43
-103 -18 -5 -16 25 3 81 18 52 31 59 40 22z"/>
<path d="M9411 7314 c-2 -43 -43 -140 -73 -171 -28 -29 -108 -64 -173 -75 -12
-2 7 -11 45 -22 118 -33 158 -73 190 -189 l16 -59 19 67 c28 106 81 154 205
186 l45 12 -60 16 c-127 36 -159 68 -196 196 -10 33 -18 51 -18 39z"/>
<path d="M5710 6994 c-13 -33 -13 -34 5 -34 9 0 20 12 25 26 13 33 13 34 -5
34 -9 0 -20 -12 -25 -26z"/>
<path d="M6266 6211 c-3 -5 9 -12 28 -15 19 -4 36 -12 39 -20 4 -9 -7 -11 -49
-8 -107 9 -269 -97 -322 -210 -28 -60 -29 -98 -1 -45 11 20 21 37 23 37 2 0
-7 -30 -20 -67 -17 -49 -24 -90 -24 -143 0 -90 9 -109 35 -80 21 23 35 26 35
8 0 -7 -14 -21 -30 -30 -17 -9 -30 -22 -30 -28 0 -13 17 -13 25 0 15 24 21 -3
13 -52 -11 -67 -2 -161 21 -214 63 -142 212 -198 351 -132 70 33 95 52 86 66
-5 8 -25 3 -66 -18 -126 -64 -218 -58 -297 18 -94 91 -100 179 -32 474 10 45
15 50 70 80 33 17 80 49 104 70 l45 40 0 -45 c0 -49 17 -107 31 -107 5 0 9 6
9 13 0 6 11 -1 23 -17 27 -34 42 -29 51 16 l7 33 24 -30 c16 -19 21 -33 15
-39 -17 -17 -11 -25 19 -24 36 1 77 -24 86 -52 7 -21 20 -26 30 -10 9 14 74
-20 81 -42 4 -14 14 -18 37 -16 28 3 34 9 51 53 13 33 19 77 20 132 1 44 4 79
9 76 4 -2 7 -22 7 -44 0 -24 4 -38 10 -34 6 3 10 30 10 58 0 107 -82 214 -195
256 -66 25 -145 43 -165 39 -7 -2 -19 8 -26 20 -16 32 -39 54 -31 30 8 -22 -1
-22 -27 -3 -22 16 -72 20 -80 6z"/>
<path d="M8122 6201 c-107 -40 -200 -132 -245 -244 -18 -43 -21 -72 -21 -172
1 -81 6 -134 16 -162 17 -46 15 -53 -15 -53 -10 0 -34 -15 -52 -33 -32 -32
-45 -66 -60 -150 -3 -21 -15 -47 -27 -59 -29 -29 -10 -42 70 -46 76 -4 161 21
211 64 37 30 43 30 68 -4 29 -39 35 -65 23 -98 -6 -16 -9 -44 -5 -62 6 -32 7
-32 43 -26 50 9 197 61 248 88 37 18 41 24 33 44 l-8 22 -37 -19 c-56 -30
-113 -36 -179 -17 -105 31 -208 172 -222 306 -5 49 -3 60 9 60 8 0 33 16 55
35 38 32 46 35 106 35 65 0 93 13 66 31 -8 5 -40 8 -72 7 -54 -3 -58 -1 -53
17 2 11 7 36 11 55 l6 35 158 0 158 0 11 -40 c6 -22 13 -47 16 -55 5 -12 -5
-15 -53 -15 -33 0 -62 -3 -66 -7 -17 -17 12 -28 74 -28 60 0 70 -3 92 -26 13
-15 39 -33 58 -41 32 -14 33 -15 26 -60 -4 -25 -22 -77 -40 -116 -18 -38 -28
-64 -22 -58 21 21 37 11 62 -40 20 -39 36 -55 68 -70 69 -31 141 -23 174 20
19 24 15 49 -11 84 -14 18 -34 57 -46 87 -22 59 -59 100 -91 100 -23 0 -24 11
-3 91 24 94 16 227 -19 302 -37 80 -123 168 -200 203 -83 38 -232 45 -315 15z"/>
<path d="M2977 6163 c-4 -3 -49 -9 -101 -13 -75 -6 -104 -13 -145 -36 -150
-81 -225 -251 -265 -600 -12 -100 -17 -118 -44 -151 -78 -100 -114 -183 -79
-183 8 0 40 10 73 21 49 18 79 21 175 20 109 -2 119 0 143 21 l27 23 -25 115
c-18 82 -30 118 -43 125 -35 20 -83 73 -83 93 0 35 36 69 82 76 63 9 139 48
183 92 31 31 35 33 22 12 -21 -33 -13 -35 28 -8 17 11 42 20 57 20 28 0 50 21
30 28 -8 2 2 22 25 52 21 26 43 56 49 66 11 17 16 15 63 -33 28 -29 51 -57 51
-63 0 -5 -18 -10 -41 -10 -33 0 -40 -3 -37 -17 2 -14 15 -19 51 -21 44 -3 50
-6 62 -36 8 -18 17 -74 21 -123 6 -84 5 -95 -19 -147 -27 -59 -106 -145 -159
-172 -57 -29 -173 14 -240 89 -21 23 -38 37 -38 30 0 -25 41 -121 59 -137 11
-10 66 -41 122 -70 96 -49 106 -57 132 -104 16 -29 32 -52 37 -52 16 0 72 53
95 89 33 54 71 165 85 253 16 98 8 321 -14 403 -25 91 -80 197 -133 253 -64
68 -180 121 -206 95z"/>
<path d="M6115 5812 c-34 -21 -60 -50 -53 -58 3 -3 21 4 39 15 43 26 71 26 94
1 22 -24 45 -26 45 -5 0 24 -46 65 -72 65 -13 0 -36 -8 -53 -18z"/>
<path d="M3140 5745 c-8 -9 -8 -15 -2 -15 6 0 12 -10 14 -22 4 -28 26 -35 35
-11 4 10 14 24 22 30 14 11 14 14 1 23 -22 14 -56 12 -70 -5z"/>
<path d="M2923 5743 c-18 -7 -16 -23 1 -23 8 0 18 -9 21 -20 8 -26 31 -26 45
1 20 36 -21 61 -67 42z"/>
<path d="M6230 5624 l-54 -116 23 -19 c13 -11 27 -19 32 -19 15 0 10 20 -6 26
-22 9 -19 22 24 115 45 98 55 129 44 129 -4 0 -33 -53 -63 -116z"/>
<path d="M6094 5696 c-33 -33 -43 -56 -25 -56 5 0 16 11 25 25 9 14 25 25 36
25 17 0 20 -7 20 -40 0 -45 21 -55 40 -19 20 37 -10 99 -47 99 -8 0 -30 -15
-49 -34z"/>
<path d="M3080 5685 c0 -3 10 -19 22 -36 19 -26 21 -33 9 -50 -10 -17 -10 -20
0 -17 33 11 33 36 1 72 -18 20 -32 34 -32 31z"/>
<path d="M8092 5658 c-23 -5 -40 -13 -37 -18 8 -12 136 -9 132 4 -5 16 -49 23
-95 14z"/>
<path d="M8353 5658 c-38 -18 -26 -24 47 -26 80 -1 91 10 26 27 -51 13 -45 13
-73 -1z"/>
<path d="M6408 5643 c-22 -26 -40 -63 -30 -63 5 0 19 11 32 25 32 34 50 32 50
-4 0 -46 10 -64 26 -50 17 14 18 81 2 97 -18 18 -63 15 -80 -5z"/>
<path d="M2654 5618 c-4 -6 -2 -14 4 -16 7 -2 12 -10 12 -17 0 -7 7 -16 16
-19 23 -9 28 -1 9 14 -8 7 -15 21 -15 31 0 21 -15 25 -26 7z"/>
<path d="M8423 5585 c-43 -19 -42 -25 2 -11 19 6 35 14 35 18 0 10 2 10 -37
-7z"/>
<path d="M8082 5580 c14 -4 32 -11 40 -15 7 -3 4 1 -6 9 -11 9 -29 16 -40 15
-17 -1 -16 -2 6 -9z"/>
<path d="M6655 5548 c-69 -82 -77 -168 -16 -168 31 0 61 22 61 45 0 18 -28 45
-46 45 -20 0 -18 10 12 54 25 37 28 38 40 21 17 -23 33 -11 18 13 -18 28 -40
25 -69 -10z m10 -117 c8 -14 -28 -31 -44 -21 -10 6 -9 10 5 19 24 13 31 14 39
2z"/>
<path d="M3010 5491 c0 -5 14 -14 30 -21 23 -10 38 -10 63 -2 l32 12 -30 -4
c-16 -2 -45 2 -62 9 -18 8 -33 10 -33 6z"/>
<path d="M8190 5413 c0 -1 15 -6 34 -13 26 -8 41 -8 66 2 30 13 29 13 -34 13
-36 0 -66 -1 -66 -2z"/>
<path d="M6120 5393 c0 -44 61 -102 106 -103 24 0 69 32 85 62 17 31 4 33 -34
4 -46 -35 -79 -34 -111 5 -14 17 -26 35 -26 40 0 5 -4 9 -10 9 -5 0 -10 -8
-10 -17z"/>
<path d="M5405 5147 c-8 -20 -15 -41 -15 -47 0 -18 -76 -277 -136 -462 -29
-92 -59 -195 -66 -228 -8 -41 -17 -60 -27 -60 -8 0 -202 27 -430 60 -499 71
-541 76 -541 62 0 -15 -8 -14 460 -82 369 -54 560 -88 560 -100 0 -4 -31 -106
-69 -226 -38 -120 -90 -289 -116 -374 -25 -85 -62 -202 -80 -260 -19 -58 -39
-129 -45 -158 -5 -29 -25 -87 -45 -129 -19 -42 -35 -84 -35 -94 0 -42 71 -66
227 -78 135 -10 186 -30 353 -137 175 -113 288 -153 495 -175 162 -18 448 15
590 68 l50 19 -1 54 c0 30 -6 124 -12 208 -14 171 -6 277 29 365 11 27 18 51
16 53 -2 2 -28 -15 -58 -37 -159 -120 -396 -231 -539 -251 -75 -11 -81 -11
-107 8 -16 12 -52 24 -81 28 -29 4 -58 9 -66 12 -8 3 -32 -19 -62 -60 -57 -78
-93 -104 -197 -139 -87 -30 -108 -32 -175 -15 l-47 12 85 18 c47 10 94 19 105
21 39 4 11 77 -70 185 -26 34 -51 62 -56 62 -13 0 -11 -24 3 -38 9 -9 8 -12
-3 -16 -33 -11 -177 -37 -239 -42 -62 -6 -69 -5 -79 15 -9 15 -9 27 -1 41 10
18 7 22 -19 31 l-30 10 20 46 c21 48 190 600 255 831 21 72 43 132 48 132 6 0
198 -47 426 -105 228 -57 419 -100 423 -96 8 8 148 -36 162 -51 4 -3 -12 -54
-35 -113 -23 -58 -39 -109 -36 -112 3 -3 23 6 45 20 36 24 39 30 35 59 -5 27
6 56 54 149 56 110 128 311 154 429 6 30 15 60 20 65 10 11 11 14 -23 -140
-38 -174 -114 -371 -175 -452 l-25 -33 20 -37 c63 -123 258 -341 372 -417 54
-35 117 -58 195 -71 69 -11 77 3 133 225 74 290 84 360 84 545 0 138 -4 173
-26 256 -36 137 -80 235 -154 347 -77 116 -100 141 -177 198 -79 59 -120 60
-176 4 -51 -51 -105 -85 -169 -106 -30 -9 -51 -22 -51 -31 0 -25 -97 -350
-158 -533 -43 -125 -64 -174 -73 -171 -8 2 -144 36 -304 77 -379 95 -568 149
-572 161 -2 5 22 95 53 199 137 458 174 608 155 627 -7 7 -15 0 -26 -26z m-60
-1988 c4 -11 5 -22 3 -23 -13 -10 -206 -46 -246 -46 -38 0 -53 5 -71 24 l-22
23 93 12 c51 7 109 16 128 21 67 16 108 12 115 -11z m45 -79 c12 -22 13 -22
-56 -39 -106 -28 -145 -31 -180 -16 -46 19 -43 35 9 36 23 0 76 9 117 19 99
23 98 23 110 0z"/>
<path d="M5855 5093 c-96 -28 -101 -30 -93 -39 8 -7 311 -125 314 -121 3 3
-88 151 -106 172 -15 18 -6 19 -115 -12z"/>
<path d="M2150 5011 c0 -6 20 -32 44 -59 25 -29 56 -81 75 -128 18 -44 39 -86
47 -94 12 -12 14 -9 14 24 0 45 -45 145 -90 199 -33 38 -90 75 -90 58z"/>
<path d="M4363 4902 c-12 -8 -54 -162 -46 -174 2 -5 21 -8 41 -8 25 0 44 8 64
27 21 20 28 23 28 11 0 -18 26 -48 42 -48 5 0 25 15 43 33 l33 33 -5 -33 c-7
-39 17 -47 35 -10 8 16 11 18 11 5 1 -9 9 -24 18 -33 16 -16 17 -16 30 1 12
16 13 16 13 1 0 -23 17 -21 30 3 15 27 29 25 40 -6 19 -50 47 -11 49 69 1 20
6 37 12 37 6 0 9 -24 7 -66 -2 -44 1 -68 8 -71 14 -5 34 49 34 92 0 24 5 34
20 38 19 5 20 2 14 -46 -10 -76 -10 -79 4 -84 7 -3 15 8 18 27 l7 31 14 -30
c19 -38 47 -47 78 -27 22 15 25 15 25 1 0 -23 20 -18 29 8 8 21 9 20 24 -15
15 -37 39 -49 52 -28 4 6 21 8 40 4 69 -13 94 14 70 73 -19 45 -19 53 1 53 20
0 13 24 -8 28 -9 2 -23 -5 -33 -14 -16 -17 -16 -28 1 -82 6 -21 4 -23 -17 -20
-23 3 -24 6 -21 61 4 71 -11 74 -33 6 l-17 -51 -19 42 c-11 23 -19 48 -19 56
0 8 -7 14 -15 14 -8 0 -15 -7 -15 -15 0 -8 -4 -15 -9 -15 -5 0 -14 7 -21 15
-19 23 -66 19 -84 -7 -14 -19 -16 -20 -16 -5 0 10 -9 28 -21 40 -17 18 -32 22
-88 24 -78 1 -81 0 -110 -47 l-21 -35 6 35 c4 19 7 39 8 44 0 6 -6 11 -16 13
-11 3 -20 -7 -29 -34 l-12 -38 -9 28 c-11 31 -44 37 -51 10 -3 -11 -5 -8 -6 9
-1 26 -25 48 -51 48 -6 0 -22 -11 -35 -25 -23 -22 -25 -23 -25 -5 0 42 -61 75
-97 52z m49 -47 c14 -31 0 -68 -32 -85 -21 -11 -22 -10 -16 19 3 17 9 45 12
61 7 37 21 38 36 5z m118 -39 c0 -13 -9 -34 -20 -47 l-19 -24 -1 27 c0 37 18
81 30 73 5 -3 10 -17 10 -29z m210 -41 c0 -8 -4 -15 -10 -15 -5 0 -7 7 -4 15
4 8 8 15 10 15 2 0 4 -7 4 -15z m259 -12 c11 -21 -3 -53 -24 -53 -15 0 -20 26
-9 54 8 21 21 20 33 -1z"/>
<path d="M7654 4516 c-23 -50 -45 -103 -48 -118 -6 -25 -4 -28 21 -28 26 0 29
5 51 83 12 45 25 96 28 113 12 62 -12 40 -52 -50z"/>
<path d="M8824 4562 c4 -28 18 -81 31 -117 14 -37 23 -70 21 -74 -3 -4 -40
-16 -82 -26 -59 -14 -97 -16 -168 -11 -104 7 -152 -3 -186 -39 -29 -31 -64
-32 -84 -3 -12 16 -30 24 -73 29 -75 9 -172 11 -212 3 -26 -6 -30 -10 -25 -30
6 -24 6 -24 -85 -24 -50 0 -91 -3 -91 -7 1 -5 8 -35 16 -68 10 -40 17 -125 20
-260 2 -110 6 -206 9 -212 9 -26 33 -12 42 25 8 33 13 37 42 40 63 6 114 -31
123 -88 2 -19 -4 -28 -24 -38 -16 -7 -31 -24 -34 -38 -3 -13 -9 -24 -13 -24
-15 0 -71 41 -67 49 3 5 -1 14 -9 21 -12 10 -14 3 -11 -49 1 -34 0 -61 -3 -61
-14 1 -29 16 -34 35 -3 11 -5 -18 -5 -64 1 -98 0 -99 -100 -132 -79 -26 -113
-23 -219 24 -75 33 -186 57 -264 57 -29 0 -30 -2 -29 -42 1 -24 1 -103 1 -175
-1 -111 -3 -133 -16 -133 -24 0 -17 -34 13 -62 15 -14 50 -37 77 -51 28 -14
61 -34 75 -45 22 -17 23 -23 12 -46 -14 -31 -27 -32 -111 -6 -36 11 -67 18
-69 15 -8 -8 74 -37 118 -42 36 -4 50 -1 70 17 18 16 33 20 54 16 16 -4 32 -8
34 -11 12 -11 -13 -60 -46 -91 -58 -55 -86 -67 -130 -54 -52 14 -73 11 -37 -5
17 -8 48 -14 71 -15 34 0 48 7 96 50 37 33 62 48 72 44 25 -10 19 -35 -18 -74
l-35 -35 10 -115 c20 -224 72 -468 140 -651 l30 -84 -6 -255 c-8 -298 -14
-261 133 -860 l88 -355 29 -6 c49 -11 201 -10 253 1 l49 11 11 107 c36 333 56
855 53 1427 -2 482 2 616 16 601 13 -13 24 -277 33 -841 9 -616 10 -622 46
-950 21 -181 38 -332 40 -333 1 -2 51 -14 111 -27 59 -13 135 -31 167 -39 33
-9 61 -15 62 -13 1 1 9 36 17 77 8 41 40 190 70 330 101 465 125 665 107 901
-9 120 -7 142 20 321 50 332 62 456 66 693 l4 230 65 3 65 3 0 362 0 363 -22
19 -23 20 110 6 c122 7 115 6 115 17 0 4 -45 7 -100 7 -104 0 -138 13 -125 47
5 12 28 16 103 20 65 4 109 11 135 23 51 26 47 38 -5 16 -49 -21 -162 -36
-201 -26 -55 14 -37 74 23 77 l35 1 -35 4 c-41 5 -60 19 -60 43 0 28 24 41
102 55 40 7 63 14 51 14 -27 1 -29 8 -7 32 30 33 9 42 -23 9 -49 -50 -67 -39
-71 43 -2 37 -1 67 2 67 14 0 138 -51 161 -66 30 -20 75 -92 75 -121 0 -26
-16 -39 -77 -64 -42 -17 -44 -19 -14 -14 19 3 47 12 63 19 15 8 28 10 28 5 0
-6 5 -7 11 -3 16 10 6 85 -18 131 -23 45 -64 75 -141 103 -84 30 -85 30 -85
84 0 41 5 52 39 87 21 22 65 57 97 76 31 20 57 39 57 43 0 4 -8 18 -19 31
l-18 23 -109 -97 c-79 -70 -116 -97 -135 -97 -15 0 -56 20 -93 45 -37 25 -76
45 -86 45 -13 0 -26 15 -39 43 -11 23 -27 54 -37 68 -16 25 -16 26 12 54 35
35 15 49 -21 15 l-24 -23 -7 42 c-10 62 -28 65 -20 3z m-365 -549 c19 -68 14
-99 -20 -128 -40 -33 -49 -24 -56 51 -5 53 -3 62 20 87 34 36 44 34 56 -10z
m-59 -222 c0 -3 -16 -16 -34 -28 -19 -12 -46 -38 -61 -57 l-26 -34 27 -27 c21
-21 25 -32 20 -58 -12 -59 -58 -84 -100 -54 -10 7 -22 35 -27 62 -5 27 -17 57
-26 68 -17 18 -17 19 2 29 10 6 37 28 59 48 65 58 81 66 125 62 23 -2 41 -7
41 -11z m-252 -169 c2 -12 10 -22 18 -22 17 0 17 -5 4 -30 -20 -37 -110 -36
-110 1 0 23 16 25 36 4 12 -11 20 -12 35 -5 27 15 24 30 -6 30 -26 0 -29 7
-19 35 9 23 38 14 42 -13z m268 -19 l18 -48 9 43 c4 23 13 42 18 42 6 0 8 -12
5 -27 -3 -16 -8 -47 -11 -70 -9 -56 -28 -55 -49 2 -22 56 -36 58 -36 5 0 -30
-4 -40 -16 -40 -10 0 -14 6 -10 18 2 9 8 41 11 70 9 70 35 72 61 5z m165 -13
c19 -99 20 -110 7 -110 -7 0 -19 9 -26 20 -15 25 -41 26 -58 3 -28 -40 -26 2
4 63 37 74 62 83 73 24z m105 20 c24 0 34 -5 34 -15 0 -8 -8 -15 -19 -15 -20
0 -31 -26 -31 -77 0 -26 -4 -33 -20 -33 -11 0 -18 5 -16 13 3 6 7 33 10 58 5
41 3 47 -15 52 -13 3 -18 10 -14 17 4 6 14 9 22 6 8 -3 30 -6 49 -6z m79 -45
c-3 -19 -7 -51 -10 -70 -4 -23 -11 -35 -21 -35 -13 0 -15 8 -9 43 12 83 17 97
31 97 11 0 14 -8 9 -35z m118 12 c29 -20 32 -77 7 -110 -41 -52 -105 -27 -105
43 0 63 54 100 98 67z m115 -54 l21 -48 7 43 c10 62 27 53 19 -10 -13 -106
-25 -113 -59 -36 -21 47 -23 49 -29 27 -4 -13 -7 -34 -7 -46 0 -13 -4 -23 -10
-23 -12 0 -13 28 -4 94 9 63 34 63 62 -1z m-184 -1942 c11 -17 -44 -71 -71
-71 -26 0 -83 35 -83 51 0 5 15 9 33 10 17 1 43 5 57 9 35 11 58 12 64 1z
m-704 -16 c10 -12 9 -16 -5 -21 -19 -8 -91 11 -100 26 -10 17 91 12 105 -5z"/>
<path d="M8226 3654 c-17 -17 -21 -34 -8 -34 4 0 13 5 19 11 8 8 10 0 6 -31
-6 -41 8 -67 30 -53 28 17 30 93 2 93 -9 0 -12 6 -9 15 8 20 -20 20 -40 -1z"/>
<path d="M8536 3565 c-8 -22 3 -40 16 -27 7 7 7 16 1 27 -9 16 -10 16 -17 0z"/>
<path d="M8826 3545 c-11 -29 -7 -73 7 -78 24 -9 39 10 41 49 1 33 -3 40 -20
42 -13 2 -24 -4 -28 -13z"/>
<path d="M3350 4540 c0 -3 11 -50 25 -104 31 -121 33 -232 6 -291 -10 -22 -37
-62 -60 -90 -22 -27 -41 -60 -41 -73 0 -21 4 -23 28 -18 27 6 28 5 67 -105 40
-111 40 -112 100 -154 33 -23 66 -45 73 -49 21 -12 4 39 -41 125 -52 101 -48
131 26 191 87 72 148 138 145 156 -6 30 -62 27 -125 -7 -40 -22 -59 -28 -64
-19 -4 6 -10 48 -14 92 -8 87 -30 171 -69 257 -22 49 -55 102 -56 89z"/>
<path d="M2244 4305 c-12 -16 -40 -67 -63 -112 -35 -70 -41 -92 -41 -145 0
-35 -7 -108 -15 -162 -8 -55 -14 -101 -12 -103 4 -3 131 392 147 458 7 26 10
57 8 70 -3 24 -3 24 -24 -6z"/>
<path d="M7759 4263 c-16 -19 -18 -212 -5 -438 8 -127 7 -148 -13 -230 -30
-121 -30 -125 -24 -141 11 -29 33 -15 33 22 0 20 14 77 31 127 28 82 31 99 26
176 -3 48 -11 120 -17 161 -8 46 -10 125 -7 202 3 70 2 130 -3 133 -4 3 -14
-3 -21 -12z"/>
<path d="M2895 3990 c-16 -17 -43 -34 -60 -38 -16 -5 -31 -16 -33 -26 -3 -15
4 -17 55 -14 58 3 58 3 80 47 34 67 9 85 -42 31z"/>
<path d="M5111 3753 c-6 -21 -13 -62 -17 -90 -6 -48 -5 -53 12 -53 11 0 34 9
51 20 l33 19 24 -24 c29 -29 43 -31 68 -8 17 15 18 15 18 -5 0 -29 27 -28 36
1 7 21 8 21 19 -8 16 -38 60 -52 78 -24 15 25 37 25 37 0 0 -32 18 -34 37 -5
11 18 18 47 18 83 0 55 0 56 -30 56 -22 0 -35 -8 -52 -34 l-23 -34 6 46 c5 38
4 47 -8 47 -8 0 -20 -12 -27 -27 l-13 -28 -14 28 c-16 29 -44 37 -44 11 0 -10
-9 -5 -26 15 -31 37 -47 39 -68 9 -12 -16 -16 -18 -16 -7 0 23 -33 49 -63 49
-22 0 -28 -6 -36 -37z m44 -60 c-10 -42 -18 -18 -9 29 6 32 9 37 12 19 2 -12
1 -34 -3 -48z m115 -3 c0 -27 -15 -48 -26 -37 -3 3 -2 21 1 41 8 41 25 39 25
-4z"/>
<path d="M5544 3699 c-3 -6 -1 -15 6 -19 9 -5 8 -20 -4 -61 -14 -46 -14 -55
-2 -67 21 -21 33 -8 47 53 10 46 15 54 37 57 37 4 38 24 1 37 -41 14 -76 14
-85 0z"/>
<path d="M7915 3681 c-8 -15 3 -31 21 -31 9 0 14 7 12 17 -4 20 -24 28 -33 14z"/>
<path d="M5655 3638 c-37 -90 -23 -158 16 -76 12 26 18 33 15 17 -7 -33 15
-65 39 -56 13 5 15 14 11 32 -8 30 8 65 29 65 18 0 20 -21 3 -38 -19 -19 -2
-25 29 -10 56 27 31 95 -31 82 -17 -3 -42 -16 -54 -28 -23 -20 -24 -21 -22 -1
6 55 -14 62 -35 13z"/>
<path d="M5860 3629 c-7 -11 -9 -23 -7 -26 9 -9 47 17 47 32 0 22 -28 18 -40
-6z"/>
<path d="M3905 3469 c-12 -19 5 -23 22 -6 16 16 16 17 1 17 -9 0 -20 -5 -23
-11z"/>
<path d="M5375 3425 c-85 -19 -111 -30 -188 -83 -40 -27 -64 -49 -58 -55 5 -5
24 1 47 16 75 47 130 71 208 92 44 12 82 27 84 33 5 15 -15 14 -93 -3z"/>
<path d="M4040 3411 c0 -5 19 -26 42 -45 25 -21 35 -36 26 -36 -9 0 -21 -7
-28 -15 -7 -8 -21 -15 -31 -15 -11 0 -26 -8 -35 -19 -15 -17 -29 -18 -175 -13
-171 5 -184 4 -499 -64 -225 -48 -304 -61 -402 -69 l-87 -7 27 -55 27 -55 -24
-19 c-13 -10 -27 -19 -32 -19 -5 0 -34 34 -65 75 -89 118 -90 98 -5 -72 24
-48 48 -83 56 -83 19 0 19 -13 0 -49 -15 -31 -33 -41 -69 -41 -22 0 -96 70
-139 130 -13 19 -12 14 3 -18 12 -24 37 -61 57 -82 28 -32 32 -41 20 -46 -26
-9 -52 12 -93 76 -22 33 -42 60 -47 60 -8 0 17 -64 39 -97 17 -27 18 -33 2
-33 -7 0 -35 23 -61 52 -33 37 -46 46 -42 31 4 -13 2 -23 -3 -23 -19 0 -71 70
-84 112 -14 50 -16 164 -4 228 8 41 8 44 -7 32 -8 -7 -24 -33 -34 -57 -14 -35
-22 -43 -38 -40 -11 2 -76 7 -145 10 -69 3 -140 8 -157 11 -31 6 -34 4 -54
-42 -60 -138 -80 -413 -45 -614 21 -116 68 -259 106 -321 33 -54 74 -169 128
-364 57 -202 85 -325 78 -332 -3 -4 -20 7 -37 23 l-31 29 -29 -34 c-61 -73
-158 -289 -302 -676 -64 -168 -72 -198 -71 -256 2 -122 88 -259 197 -314 28
-14 61 -25 74 -25 16 0 54 35 137 128 264 294 515 600 577 702 l36 59 7 -92
c9 -114 45 -372 89 -622 l33 -190 69 -12 c92 -16 346 -27 363 -15 39 27 151
682 187 1096 8 93 16 170 18 172 1 2 207 73 457 158 249 86 457 161 461 167 4
6 10 39 14 73 11 97 43 247 81 379 35 120 35 124 30 252 -4 72 -9 153 -11 180
-2 28 -7 102 -10 165 -16 334 -23 412 -38 422 -6 4 -57 8 -112 8 l-100 0 -55
43 c-43 34 -67 45 -104 49 -31 4 -64 17 -92 37 -24 17 -44 27 -44 22z m95
-174 c11 -70 10 -77 -11 -77 -23 0 -55 125 -37 144 21 20 37 -3 48 -67z m66 6
c4 -29 9 -60 13 -68 7 -20 -20 -31 -38 -15 -17 14 -38 103 -30 125 4 9 15 15
28 13 17 -2 22 -12 27 -55z m63 35 c27 -12 41 -53 34 -99 -2 -19 -9 -24 -32
-24 -27 0 -31 4 -42 49 -9 33 -10 55 -3 68 11 21 11 21 43 6z m-188 -53 c7
-27 11 -52 9 -53 -2 -2 -13 -1 -25 3 -29 9 -56 71 -39 91 21 26 41 11 55 -41z
m-818 -1961 c22 -6 28 -27 16 -58 -9 -23 -32 -20 -65 8 -15 13 -34 26 -41 29
-10 4 -10 8 2 16 17 12 53 14 88 5z"/>
<path d="M5490 2653 c0 -72 51 -485 81 -660 6 -35 15 -63 21 -63 5 0 7 12 4
28 -3 15 -8 70 -11 122 -4 52 -19 192 -35 310 -17 118 -32 234 -35 258 -8 52
-25 56 -25 5z"/>
<path d="M6682 801 c-57 -49 -176 -113 -277 -146 -151 -51 -341 -41 -467 25
-47 24 -55 25 -37 4 20 -25 98 -60 172 -78 156 -39 330 -12 506 79 91 47 188
126 176 144 -11 18 -28 12 -73 -28z"/>
<path d="M4490 680 c0 -14 98 -76 159 -99 98 -39 207 -55 376 -56 125 0 172 4
217 18 60 18 77 32 60 49 -7 7 -35 4 -87 -7 -63 -14 -108 -17 -239 -12 -183 6
-276 26 -391 82 -73 36 -95 42 -95 25z"/>
<path d="M1398 410 c-27 -5 -65 -17 -85 -27 -31 -15 -39 -24 -41 -52 -5 -49
11 -105 66 -225 l47 -106 266 0 267 0 15 46 15 46 -33 14 c-58 24 -109 28
-143 10 -18 -9 -32 -22 -32 -29 0 -6 -16 5 -35 25 -44 48 -59 104 -51 198 3
41 3 80 -1 85 -5 6 -30 11 -58 13 -27 1 -72 4 -100 6 -27 2 -71 0 -97 -4z"/>
<path d="M8590 120 c-20 -5 -57 -18 -83 -29 -43 -19 -47 -23 -47 -56 l0 -35
194 0 195 0 -18 53 c-17 49 -21 53 -62 64 -51 13 -129 15 -179 3z"/>
<path d="M8069 110 c-64 -11 -139 -46 -139 -64 0 -8 -3 -21 -6 -30 -5 -14 15
-16 190 -16 108 0 196 3 196 8 0 4 -5 24 -10 44 -8 29 -18 39 -43 47 -49 15
-137 20 -188 11z"/>
<path d="M3252 33 l-27 -28 64 -3 c35 -2 65 -2 66 0 2 2 1 15 -2 31 -5 23 -10
27 -40 27 -24 0 -42 -8 -61 -27z"/>
<path d="M2930 26 c0 -23 4 -26 36 -26 36 0 36 1 22 23 -9 12 -25 23 -37 25
-17 3 -21 -2 -21 -22z"/>
<path d="M4697 25 l-18 -25 143 0 c166 0 173 12 20 35 -128 19 -123 19 -145
-10z"/>
<path d="M6765 10 c-16 -7 -11 -9 20 -9 29 -1 36 2 25 9 -17 11 -19 11 -45 0z"/>
</g>
</svg>
