<svg width="1007" height="475" viewBox="0 0 1007 475" fill="none" xmlns="http://www.w3.org/2000/svg">
    <path
        d="M942.923 465.203C970.309 432.863 980.799 393.176 970.246 356.127C964.028 334.399 951.088 313.426 950.335 291.259C949.392 263.691 967.42 237.38 969.492 209.875C972.382 170.377 940.222 131.694 893.364 110.407C846.506 89.1817 787.148 84.3465 732.878 92.6355C686.773 99.6686 644.375 115.43 600.218 127.11C556.061 138.853 507.13 146.577 461.967 136.907C416.24 127.173 381.002 101.113 337.787 86.6699C256.759 59.6049 154.437 78.6949 91.4994 123.971C28.5612 169.309 2.30562 236.124 7.33062 299.799C11.8531 357.822 40.0559 413.522 77.4922 465.203H942.923Z"
        fill="#FFF6ED" />
    <path
        d="M899.582 90.0609C912.019 98.4127 923.074 107.958 937.458 114.488C951.842 121.019 970.937 124.159 985.949 118.382C1004.29 111.349 1009.69 93.7658 1005.42 79.26C1000.02 60.798 982.369 44.7223 959.819 34.8006C937.27 24.8788 910.26 20.8599 883.753 21.4251C869.055 21.739 853.918 23.5601 841.481 29.1489C822.825 37.5008 814.597 51.7554 835.388 60.6724C857.812 70.343 880.048 76.9366 899.582 90.0609Z"
        fill="#FFF6ED" />
    <path
        d="M565.985 386.331C564.666 375.907 559.201 366.048 560.081 355.562C561.651 335.844 584.578 322.657 585.457 302.876C586.273 285.921 570.319 271.352 571.701 254.397C572.643 242.843 581.688 231.791 578.108 220.802C575.344 212.324 564.478 207.677 556.438 211.445C549.591 214.711 546.011 222.309 543.938 229.593C541.865 236.877 540.609 244.664 536.212 250.881C531.501 257.537 523.838 261.368 518.185 267.208C511.212 274.429 507.632 284.853 508.637 294.901C509.642 304.634 514.793 313.991 513.599 323.661C512.594 331.887 507.318 338.795 502.858 345.703C495.886 356.566 490.61 368.749 489.417 381.559C488.286 394.432 491.678 407.996 500.283 417.541C518.499 437.824 551.161 430.791 562.342 407.18C565.42 400.837 566.864 393.49 565.985 386.331Z"
        fill="#F8F0CC" />
    <path
        d="M564.038 218.918C556.375 251.948 548.837 284.979 542.179 318.261C535.772 351.48 528.674 384.824 527.481 418.734C527.481 416.599 527.418 414.464 527.481 412.392C527.544 410.257 527.607 408.122 527.732 406.049C529.617 376.41 535.27 347.147 540.923 318.072C547.769 284.791 555.37 251.697 564.038 218.918Z"
        fill="#FEDCC4" />
    <path
        d="M504.177 230.849C504.177 230.849 446.076 353.552 522.896 430.54C522.896 430.477 552.103 333.143 504.177 230.849Z"
        fill="#FEDCC4" />
    <path
        d="M504.429 246.485C510.647 303.629 516.175 361.402 520.697 418.671C514.479 361.59 509.014 303.755 504.429 246.485Z"
        fill="#F8F0CC" />
    <path
        d="M232.388 299.673C231.194 289.249 234.084 278.323 230.818 268.401C224.599 249.625 199.223 242.278 193.57 223.314C188.733 207.049 200.793 189.09 195.391 172.951C191.685 161.962 180.316 153.359 181.196 141.867C181.824 133.013 191.308 125.854 199.977 127.613C207.388 129.12 212.665 135.713 216.433 142.244C220.202 148.838 223.217 156.122 228.996 161.083C235.152 166.421 243.568 168.304 250.415 172.637C258.958 178.038 264.925 187.269 266.244 197.253C267.563 206.924 264.799 217.222 268.254 226.391C271.206 234.114 277.99 239.578 283.957 245.229C293.316 254.146 301.356 264.696 305.564 276.878C309.773 289.061 309.71 303.064 303.617 314.43C290.741 338.481 257.387 339.423 240.868 319.14C236.345 313.614 233.204 306.832 232.388 299.673Z"
        fill="#F8F0CC" />
    <path
        d="M191.874 139.67C201.735 150.847 210.278 163.532 218.129 176.154C233.77 201.775 246.583 229.154 256.885 257.349C258.518 261.431 261.721 271.352 263.166 275.622C264.234 278.762 266.118 284.665 266.998 287.93C268.128 292.012 271.332 302.436 272.211 306.518C273.279 310.725 275.728 320.961 276.796 325.231C275.603 320.898 272.902 310.725 271.771 306.644C270.766 302.625 267.5 292.326 266.244 288.182C265.302 284.979 263.417 279.076 262.287 275.936C261.973 275.057 257.701 262.561 257.576 262.247C256.571 259.61 254.623 254.46 253.556 251.76C243.631 225.763 231.508 200.581 217.376 176.656C209.713 163.909 201.358 151.161 191.874 139.67Z"
        fill="#FEDCC4" />
    <path
        d="M255.252 133.892C255.252 133.892 340.928 239.201 284.711 332.264C284.711 332.264 233.142 244.664 255.252 133.892Z"
        fill="#FEDCC4" />
    <path
        d="M259.586 150.156C269.761 193.423 278.053 237.254 282.701 281.462C284.271 296.157 284.899 311.102 285.088 325.859L284.522 314.744C284.459 313.363 284.271 310.6 284.208 309.218C283.643 300.176 282.826 290.568 281.758 281.588C276.608 237.505 268.379 193.737 259.586 150.156Z"
        fill="#F8F0CC" />
    <path
        d="M866.292 323.912C866.229 319.014 866.229 314.116 866.166 309.344C852.787 310.914 839.345 311.856 825.84 312.295L826.343 316.691C827.536 327.241 830.802 337.413 835.953 346.644L866.417 401.088L888.967 438.012L909.192 425.83C909.192 425.83 909.13 425.704 909.004 425.453C906.994 420.869 886.957 372.391 866.292 323.912Z"
        fill="#FFB096" />
    <path
        d="M881.806 428.844C881.806 428.844 880.487 420.869 894.746 421.685L905.487 415.72C905.487 415.72 913.527 428.656 916.73 437.322C917.17 438.452 916.667 439.708 915.662 440.273L872.384 464.261C871.379 464.826 870.06 464.575 869.369 463.633C868.113 462.063 866.982 459.426 869.872 456.537C874.457 452.016 887.585 437.322 887.585 437.322L881.806 428.844Z"
        fill="#793637" />
    <path
        d="M876.279 450.697C877.975 450.132 879.608 449.567 881.241 448.939C882.874 448.311 884.507 447.62 886.077 446.867C887.648 446.113 889.218 445.297 890.663 444.355C892.107 443.413 893.489 442.408 894.62 441.152C895.751 439.959 896.693 438.452 896.881 436.882C897.07 435.249 897.007 433.428 896.944 431.733C896.881 429.974 896.693 428.279 896.379 426.584C896.065 424.888 895.625 423.193 894.997 421.497C896.63 424.637 897.447 428.153 897.823 431.67C898.012 433.428 898.075 435.187 897.949 437.008C897.698 438.891 896.693 440.587 895.436 441.906C892.924 444.543 889.658 446.239 886.454 447.62C883.125 449.002 879.733 450.069 876.279 450.697Z"
        fill="#581416" />
    <path
        d="M778.731 312.232C785.201 375.405 795.439 450.697 795.439 450.697L817.863 449.002L819.433 312.484C805.866 312.798 792.298 312.923 778.731 312.232Z"
        fill="#FFB096" />
    <path
        d="M792.11 438.138C792.11 438.138 794.811 430.54 806.871 438.138H819.119C819.119 438.138 819.873 453.334 818.491 462.44C818.303 463.633 817.298 464.512 816.104 464.512H766.671C765.477 464.512 764.472 463.633 764.284 462.503C763.97 460.556 764.284 457.667 768.178 456.537C774.397 454.779 792.989 448.311 792.989 448.311L792.11 438.138Z"
        fill="#793637" />
    <path
        d="M775.967 454.653C777.726 454.967 779.422 455.281 781.181 455.47C782.939 455.721 784.635 455.909 786.394 455.972C788.153 456.035 789.849 456.097 791.608 455.972C793.303 455.846 795.062 455.658 796.633 455.093C798.203 454.59 799.71 453.711 800.653 452.455C801.595 451.074 802.411 449.504 803.228 447.997C803.982 446.427 804.672 444.857 805.175 443.162C805.74 441.529 806.18 439.833 806.431 438.075C806.368 441.592 805.363 445.108 803.982 448.374C803.291 450.006 802.474 451.576 801.469 453.146C800.338 454.716 798.643 455.658 796.884 456.223C793.366 457.291 789.723 457.228 786.206 456.914C782.751 456.474 779.296 455.721 775.967 454.653Z"
        fill="#581416" />
    <path
        d="M869.307 317.068C861.518 322.782 848.516 325.796 834.76 327.241C833.943 327.303 833.127 327.429 832.247 327.492C805.803 329.941 777.475 327.052 777.475 327.052C777.475 327.052 775.779 312.672 774.02 294.775C773.957 294.273 773.894 293.708 773.894 293.142C772.324 277.13 770.754 258.605 770.251 245.041C770.251 244.539 770.188 244.036 770.188 243.597C770.126 241.273 770.063 239.075 770.063 237.129C770.063 217.222 777.098 203.093 780.615 197.253C780.804 196.876 780.992 196.563 781.181 196.311C781.997 194.993 782.562 194.302 782.562 194.302L858 196.563C861.455 203.972 863.968 223.502 865.663 244.727C865.726 245.104 865.726 245.543 865.726 245.983C867.108 263.503 868.05 282.09 868.553 295.905C868.553 296.282 868.616 296.722 868.616 297.099C869.118 308.967 869.307 317.068 869.307 317.068Z"
        fill="#793637" />
    <path
        d="M852.473 203.156C853.855 212.764 854.985 222.372 856.116 231.979C857.184 241.587 858.189 251.258 859.068 260.865C859.885 270.536 860.701 280.144 861.267 289.814C861.832 299.485 862.272 309.155 862.209 318.826L861.832 311.542L861.392 304.32C861.078 299.485 860.764 294.65 860.387 289.814C859.633 280.144 858.817 270.536 857.937 260.865C857.121 251.195 856.179 241.587 855.237 231.979L852.473 203.156Z"
        fill="#581416" />
    <path
        d="M808.504 236.94C811.456 240.457 814.534 243.785 817.926 246.799C821.255 249.876 824.898 252.576 828.667 255.151C824.458 253.33 820.627 250.692 817.172 247.615C813.78 244.538 810.765 240.959 808.504 236.94Z"
        fill="#581416" />
    <path
        d="M805.929 241.022C807.311 244.601 808.818 248.055 810.64 251.383C812.461 254.711 814.471 257.914 816.733 260.928C818.931 264.005 821.443 266.831 824.082 269.594L826.092 271.603L828.164 273.55L830.3 275.434C831.054 275.999 831.807 276.627 832.498 277.255C831.682 276.753 830.865 276.25 830.112 275.685L827.787 273.99L825.589 272.169L823.453 270.285C820.627 267.647 818.114 264.759 815.853 261.682C813.592 258.605 811.582 255.277 809.949 251.823C808.253 248.306 806.871 244.727 805.929 241.022Z"
        fill="#581416" />
    <g opacity="0.5">
        <path
            d="M865.789 245.857C834.885 234.68 805.929 218.164 780.615 197.19C780.804 196.814 780.992 196.5 781.181 196.249C806.306 217.097 835.011 233.486 865.663 244.664C865.726 245.041 865.726 245.418 865.789 245.857Z"
            fill="#793637" />
        <path
            d="M868.616 296.973C833.064 285.607 799.71 268.024 770.188 245.041C770.188 244.538 770.126 244.036 770.126 243.597C799.585 266.705 833.001 284.351 868.553 295.78C868.616 296.157 868.616 296.533 868.616 296.973Z"
            fill="#793637" />
        <path
            d="M834.697 327.178C833.88 327.241 833.064 327.366 832.184 327.429C825.652 324.854 819.119 322.154 812.838 319.14C797.826 311.981 784.824 303.818 774.02 294.712C773.957 294.21 773.894 293.645 773.894 293.08C784.824 302.436 798.077 310.851 813.403 318.135C820.313 321.463 827.473 324.415 834.697 327.178Z"
            fill="#793637" />
    </g>
    <path
        d="M752.601 127.487C750.842 123.343 749.209 119.198 747.764 114.991C744.561 116.435 741.232 117.879 737.84 119.386C705.178 117.126 670.505 114.3 658.947 113.358C657.754 111.914 656.498 110.721 655.242 109.653C652.98 109.904 650.593 109.967 648.332 109.716C648.583 110.218 648.772 110.658 648.646 111.035C648.521 111.663 646.008 111.286 643.056 110.658C642.742 111.725 642.491 112.793 642.365 113.798C642.365 113.923 642.302 114.049 642.302 114.174C642.365 114.174 642.428 114.237 642.428 114.237C642.428 114.237 642.365 114.237 642.302 114.237C641.988 115.493 641.046 116.498 639.915 117.126C639.978 117.44 640.104 117.754 640.229 118.068C640.983 118.319 641.423 118.445 641.423 118.445C641.423 118.445 640.983 118.445 640.355 118.382C641.109 120.642 642.177 122.84 643.244 125.289C646.636 125.038 650.091 124.599 652.855 124.222C664.977 130.941 677.917 135.965 690.919 139.732C702.288 143.061 720.378 146.012 731.936 147.707C739.222 148.775 746.634 147.77 753.417 144.882C755.616 143.94 757.689 142.998 759.762 142.056C757.061 137.283 754.737 132.448 752.601 127.487Z"
        fill="#FFB096" />
    <path
        d="M799.271 86.8583C799.271 86.8583 775.025 98.6011 769.874 101.678C764.661 104.755 740.855 117.314 740.855 117.314L756.056 144.944L787.211 131.506L799.271 86.8583Z"
        fill="#C78742" />
    <path
        d="M618.685 143.751C618.685 143.751 648.395 140.737 679.047 143.751C679.047 143.751 661.397 158.006 652.038 157.943C642.616 157.818 620.883 150.722 618.685 143.751Z"
        fill="#1C264B" />
    <path
        d="M682.251 153.485L676.095 145.635C669.5 137.283 659.45 132.385 648.835 132.385C638.157 132.385 628.107 137.283 621.574 145.635L615.418 153.485"
        stroke="#450D20" stroke-width="1.2202" stroke-miterlimit="10" />
    <path
        d="M643.998 116.686C643.998 114.049 646.134 111.914 648.772 111.914C651.41 111.914 653.546 114.049 653.546 116.686C653.546 119.324 651.41 121.459 648.772 121.459V132.26"
        stroke="#450D20" stroke-width="1.2202" stroke-miterlimit="10" />
    <path
        d="M709.009 176.342L691.359 193.297L681.183 186.201V240.394C660.141 245.92 637.905 245.983 616.863 240.52L616.361 240.394V186.201L606.185 193.297L588.598 176.342L597.328 166.86L598.145 165.981L611.712 151.287L612.529 150.408L618.622 143.814C618.622 143.814 640.292 154.992 648.772 155.431C657.252 154.992 678.985 143.814 678.985 143.814L689.035 154.741L689.914 155.682L706.12 173.328L707.062 174.333L709.009 176.342Z"
        fill="#D26732" />
    <path
        d="M616.361 186.264C616.926 185.196 617.68 184.443 618.496 183.689C619.313 182.999 620.255 182.371 621.386 181.994C620.82 183.061 620.067 183.815 619.25 184.569C618.433 185.259 617.491 185.887 616.361 186.264Z"
        fill="#1A3E3D" />
    <path
        d="M676.661 181.24C677.728 181.806 678.608 182.559 679.362 183.375C680.115 184.192 680.806 185.134 681.183 186.264C680.115 185.762 679.236 184.945 678.482 184.129C677.791 183.313 677.1 182.371 676.661 181.24Z"
        fill="#1A3E3D" />
    <path
        d="M646.573 189.969C648.898 192.481 651.536 194.553 654.299 196.374C657.063 198.258 660.015 199.891 662.842 201.837C659.638 200.707 656.561 199.2 653.671 197.316C650.845 195.432 648.207 192.983 646.573 189.969Z"
        fill="#1A3E3D" />
    <path
        d="M645.254 192.544C646.259 194.993 647.39 197.316 648.646 199.514C649.965 201.775 651.347 203.91 652.917 205.982C654.425 208.054 656.058 210.126 657.691 212.136L660.141 215.15C660.957 216.155 661.774 217.16 662.591 218.227C661.586 217.348 660.706 216.406 659.764 215.527C658.822 214.585 657.942 213.643 657.063 212.701C655.242 210.817 653.608 208.745 652.038 206.673C650.531 204.538 649.086 202.34 647.955 199.953C646.699 197.567 645.757 195.118 645.254 192.544Z"
        fill="#1A3E3D" />
    <g opacity="0.5">
        <path
            d="M689.914 155.62C679.676 158.069 668.997 159.262 658.319 159.262C642.365 159.262 626.411 156.562 611.713 151.287L612.529 150.408C636.586 159.011 663.972 160.518 689.035 154.741L689.914 155.62Z"
            fill="#D26732" />
        <path
            d="M707.125 174.333C694.939 175.903 682.502 176.907 670.191 177.284C666.862 177.41 663.658 177.473 660.518 177.473C634.953 177.473 614.602 174.082 597.328 166.923L598.145 166.044C617.24 173.893 640.292 177.096 670.128 176.217C682.125 175.84 694.248 174.898 706.183 173.328L707.125 174.333Z"
            fill="#D26732" />
        <path
            d="M681.183 207.677V208.808C670.819 210.566 660.267 211.445 649.714 211.445C638.533 211.445 627.29 210.44 616.361 208.431V207.238C637.717 211.257 659.89 211.32 681.183 207.677Z"
            fill="#D26732" />
        <path
            d="M681.183 232.293V233.424C676.409 233.738 671.573 233.863 666.799 233.863C649.84 233.863 632.88 232.105 616.361 228.588V227.395C637.528 231.979 659.513 233.612 681.183 232.293Z"
            fill="#D26732" />
    </g>
    <path
        d="M659.324 112.291C659.324 112.291 651.41 106.513 649.651 105.76C647.893 105.006 643.873 112.605 644.689 113.986C645.506 115.305 650.593 112.102 650.593 112.102C650.593 112.102 650.656 116.184 654.111 117.126C657.44 118.005 660.078 115.933 659.324 112.291Z"
        fill="#FFB096" />
    <path
        d="M639.413 123.531C639.727 123.468 636.9 120.956 638.785 118.947C638.785 118.947 637.717 115.744 639.35 114.174C639.413 114.112 639.476 114.049 639.476 114.049C639.476 114.049 639.664 109.528 644.375 110.972C644.375 110.972 647.83 113.295 646.448 114.677C645.883 115.305 644.877 115.368 643.872 115.242C645.443 115.744 647.139 116.435 647.013 117.251C646.887 118.507 642.993 118.633 641.988 118.633C643.056 118.633 647.013 118.759 647.264 120.266C647.264 120.454 647.202 120.642 647.076 120.768C648.395 120.58 649.463 120.642 649.651 121.208C650.154 122.966 642.868 126.294 641.548 126.043C640.292 125.792 639.099 123.657 639.413 123.531Z"
        fill="#FFB096" />
    <path
        d="M901.655 247.302C903.602 209.184 891.228 171.13 878.98 142.809C875.525 144.882 872.07 146.954 868.616 148.963C863.528 151.852 858.44 154.866 853.164 157.441C869.809 196.625 889.909 246.548 890.788 248.683C888.213 254.649 888.025 260.049 888.025 262.749C887.962 264.822 889.155 265.45 889.972 265.638C890.412 265.701 890.726 265.45 890.788 265.01C890.977 263.001 891.919 259.296 893.301 258.982C894.871 258.605 897.133 273.99 899.331 274.053C900.21 274.115 898.954 263.126 898.954 263.126C898.954 263.126 902.534 274.681 903.791 273.739C905.047 272.797 903.162 262.247 903.162 262.247C903.162 262.247 908.125 273.362 908.941 271.855C909.758 270.348 907.183 261.242 907.183 261.242C909.444 265.073 910.888 266.391 911.705 266.768C912.082 266.957 912.459 266.705 912.396 266.266C911.454 261.179 904.607 251.383 901.655 247.302Z"
        fill="#FFB096" />
    <path
        d="M830.803 86.1047C830.803 86.1047 852.347 90.7516 856.995 94.3938C861.581 98.0359 885.261 151.098 885.261 151.098L856.242 168.807L833.189 116.31L830.803 86.1047Z"
        fill="#C78742" />
    <path
        d="M817.989 102.62C826.657 101.05 833.566 94.9589 840.476 89.3073C839.973 89.2445 839.471 89.1817 838.905 89.1817C835.451 89.0561 832.624 88.3026 830.363 87.2978C826.594 75.6178 830.237 53.5137 830.74 50.7507C830.74 50.6251 830.803 50.5623 830.803 50.4367L800.527 67.4544C801.029 68.2707 801.343 69.4638 801.469 70.7825C801.72 73.4828 801.343 76.9365 800.841 80.0763C800.213 83.5929 799.396 86.7327 799.019 87.9886C797.072 90.312 794.685 91.7563 791.67 93.389C799.333 99.2918 807.939 104.378 817.989 102.62Z"
        fill="#FFB096" />
    <path
        d="M800.778 80.0135C817.235 82.0858 825.589 62.4307 825.903 61.6771C822.888 66.5124 818.428 68.9614 814.157 70.0918C808.881 71.5361 803.73 71.0337 801.532 70.7197C801.469 70.7197 801.469 70.7197 801.406 70.7197C801.72 73.4199 801.281 76.8737 800.778 80.0135Z"
        fill="#FF9D81" />
    <path
        d="M781.369 161.083L783.505 176.405C783.505 176.405 781.243 185.071 778.857 195.181C794.371 199.514 809.949 203.407 826.154 204.412C838.466 205.166 850.4 203.784 862.209 201.586C858.628 189.027 854.797 177.661 854.797 177.661L855.99 124.975L853.855 93.5146L830.74 86.1047C830.74 86.1047 823.265 96.0893 813.278 97.6592C803.291 99.2291 799.208 86.9211 799.208 86.9211L773.015 100.987L777.349 132.385L781.369 161.083Z"
        fill="#C78742" />
    <path d="M828.667 132.322V161.083H781.369L777.412 132.322H828.667Z" fill="#FFD7B0" />
    <path
        d="M855.048 166.169C853.352 162.841 851.719 159.513 850.149 156.185C848.578 152.857 847.071 149.466 845.563 146.075C844.056 142.684 842.611 139.293 841.229 135.839L839.157 130.69C838.466 128.931 837.775 127.236 837.147 125.478C838.026 127.11 838.78 128.806 839.659 130.439L842.046 135.462C843.616 138.79 845.124 142.181 846.631 145.572C848.139 148.963 849.583 152.354 850.965 155.808C852.347 159.199 853.792 162.653 855.048 166.169Z"
        fill="#9C3626" />
    <path
        d="M777.412 135.651C776.344 134.709 775.967 133.264 775.842 131.883C775.716 130.501 775.904 129.057 776.218 127.738C776.847 124.975 778.166 122.526 779.422 120.14C780.741 117.754 782.123 115.368 783.63 113.107C785.138 110.846 786.708 108.586 788.404 106.451L786.394 110.03L784.384 113.546C783.065 115.933 781.683 118.256 780.427 120.642C779.799 121.836 779.171 123.029 778.543 124.222C777.914 125.415 777.412 126.671 777.035 127.927C776.658 129.183 776.407 130.501 776.344 131.82C776.344 133.202 776.595 134.583 777.412 135.651Z"
        fill="#9C3626" />
    <path
        d="M804.61 161.962C806.557 165.981 808.881 169.812 811.708 173.202C814.534 176.593 817.8 179.608 821.381 182.245C817.298 180.361 813.718 177.41 810.828 173.893C807.939 170.377 805.677 166.295 804.61 161.962Z"
        fill="#9C3626" />
    <path
        d="M802.537 165.165C803.165 167.677 803.793 170.188 804.672 172.637C805.552 175.086 806.557 177.41 807.688 179.733C808.818 182.057 810.137 184.255 811.582 186.39L812.713 187.96L813.906 189.529L815.099 191.037C815.539 191.539 815.916 192.041 816.356 192.544C815.351 191.727 814.408 190.785 813.466 189.843L812.147 188.399L810.891 186.892C809.258 184.82 807.876 182.559 806.683 180.236C805.489 177.912 804.547 175.463 803.856 172.889C803.165 170.314 802.663 167.739 802.537 165.165Z"
        fill="#9C3626" />
    <path
        d="M795.69 90.4376C796.57 92.4471 797.512 94.3938 798.705 96.1521C799.899 97.9731 801.281 99.6058 802.977 100.862C804.673 102.118 806.557 103.122 808.567 103.625C810.577 104.127 812.712 104.002 814.66 103.374C816.67 102.746 818.491 101.615 820.313 100.485C822.134 99.2918 823.83 98.0359 825.589 96.7172C827.285 95.3985 828.981 94.017 830.551 92.5727C832.184 91.1284 833.692 89.6213 835.199 88.0514C833.88 89.7469 832.436 91.3796 830.928 92.9495C829.421 94.5194 827.788 95.9637 826.154 97.408C824.521 98.8523 822.7 100.108 820.941 101.364C819.119 102.557 817.235 103.75 815.099 104.504C812.964 105.195 810.577 105.257 808.378 104.692C806.18 104.127 804.17 103.06 802.474 101.615C798.957 98.6639 796.884 94.5822 795.69 90.4376Z"
        fill="#9C3626" />
    <path
        d="M785.138 54.33C785.138 54.7068 785.138 55.0836 785.138 55.4604C785.138 57.0931 785.201 58.7258 785.766 60.2329C787.839 66.0729 796.13 69.6522 801.783 70.8453C809.007 72.3524 816.293 70.4686 821.946 65.7589C826.468 61.9911 829.358 56.7163 830.614 51.0019C831.933 51.1275 833.692 50.8135 834.132 50.6251C835.765 49.9971 837.272 48.6784 838.214 47.1713C839.345 45.413 839.785 43.2152 839.157 41.2057C838.34 38.6939 835.702 36.7472 833.064 37.3752C832.875 37.438 832.624 37.5636 832.31 37.6892C832.687 29.0233 831.368 19.4784 825.338 14.2663C812.336 2.96309 793.68 6.91923 789.723 17.0921C786.645 25.0044 785.577 34.1726 785.201 43.0896C785.138 46.9201 785.138 50.7507 785.138 54.33Z"
        fill="#FFB096" />
    <path
        d="M785.138 54.33C785.64 54.4556 786.08 54.5184 786.645 54.5184C789.849 54.5184 792.424 51.9438 792.424 48.7412C792.424 45.5386 789.849 42.964 786.645 42.964C786.143 42.964 785.703 43.0268 785.263 43.1524C785.138 46.9201 785.138 50.7507 785.138 54.33Z"
        fill="#FF9D81" />
    <path
        d="M821.192 48.7412C821.192 51.9438 818.617 54.5184 815.413 54.5184C812.21 54.5184 809.635 51.9438 809.635 48.7412C809.635 45.5386 812.21 42.964 815.413 42.964C818.554 42.964 821.192 45.5386 821.192 48.7412Z"
        fill="#FF9D81" />
    <path
        d="M795.439 37.5636C795.439 39.4474 794.685 40.9545 793.743 40.9545C792.801 40.9545 792.047 39.4474 792.047 37.5636C792.047 35.6797 792.801 34.1726 793.743 34.1726C794.685 34.1098 795.439 35.6797 795.439 37.5636Z"
        fill="#450D20" />
    <path
        d="M790.414 33.0423C790.665 33.6075 791.042 34.047 791.545 34.4866C792.047 34.9262 792.613 35.2402 793.303 35.3657C793.618 35.4285 793.994 35.2402 794.057 34.9262C794.12 34.6122 793.932 34.2354 793.618 34.1726C793.555 34.1726 793.492 34.1726 793.429 34.1726C792.487 34.2354 791.482 33.6703 790.728 32.7911C790.665 32.7283 790.54 32.7283 790.477 32.7911C790.351 32.8539 790.351 32.9795 790.414 33.0423Z"
        fill="#450D20" />
    <path
        d="M806.557 37.5636C806.557 39.4474 807.311 40.9545 808.253 40.9545C809.195 40.9545 809.949 39.4474 809.949 37.5636C809.949 35.6797 809.195 34.1726 808.253 34.1726C807.311 34.1098 806.557 35.6797 806.557 37.5636Z"
        fill="#450D20" />
    <path
        d="M811.331 32.8539C810.64 33.6702 809.572 34.2354 808.63 34.2354C808.316 34.2354 808.002 34.4866 808.002 34.8006C808.002 35.1145 808.253 35.4285 808.567 35.4285C808.63 35.4285 808.692 35.4285 808.755 35.4285C809.446 35.3029 810.012 34.9262 810.514 34.5494C811.017 34.1098 811.331 33.6702 811.645 33.1051C811.708 32.9795 811.645 32.9167 811.582 32.8539C811.456 32.7283 811.393 32.7283 811.331 32.8539Z"
        fill="#450D20" />
    <path
        d="M794.748 47.8621C795.313 48.9924 796.193 49.9343 797.261 50.7507C798.328 51.5042 799.648 52.0066 800.967 52.0066C802.348 51.9438 803.667 51.5042 804.672 50.7507C805.238 50.3739 805.615 49.8715 806.117 49.4948C806.494 48.9924 806.871 48.49 807.248 47.9877C806.745 48.3644 806.243 48.7412 805.803 49.1808C805.301 49.4948 804.798 49.8715 804.296 50.1855C803.291 50.7507 802.097 51.1274 800.967 51.1274C799.836 51.1274 798.705 50.8135 797.637 50.2483C796.632 49.4947 795.69 48.7412 794.748 47.8621Z"
        fill="#450D20" />
    <path
        d="M799.271 53.9532C799.773 54.3928 800.401 54.5184 801.029 54.5184C801.658 54.5184 802.286 54.33 802.788 53.9532C802.16 54.0788 801.595 54.1416 801.029 54.1416C800.464 54.1416 799.899 54.016 799.271 53.9532Z"
        fill="#450D20" />
    <path
        d="M805.175 25.6952C805.929 25.0044 806.808 24.7532 807.75 24.7532C808.692 24.7532 809.635 24.816 810.514 25.13C811.393 25.3812 812.273 25.8836 812.964 26.5115C813.718 27.0767 814.22 27.893 814.597 28.6466C814.785 29.0234 814.66 29.5257 814.283 29.7141C813.969 29.9025 813.592 29.8397 813.341 29.5885L813.278 29.5257C812.713 29.0233 812.21 28.5838 811.645 28.207C811.079 27.8302 810.451 27.6418 809.823 27.4535C809.195 27.3279 808.504 27.2023 807.876 27.2651C807.185 27.2651 806.494 27.3279 805.74 27.1395L805.552 27.0767C805.112 26.9511 804.798 26.5115 804.924 26.0719C804.987 25.9464 805.049 25.8208 805.175 25.6952Z"
        fill="#450D20" />
    <path
        d="M796.821 25.6952C796.067 25.0044 795.188 24.7532 794.246 24.7532C793.303 24.7532 792.361 24.816 791.482 25.13C790.602 25.3812 789.723 25.8836 789.032 26.5115C788.278 27.0767 787.776 27.893 787.399 28.6466C787.211 29.0234 787.336 29.5257 787.713 29.7141C788.027 29.9025 788.404 29.8397 788.655 29.5885L788.718 29.5257C789.283 29.0233 789.786 28.5838 790.351 28.207C790.917 27.8302 791.545 27.6418 792.173 27.4535C792.801 27.3279 793.492 27.2023 794.12 27.2651C794.811 27.2651 795.502 27.3279 796.256 27.1395L796.444 27.0767C796.884 26.9511 797.198 26.5115 797.072 26.0719C797.072 25.9464 796.947 25.8208 796.821 25.6952Z"
        fill="#450D20" />
    <path
        d="M800.653 32.3515C800.338 33.6074 800.15 34.9261 799.899 36.182C799.648 37.438 799.396 38.6939 799.082 39.887C799.019 40.201 798.894 40.4522 798.768 40.7661C798.705 41.0173 798.454 41.4569 798.454 41.8965C798.391 42.7756 798.957 43.592 799.647 43.9059C800.338 44.2827 801.155 44.2199 801.846 44.0315C802.474 43.7803 803.102 43.4664 803.542 43.0268C802.348 43.4664 800.967 43.8431 800.087 43.2152C799.648 42.9012 799.459 42.4616 799.522 42.0221C799.522 41.7709 799.648 41.6453 799.773 41.2685C799.899 40.9545 800.024 40.6405 800.087 40.3266C800.464 39.0079 800.653 37.6891 800.715 36.3704C800.841 34.9261 800.778 33.6074 800.653 32.3515Z"
        fill="#450D20" />
    <path
        d="M837.084 43.0896C837.084 42.3361 836.895 41.4569 836.204 40.829C835.451 40.201 834.446 40.2638 833.629 40.5778C832.813 40.8918 832.122 41.4569 831.556 42.0849C830.991 42.7128 830.614 43.4664 830.237 44.2827C830.112 44.5967 830.237 44.9107 830.551 45.0363C830.803 45.0991 830.991 45.0363 831.179 44.9107L831.242 44.8479C831.807 44.2827 832.498 43.6548 833.127 43.4664C833.441 43.4036 833.692 43.4036 833.943 43.5292C834.194 43.7176 834.383 44.0316 834.508 44.4083C834.822 45.1619 834.948 46.041 834.32 46.355C833.629 46.7318 832.687 46.669 831.808 46.5434C832.624 46.9202 833.566 47.2341 834.571 46.9202C835.074 46.7318 835.513 46.1666 835.576 45.6014C835.639 45.0363 835.576 44.5967 835.388 44.0943C835.262 43.592 835.074 43.0896 834.571 42.7128C834.069 42.2733 833.378 42.2105 832.812 42.3361C831.745 42.65 830.991 43.278 830.3 44.0316L831.242 44.5967C831.745 43.278 832.624 41.9593 833.88 41.3313C834.508 41.0174 835.262 40.8918 835.828 41.2057C836.518 41.5825 836.895 42.3361 837.084 43.0896Z"
        fill="#450D20" />
    <path
        d="M854.169 53.0741C851.97 44.8479 846.254 38.0031 840.727 31.5352C838.654 29.0861 837.147 26.0091 835.262 23.4345C834.823 20.4203 834.006 17.5945 832.31 15.0826C830.237 12.0057 827.348 9.49383 824.144 7.54716C818.554 4.15618 811.959 2.3979 805.426 3.02586C798.957 3.71661 792.612 6.9192 788.655 12.0685C785.954 15.6478 784.447 20.1691 784.447 24.6276C784.447 24.816 784.447 25.0672 784.447 25.3184C784.447 25.444 784.447 25.5695 784.447 25.7579C784.384 26.3231 784.321 26.8883 784.321 27.4534C784.384 34.8633 782.563 42.2732 778.982 48.804C775.465 55.2092 770.188 61.0492 769.372 68.3335C768.555 75.9946 773.706 83.844 781.055 86.1047C784.51 87.1722 788.216 87.1722 791.67 88.1142C792.738 88.3653 793.806 88.8049 794.811 89.2445L799.208 86.8582C799.585 85.2884 800.213 82.7765 800.715 80.0135C801.281 76.8737 801.658 73.4199 801.343 70.7825C795.753 69.5266 787.713 65.9472 785.703 60.2956C785.201 58.7885 785.138 57.1558 785.075 55.5231C785.075 55.1464 785.075 54.7696 785.075 54.3928C785.012 50.8135 785.012 47.0457 785.201 43.2152C785.326 39.259 785.64 35.3029 786.206 31.4096C786.268 30.7816 786.394 30.1536 786.457 29.5885C786.457 29.4629 786.52 29.4001 786.52 29.2745C787.713 30.0281 789.346 30.0908 790.791 29.9653C799.459 29.1489 808.064 25.1928 814.094 18.9132C813.466 22.2414 814.408 25.8207 816.293 28.6465C818.177 31.4724 820.941 33.733 823.893 35.3029C824.333 35.5541 824.773 35.7425 825.212 35.9936C827.097 39.259 827.85 43.1524 827.222 46.8573C829.672 45.7898 831.682 43.7175 832.875 41.3313C833.503 40.0754 833.88 38.7567 834.069 37.3752C834.383 37.3752 834.634 37.3752 834.948 37.438C835.074 37.438 835.199 37.5007 835.325 37.5635C835.513 37.6263 835.702 37.6891 835.828 37.7519C835.953 37.8147 836.079 37.8775 836.204 37.9403C836.393 38.0031 836.518 38.1287 836.644 38.1915C836.77 38.2543 836.895 38.3171 836.958 38.4427C837.084 38.5683 837.272 38.6311 837.398 38.7567C837.523 38.8195 837.586 38.9451 837.712 39.0079C837.838 39.1334 837.963 39.259 838.089 39.4474C838.152 39.573 838.277 39.6358 838.34 39.7614C838.466 39.9498 838.591 40.0754 838.654 40.2638C838.717 40.3266 838.78 40.4521 838.842 40.5149C838.968 40.7661 839.094 41.0801 839.219 41.3941C839.847 43.3408 839.408 45.6014 838.277 47.3597C837.335 48.804 835.827 50.1855 834.194 50.8135C833.755 51.0018 831.996 51.253 830.677 51.1902C830.049 55.0208 826.783 75.555 830.237 86.9838C830.614 86.5443 830.803 86.2931 830.803 86.2931L845.94 91.1284C848.704 85.8535 851.405 80.4531 853.164 74.7386C855.237 67.5799 856.053 60.0444 854.169 53.0741Z"
        fill="#C56E51" />
    <path
        d="M394.758 346.268C394.13 346.268 393.502 346.268 392.811 346.268L405.059 448.185L427.672 449.881C427.672 449.881 429.054 399.456 429.305 346.519C417.81 346.519 406.253 346.268 394.758 346.268Z"
        fill="#F28D6F" />
    <path
        d="M403.112 448.625L402.17 430.728H424.594C424.594 430.728 427.107 424.951 429.808 424.951C432.508 424.951 434.644 427.839 434.833 429.095C435.021 430.351 432.069 447.243 432.069 447.243C432.069 447.243 453.927 457.542 458.199 457.605C459.518 457.605 460.272 458.233 460.711 459.112C461.967 461.498 460.02 464.449 457.257 464.449H405.311C403.426 464.449 401.793 463.005 401.542 461.121C401.102 457.919 400.977 452.895 403.112 448.625Z"
        fill="#1C264B" />
    <path
        d="M330.438 341.621C330.627 396.253 332.071 449.818 332.071 449.818L354.684 448.122L366.932 346.142C354.684 345.828 342.435 344.698 330.438 341.621Z"
        fill="#F28D6F" />
    <path
        d="M356.819 448.625L357.762 430.728H335.337C335.337 430.728 332.825 424.951 330.124 424.951C327.423 424.951 325.288 427.839 325.099 429.095C324.911 430.351 327.863 447.243 327.863 447.243C327.863 447.243 306.004 457.542 301.733 457.605C300.414 457.605 299.66 458.233 299.22 459.112C297.964 461.498 299.911 464.449 302.675 464.449H354.621C356.505 464.449 358.138 463.005 358.39 461.121C358.829 457.919 358.955 452.895 356.819 448.625Z"
        fill="#1C264B" />
    <path
        d="M345.702 186.641C345.702 186.641 332.699 225.009 331.129 234.366C329.559 243.722 328.365 353.615 328.365 353.615H368L379.495 245.794L392.246 353.615H430.624C430.624 353.615 433.513 264.633 427.735 232.356C421.956 200.079 413.225 187.771 413.225 187.771L345.702 186.641Z"
        fill="#1C264B" />
    <path
        d="M369.319 246.674C373.025 245.857 376.731 245.355 380.437 244.978C384.143 244.601 387.912 244.35 391.68 244.413C387.974 245.229 384.268 245.732 380.563 246.108C376.857 246.422 373.088 246.736 369.319 246.674Z"
        fill="#46548D" />
    <path
        d="M392.999 297.978C392.183 293.645 391.429 289.249 390.738 284.791C390.047 280.395 389.419 275.936 388.791 271.541C388.226 267.082 387.598 262.686 387.095 258.228L386.341 251.572C386.153 249.374 385.902 247.113 385.713 244.915C386.153 247.113 386.53 249.311 386.907 251.509L387.974 258.102C388.665 262.498 389.293 266.894 389.922 271.29C390.487 275.685 391.115 280.144 391.618 284.539C392.12 289.061 392.623 293.519 392.999 297.978Z"
        fill="#46548D" />
    <path
        d="M368.188 299.548C368.44 295.089 368.817 290.693 369.193 286.298C369.57 281.902 370.073 277.443 370.513 273.048C371.015 268.652 371.518 264.256 372.083 259.861L372.962 253.267C373.276 251.069 373.59 248.871 373.967 246.674C373.842 248.871 373.653 251.132 373.528 253.33L372.962 259.986C372.585 264.382 372.083 268.84 371.643 273.236C371.141 277.632 370.638 282.028 370.073 286.423C369.508 290.756 368.879 295.152 368.188 299.548Z"
        fill="#46548D" />
    <path
        d="M352.925 192.795C353.302 196.374 353.239 200.016 352.862 203.658C352.485 207.238 351.669 210.88 350.35 214.271C348.968 217.599 346.895 220.927 343.817 223.062C342.31 224.13 340.551 224.883 338.792 225.323C336.971 225.7 335.149 225.7 333.328 225.511C335.149 225.449 336.908 225.323 338.604 224.758C340.3 224.255 341.87 223.439 343.252 222.372C346.016 220.236 347.9 217.097 349.282 213.831C350.601 210.566 351.418 207.049 351.983 203.533C352.297 201.775 352.485 199.953 352.611 198.195C352.862 196.437 352.925 194.616 352.925 192.795Z"
        fill="#46548D" />
    <path
        d="M405.499 192.795C405.562 194.616 405.625 196.374 405.813 198.195C405.939 200.016 406.19 201.775 406.441 203.533C407.007 207.049 407.823 210.566 409.142 213.831C410.461 217.097 412.346 220.174 415.172 222.372C416.554 223.439 418.124 224.255 419.82 224.758C421.516 225.323 423.338 225.449 425.097 225.511C423.275 225.7 421.453 225.7 419.632 225.323C417.873 224.883 416.114 224.13 414.607 223.062C411.529 220.927 409.456 217.662 408.074 214.271C406.693 210.88 405.939 207.238 405.562 203.658C405.185 200.016 405.059 196.374 405.499 192.795Z"
        fill="#46548D" />
    <path
        d="M359.206 96.2776C363.98 101.678 369.759 105.446 377.045 105.948C382.51 106.325 389.796 106.074 394.256 102.432C398.401 99.0407 399.657 92.5099 400.411 86.6071C399.343 86.4187 398.401 86.2303 397.522 85.9163C395.889 83.9697 394.57 81.4578 393.502 77.6273C393.125 74.9271 392.874 72.1641 393.125 69.9034C393.251 68.5847 393.502 67.3916 394.067 66.5752L380.877 59.8561L366.995 64.3146C367.372 64.8797 367.749 66.7008 367.937 68.2079C368.126 70.657 368.063 74.7387 367.749 77.6901C366.681 81.4578 365.362 84.0325 363.729 85.9163C361.907 86.4815 359.897 86.8583 357.51 86.9211C356.38 86.9839 355.312 87.1095 354.244 87.3606C354.872 90.7516 356.882 93.6402 359.206 96.2776Z"
        fill="#F99678" />
    <path
        d="M367.749 67.6428C367.749 67.6428 376.731 73.9851 393.313 68.1451C393.313 68.0823 380.374 86.9839 367.749 67.6428Z"
        fill="#E17B5B" />
    <path
        d="M351.166 144.128C348.026 152.731 344.571 162.213 341.116 171.884C338.918 177.975 336.782 184.192 334.647 190.22C332.825 189.529 331.066 188.839 329.245 188.022C317.373 183.061 311.218 169.874 315.112 157.629C315.677 155.871 316.243 154.113 316.808 152.354C318.943 145.949 321.205 139.921 323.403 134.332C328.365 137.534 340.3 144.505 351.166 144.128Z"
        fill="#F99678" />
    <path
        d="M431.755 188.022C429.996 188.776 428.174 189.529 426.353 190.22C424.217 184.192 422.019 177.975 419.883 171.884C416.428 162.213 413.037 152.731 409.833 144.128H409.896C420.763 144.505 432.634 137.597 437.596 134.395C439.795 139.984 442.056 146.012 444.192 152.417C444.757 154.175 445.385 155.934 445.95 157.692C449.719 169.874 443.626 183.061 431.755 188.022Z"
        fill="#F99678" />
    <path
        d="M421.265 95.2729C412.911 84.0952 397.522 85.9163 397.522 85.9163H397.459C397.459 85.9163 389.922 100.422 379.746 99.857C369.57 99.2918 363.54 85.9163 363.54 85.9163C363.289 85.9163 348.088 84.2208 339.797 95.2729C331.443 106.451 321.142 132.762 321.142 132.762C321.142 132.762 321.958 133.39 323.466 134.395C327.36 136.969 335.714 141.805 344.383 143.563V190.283C382.07 203.533 416.868 190.283 416.868 190.283C416.868 190.283 417.81 163.344 418.69 143.123C426.604 141.114 433.953 136.781 437.596 134.457C437.596 134.457 437.659 134.457 437.659 134.395C439.167 133.453 439.983 132.762 439.983 132.762C439.983 132.762 429.619 106.388 421.265 95.2729Z"
        fill="#F6E9E3" />
    <path
        d="M357.51 131.569C357.95 128.931 358.767 126.357 359.646 123.845C360.525 121.333 361.53 118.884 362.849 116.498C362.41 119.135 361.593 121.71 360.714 124.222C359.834 126.734 358.829 129.183 357.51 131.569Z"
        fill="#C2A99D" />
    <path
        d="M398.464 117.754C399.658 119.763 400.6 121.961 401.416 124.096C402.233 126.294 402.924 128.492 403.301 130.878C402.044 128.869 401.165 126.671 400.348 124.536C399.532 122.275 398.841 120.077 398.464 117.754Z"
        fill="#C2A99D" />
    <path
        d="M360.839 86.3559C361.907 88.4282 362.912 90.5004 364.106 92.4471C365.299 94.3938 366.618 96.2776 368.251 97.8475C369.884 99.4174 371.706 100.799 373.716 101.678C375.789 102.557 377.987 102.871 380.248 102.746C384.708 102.557 388.979 100.485 392.371 97.4708C394.067 95.9637 395.575 94.2682 396.957 92.3843C398.338 90.5632 399.532 88.5538 400.663 86.5443C398.841 90.7516 396.391 94.8333 392.937 98.0359C389.545 101.239 385.022 103.499 380.248 103.75C377.862 103.876 375.475 103.499 373.276 102.494C371.078 101.552 369.131 100.108 367.56 98.3499C365.927 96.6544 364.671 94.6449 363.54 92.6355C362.598 90.626 361.656 88.491 360.839 86.3559Z"
        fill="#C2A99D" />
    <path d="M423.401 152.354H332.637V209.75H423.401V152.354Z" fill="#C56E51" />
    <path
        d="M345.764 143.186C345.764 143.186 383.263 140.988 412.032 143.123C412.032 143.123 416.177 139.042 411.278 133.892C406.378 128.743 351.48 130.69 347.335 133.076C342.749 135.713 343.817 138.1 345.764 143.186Z"
        fill="#FFD9B1" />
    <path
        d="M348.717 137.66C354.056 137.409 359.458 137.346 364.797 137.221C370.136 137.158 375.537 137.158 380.877 137.095C386.216 137.158 391.617 137.158 396.957 137.221L404.997 137.409C406.378 137.409 407.823 137.911 408.765 138.916C409.77 139.858 410.273 141.302 410.147 142.621C410.147 141.302 409.519 139.984 408.577 139.167C407.572 138.288 406.316 137.911 404.997 138.037L396.957 138.225C391.617 138.288 386.216 138.288 380.877 138.351C375.537 138.288 370.136 138.288 364.797 138.225C359.458 137.974 354.056 137.848 348.717 137.66Z"
        fill="#F2AB61" />
    <path
        d="M336.971 152.354C336.971 152.354 331.317 148.021 336.971 144.63C342.624 141.239 414.733 141.428 417.559 144.128C420.386 146.828 421.83 151.601 419.381 152.354C416.994 153.108 336.971 152.354 336.971 152.354Z"
        fill="#C78742" />
    <path
        d="M412.911 148.775C406.63 149.026 400.348 149.089 394.004 149.214C387.723 149.277 381.442 149.277 375.098 149.34C368.817 149.277 362.535 149.277 356.191 149.214L346.769 149.026L344.383 148.963C343.629 148.963 342.749 148.838 342.058 148.963C341.305 149.152 340.677 149.654 340.3 150.282C339.923 150.973 339.923 151.789 340.3 152.48C339.86 151.852 339.797 150.91 340.111 150.156C340.425 149.403 341.116 148.838 341.933 148.587C342.31 148.461 342.749 148.461 343.126 148.461L344.32 148.398L346.707 148.335L356.128 148.147C362.41 148.084 368.691 148.084 375.035 148.021C381.316 148.084 387.597 148.084 393.942 148.147C400.286 148.398 406.63 148.524 412.911 148.775Z"
        fill="#9C3626" />
    <path
        d="M381.442 201.963C381.191 202.842 371.015 198.509 371.015 198.509C371.015 198.509 381.065 205.228 379.809 206.17C378.553 207.112 368.942 202.277 368.942 202.277C368.942 202.277 378.176 210.189 376.543 210.566C374.847 210.943 366.869 205.856 366.869 205.856C369.947 209.122 370.764 210.88 370.889 211.759C370.952 212.136 370.575 212.45 370.198 212.261C365.613 209.938 358.138 200.581 355.123 196.563V196.625C348.151 194.93 341.368 192.732 334.709 190.22C332.888 189.529 331.129 188.776 329.308 188.085C317.436 183.124 311.28 169.937 315.175 157.692C315.74 155.934 316.305 154.175 316.871 152.417C325.79 159.639 334.207 166.358 341.179 171.947C351.669 180.298 358.829 186.013 359.583 186.641C366.053 185.887 371.266 187.269 373.842 187.959C375.852 188.525 376.166 189.781 376.103 190.597C376.103 191.036 375.726 191.288 375.286 191.225C373.339 190.848 369.508 190.66 368.754 191.916C367.874 193.297 382.007 199.765 381.442 201.963Z"
        fill="#F99678" />
    <path
        d="M327.36 159.136C328.554 159.827 329.496 160.769 330.375 161.711C331.255 162.716 332.008 163.783 332.574 165.039C331.38 164.348 330.438 163.469 329.559 162.464C328.679 161.46 327.926 160.392 327.36 159.136Z"
        fill="#E17B5B" />
    <path
        d="M379.558 201.963C379.809 202.842 389.984 198.509 389.984 198.509C389.984 198.509 379.934 205.228 381.191 206.17C382.447 207.112 392.057 202.277 392.057 202.277C392.057 202.277 382.824 210.189 384.457 210.566C386.153 210.943 394.13 205.856 394.13 205.856C391.052 209.122 390.236 210.88 390.11 211.759C390.047 212.136 390.424 212.45 390.801 212.261C395.386 209.938 402.861 200.581 405.876 196.563V196.625C412.848 194.93 419.632 192.732 426.29 190.22C428.112 189.529 429.87 188.776 431.692 188.085C443.563 183.124 449.719 169.937 445.825 157.692C445.259 155.934 444.694 154.175 444.129 152.417C435.209 159.639 426.793 166.358 419.82 171.947C409.331 180.298 402.17 186.013 401.416 186.641C394.947 185.887 389.733 187.269 387.158 187.959C385.148 188.525 384.834 189.781 384.897 190.597C384.897 191.036 385.273 191.288 385.713 191.225C387.66 190.848 391.492 190.66 392.246 191.916C393.125 193.297 378.992 199.765 379.558 201.963Z"
        fill="#F99678" />
    <path
        d="M423.401 168.995C424.406 167.174 425.599 165.541 426.918 163.971C428.237 162.402 429.682 160.957 431.315 159.701C430.31 161.522 429.117 163.155 427.798 164.725C426.478 166.295 425.097 167.739 423.401 168.995Z"
        fill="#E17B5B" />
    <path
        d="M410.336 40.4522C409.519 38.0031 406.881 35.9937 404.243 36.6216C405.436 2.14673 376.668 6.79362 376.668 6.79362C358.641 8.36352 356.568 27.5162 356.694 37.3124C356.128 36.9984 355.563 36.7472 355.249 36.6216C352.611 35.9937 349.973 37.9403 349.156 40.4522C348.528 42.4616 348.968 44.6595 350.098 46.4178C351.041 47.8621 352.548 49.2436 354.181 49.8087C354.558 49.9343 356.066 50.1855 357.322 50.1855C360.086 72.7292 380.563 70.5314 380.563 70.5314C398.276 71.4105 402.861 59.0397 403.929 50.1227C404.557 50.0599 405.122 49.9343 405.311 49.8715C406.944 49.2436 408.451 47.9249 409.393 46.4806C410.524 44.6595 410.964 42.3988 410.336 40.4522Z"
        fill="#F99678" />
    <path
        d="M386.09 37.8147C386.09 39.6986 386.844 41.2057 387.786 41.2057C388.728 41.2057 389.482 39.6986 389.482 37.8147C389.482 35.9309 388.728 34.4238 387.786 34.4238C386.844 34.4238 386.09 35.9309 386.09 37.8147Z"
        fill="#450D20" />
    <path
        d="M375.035 37.8147C375.035 39.6986 374.281 41.2057 373.339 41.2057C372.397 41.2057 371.643 39.6986 371.643 37.8147C371.643 35.9309 372.397 34.4238 373.339 34.4238C374.281 34.4238 375.035 35.9309 375.035 37.8147Z"
        fill="#450D20" />
    <path
        d="M386.844 48.176C386.278 49.3063 385.399 50.2483 384.331 51.0646C383.263 51.8182 381.944 52.3205 380.625 52.3205C379.243 52.2578 377.924 51.8182 376.919 51.0646C376.354 50.6879 375.977 50.1855 375.475 49.8087C375.098 49.3063 374.721 48.804 374.344 48.3016C374.847 48.6784 375.349 49.0552 375.789 49.4947C376.291 49.8087 376.794 50.1855 377.296 50.4995C378.364 51.0646 379.495 51.4414 380.625 51.4414C381.756 51.4414 382.887 51.1274 383.954 50.5623C384.959 49.8087 385.902 49.0552 386.844 48.176Z"
        fill="#450D20" />
    <path
        d="M382.321 54.2044C381.819 54.644 381.191 54.7696 380.562 54.7696C379.934 54.7696 379.306 54.5812 378.804 54.2044C379.432 54.33 379.997 54.3928 380.562 54.3928C381.128 54.4556 381.693 54.33 382.321 54.2044Z"
        fill="#450D20" />
    <path
        d="M376.417 26.0091C375.663 25.3184 374.784 25.0672 373.842 25.0672C372.899 25.0672 371.957 25.13 371.078 25.444C370.198 25.6952 369.319 26.1975 368.628 26.8255C367.874 27.3906 367.372 28.207 366.995 28.9605C366.807 29.3373 366.932 29.8397 367.309 30.0281C367.623 30.2165 368 30.1537 368.251 29.9025L368.314 29.8397C368.879 29.3373 369.382 28.8977 369.947 28.521C370.512 28.1442 371.141 27.9558 371.769 27.7674C372.397 27.6418 373.088 27.5162 373.716 27.579C374.407 27.579 375.098 27.6418 375.852 27.4534L376.04 27.3906C376.48 27.2651 376.794 26.8255 376.668 26.3859C376.605 26.2603 376.543 26.0719 376.417 26.0091Z"
        fill="#450D20" />
    <path
        d="M384.708 26.0091C385.462 25.3184 386.341 25.0672 387.283 25.0672C388.226 25.0672 389.168 25.13 390.047 25.444C390.927 25.6952 391.806 26.1975 392.497 26.8255C393.251 27.3906 393.753 28.207 394.13 28.9605C394.318 29.3373 394.193 29.8397 393.816 30.0281C393.502 30.2165 393.125 30.1537 392.874 29.9025L392.811 29.8397C392.246 29.3373 391.743 28.8977 391.178 28.521C390.613 28.1442 389.984 27.9558 389.356 27.7674C388.728 27.6418 388.037 27.5162 387.409 27.579C386.718 27.579 386.027 27.6418 385.273 27.4534L385.085 27.3906C384.645 27.2651 384.331 26.8255 384.457 26.3859C384.52 26.2603 384.582 26.0719 384.708 26.0091Z"
        fill="#450D20" />
    <path
        d="M380.939 32.6027C381.253 33.8586 381.442 35.1773 381.693 36.4333C381.944 37.6892 382.196 38.9451 382.51 40.1382C382.572 40.4522 382.698 40.7034 382.824 41.0174C382.887 41.2685 383.138 41.7081 383.138 42.1477C383.201 43.0268 382.635 43.8432 381.944 44.1572C381.253 44.5339 380.437 44.4711 379.746 44.2827C379.118 44.0316 378.49 43.7176 378.05 43.278C379.243 43.7176 380.625 44.0944 381.505 43.4664C381.944 43.1524 382.133 42.7128 382.07 42.2733C382.07 42.0221 381.944 41.8965 381.819 41.5197C381.693 41.2057 381.567 40.8918 381.505 40.5778C381.128 39.2591 380.939 37.9404 380.877 36.6217C380.751 35.2401 380.751 33.9214 380.939 32.6027Z"
        fill="#450D20" />
    <path
        d="M351.292 42.2733C351.292 41.5197 351.48 40.6406 352.171 40.0126C352.925 39.3847 353.93 39.4475 354.747 39.7614C355.563 40.0754 356.254 40.6406 356.819 41.2685C357.385 41.8965 357.762 42.65 358.138 43.4664C358.264 43.7804 358.138 44.0943 357.824 44.2199C357.573 44.2827 357.385 44.2199 357.196 44.0943L357.133 44.0316C356.568 43.4664 355.877 42.8384 355.249 42.65C354.935 42.5872 354.684 42.5872 354.433 42.7128C354.181 42.9012 353.993 43.2152 353.867 43.592C353.553 44.3455 353.427 45.2247 354.056 45.5386C354.747 45.9154 355.689 45.8526 356.568 45.727C355.752 46.1038 354.809 46.4178 353.804 46.1038C353.302 45.9154 352.862 45.3503 352.799 44.7851C352.737 44.2199 352.799 43.7804 352.988 43.278C353.113 42.7756 353.302 42.2733 353.804 41.8965C354.307 41.4569 354.998 41.3941 355.563 41.5197C356.631 41.8337 357.385 42.4617 358.076 43.2152L357.133 43.7804C356.631 42.4617 355.752 41.1429 354.495 40.515C353.867 40.201 353.113 40.0754 352.548 40.3894C351.857 40.7662 351.48 41.5197 351.292 42.2733Z"
        fill="#450D20" />
    <path
        d="M409.017 42.2733C409.017 41.5197 408.828 40.6406 408.137 40.0126C407.383 39.3847 406.378 39.4475 405.562 39.7614C404.745 40.0754 404.054 40.6406 403.489 41.2685C402.924 41.8965 402.547 42.65 402.17 43.4664C402.044 43.7804 402.17 44.0943 402.484 44.2199C402.735 44.2827 402.924 44.2199 403.112 44.0943L403.175 44.0316C403.74 43.4664 404.431 42.8384 405.059 42.65C405.373 42.5872 405.625 42.5872 405.876 42.7128C406.127 42.9012 406.316 43.2152 406.441 43.592C406.755 44.3455 406.881 45.2247 406.253 45.5386C405.562 45.9154 404.62 45.8526 403.74 45.727C404.557 46.1038 405.499 46.4178 406.504 46.1038C407.007 45.9154 407.446 45.3503 407.509 44.7851C407.572 44.2199 407.509 43.7804 407.321 43.278C407.195 42.7756 407.007 42.2733 406.504 41.8965C406.002 41.4569 405.311 41.3941 404.745 41.5197C403.677 41.8337 402.924 42.4617 402.233 43.2152L403.175 43.7804C403.677 42.4617 404.557 41.1429 405.813 40.515C406.441 40.201 407.195 40.0754 407.76 40.3894C408.388 40.7662 408.765 41.5197 409.017 42.2733Z"
        fill="#450D20" />
    <path
        d="M408.012 15.3966C402.987 6.60523 393.188 0.765224 383.075 0.514041C379.369 0.451245 375.726 1.0792 372.083 1.83275C369.822 2.33512 367.56 2.90028 365.55 3.96781C363.54 5.03534 361.907 6.41685 360.965 8.48911C355.438 11.5661 351.48 17.4061 350.664 23.6857C350.098 28.1442 351.041 32.7283 353.239 36.5588C353.867 36.4332 354.558 36.3704 355.249 36.5588C355.5 36.6216 355.94 36.81 356.442 37.0612C357.51 38.0659 358.39 39.4474 359.143 40.5778C359.772 39.3846 361.028 37.1868 361.656 35.9937C370.575 33.6702 378.238 26.3859 380.688 17.4689C380.311 19.604 381.568 21.6134 382.949 23.3089C387.221 28.3954 393.502 31.7236 400.16 32.4771C400.474 33.733 400.411 35.1773 400.348 36.496C400.286 37.1868 400.223 37.9403 400.474 38.5683C400.725 39.1963 401.479 39.7614 402.107 39.5102C402.861 37.9403 404.368 36.9356 406.002 36.496C407.823 36.7472 409.456 38.1287 410.21 39.8242C412.911 31.9119 412.22 22.7438 408.012 15.3966Z"
        fill="#450D20" />
    <path
        d="M248.593 325.922C245.578 317.633 166.812 284.225 166.812 284.225L82.2031 297.664C82.2031 297.664 77.4294 313.426 79.9419 331.322C82.4544 349.219 102.806 411.324 102.806 411.324L46.2116 419.739C44.4528 426.96 42.8825 434.182 42.0031 441.466C41.9403 442.973 41.8147 444.48 41.7519 445.987C67.8819 447.306 131.762 449.692 140.305 443.036C151.046 434.559 139.865 327.555 139.865 327.555L209.775 353.866L211.094 435.877H237.852C237.852 435.815 251.608 334.211 248.593 325.922Z"
        fill="#405B80" />
    <path
        d="M90.1175 303.378C88.4844 310.474 87.9191 317.884 88.6728 325.106C88.8613 326.927 89.1125 328.685 89.5522 330.506C89.9291 332.264 90.4944 334.023 90.9969 335.781C92.0647 339.297 93.0697 342.814 94.0747 346.331C98.0319 360.397 101.738 374.589 105.193 388.78C106.888 395.876 108.584 403.035 109.903 410.257C110.029 411.136 110.218 412.078 110.28 413.02C110.343 413.459 110.406 413.962 110.406 414.464C110.406 414.715 110.406 414.966 110.28 415.28C110.218 415.406 110.155 415.531 110.092 415.594L109.966 415.72C109.841 415.783 109.778 415.908 109.652 415.971C109.275 416.285 108.71 416.599 108.145 416.599C107.579 416.662 107.14 416.536 106.763 416.536C105.946 416.536 105.255 416.913 104.376 417.353C103.559 417.792 102.743 418.169 101.863 418.546C100.984 418.86 100.23 419.299 99.1625 419.425C97.341 419.676 95.5194 419.864 93.6978 420.053L71.9019 422.251L50.0432 424.26L93.635 419.236C95.4566 419.048 97.2782 418.797 99.0369 418.546L99.665 418.483C99.7278 418.483 99.8535 418.483 99.9163 418.42L100.23 418.294L101.487 417.792C102.303 417.415 103.12 417.039 103.936 416.599C104.69 416.159 105.695 415.657 106.7 415.657C107.203 415.657 107.705 415.72 108.019 415.72C108.333 415.72 108.647 415.531 108.961 415.28C109.024 415.217 109.087 415.155 109.213 415.092L109.338 414.966C109.338 414.966 109.275 414.966 109.275 415.029C109.275 414.903 109.338 414.715 109.338 414.527C109.338 414.087 109.275 413.648 109.213 413.208C109.087 412.329 108.961 411.45 108.836 410.508C107.517 403.349 105.758 396.253 104.062 389.157C100.67 374.965 96.9641 360.836 93.1953 346.707C92.2532 343.191 91.311 339.674 90.306 336.158C89.8035 334.399 89.301 332.641 88.9241 330.82C88.5472 328.999 88.296 327.178 88.1075 325.357C87.7935 321.715 87.8563 318.01 88.2332 314.367C88.5472 310.537 89.1753 306.895 90.1175 303.378Z"
        fill="#88A3CA" />
    <path
        d="M127.993 440.21C128.873 438.64 129.815 437.133 130.694 435.626C131.574 434.119 132.328 432.549 133.27 430.979C133.207 432.8 132.579 434.559 131.637 436.191C130.757 437.761 129.564 439.206 127.993 440.21Z"
        fill="#88A3CA" />
    <path
        d="M100.607 302.75C101.11 304.006 101.424 305.325 101.612 306.644C101.801 307.962 101.863 309.344 101.863 310.663C101.801 313.363 101.173 316.063 100.168 318.575C99.0997 321.087 97.5922 323.347 95.645 325.294C94.7028 326.236 93.6978 327.115 92.5672 327.931C91.4366 328.685 90.306 329.376 89.0497 329.878C90.1803 329.124 91.2482 328.371 92.1903 327.492C93.1953 326.613 94.1375 325.734 94.9541 324.729C96.65 322.719 98.0319 320.521 99.0369 318.135C100.042 315.749 100.67 313.237 100.921 310.6C101.235 307.962 101.11 305.325 100.607 302.75Z"
        fill="#88A3CA" />
    <path
        d="M139.677 327.366C139.802 327.555 139.551 327.869 139.237 327.806C139.174 327.806 139.174 327.743 139.174 327.68C141.058 325.545 143.068 323.661 145.141 321.84C147.277 320.019 149.413 318.261 151.799 316.754C149.978 318.889 147.968 320.835 145.895 322.657C143.822 324.478 141.624 326.236 139.3 327.806V327.617C139.363 327.68 139.677 327.555 139.677 327.366Z"
        fill="#88A3CA" />
    <path
        d="M146.335 322.217C157.955 326.299 169.45 330.506 180.944 334.839C186.723 336.974 192.439 339.235 198.155 341.495C200.982 342.626 203.871 343.756 206.698 344.949C208.142 345.514 209.524 346.142 210.906 346.77C211.597 347.084 212.288 347.398 212.979 347.775C213.356 347.963 213.67 348.152 214.047 348.403C214.549 348.717 214.675 349.407 214.738 349.721C215.177 352.861 215.24 355.875 215.428 358.952L215.743 368.183C215.931 374.337 216.057 380.491 216.119 386.583C216.245 398.891 216.308 411.136 216.182 423.444L215.24 386.645L214.738 368.246L214.361 359.078C214.172 356.064 214.109 352.924 213.67 349.973C213.67 349.784 213.607 349.596 213.544 349.533C213.544 349.408 213.418 349.345 213.356 349.282C213.104 349.094 212.79 348.905 212.476 348.717C211.848 348.34 211.157 348.026 210.466 347.712C209.084 347.084 207.703 346.456 206.258 345.828C203.431 344.635 200.605 343.442 197.778 342.312L180.63 335.53L146.335 322.217Z"
        fill="#88A3CA" />
    <path
        d="M211.032 350.098C211.032 349.219 211.283 348.528 211.597 347.9C211.974 347.272 212.413 346.645 213.167 346.205C213.167 347.084 212.916 347.775 212.602 348.403C212.225 349.094 211.785 349.722 211.032 350.098Z"
        fill="#88A3CA" />
    <path
        d="M213.418 352.736C213.481 351.794 213.858 350.977 214.298 350.287C214.738 349.596 215.303 348.905 216.119 348.403C216.057 349.345 215.68 350.161 215.24 350.852C214.8 351.543 214.298 352.233 213.418 352.736Z"
        fill="#88A3CA" />
    <path
        d="M210.278 442.345L209.336 424.448H231.697C231.697 424.448 234.209 418.671 236.91 418.671C239.611 418.671 241.747 421.56 241.935 422.816C242.124 424.072 239.172 440.964 239.172 440.964C239.172 440.964 261.03 451.262 265.302 451.325C266.621 451.325 267.374 451.953 267.814 452.832C269.07 455.218 267.123 458.17 264.359 458.17H212.413C210.529 458.17 208.896 456.726 208.645 454.842C208.268 451.639 208.079 446.615 210.278 442.345Z"
        fill="#1C264B" />
    <path
        d="M231.257 424.7C231.069 426.96 230.88 429.158 230.755 431.419C230.629 433.68 230.503 435.877 230.441 438.138C230.441 440.336 230.189 442.659 230.629 444.732C230.88 445.736 231.383 446.678 232.137 447.306C232.89 447.934 233.895 448.374 234.9 448.688C239.172 449.818 243.631 450.76 247.965 451.388C252.362 452.016 256.885 452.079 261.282 451.137C259.146 451.89 256.885 452.204 254.623 452.393C252.362 452.518 250.101 452.455 247.84 452.267C245.578 452.079 243.38 451.639 241.119 451.262C238.92 450.823 236.722 450.446 234.461 449.818C233.33 449.441 232.262 449.002 231.32 448.185C230.378 447.369 229.75 446.239 229.498 445.046C229.247 443.852 229.184 442.722 229.247 441.592C229.247 440.461 229.373 439.331 229.436 438.201C229.875 433.554 230.441 429.095 231.257 424.7Z"
        fill="#46548D" />
    <path
        d="M208.833 455.595C213.733 455.344 218.569 455.281 223.406 455.156C228.305 455.093 233.142 455.093 237.978 455.03C242.815 455.093 247.714 455.093 252.551 455.156L259.837 455.344C262.287 455.407 264.673 455.47 267.123 455.595C264.673 455.721 262.224 455.784 259.837 455.846L252.551 456.035C247.651 456.098 242.815 456.098 237.978 456.16C233.079 456.098 228.242 456.098 223.406 456.035C218.569 455.909 213.67 455.784 208.833 455.595Z"
        fill="#46548D" />
    <path
        d="M33.9631 413.208L51.2366 417.918L44.1388 439.143C44.1388 439.143 48.8497 443.35 47.9703 445.862C47.091 448.436 43.6991 449.504 42.4428 449.316C41.1866 449.127 26.0488 440.964 26.0488 440.964C26.0488 440.964 9.52908 458.421 8.08439 462.503C7.6447 463.696 6.82814 464.261 5.82314 464.449C3.1222 464.889 0.986576 462.126 1.86595 459.489L18.26 410.194C18.8881 408.373 20.7097 407.305 22.5941 407.682C25.7975 408.373 30.6341 409.817 33.9631 413.208Z"
        fill="#1C264B" />
    <path
        d="M23.2222 407.87C21.8403 412.643 20.2072 417.29 18.6369 421.999C17.0666 426.709 15.3706 431.356 13.7375 436.003C12.0416 440.65 10.3456 445.297 8.58687 449.944L5.94875 456.851C5.00656 459.175 4.12719 461.435 3.185 463.759C3.87594 461.372 4.6925 459.049 5.44625 456.663L7.83312 449.63C9.40343 444.92 11.0994 440.273 12.7325 435.626C14.4284 430.979 16.1244 426.332 17.8831 421.685L20.5213 414.778L23.2222 407.87Z"
        fill="#46548D" />
    <path
        d="M43.5734 439.143C40.684 438.012 37.7318 437.07 34.7168 436.442C33.2093 436.128 31.7018 435.814 30.1943 435.626C28.6868 435.438 27.1793 435.312 25.7347 435.563C22.8453 436.003 20.584 438.389 19.3278 441.089C18.6997 442.471 18.3228 443.915 18.0715 445.422C17.7575 446.929 17.6318 448.499 17.4434 450.006C17.3806 446.929 17.4434 443.727 18.574 440.713C19.1393 439.205 20.0187 437.824 21.2122 436.694C22.4056 435.563 23.9131 434.747 25.5462 434.433C27.1793 434.182 28.8125 434.307 30.3828 434.559C31.9531 434.81 33.4606 435.124 34.9681 435.563C37.9203 436.505 40.8097 437.636 43.5734 439.143Z"
        fill="#46548D" />
    <path
        d="M103.685 174.898C103.434 174.898 103.12 174.961 102.868 174.961C108.208 179.608 113.986 183.689 120.268 187.08C126.612 190.534 133.898 193.109 141.184 191.288C142.566 190.911 143.697 190.471 144.639 189.843C145.707 185.51 146.9 181.178 147.151 176.782C145.832 175.903 144.639 174.898 143.634 173.642C143.32 172.386 142.44 169.246 141.812 165.73C141.247 162.59 140.87 159.136 141.184 156.436C141.31 155.117 141.561 153.924 142.126 153.108L115.117 137.911L111.851 136.09C111.851 136.216 111.914 136.279 111.914 136.404C111.914 136.467 111.976 136.593 111.976 136.718C112.353 138.79 113.421 145.886 113.861 153.736C114.175 160.455 113.986 167.739 112.29 172.951C109.966 174.019 107.14 174.772 103.685 174.898Z"
        fill="#D97657" />
    <path
        d="M141.812 165.73C125.355 167.802 117.001 148.147 116.687 147.393C119.702 152.229 124.162 154.678 128.433 155.808C133.709 157.252 138.86 156.75 141.059 156.436C141.121 156.436 141.121 156.436 141.184 156.436C140.933 159.199 141.31 162.653 141.812 165.73Z"
        fill="#C46040" />
    <path
        d="M143.634 173.705C143.634 173.705 141.561 183.689 135.217 183.878C128.81 184.066 112.29 173.014 112.29 173.014C112.29 173.014 88.6729 165.855 78.4344 174.772C68.2588 183.689 77.3038 198.509 77.3038 198.509L82.266 271.792C82.266 271.792 76.3616 288.872 80.7585 302.75C80.7585 302.75 150.166 302.625 170.957 286.612C170.957 286.612 170.015 277.946 163.231 272.169L159.4 258.919L163.671 183.941L143.634 173.705Z"
        fill="#FFD9B1" />
    <path
        d="M235.843 280.269C235.843 280.269 246.583 279.641 247.274 278.197C247.965 276.753 235.843 275.874 235.843 275.874C235.843 275.874 246.898 274.618 246.646 273.739C246.081 271.541 230.503 272.922 230.566 271.227C230.629 269.782 234.021 267.961 235.968 267.333C236.345 267.208 236.533 266.831 236.408 266.454C236.031 265.701 235.214 264.696 233.142 265.198C230.315 265.889 224.536 267.459 218.883 272.043C216.308 271.666 212.665 271.101 208.331 270.41C208.268 271.917 208.268 273.425 208.268 274.932C208.268 278.134 208.205 281.4 208.205 284.728C208.268 285.733 208.393 286.674 208.456 287.679C213.858 286.674 219.197 285.481 224.473 283.911V283.723C229.813 285.858 237.727 288.684 241.873 288.496C242.312 288.496 242.501 288.056 242.249 287.679C241.684 286.988 240.114 285.858 235.843 284.477C235.843 284.477 245.327 284.979 246.646 283.786C247.84 282.593 235.843 280.269 235.843 280.269Z"
        fill="#F18666" />
    <path
        d="M143.822 174.207C143.822 174.207 167.251 184.506 169.764 188.022C172.276 191.539 188.733 259.735 188.733 259.735C188.733 259.735 191.246 262.121 192.062 264.382C192.879 266.643 216.057 270.096 216.057 270.096C216.057 270.096 220.705 283.346 218.004 286.612C215.303 289.877 176.485 289.751 165.241 283.786C153.998 277.82 144.576 221.116 144.576 221.116C144.576 221.116 146.586 178.603 143.822 174.207Z"
        fill="#FFD9B1" />
    <path
        d="M153.37 288.81L121.273 289.5C121.273 289.5 119.325 295.78 123.157 297.413C126.988 299.045 154.249 297.287 154.249 297.287L153.37 288.81Z"
        fill="#D26732" />
    <path
        d="M152.93 280.332L120.456 281.462C120.456 281.462 118.572 287.114 121.273 289.5C123.973 291.887 155.694 288.621 155.694 288.621L152.93 280.332Z"
        fill="#C56E51" />
    <path
        d="M152.867 271.855L119.953 272.671C119.953 272.671 117.692 277.192 119.765 280.834C120.079 281.4 120.644 281.651 121.21 281.651L154.94 280.52L152.867 271.855Z"
        fill="#D94B33" />
    <path
        d="M152.49 271.855C152.49 271.855 121.524 274.115 119.577 272.483C117.629 270.85 118.006 262.624 120.456 261.933C122.906 261.179 152.742 263 152.742 263L152.49 271.855Z"
        fill="#F6E9E3" />
    <path
        d="M151.611 254.963L119.514 252.011C119.514 252.011 115.619 259.798 119.263 262.31C122.906 264.884 152.428 263.44 152.428 263.44L151.611 254.963Z"
        fill="#A99052" />
    <path
        d="M151.171 246.485L120.456 239.138C120.456 239.138 115.933 245.669 118.069 250.316C118.572 251.446 119.639 252.2 120.77 252.388C126.046 253.267 144.953 256.156 152.867 254.837L151.171 246.485Z"
        fill="#D26732" />
    <path
        d="M120.77 229.593C120.77 229.593 116.938 235.433 119.828 238.573C122.654 241.713 147.528 246.925 151.234 246.485C154.94 246.046 154.438 231.351 154.438 231.351L120.77 229.593Z"
        fill="#D94B33" />
    <path
        d="M236.282 293.205L154.186 297.287C151.737 297.413 149.727 295.591 149.664 293.268C149.601 290.882 151.548 288.872 153.998 288.81L236.408 284.728C237.476 284.665 238.104 285.921 237.35 286.674L237.099 286.926C235.968 288.119 236.031 289.877 237.224 290.945C238.041 291.698 237.476 293.142 236.282 293.205Z"
        fill="#566A64" />
    <path
        d="M235.843 284.728L153.747 288.81C151.297 288.935 149.287 287.114 149.224 284.791C149.161 282.404 151.108 280.395 153.558 280.332L235.968 276.25C237.036 276.188 237.664 277.443 236.91 278.197L236.659 278.448C235.528 279.641 235.591 281.4 236.785 282.467C237.601 283.221 237.036 284.665 235.843 284.728Z"
        fill="#A95538" />
    <path
        d="M235.403 276.25L153.307 280.332C150.857 280.458 148.847 278.637 148.784 276.313C148.722 273.927 150.669 271.917 153.118 271.855L235.528 267.773C236.596 267.71 237.224 268.966 236.471 269.72L236.219 269.971C235.089 271.164 235.152 272.922 236.345 273.99C237.224 274.743 236.596 276.188 235.403 276.25Z"
        fill="#FF917F" />
    <path
        d="M234.963 267.773L152.867 271.855C150.418 271.98 148.408 270.159 148.345 267.836C148.282 265.449 150.229 263.44 152.679 263.377L235.089 259.295C236.157 259.233 236.785 260.489 236.031 261.242L235.78 261.493C234.649 262.686 234.712 264.445 235.905 265.512C236.785 266.266 236.157 267.71 234.963 267.773Z"
        fill="#FBDBCC" />
    <path
        d="M234.523 259.358L152.428 263.44C149.978 263.566 147.968 261.745 147.905 259.421C147.842 257.035 149.789 255.025 152.239 254.963L234.649 250.881C235.717 250.818 236.345 252.074 235.591 252.828L235.34 253.079C234.209 254.272 234.272 256.03 235.466 257.098C236.345 257.851 235.717 259.296 234.523 259.358Z"
        fill="#00A284" />
    <path
        d="M234.084 250.881L151.988 254.963C149.538 255.088 147.528 253.267 147.465 250.944C147.403 248.557 149.35 246.548 151.799 246.485L234.209 242.403C235.277 242.341 235.905 243.597 235.152 244.35L234.9 244.601C233.77 245.794 233.833 247.553 235.026 248.62C235.905 249.374 235.34 250.818 234.084 250.881Z"
        fill="#566A64" />
    <path
        d="M233.644 242.403L151.548 246.485C149.098 246.611 147.088 244.79 147.026 242.466C146.963 240.08 148.91 238.07 151.36 238.008L233.77 233.926C234.838 233.863 235.466 235.119 234.712 235.873L234.461 236.124C233.33 237.317 233.393 239.075 234.586 240.143C235.466 240.896 234.9 242.341 233.644 242.403Z"
        fill="#FF917F" />
    <path
        d="M151.36 237.945L120.707 229.593L188.733 221.178C192.942 220.676 197.213 221.116 201.233 222.497L233.77 233.8L151.36 237.945Z"
        fill="#C78742" />
    <path
        d="M147.088 226.202C147.088 226.202 153.433 219.106 176.108 221.43C176.108 221.43 170.203 232.858 147.088 226.202Z"
        fill="#D94B33" />
    <path
        d="M149.664 223.502C149.664 223.502 165.995 229.907 172.716 221.178C173.784 219.86 175.605 218.855 177.615 218.918C179.311 218.981 181.196 219.797 182.138 221.995C182.138 221.995 177.804 229.216 168.445 230.472C159.086 231.728 147.34 229.656 141.184 227.081C141.184 227.081 142.692 221.681 149.664 223.502Z"
        fill="#FF917F" />
    <path
        d="M174.035 295.78C174.286 293.519 159.337 289.186 159.965 287.616C160.53 286.235 164.362 285.795 166.372 285.921C166.812 285.921 167.126 285.607 167.126 285.167C167.063 284.351 166.623 283.095 164.55 282.844C161.787 282.467 156.385 281.902 149.978 283.66C149.161 283.221 144.388 280.458 137.101 276.188C136.033 278.637 134.777 281.086 133.647 283.409C132.328 286.172 131.134 289.061 130.003 291.949C135.594 293.017 141.247 293.896 146.9 294.398L146.963 294.21C150.543 297.727 159.211 305.953 164.173 307.585C164.55 307.711 164.927 307.397 164.802 307.02C164.55 306.141 163.483 304.508 160.028 301.745C160.53 301.934 168.759 305.576 170.329 305.011C171.899 304.383 162.226 298.229 161.661 297.915C162.163 298.103 171.899 301.18 173.03 300.113C174.161 299.045 163.859 294.147 163.231 293.833C163.797 294.022 173.909 296.659 174.035 295.78Z"
        fill="#D97657" />
    <path
        d="M84.4016 191.35L113.609 206.924L97.2782 249.499L146.335 279.265L136.348 295.529C136.348 295.529 70.3944 270.222 62.8569 261.744C55.3194 253.267 84.4016 191.35 84.4016 191.35Z"
        fill="#FFD9B1" />
    <path
        d="M82.7685 273.111C87.2282 274.743 91.6879 276.501 96.1476 278.26C100.607 280.018 105.004 281.839 109.401 283.66C113.798 285.544 118.195 287.365 122.529 289.312L129.061 292.2C131.197 293.205 133.395 294.21 135.531 295.215C133.27 294.398 131.071 293.519 128.81 292.703L122.152 290.065C117.692 288.307 113.295 286.486 108.898 284.665C104.502 282.781 100.105 280.96 95.7707 279.013C91.4366 277.067 87.1026 275.183 82.7685 273.111Z"
        fill="#F2AB61" />
    <path
        d="M119.765 263.44C115.871 261.305 112.102 259.107 108.27 256.846C104.439 254.649 100.733 252.262 96.9641 250.002C96.7129 249.876 96.6501 249.562 96.7129 249.374C97.5922 247.113 98.4716 244.852 99.351 242.592C100.23 240.331 101.11 238.071 102.052 235.81L104.816 229.028C105.758 226.767 106.7 224.507 107.705 222.309C106.951 224.632 106.135 226.893 105.381 229.216L102.931 236.124C102.115 238.447 101.235 240.708 100.356 242.969C99.4766 245.229 98.6601 247.553 97.7807 249.813L97.5294 249.123C101.235 251.509 105.004 253.769 108.71 256.219C112.479 258.479 116.185 260.928 119.765 263.44Z"
        fill="#F2AB61" />
    <path
        d="M94.2632 243.597C95.0169 243.659 95.5823 243.911 96.0848 244.225C96.5873 244.538 97.0898 244.915 97.4666 245.606C96.7129 245.732 96.0847 245.543 95.5194 245.166C94.9541 244.79 94.4516 244.287 94.2632 243.597Z"
        fill="#F2AB61" />
    <path
        d="M93.8863 251.195C94.0747 250.63 94.5144 250.316 94.9541 250.19C95.3938 250.127 95.8963 250.127 96.336 250.63C95.8963 251.069 95.5822 251.195 95.2053 251.32C94.8285 251.383 94.4516 251.383 93.8863 251.195Z"
        fill="#F2AB61" />
    <path
        d="M78.1204 199.828C78.7485 195.997 80.256 192.292 82.3288 188.901C84.4016 185.573 87.0397 182.496 90.1804 180.173C90.9341 179.482 91.8135 179.042 92.6301 178.477C93.4466 177.912 94.2632 177.41 95.2054 177.033L97.9063 175.777C98.8485 175.463 99.7907 175.149 100.733 174.835L102.115 174.396C102.617 174.27 103.057 174.207 103.559 174.082L106.449 173.516C107.391 173.328 108.396 173.328 109.338 173.265C110.28 173.202 111.285 173.14 112.228 173.077C110.28 173.454 108.396 173.642 106.512 174.082L103.685 174.835C103.245 174.961 102.743 175.086 102.303 175.212L100.984 175.714L98.2832 176.719L95.7079 178.038C95.2682 178.289 94.8285 178.414 94.4516 178.728L93.2582 179.482C92.4416 180.047 91.625 180.487 90.9341 181.115C87.8563 183.375 85.281 186.264 83.0825 189.467C82.5172 190.22 82.0775 191.099 81.575 191.916C81.1354 192.732 80.6957 193.611 80.256 194.49C79.3766 196.186 78.6857 198.007 78.1204 199.828Z"
        fill="#F2AB61" />
    <path
        d="M127.24 187.897C128.936 189.027 130.82 189.718 132.767 190.032C134.714 190.346 136.662 190.22 138.546 189.655C140.368 189.09 142.063 188.085 143.508 186.704C144.953 185.385 146.083 183.689 146.837 181.805C146.523 183.815 145.518 185.762 144.136 187.269C142.754 188.839 140.933 190.032 138.86 190.66C136.85 191.288 134.652 191.35 132.579 190.848C130.569 190.409 128.684 189.404 127.24 187.897Z"
        fill="#F2AB61" />
    <path
        d="M163.231 198.572C163.42 200.267 163.671 201.963 163.797 203.658C163.985 205.354 164.048 207.049 164.173 208.745C164.299 212.136 164.362 215.527 164.111 218.981C163.483 215.59 163.231 212.199 163.043 208.808C162.98 207.112 162.917 205.417 162.917 203.721C162.917 201.963 162.98 200.267 163.231 198.572Z"
        fill="#F2AB61" />
    <path
        d="M157.453 141.177C157.453 142.809 157.39 144.442 156.824 145.949C154.814 151.664 146.774 155.243 141.184 156.499C141.058 156.562 140.933 156.562 140.807 156.562C133.584 158.069 126.298 156.185 120.644 151.475C119.639 150.659 118.76 149.78 117.943 148.838C114.991 145.447 112.981 141.239 111.976 136.781H111.913C110.594 136.907 108.836 136.593 108.396 136.404C107.579 136.09 106.826 135.588 106.072 135.023C105.381 134.395 104.753 133.704 104.25 133.013C103.12 131.255 102.68 129.057 103.308 127.048C104.125 124.536 106.763 122.589 109.401 123.217C109.589 123.28 109.841 123.405 110.155 123.531C109.778 114.865 111.097 105.32 117.127 100.108C130.129 88.8049 148.784 92.7611 152.742 102.934C157.327 114.488 157.578 128.869 157.453 141.177Z"
        fill="#D97657" />
    <path
        d="M147.968 123.28C147.968 125.164 148.722 126.671 149.664 126.671C150.606 126.671 151.36 125.164 151.36 123.28C151.36 121.396 150.606 119.889 149.664 119.889C148.722 119.889 147.968 121.396 147.968 123.28Z"
        fill="#450D20" />
    <path
        d="M136.85 123.28C136.85 125.164 136.096 126.671 135.154 126.671C134.212 126.671 133.458 125.164 133.458 123.28C133.458 121.396 134.212 119.889 135.154 119.889C136.096 119.889 136.85 121.396 136.85 123.28Z"
        fill="#450D20" />
    <path
        d="M148.659 133.641C148.093 134.771 147.214 135.713 146.146 136.53C145.078 137.283 143.759 137.786 142.44 137.786C141.058 137.723 139.739 137.283 138.734 136.53C138.169 136.153 137.792 135.651 137.29 135.274C136.913 134.771 136.536 134.269 136.159 133.767C136.662 134.143 137.164 134.52 137.604 134.96C138.106 135.274 138.609 135.651 139.111 135.965C140.116 136.53 141.31 136.907 142.44 136.907C143.571 136.907 144.702 136.593 145.769 136.027C146.774 135.211 147.779 134.457 148.659 133.641Z"
        fill="#450D20" />
    <path
        d="M144.199 139.669C143.697 140.109 143.068 140.235 142.44 140.235C141.812 140.235 141.184 140.046 140.682 139.669C141.31 139.795 141.875 139.858 142.44 139.858C143.006 139.858 143.571 139.795 144.199 139.669Z"
        fill="#450D20" />
    <path
        d="M138.232 111.411C137.478 110.721 136.599 110.469 135.657 110.469C134.714 110.469 133.772 110.532 132.893 110.846C132.013 111.097 131.134 111.6 130.443 112.228C129.689 112.793 129.187 113.609 128.81 114.363C128.622 114.74 128.747 115.242 129.124 115.43C129.438 115.619 129.815 115.556 130.066 115.305L130.129 115.242C130.694 114.74 131.197 114.3 131.762 113.923C132.328 113.546 132.956 113.358 133.584 113.17C134.212 113.044 134.903 112.919 135.531 112.981C136.222 112.981 136.913 113.044 137.667 112.856L137.855 112.793C138.295 112.667 138.609 112.228 138.483 111.788C138.483 111.725 138.358 111.537 138.232 111.411Z"
        fill="#450D20" />
    <path
        d="M146.586 111.411C147.34 110.721 148.219 110.469 149.161 110.469C150.103 110.469 151.046 110.532 151.925 110.846C152.804 111.097 153.684 111.6 154.375 112.228C155.128 112.793 155.631 113.609 156.008 114.363C156.196 114.74 156.071 115.242 155.694 115.43C155.38 115.619 155.003 115.556 154.752 115.305L154.689 115.242C154.123 114.74 153.621 114.3 153.056 113.923C152.49 113.546 151.862 113.358 151.234 113.17C150.606 113.044 149.915 112.919 149.287 112.981C148.596 112.981 147.905 113.044 147.151 112.856L146.963 112.793C146.523 112.667 146.209 112.228 146.335 111.788C146.398 111.725 146.46 111.537 146.586 111.411Z"
        fill="#450D20" />
    <path
        d="M145.769 117.754C146.083 119.01 146.272 120.328 146.523 121.584C146.774 122.84 147.026 124.096 147.34 125.289C147.403 125.603 147.528 125.854 147.654 126.168C147.717 126.42 147.968 126.859 147.968 127.299C148.031 128.178 147.465 128.994 146.774 129.308C146.083 129.685 145.267 129.622 144.576 129.434C143.948 129.183 143.32 128.869 142.88 128.429C144.073 128.869 145.455 129.245 146.335 128.617C146.774 128.303 146.963 127.864 146.9 127.424C146.9 127.173 146.774 127.048 146.649 126.671C146.523 126.357 146.398 126.043 146.335 125.729C145.958 124.41 145.769 123.091 145.707 121.773C145.581 120.391 145.644 119.072 145.769 117.754Z"
        fill="#450D20" />
    <path
        d="M105.381 128.555C105.381 127.801 105.569 126.922 106.26 126.294C107.014 125.666 108.019 125.729 108.836 126.043C109.652 126.357 110.343 126.922 110.908 127.55C111.474 128.178 111.851 128.931 112.228 129.748C112.353 130.062 112.228 130.376 111.913 130.501C111.662 130.564 111.474 130.501 111.285 130.376L111.223 130.313C110.657 129.748 109.966 129.12 109.338 128.931C109.024 128.869 108.773 128.869 108.522 128.994C108.27 129.183 108.082 129.497 107.956 129.873C107.642 130.627 107.517 131.506 108.145 131.82C108.836 132.197 109.778 132.134 110.657 132.008C109.841 132.385 108.898 132.699 107.893 132.385C107.391 132.197 106.951 131.632 106.888 131.066C106.826 130.501 106.888 130.062 107.077 129.559C107.203 129.057 107.391 128.555 107.893 128.178C108.396 127.738 109.087 127.675 109.652 127.801C110.72 128.115 111.474 128.743 112.165 129.497L111.223 130.062C110.72 128.743 109.841 127.424 108.584 126.796C107.956 126.482 107.203 126.357 106.637 126.671C105.946 127.048 105.569 127.801 105.381 128.555Z"
        fill="#450D20" />
    <path
        d="M148.156 92.5099C147.842 92.3843 147.528 92.3215 147.214 92.3215C143.759 92.0703 134.714 91.1912 125.732 94.9589C122.78 96.0892 115.18 102.118 114.426 103.311C110.406 108.083 107.077 114.802 105.381 124.222C104.502 124.975 103.748 125.917 103.434 127.048C102.806 128.994 103.245 131.255 104.376 133.013C105.318 134.457 106.826 135.839 108.459 136.467C108.836 136.655 110.657 136.907 111.976 136.844C112.102 137.786 112.416 139.607 112.73 142.119C109.15 143.249 105.507 144.254 101.801 144.128C97.5922 144.002 93.2581 142.181 91.1853 138.539C89.3638 135.274 89.6778 131.192 90.8713 127.676C92.0647 124.096 94.0119 120.894 95.3938 117.377C97.7806 111.286 98.4716 104.504 101.989 98.9778C105.632 93.2634 111.913 89.5585 118.572 88.177C125.167 86.7955 132.076 87.4234 138.734 88.8049C142.063 89.4329 145.455 90.3748 148.156 92.5099Z"
        fill="#1C264B" />
    <path
        d="M113.798 153.799C111.788 154.992 109.338 155.62 107.077 155.431C107.831 154.301 108.396 152.543 108.208 151.161C106.072 152.605 103.245 152.919 100.858 152.103C103.811 150.533 105.255 147.079 105.695 143.751C106.072 140.863 105.883 137.911 106.135 135.023C106.826 135.651 107.642 136.09 108.459 136.404C108.836 136.593 110.657 136.844 111.976 136.781C112.29 138.853 113.421 145.949 113.798 153.799Z"
        fill="#450D20" />
    <path
        d="M110.783 123.343C112.479 125.729 113.547 128.492 113.861 131.38C118.886 128.241 121.838 122.212 121.147 116.31C128.119 114.112 134.463 110.218 139.677 105.069C144.073 109.088 149.789 112.039 155.694 112.856C155.694 112.856 155.066 104.316 151.548 100.736C148.031 97.2196 130.82 98.4127 124.602 103.625C118.32 108.837 110.783 123.343 110.783 123.343Z"
        fill="#450D20" />
    <path
        d="M105.381 124.222C105.381 124.222 108.773 121.961 111.851 124.724C111.851 124.724 121.398 93.2006 153.558 103.75C153.558 103.75 153.495 98.5383 149.664 93.5774C149.098 92.8239 148.219 92.3215 147.277 92.2587C140.493 91.8191 111.851 88.7421 105.381 124.222Z"
        fill="#405B80" />
    <path
        d="M108.145 114.614C109.464 114.614 110.657 115.054 111.788 115.682C112.856 116.309 113.923 117.063 114.614 118.193C113.358 117.817 112.29 117.251 111.285 116.686C110.155 116.058 109.15 115.493 108.145 114.614Z"
        fill="#88A3CA" />
    <path
        d="M115.305 102.243C116.687 102.997 117.818 104.064 118.886 105.132C119.953 106.262 120.896 107.392 121.649 108.774C120.268 108.02 119.137 106.953 118.069 105.885C117.064 104.818 116.059 103.688 115.305 102.243Z"
        fill="#88A3CA" />
    <path
        d="M127.177 94.5193C128.245 95.7753 128.998 97.2196 129.627 98.7267C130.192 100.234 130.632 101.804 130.632 103.499C129.752 102.118 129.124 100.611 128.559 99.1662C127.993 97.6591 127.491 96.152 127.177 94.5193Z"
        fill="#88A3CA" />
    <path
        d="M139.048 92.1959C139.865 93.6402 140.305 95.2101 140.619 96.78C140.87 98.3499 141.058 99.9826 140.744 101.615C140.116 100.045 139.802 98.5383 139.488 96.9684C139.237 95.4613 139.048 93.8914 139.048 92.1959Z"
        fill="#88A3CA" />
    <path
        d="M147.34 93.2007C148.219 94.5194 148.659 96.0893 148.91 97.6592C149.098 99.2291 149.036 100.799 148.47 102.306C148.156 100.736 147.968 99.2919 147.779 97.7848C147.591 96.2777 147.34 94.8334 147.34 93.2007Z"
        fill="#88A3CA" />
    <path
        d="M99.351 124.913C100.168 124.222 101.173 123.971 102.115 123.845C103.12 123.782 104.125 123.971 105.004 124.536C103.999 124.85 103.12 124.913 102.178 124.975C101.298 125.038 100.419 125.038 99.351 124.913Z"
        fill="#46548D" />
    <path d="M308.391 339.235H586.964L608.886 292.201H330.313L308.391 339.235Z" fill="#C56E51" />
    <path d="M632.629 307.02H354.056V464.512H632.629V307.02Z" fill="#C56E51" />
    <path d="M354.056 464.512L331.192 449.692V292.201L354.056 307.02V464.512Z" fill="#793637" />
    <path d="M354.056 307.02L331.192 292.201H610.393L632.629 307.02H354.056Z" fill="#C56E51" />
    <path d="M654.488 354.054H375.914L353.993 307.02H632.566L654.488 354.054Z" fill="#EE8662" />
    <path d="M590.67 376.975H401.228V414.841H590.67V376.975Z" fill="#EE8662" />
    <path
        d="M420.804 420.216H410.86V387.992H421.245C424.371 387.992 427.046 388.637 429.27 389.927C431.493 391.207 433.198 393.048 434.383 395.45C435.569 397.842 436.161 400.705 436.161 404.041C436.161 407.398 435.564 410.288 434.368 412.711C433.172 415.124 431.431 416.98 429.144 418.281C426.857 419.571 424.077 420.216 420.804 420.216ZM414.762 416.755H420.553C423.217 416.755 425.425 416.241 427.177 415.213C428.929 414.185 430.235 412.722 431.095 410.823C431.955 408.924 432.385 406.664 432.385 404.041C432.385 401.44 431.96 399.2 431.111 397.322C430.261 395.434 428.992 393.987 427.303 392.98C425.614 391.962 423.511 391.453 420.993 391.453H414.762V416.755ZM469.897 404.104C469.897 407.503 469.283 410.44 468.056 412.916C466.828 415.391 465.145 417.3 463.005 418.643C460.865 419.986 458.421 420.657 455.672 420.657C452.924 420.657 450.48 419.986 448.34 418.643C446.2 417.3 444.517 415.391 443.289 412.916C442.062 410.44 441.448 407.503 441.448 404.104C441.448 400.705 442.062 397.768 443.289 395.293C444.517 392.817 446.2 390.908 448.34 389.565C450.48 388.223 452.924 387.551 455.672 387.551C458.421 387.551 460.865 388.223 463.005 389.565C465.145 390.908 466.828 392.817 468.056 395.293C469.283 397.768 469.897 400.705 469.897 404.104ZM466.12 404.104C466.12 401.314 465.654 398.959 464.72 397.039C463.797 395.12 462.543 393.667 460.959 392.681C459.386 391.695 457.624 391.202 455.672 391.202C453.721 391.202 451.954 391.695 450.37 392.681C448.796 393.667 447.543 395.12 446.609 397.039C445.686 398.959 445.225 401.314 445.225 404.104C445.225 406.894 445.686 409.249 446.609 411.169C447.543 413.089 448.796 414.541 450.37 415.528C451.954 416.514 453.721 417.007 455.672 417.007C457.624 417.007 459.386 416.514 460.959 415.528C462.543 414.541 463.797 413.089 464.72 411.169C465.654 409.249 466.12 406.894 466.12 404.104ZM502.011 387.992V420.216H498.235L480.675 394.915H480.36V420.216H476.458V387.992H480.234L497.857 413.356H498.172V387.992H502.011ZM511.141 420.216H507.05L518.883 387.992H522.911L534.743 420.216H530.652L521.023 393.09H520.771L511.141 420.216ZM512.652 407.629H529.142V411.09H512.652V407.629ZM534.236 391.453V387.992H558.405V391.453H548.271V420.216H544.369V391.453H534.236ZM414.762 441.992V474.216H410.86V441.992H414.762ZM449.776 458.104C449.776 461.503 449.162 464.44 447.935 466.916C446.708 469.391 445.024 471.3 442.884 472.643C440.744 473.986 438.3 474.657 435.552 474.657C432.803 474.657 430.359 473.986 428.219 472.643C426.079 471.3 424.396 469.391 423.168 466.916C421.941 464.44 421.328 461.503 421.328 458.104C421.328 454.705 421.941 451.768 423.168 449.293C424.396 446.817 426.079 444.908 428.219 443.565C430.359 442.223 432.803 441.551 435.552 441.551C438.3 441.551 440.744 442.223 442.884 443.565C445.024 444.908 446.708 446.817 447.935 449.293C449.162 451.768 449.776 454.705 449.776 458.104ZM446 458.104C446 455.314 445.533 452.959 444.599 451.039C443.676 449.12 442.423 447.667 440.839 446.681C439.265 445.695 437.503 445.202 435.552 445.202C433.601 445.202 431.833 445.695 430.249 446.681C428.676 447.667 427.422 449.12 426.488 451.039C425.565 452.959 425.104 455.314 425.104 458.104C425.104 460.894 425.565 463.249 426.488 465.169C427.422 467.089 428.676 468.541 430.249 469.528C431.833 470.514 433.601 471.007 435.552 471.007C437.503 471.007 439.265 470.514 440.839 469.528C442.423 468.541 443.676 467.089 444.599 465.169C445.533 463.249 446 460.894 446 458.104ZM481.89 441.992V474.216H478.114L460.554 448.915H460.239V474.216H456.337V441.992H460.114L477.737 467.356H478.051V441.992H481.89ZM507.322 450.048C507.133 448.453 506.367 447.216 505.024 446.335C503.682 445.453 502.035 445.013 500.084 445.013C498.657 445.013 497.409 445.244 496.339 445.705C495.279 446.167 494.451 446.801 493.853 447.609C493.265 448.417 492.972 449.335 492.972 450.363C492.972 451.223 493.176 451.962 493.585 452.581C494.005 453.19 494.54 453.698 495.19 454.108C495.841 454.506 496.522 454.837 497.236 455.099C497.949 455.351 498.605 455.555 499.203 455.712L502.475 456.594C503.315 456.814 504.248 457.118 505.276 457.506C506.315 457.894 507.306 458.424 508.25 459.095C509.205 459.756 509.991 460.606 510.61 461.644C511.229 462.683 511.539 463.957 511.539 465.468C511.539 467.209 511.082 468.783 510.17 470.188C509.268 471.594 507.946 472.711 506.205 473.54C504.474 474.369 502.371 474.783 499.895 474.783C497.587 474.783 495.589 474.411 493.9 473.666C492.222 472.921 490.9 471.883 489.935 470.55C488.98 469.218 488.44 467.671 488.314 465.909H492.342C492.447 467.125 492.856 468.132 493.57 468.93C494.293 469.716 495.206 470.304 496.307 470.692C497.419 471.07 498.615 471.258 499.895 471.258C501.385 471.258 502.722 471.017 503.907 470.535C505.093 470.042 506.031 469.36 506.724 468.489C507.416 467.608 507.762 466.58 507.762 465.405C507.762 464.335 507.463 463.464 506.865 462.793C506.268 462.122 505.481 461.576 504.505 461.157C503.53 460.737 502.475 460.37 501.343 460.055L497.377 458.922C494.86 458.199 492.867 457.165 491.398 455.823C489.93 454.48 489.195 452.723 489.195 450.551C489.195 448.747 489.683 447.174 490.659 445.831C491.645 444.478 492.966 443.429 494.624 442.684C496.292 441.929 498.154 441.551 500.21 441.551C502.287 441.551 504.133 441.924 505.748 442.668C507.364 443.403 508.643 444.41 509.588 445.689C510.542 446.969 511.046 448.422 511.098 450.048H507.322Z"
        fill="#793637" />
    <path
        d="M625.783 307.02C626.097 305.011 625.029 302.75 623.333 301.431C621.26 299.799 618.622 299.171 616.109 298.417C605.62 295.089 595.947 288.119 584.954 288.244C578.171 288.307 571.764 291.133 565.357 293.519C559.013 295.843 552.041 297.789 545.508 296.094C541.739 295.089 538.41 292.954 534.767 291.573C531.124 290.191 526.79 289.626 523.524 291.635C521.011 293.205 519.504 296.094 519.064 298.982C518.624 301.683 519.064 304.446 519.692 307.083H625.783V307.02Z"
        fill="#793637" />
    <path
        d="M527.858 302.562C527.418 302.499 527.104 302.185 526.853 301.871C526.664 301.494 526.539 301.055 526.602 300.615C526.602 300.176 526.727 299.736 526.978 299.359C527.23 298.982 527.544 298.668 527.921 298.48C529.491 297.664 531.312 297.915 532.946 298.04C536.275 298.417 539.541 299.234 542.744 300.05C545.948 300.803 549.151 301.683 552.417 301.997C555.684 302.373 558.95 302.311 562.279 302.122C568.874 301.745 575.47 300.615 582.191 300.866C585.52 300.992 588.912 301.369 592.115 302.373C595.318 303.315 598.396 304.885 600.909 307.02C598.208 305.074 595.193 303.692 591.989 302.876C588.786 302.059 585.52 301.745 582.191 301.745C575.595 301.683 569 302.813 562.342 303.252C559.013 303.441 555.621 303.441 552.292 303.064C548.963 302.625 545.697 301.808 542.493 300.929C539.29 300.05 536.086 299.108 532.82 298.606C531.187 298.354 529.491 298.04 528.046 298.731C527.669 298.92 527.355 299.171 527.167 299.485C526.916 299.799 526.79 300.176 526.79 300.615C526.664 301.431 527.041 302.373 527.858 302.562Z"
        fill="#581416" />
    <path
        d="M590.042 302.373C592.429 301.055 594.879 299.924 597.328 298.731C599.778 297.538 602.165 296.345 604.74 295.277C602.668 297.099 600.281 298.543 597.831 299.736C595.318 300.929 592.743 301.871 590.042 302.373Z"
        fill="#581416" />
    <path
        d="M445.197 307.02C445.197 307.02 440.486 298.103 445.197 292.201C449.908 286.298 518.373 288.119 520.509 293.142C522.644 298.166 523.398 304.006 520.509 307.02H445.197Z"
        fill="#FFD9B1" />
    <path
        d="M501.477 298.041C502.733 298.103 504.115 298.166 505.12 299.045C505.622 299.485 505.999 300.113 505.999 300.804C505.999 301.494 505.622 302.122 505.12 302.562C504.052 303.441 502.67 303.504 501.414 303.629C500.158 303.755 498.838 303.881 497.582 304.006C492.494 304.383 487.344 304.446 482.193 304.32C479.618 304.257 477.105 304.195 474.53 304.132C471.955 304.006 469.442 303.943 466.867 303.692C464.292 303.441 461.716 303.001 459.267 302.122C458.638 301.871 458.01 301.683 457.445 301.369C457.131 301.243 456.88 301.055 456.566 300.929C456.252 300.804 456 300.678 455.623 300.427C455.309 300.176 454.932 299.736 454.995 299.171C455.058 298.606 455.435 298.229 455.749 297.978C456.063 297.727 456.44 297.601 456.754 297.538L457.696 297.224C460.209 296.471 462.721 296.031 465.234 295.591C467.746 295.152 470.322 294.838 472.834 294.524C477.922 293.959 483.073 293.708 488.223 293.77C493.374 293.833 498.462 294.21 503.549 294.838C508.637 295.529 513.662 296.471 518.624 297.727C513.599 296.722 508.574 295.905 503.487 295.403C498.399 294.901 493.311 294.65 488.223 294.65C483.135 294.712 478.047 294.964 472.96 295.591C470.447 295.843 467.935 296.219 465.422 296.659C462.91 297.099 460.397 297.601 458.01 298.292C457.445 298.48 456.754 298.668 456.377 298.92C456.189 299.045 456.063 299.171 456.063 299.234C456.063 299.296 456.063 299.422 456.252 299.548C456.44 299.673 456.691 299.862 457.005 299.987C457.257 300.113 457.571 300.301 457.822 300.427C458.387 300.678 458.952 300.929 459.518 301.118C461.842 301.934 464.354 302.436 466.867 302.687C469.379 302.939 471.955 303.064 474.467 303.19L482.13 303.504C487.218 303.692 492.306 303.755 497.457 303.504C498.713 303.441 500.032 303.378 501.288 303.253C502.544 303.127 503.863 303.127 504.868 302.373C505.371 301.997 505.685 301.431 505.685 300.866C505.685 300.238 505.371 299.673 504.931 299.234C504.115 298.292 502.733 298.166 501.477 298.041Z"
        fill="#F2AB61" />
    <path
        d="M614.979 392.862C612.906 394.244 610.833 395.625 608.76 397.007C608.446 397.195 608.132 397.446 607.818 397.635C602.793 401.026 597.831 404.479 592.932 407.996C592.68 408.184 592.492 408.31 592.241 408.498C591.927 408.75 591.613 408.938 591.298 409.189C588.535 411.199 585.645 413.208 582.819 415.28C580.369 413.334 578.296 411.01 576.663 408.436C573.397 403.286 571.701 397.321 571.073 391.167C571.01 390.79 571.01 390.413 570.947 390.036C570.696 387.462 570.696 384.824 570.759 382.25C571.01 375.279 572.078 368.372 573.02 361.464C573.083 361.087 573.146 360.711 573.146 360.334C573.397 358.638 573.585 356.88 573.711 355.185C574.213 350.035 574.339 344.823 573.837 339.674C573.774 339.297 573.774 338.921 573.711 338.481C573.271 335.027 572.392 331.573 571.136 328.308C569.44 324.101 567.995 321.087 566.173 318.575C565.859 318.135 565.545 317.758 565.294 317.319C562.53 313.802 559.076 311.039 553.423 306.958H606.248C608.698 310.851 610.456 315.184 611.461 319.705C611.524 320.082 611.65 320.459 611.713 320.835C612.529 325.482 612.592 330.255 611.713 334.902C611.336 336.974 610.77 339.046 610.079 341.056C609.954 341.432 609.828 341.809 609.703 342.186C607.441 348.842 604.426 355.31 603.735 362.155C603.673 362.532 603.673 362.909 603.673 363.285C603.61 363.725 603.61 364.165 603.61 364.667C603.484 370.758 605.431 376.598 608.321 382.187C608.509 382.501 608.698 382.878 608.823 383.192C610.582 386.645 612.717 389.848 614.979 392.862Z"
        fill="#C78742" />
    <path opacity="0.5"
        d="M600.469 338.921C600.846 333.206 601.286 327.052 601.286 320.835C604.489 320.898 607.63 320.961 610.833 320.961H611.713C611.65 320.584 611.587 320.207 611.461 319.831C608.069 319.831 604.678 319.768 601.286 319.705C601.286 315.498 601.034 311.29 600.532 307.083H599.401C599.967 311.29 600.155 315.498 600.218 319.705C596.261 319.642 592.303 319.454 588.346 319.265C588.66 315.247 588.974 311.165 589.226 307.083H588.095C587.844 311.165 587.53 315.184 587.216 319.203C579.929 318.826 572.58 318.261 565.357 317.444C565.671 317.821 565.985 318.261 566.236 318.7C573.146 319.454 580.118 319.956 587.09 320.333C586.902 322.719 586.713 325.043 586.462 327.366C586.085 331.636 585.708 335.906 585.394 340.239C581.5 339.8 577.605 339.297 573.774 338.607C573.837 338.983 573.837 339.36 573.899 339.8C577.668 340.428 581.5 340.93 585.331 341.37C584.829 347.963 584.452 354.557 584.326 361.15L573.208 360.46C573.146 360.836 573.146 361.213 573.083 361.59L584.389 362.281C584.326 371.512 584.892 380.115 586.085 388.027C581.123 388.969 576.161 389.66 571.073 390.162C571.073 390.539 571.136 390.916 571.198 391.292C576.286 390.79 581.311 390.036 586.273 389.157C587.467 396.379 589.163 403.098 591.424 409.315C591.738 409.126 592.052 408.875 592.366 408.624C590.168 402.596 588.472 396.002 587.341 388.969C592.303 388.027 597.266 386.834 602.102 385.515C603.61 390.036 605.557 394.118 607.881 397.823C608.195 397.635 608.509 397.383 608.823 397.195C606.499 393.616 604.615 389.597 603.17 385.264C605.054 384.699 606.939 384.134 608.823 383.506C608.635 383.192 608.446 382.815 608.321 382.501C606.499 383.066 604.677 383.631 602.793 384.196C602.039 381.747 601.411 379.236 600.972 376.598C600.155 372.265 599.778 367.807 599.652 363.411L603.735 363.662C603.735 363.285 603.798 362.909 603.798 362.532L599.59 362.281C599.464 355.687 599.841 349.094 600.281 342.563C602.039 342.626 603.861 342.626 605.62 342.626C607.002 342.626 608.383 342.626 609.765 342.563C609.891 342.186 610.017 341.809 610.142 341.432C606.876 341.495 603.61 341.495 600.343 341.432C600.406 340.93 600.406 340.365 600.469 339.863V338.921ZM585.394 361.088C585.52 354.557 585.897 347.963 586.336 341.37C590.545 341.809 594.816 342.123 599.024 342.249C598.585 348.78 598.208 355.373 598.333 361.967L585.331 361.15V361.088H585.394ZM599.778 376.598C600.281 379.236 600.909 381.81 601.663 384.322C596.826 385.641 591.989 386.834 587.09 387.776C585.897 379.989 585.331 371.512 585.457 362.343L598.459 363.16C598.585 367.618 598.962 372.14 599.778 376.598ZM599.338 338.795L599.276 339.486C599.213 340.051 599.213 340.553 599.15 341.118C594.942 340.993 590.67 340.679 586.462 340.302C586.776 335.969 587.216 331.636 587.53 327.429C587.718 325.106 587.969 322.719 588.158 320.396C592.115 320.584 596.135 320.71 600.092 320.835C600.155 326.989 599.715 333.081 599.338 338.795Z"
        fill="#C78742" />
    <path
        d="M447.144 305.074C446.955 305.513 446.767 305.89 446.516 306.141C446.139 306.706 445.699 307.02 445.197 307.02H356.38C356.38 307.02 353.867 303.315 353.176 299.045C353.113 298.668 353.051 298.292 353.051 297.915C352.862 295.152 353.553 292.263 356.38 290.128C357.385 289.312 359.772 288.684 363.163 288.119C363.603 288.056 364.043 287.993 364.483 287.93C369.696 287.177 376.919 286.674 384.834 286.36C385.273 286.36 385.776 286.298 386.216 286.298C390.047 286.172 394.004 286.047 398.024 286.047C399.532 286.047 401.039 286.047 402.547 286.047C404.808 286.047 407.007 286.047 409.268 286.047C409.77 286.047 410.21 286.047 410.712 286.047C418.627 286.109 426.039 286.36 432.132 286.737C432.634 286.8 433.137 286.8 433.576 286.863C440.423 287.302 445.197 287.93 446.327 288.621C446.39 288.684 446.39 288.684 446.453 288.684C446.704 288.935 446.955 289.186 447.207 289.563C449.279 292.891 448.84 301.243 447.144 305.074Z"
        fill="#00A284" />
    <path opacity="0.5"
        d="M437.596 292.326C440.8 291.384 443.94 290.442 447.144 289.5C446.892 289.186 446.704 288.872 446.39 288.621C446.327 288.621 446.327 288.558 446.264 288.558C443.124 289.5 439.983 290.379 436.842 291.384C435.712 289.877 434.644 288.37 433.513 286.8C433.011 286.737 432.571 286.737 432.069 286.674C433.262 288.37 434.455 290.003 435.712 291.698C430.247 293.331 424.845 295.026 419.381 296.785C416.366 293.268 413.476 289.626 410.65 286.047C410.147 286.047 409.707 286.047 409.205 286.047C412.157 289.814 415.172 293.519 418.25 297.224C412.408 299.108 406.567 300.992 400.725 303.001C396.58 298.731 392.56 294.336 388.854 289.689L402.547 286.109C401.039 286.109 399.532 286.109 398.024 286.109L388.1 288.747C387.472 287.993 386.844 287.177 386.216 286.36C385.776 286.36 385.273 286.423 384.834 286.423C385.525 287.302 386.215 288.182 386.906 289.061L369.382 293.708C367.749 291.824 366.053 289.94 364.482 288.056C364.043 288.119 363.603 288.182 363.163 288.244C364.796 290.191 366.492 292.138 368.188 294.022L353.113 297.978C353.113 298.354 353.176 298.731 353.239 299.108L369.005 294.964C372.711 299.108 376.48 303.127 380.374 307.083H381.944C377.924 303.064 373.967 298.857 370.198 294.65L387.66 290.065C391.429 294.712 395.386 299.171 399.595 303.441C396.077 304.634 392.497 305.89 388.979 307.083H392.371C395.072 306.141 397.773 305.199 400.474 304.32C401.416 305.262 402.358 306.204 403.301 307.083H404.934C403.866 306.016 402.735 304.948 401.667 303.88C407.446 301.934 413.288 299.987 419.129 298.166C421.705 301.18 424.28 304.132 426.918 307.083H428.426C425.662 304.006 422.961 300.929 420.26 297.789C425.662 296.031 431.064 294.398 436.466 292.766C439.795 297.287 443.124 301.808 446.516 306.204C446.704 305.89 446.955 305.513 447.144 305.136C443.94 300.866 440.737 296.596 437.596 292.326Z"
        fill="#00A284" />
    <path
        d="M437.031 297.727C429.996 297.978 422.961 298.041 415.926 298.166C408.891 298.229 401.856 298.229 394.821 298.292C387.786 298.229 380.751 298.229 373.716 298.166L368.44 298.103L365.802 298.041C364.922 297.978 364.168 298.166 363.415 298.543C361.97 299.296 361.028 301.055 361.279 302.75C361.53 304.446 362.535 306.078 363.98 307.02C362.472 306.141 361.342 304.571 361.028 302.75C360.651 300.929 361.593 298.982 363.163 298.041C363.98 297.538 364.922 297.35 365.864 297.35L368.503 297.287L373.779 297.224C380.814 297.161 387.849 297.161 394.884 297.099C401.919 297.161 408.954 297.161 415.989 297.224C422.961 297.413 429.996 297.538 437.031 297.727Z"
        fill="#DB9E41" />
    <path
        d="M56.6384 85.7907C56.6384 79.1344 51.2365 73.7967 44.6412 73.7967C51.2994 73.7967 56.6384 68.3963 56.6384 61.8027C56.6384 68.4591 62.0403 73.7967 68.6356 73.7967C62.0403 73.7967 56.6384 79.1344 56.6384 85.7907Z"
        fill="#FFF6ED" />
    <path
        d="M72.5928 63.1842C72.5928 58.8513 69.0753 55.3348 64.7412 55.3348C69.0753 55.3348 72.5928 51.8182 72.5928 47.4853C72.5928 51.8182 76.1103 55.3348 80.4443 55.3348C76.1103 55.3348 72.5928 58.8513 72.5928 63.1842Z"
        fill="#FFF6ED" />
    <path
        d="M285.087 34.6122C285.087 26.8883 278.806 20.6087 271.08 20.6087C278.806 20.6087 285.087 14.3291 285.087 6.60522C285.087 14.3291 291.369 20.6087 299.095 20.6087C291.369 20.5459 285.087 26.8255 285.087 34.6122Z"
        fill="#FFF6ED" />
    <path
        d="M15.7475 168.179C15.7475 159.576 8.7753 152.543 0.107178 152.543C8.71249 152.543 15.7475 145.572 15.7475 136.906C15.7475 145.51 22.7197 152.543 31.3878 152.543C22.7197 152.543 15.7475 159.513 15.7475 168.179Z"
        fill="#FFF6ED" />
    <path
        d="M732.375 164.537C732.375 160.204 728.858 156.687 724.524 156.687C728.858 156.687 732.375 153.171 732.375 148.838C732.375 153.171 735.893 156.687 740.227 156.687C735.893 156.687 732.375 160.204 732.375 164.537Z"
        fill="#FFF6ED" />
    <path
        d="M740.227 152.668C740.227 145.761 734.636 140.172 727.727 140.172C734.636 140.172 740.227 134.583 740.227 127.676C740.227 134.583 745.817 140.172 752.727 140.172C745.817 140.172 740.227 145.761 740.227 152.668Z"
        fill="#FFF6ED" />
    <path
        d="M405.876 89.1817C405.876 82.2742 400.286 76.6853 393.376 76.6853C400.286 76.6853 405.876 71.0965 405.876 64.189C405.876 71.0965 411.466 76.6853 418.376 76.6853C411.466 76.6853 405.876 82.2742 405.876 89.1817Z"
        fill="#FFF6ED" />
</svg>